<svg width="554" height="491" viewBox="0 0 554 491" fill="none" xmlns="http://www.w3.org/2000/svg">
<path d="M546.047 140.637H472.014V490.745H546.047V140.637Z" fill="#B8864C"/>
<path d="M549.743 166.15H468.31V250.198H549.743V166.15Z" fill="#976E3F"/>
<path d="M526.918 103.897H491.139L472.014 140.637H546.043L526.918 103.897Z" fill="#435053"/>
<path d="M509.03 15.9241C506.756 37.8259 500.547 58.4701 490.932 78.0222H527.128C517.719 57.1988 511.207 36.4822 509.03 15.9241Z" fill="#435053"/>
<path d="M526.921 78.0225H491.138V103.897H526.921V78.0225Z" fill="#B8864C"/>
<path d="M513.843 20.1104H504.213V22.9011H513.843V20.1104Z" fill="#435053"/>
<path d="M509.03 24.2963C508.486 24.2963 508.045 23.8553 508.045 23.3109V0.985354C508.045 0.440996 508.486 0 509.03 0C509.575 0 510.016 0.440996 510.016 0.985354V23.3109C510.016 23.8553 509.571 24.2963 509.03 24.2963Z" fill="#435053"/>
<path d="M511.573 6.89739C511.573 8.30308 510.433 9.44348 509.027 9.44348C507.621 9.44348 506.484 8.30308 506.484 6.89739C506.484 5.49171 507.625 4.35132 509.027 4.35132C510.433 4.35132 511.573 5.49171 511.573 6.89739Z" fill="#435053"/>
<path d="M546.047 430.119H472.014V440.623H546.047V430.119Z" fill="#976E3F"/>
<path d="M546.047 365.767H472.014V376.272H546.047V365.767Z" fill="#976E3F"/>
<path d="M546.047 301.416H472.014V311.921H546.047V301.416Z" fill="#976E3F"/>
<path opacity="0.3" d="M483.686 254.357C482.418 254.357 481.388 255.387 481.388 256.655V484.944C481.388 486.212 482.418 487.242 483.686 487.242C484.954 487.242 485.984 486.212 485.984 484.944V256.655C485.984 255.387 484.954 254.357 483.686 254.357Z" fill="#10100F"/>
<path opacity="0.3" d="M493.821 254.357C492.554 254.357 491.523 255.387 491.523 256.655V484.944C491.523 486.212 492.554 487.242 493.821 487.242C495.089 487.242 496.119 486.212 496.119 484.944V256.655C496.119 255.387 495.093 254.357 493.821 254.357Z" fill="#10100F"/>
<path opacity="0.3" d="M503.957 254.357C502.689 254.357 501.659 255.387 501.659 256.655V484.944C501.659 486.212 502.689 487.242 503.957 487.242C505.225 487.242 506.255 486.212 506.255 484.944V256.655C506.259 255.387 505.228 254.357 503.957 254.357Z" fill="#10100F"/>
<path opacity="0.3" d="M514.098 254.357C512.83 254.357 511.8 255.387 511.8 256.655V484.944C511.8 486.212 512.83 487.242 514.098 487.242C515.366 487.242 516.396 486.212 516.396 484.944V256.655C516.396 255.387 515.366 254.357 514.098 254.357Z" fill="#10100F"/>
<path opacity="0.3" d="M524.234 254.357C522.966 254.357 521.936 255.387 521.936 256.655V484.944C521.936 486.212 522.966 487.242 524.234 487.242C525.501 487.242 526.532 486.212 526.532 484.944V256.655C526.532 255.387 525.501 254.357 524.234 254.357Z" fill="#10100F"/>
<path opacity="0.3" d="M534.37 254.357C533.102 254.357 532.072 255.387 532.072 256.655V484.944C532.072 486.212 533.102 487.242 534.37 487.242C535.638 487.242 536.668 486.212 536.668 484.944V256.655C536.668 255.387 535.641 254.357 534.37 254.357Z" fill="#10100F"/>
<path opacity="0.3" d="M480.53 232.251C479.103 232.251 477.946 232.307 477.946 232.376V244.82C477.946 244.889 479.103 244.944 480.53 244.944C481.956 244.944 483.114 244.889 483.114 244.82V232.376C483.117 232.307 481.96 232.251 480.53 232.251Z" fill="#10100F"/>
<path opacity="0.3" d="M491.931 232.251C490.504 232.251 489.347 232.307 489.347 232.376V244.82C489.347 244.889 490.504 244.944 491.931 244.944C493.357 244.944 494.515 244.889 494.515 244.82V232.376C494.515 232.307 493.357 232.251 491.931 232.251Z" fill="#10100F"/>
<path opacity="0.3" d="M503.328 232.251C501.902 232.251 500.744 232.307 500.744 232.376V244.82C500.744 244.889 501.902 244.944 503.328 244.944C504.754 244.944 505.912 244.889 505.912 244.82V232.376C505.912 232.307 504.758 232.251 503.328 232.251Z" fill="#10100F"/>
<path opacity="0.3" d="M514.727 232.251C513.301 232.251 512.143 232.307 512.143 232.376V244.82C512.143 244.889 513.301 244.944 514.727 244.944C516.153 244.944 517.311 244.889 517.311 244.82V232.376C517.311 232.307 516.153 232.251 514.727 232.251Z" fill="#10100F"/>
<path opacity="0.3" d="M526.125 232.251C524.699 232.251 523.541 232.307 523.541 232.376V244.82C523.541 244.889 524.699 244.944 526.125 244.944C527.551 244.944 528.709 244.889 528.709 244.82V232.376C528.709 232.307 527.555 232.251 526.125 232.251Z" fill="#10100F"/>
<path opacity="0.3" d="M537.525 232.251C536.099 232.251 534.941 232.307 534.941 232.376V244.82C534.941 244.889 536.099 244.944 537.525 244.944C538.952 244.944 540.109 244.889 540.109 244.82V232.376C540.109 232.307 538.952 232.251 537.525 232.251Z" fill="#10100F"/>
<path opacity="0.3" d="M482.9 146.232C481.591 146.232 480.53 146.291 480.53 146.363V159.238C480.53 159.311 481.591 159.369 482.9 159.369C484.209 159.369 485.27 159.311 485.27 159.238V146.363C485.27 146.291 484.209 146.232 482.9 146.232Z" fill="#10100F"/>
<path opacity="0.3" d="M493.354 146.232C492.045 146.232 490.984 146.291 490.984 146.363V159.238C490.984 159.311 492.045 159.369 493.354 159.369C494.663 159.369 495.725 159.311 495.725 159.238V146.363C495.721 146.291 494.66 146.232 493.354 146.232Z" fill="#10100F"/>
<path opacity="0.3" d="M503.802 146.232C502.493 146.232 501.432 146.291 501.432 146.363V159.238C501.432 159.311 502.493 159.369 503.802 159.369C505.112 159.369 506.173 159.311 506.173 159.238V146.363C506.173 146.291 505.112 146.232 503.802 146.232Z" fill="#10100F"/>
<path opacity="0.3" d="M514.253 146.232C512.943 146.232 511.882 146.291 511.882 146.363V159.238C511.882 159.311 512.943 159.369 514.253 159.369C515.562 159.369 516.623 159.311 516.623 159.238V146.363C516.623 146.291 515.562 146.232 514.253 146.232Z" fill="#10100F"/>
<path opacity="0.3" d="M524.705 146.232C523.396 146.232 522.334 146.291 522.334 146.363V159.238C522.334 159.311 523.396 159.369 524.705 159.369C526.014 159.369 527.075 159.311 527.075 159.238V146.363C527.072 146.291 526.011 146.232 524.705 146.232Z" fill="#10100F"/>
<path opacity="0.3" d="M535.155 146.232C533.846 146.232 532.785 146.291 532.785 146.363V159.238C532.785 159.311 533.846 159.369 535.155 159.369C536.464 159.369 537.525 159.311 537.525 159.238V146.363C537.525 146.291 536.464 146.232 535.155 146.232Z" fill="#10100F"/>
<path opacity="0.3" d="M495.721 80.2343C495.056 80.2343 494.515 80.3273 494.515 80.4444V101.471C494.515 101.588 495.056 101.685 495.721 101.685C496.385 101.685 496.926 101.592 496.926 101.471V80.4444C496.93 80.3307 496.389 80.2343 495.721 80.2343Z" fill="#10100F"/>
<path opacity="0.3" d="M501.043 80.2343C500.378 80.2343 499.837 80.3273 499.837 80.4444V101.471C499.837 101.588 500.378 101.685 501.043 101.685C501.708 101.685 502.249 101.592 502.249 101.471V80.4444C502.249 80.3307 501.712 80.2343 501.043 80.2343Z" fill="#10100F"/>
<path opacity="0.3" d="M506.366 80.2343C505.701 80.2343 505.16 80.3273 505.16 80.4444V101.471C505.16 101.588 505.701 101.685 506.366 101.685C507.031 101.685 507.572 101.592 507.572 101.471V80.4444C507.572 80.3307 507.034 80.2343 506.366 80.2343Z" fill="#10100F"/>
<path opacity="0.3" d="M511.691 80.2343C511.026 80.2343 510.485 80.3273 510.485 80.4444V101.471C510.485 101.588 511.026 101.685 511.691 101.685C512.359 101.685 512.897 101.592 512.897 101.471V80.4444C512.897 80.3307 512.359 80.2343 511.691 80.2343Z" fill="#10100F"/>
<path opacity="0.3" d="M517.013 80.2343C516.348 80.2343 515.807 80.3273 515.807 80.4444V101.471C515.807 101.588 516.348 101.685 517.013 101.685C517.678 101.685 518.219 101.592 518.219 101.471V80.4444C518.219 80.3307 517.678 80.2343 517.013 80.2343Z" fill="#10100F"/>
<path opacity="0.3" d="M522.336 80.2343C521.671 80.2343 521.13 80.3273 521.13 80.4444V101.471C521.13 101.588 521.671 101.685 522.336 101.685C523.001 101.685 523.542 101.592 523.542 101.471V80.4444C523.542 80.3307 523.001 80.2343 522.336 80.2343Z" fill="#10100F"/>
<path d="M540.106 172.933H477.946V226.339H540.106V172.933Z" fill="#CB9B6A"/>
<path d="M541.423 227.655H476.634V171.621H541.423V227.655ZM479.263 225.03H538.797V174.246H479.263V225.03Z" fill="#B8864C"/>
<path d="M553.351 162.429H464.707V169.871H553.351V162.429Z" fill="#976E3F"/>
<path d="M547.987 136.916H470.068V144.358H547.987V136.916Z" fill="#976E3F"/>
<path d="M528.709 70.5804H489.347V78.0223H528.709V70.5804Z" fill="#976E3F"/>
<path d="M473.038 116.027L470.068 136.916H476.004L473.038 116.027Z" fill="#B8864C"/>
<path d="M491.71 53.9292L489.347 70.5804H494.077L491.71 53.9292Z" fill="#B8864C"/>
<path d="M526.347 53.9292L523.98 70.5804H528.71L526.347 53.9292Z" fill="#B8864C"/>
<path d="M467.673 145.261L464.707 162.429H470.643L467.673 145.261Z" fill="#B8864C"/>
<path d="M549.746 145.261L546.78 162.429H552.713L549.746 145.261Z" fill="#B8864C"/>
<path d="M545.024 116.027L542.054 136.916H547.99L545.024 116.027Z" fill="#B8864C"/>
<path opacity="0.5" d="M493.286 132.834H488.507V125.337C488.507 124.031 489.565 122.97 490.874 122.97H490.922C492.228 122.97 493.286 124.028 493.286 125.337V132.834Z" fill="#10100F"/>
<path opacity="0.5" d="M505.375 132.834H500.596V125.337C500.596 124.031 501.654 122.97 502.96 122.97H503.008C504.314 122.97 505.375 124.028 505.375 125.337V132.834Z" fill="#10100F"/>
<path opacity="0.5" d="M517.462 132.834H512.683V125.337C512.683 124.031 513.741 122.97 515.047 122.97H515.095C516.401 122.97 517.458 124.028 517.458 125.337L517.462 132.834Z" fill="#10100F"/>
<path opacity="0.5" d="M529.551 132.834H524.772V125.337C524.772 124.031 525.83 122.97 527.135 122.97H527.184C528.489 122.97 529.547 124.028 529.547 125.337V132.834H529.551Z" fill="#10100F"/>
<path opacity="0.5" d="M499.332 118.88H494.553V111.383C494.553 110.077 495.611 109.016 496.917 109.016H496.965C498.271 109.016 499.332 110.074 499.332 111.383V118.88Z" fill="#10100F"/>
<path opacity="0.5" d="M511.417 118.88H506.639V111.383C506.639 110.077 507.696 109.016 509.006 109.016H509.054C510.36 109.016 511.417 110.074 511.417 111.383V118.88Z" fill="#10100F"/>
<path opacity="0.5" d="M523.505 118.88H518.726V111.383C518.726 110.077 519.784 109.016 521.09 109.016H521.138C522.444 109.016 523.501 110.074 523.501 111.383L523.505 118.88Z" fill="#10100F"/>
<path opacity="0.5" d="M503.36 68.0205H500.566V63.638C500.566 62.8732 501.186 62.2565 501.947 62.2565H501.975C502.74 62.2565 503.357 62.8766 503.357 63.638L503.36 68.0205Z" fill="#10100F"/>
<path opacity="0.5" d="M506.558 56.8094H503.764V52.427C503.764 51.6621 504.384 51.0454 505.145 51.0454H505.173C505.938 51.0454 506.554 51.6656 506.554 52.427V56.8094H506.558Z" fill="#10100F"/>
<path opacity="0.5" d="M514.295 56.8094H511.5V52.427C511.5 51.6621 512.121 51.0454 512.882 51.0454H512.91C513.674 51.0454 514.291 51.6656 514.291 52.427L514.295 56.8094Z" fill="#10100F"/>
<path opacity="0.5" d="M510.426 68.0205H507.631V63.638C507.631 62.8732 508.252 62.2565 509.013 62.2565H509.04C509.805 62.2565 510.422 62.8766 510.422 63.638V68.0205H510.426Z" fill="#10100F"/>
<path opacity="0.5" d="M510.426 44.5994H507.631V40.217C507.631 39.4522 508.252 38.8354 509.013 38.8354H509.04C509.805 38.8354 510.422 39.4556 510.422 40.217V44.5994H510.426Z" fill="#10100F"/>
<path opacity="0.5" d="M517.493 68.0205H514.699V63.638C514.699 62.8732 515.319 62.2565 516.08 62.2565H516.108C516.873 62.2565 517.489 62.8766 517.489 63.638V68.0205H517.493Z" fill="#10100F"/>
<path d="M509.03 223.211C522.049 223.211 532.603 212.657 532.603 199.638C532.603 186.619 522.049 176.065 509.03 176.065C496.011 176.065 485.458 186.619 485.458 199.638C485.458 212.657 496.011 223.211 509.03 223.211Z" fill="white"/>
<path d="M509.03 218.543C498.608 218.543 490.126 210.06 490.126 199.638C490.126 189.213 498.608 180.734 509.03 180.734C519.456 180.734 527.935 189.213 527.935 199.638C527.935 210.064 519.452 218.543 509.03 218.543ZM509.03 182.046C499.332 182.046 491.439 189.936 491.439 199.638C491.439 209.34 499.328 217.23 509.03 217.23C518.732 217.23 526.622 209.34 526.622 199.638C526.619 189.94 518.729 182.046 509.03 182.046Z" fill="#B3B3B3"/>
<path d="M509.031 211.979C502.226 211.979 496.69 206.443 496.69 199.638C496.69 192.834 502.226 187.297 509.031 187.297C515.835 187.297 521.372 192.834 521.372 199.638C521.369 206.443 515.835 211.979 509.031 211.979ZM509.031 188.613C502.95 188.613 498.003 193.561 498.003 199.638C498.003 205.719 502.95 210.667 509.031 210.667C515.112 210.667 520.059 205.719 520.059 199.638C520.056 193.557 515.108 188.613 509.031 188.613Z" fill="#B3B3B3"/>
<path d="M520.361 178.909L514.399 189.244L515.536 189.9L521.498 179.565L520.361 178.909Z" fill="#B3B3B3"/>
<path d="M529.318 187.425L518.985 193.39L519.642 194.527L529.974 188.562L529.318 187.425Z" fill="#B3B3B3"/>
<path d="M532.851 199.228H520.92V200.541H532.851V199.228Z" fill="#B3B3B3"/>
<path d="M519.663 205.308L519.007 206.445L529.339 212.41L529.995 211.274L519.663 205.308Z" fill="#B3B3B3"/>
<path d="M515.527 209.851L514.391 210.508L520.356 220.84L521.493 220.184L515.527 209.851Z" fill="#B3B3B3"/>
<path d="M509.684 211.776H508.372V223.707H509.684V211.776Z" fill="#B3B3B3"/>
<path d="M502.513 209.83L496.549 220.163L497.686 220.82L503.65 210.486L502.513 209.83Z" fill="#B3B3B3"/>
<path d="M498.417 205.292L488.083 211.256L488.739 212.393L499.073 206.429L498.417 205.292Z" fill="#B3B3B3"/>
<path d="M497.138 199.228H485.207V200.541H497.138V199.228Z" fill="#B3B3B3"/>
<path d="M488.726 187.432L488.07 188.569L498.402 194.535L499.058 193.398L488.726 187.432Z" fill="#B3B3B3"/>
<path d="M497.672 178.933L496.535 179.59L502.501 189.922L503.637 189.266L497.672 178.933Z" fill="#B3B3B3"/>
<path d="M509.684 176.065H508.372V187.997H509.684V176.065Z" fill="#B3B3B3"/>
<path d="M509.03 224.527C495.308 224.527 484.145 213.361 484.145 199.638C484.145 185.916 495.308 174.753 509.03 174.753C522.753 174.753 533.919 185.919 533.919 199.638C533.916 213.361 522.753 224.527 509.03 224.527ZM509.03 177.378C496.755 177.378 486.77 187.363 486.77 199.638C486.77 211.914 496.755 221.898 509.03 221.898C521.306 221.898 531.291 211.914 531.291 199.638C531.291 187.363 521.303 177.378 509.03 177.378Z" fill="#59493A"/>
<path d="M516.723 204.124L515.552 205.705L491.697 186.777L516.723 204.124Z" fill="#59493A"/>
<path d="M514.346 201.667C515.035 202.181 515.179 203.152 514.666 203.845C514.153 204.534 513.181 204.679 512.489 204.169C511.8 203.655 511.655 202.684 512.168 201.991C512.682 201.302 513.657 201.158 514.346 201.667Z" fill="#59493A"/>
<path d="M506.078 204.472L504.6 203.17L520.259 186.911L506.078 204.472Z" fill="#59493A"/>
<path d="M516.69 193.112C516.17 193.705 515.267 193.76 514.678 193.24C514.089 192.72 514.03 191.817 514.554 191.228C515.074 190.635 515.977 190.58 516.566 191.104C517.155 191.621 517.21 192.523 516.69 193.112Z" fill="#59493A"/>
<path d="M449.705 291.214H430.46L422.367 316.01H457.798L449.705 291.214Z" fill="#516264"/>
<path d="M472.01 316.01H408.151V490.746H472.01V316.01Z" fill="#E0AB75"/>
<path d="M422.784 293.519H408.151V490.466H422.784V293.519Z" fill="#CE9555"/>
<path d="M472.01 293.519H457.378V490.466H472.01V293.519Z" fill="#CE9555"/>
<path opacity="0.1" d="M472.013 462.318H408.155V465.581H472.013V462.318Z" fill="#10100F"/>
<path opacity="0.1" d="M472.013 422.342H408.155V425.605H472.013V422.342Z" fill="#10100F"/>
<path opacity="0.1" d="M472.013 413.185H408.155V416.448H472.013V413.185Z" fill="#10100F"/>
<path opacity="0.1" d="M472.014 373.753H408.151V377.016H472.014V373.753Z" fill="#10100F"/>
<path opacity="0.1" d="M472.014 364.596H408.151V367.858H472.014V364.596Z" fill="#10100F"/>
<path opacity="0.1" d="M472.01 325.164H408.151V328.427H472.01V325.164Z" fill="#10100F"/>
<path opacity="0.1" d="M472.01 316.01H408.151V319.273H472.01V316.01Z" fill="#10100F"/>
<path d="M420.424 276.93H410.505V293.512H420.424V276.93Z" fill="#CE9555"/>
<path d="M469.654 276.93H459.735V293.512H469.654V276.93Z" fill="#CE9555"/>
<path opacity="0.1" d="M420.424 277.671H410.505V280.93H420.424V277.671Z" fill="#10100F"/>
<path opacity="0.1" d="M422.784 293.519H408.151V296.778H422.784V293.519Z" fill="#10100F"/>
<path opacity="0.1" d="M469.654 276.93H459.735V280.189H469.654V276.93Z" fill="#10100F"/>
<path opacity="0.1" d="M472.01 293.519H457.378V296.778H472.01V293.519Z" fill="#10100F"/>
<path d="M420.579 277.671H410.284L415.438 246.319L420.579 277.671Z" fill="#AB7C47"/>
<path d="M469.781 276.93H459.607L464.696 245.581L469.781 276.93Z" fill="#AB7C47"/>
<path opacity="0.3" d="M411.087 299.111H411.063C410.363 299.111 409.798 299.676 409.798 300.375V313.857H412.351V300.375C412.351 299.676 411.783 299.111 411.087 299.111Z" fill="#10100F"/>
<path opacity="0.3" d="M415.479 299.111H415.455C414.756 299.111 414.191 299.676 414.191 300.375V313.857H416.744V300.375C416.744 299.676 416.179 299.111 415.479 299.111Z" fill="#10100F"/>
<path opacity="0.3" d="M415.486 281.809H415.445C414.349 281.809 413.464 282.698 413.464 283.79V291.91H417.467V283.79C417.467 282.698 416.582 281.809 415.486 281.809Z" fill="#10100F"/>
<path opacity="0.3" d="M419.872 299.111H419.847C419.148 299.111 418.583 299.676 418.583 300.375V313.857H421.139V300.375C421.136 299.676 420.571 299.111 419.872 299.111Z" fill="#10100F"/>
<path opacity="0.3" d="M427.586 427.845H427.531C425.994 427.845 424.75 429.088 424.75 430.625V460.258H430.366V430.625C430.366 429.088 429.123 427.845 427.586 427.845Z" fill="#10100F"/>
<path opacity="0.3" d="M435.937 427.845H435.881C434.345 427.845 433.101 429.088 433.101 430.625V460.258H438.717V430.625C438.713 429.088 437.47 427.845 435.937 427.845Z" fill="#10100F"/>
<path opacity="0.3" d="M444.286 427.845H444.231C442.697 427.845 441.45 429.088 441.45 430.625V460.258H447.066V430.625C447.066 429.088 445.819 427.845 444.286 427.845Z" fill="#10100F"/>
<path opacity="0.3" d="M452.633 427.845H452.578C451.045 427.845 449.797 429.088 449.797 430.625V460.258H455.413V430.625C455.413 429.088 454.169 427.845 452.633 427.845Z" fill="#10100F"/>
<path opacity="0.3" d="M427.586 378.914H427.531C425.994 378.914 424.75 380.158 424.75 381.695V411.328H430.366V381.695C430.366 380.158 429.123 378.914 427.586 378.914Z" fill="#10100F"/>
<path opacity="0.3" d="M435.937 378.914H435.881C434.345 378.914 433.101 380.158 433.101 381.695V411.328H438.717V381.695C438.713 380.158 437.47 378.914 435.937 378.914Z" fill="#10100F"/>
<path opacity="0.3" d="M444.286 378.914H444.231C442.697 378.914 441.45 380.158 441.45 381.695V411.328H447.066V381.695C447.066 380.158 445.819 378.914 444.286 378.914Z" fill="#10100F"/>
<path opacity="0.3" d="M452.633 378.914H452.578C451.045 378.914 449.797 380.158 449.797 381.695V411.328H455.413V381.695C455.413 380.158 454.169 378.914 452.633 378.914Z" fill="#10100F"/>
<path opacity="0.3" d="M460.313 299.111H460.289C459.59 299.111 459.025 299.676 459.025 300.375V313.857H461.581V300.375C461.578 299.676 461.013 299.111 460.313 299.111Z" fill="#10100F"/>
<path opacity="0.3" d="M464.706 299.111H464.682C463.983 299.111 463.417 299.676 463.417 300.375V313.857H465.974V300.375C465.97 299.676 465.405 299.111 464.706 299.111Z" fill="#10100F"/>
<path opacity="0.3" d="M464.713 281.809H464.671C463.576 281.809 462.69 282.698 462.69 283.79V291.91H466.694V283.79C466.697 282.698 465.808 281.809 464.713 281.809Z" fill="#10100F"/>
<path opacity="0.3" d="M469.102 299.111H469.077C468.378 299.111 467.813 299.676 467.813 300.375V313.857H470.369V300.375C470.366 299.676 469.798 299.111 469.102 299.111Z" fill="#10100F"/>
<path d="M443.789 304.493H436.375V316.038H443.789V304.493Z" fill="#CE9555"/>
<path d="M442.598 296.082H437.568V304.489H442.598V296.082Z" fill="#CE9555"/>
<path opacity="0.1" d="M442.598 296.082H437.568V297.736H442.598V296.082Z" fill="#10100F"/>
<path opacity="0.1" d="M443.789 304.493H436.375V306.146H443.789V304.493Z" fill="#10100F"/>
<path d="M442.66 296.083H437.505L440.082 280.193L442.66 296.083Z" fill="#AB7C47"/>
<path opacity="0.3" d="M437.861 307.325H437.847C437.492 307.325 437.206 307.611 437.206 307.966V314.801H438.502V307.966C438.505 307.614 438.216 307.325 437.861 307.325Z" fill="#10100F"/>
<path opacity="0.3" d="M440.09 307.325H440.076C439.721 307.325 439.435 307.611 439.435 307.966V314.801H440.731V307.966C440.731 307.614 440.445 307.325 440.09 307.325Z" fill="#10100F"/>
<path opacity="0.3" d="M440.093 298.556H440.072C439.518 298.556 439.066 299.008 439.066 299.562V303.679H441.096V299.562C441.099 299.008 440.648 298.556 440.093 298.556Z" fill="#10100F"/>
<path opacity="0.3" d="M442.315 307.325H442.301C441.947 307.325 441.661 307.611 441.661 307.966V314.801H442.956V307.966C442.956 307.614 442.67 307.325 442.315 307.325Z" fill="#10100F"/>
<path d="M431.05 313.292H428.218L429.634 304.558L431.05 313.292Z" fill="#AB7C47"/>
<path d="M435.993 316.038C435.903 312.62 433.14 309.857 429.692 309.826C426.208 309.795 423.363 312.569 423.273 316.038H435.993Z" fill="#CE9555"/>
<path d="M451.893 313.292H449.058L450.477 304.558L451.893 313.292Z" fill="#AB7C47"/>
<path d="M456.833 316.038C456.744 312.62 453.981 309.857 450.532 309.826C447.049 309.795 444.203 312.569 444.113 316.038H456.833Z" fill="#CE9555"/>
<path opacity="0.3" d="M447.067 361.581V337.43C447.067 333.612 443.973 330.518 440.156 330.518H440.014C436.197 330.518 433.103 333.612 433.103 337.43V361.581H447.067Z" fill="#10100F"/>
<path opacity="0.3" d="M433.492 478.622H427.949V490.467H433.492V478.622Z" fill="#10100F"/>
<path opacity="0.3" d="M452.221 478.622H446.677V490.467H452.221V478.622Z" fill="#10100F"/>
<path d="M294.656 291.214H275.414L267.321 316.01H302.749L294.656 291.214Z" fill="#516264"/>
<path d="M316.965 316.01H253.106V490.746H316.965V316.01Z" fill="#E0AB75"/>
<path d="M267.731 293.519H253.103V490.466H267.731V293.519Z" fill="#CE9555"/>
<path d="M316.961 293.519H302.333V490.466H316.961V293.519Z" fill="#CE9555"/>
<path opacity="0.1" d="M316.965 462.318H253.106V465.581H316.965V462.318Z" fill="#10100F"/>
<path opacity="0.1" d="M316.965 422.342H253.106V425.605H316.965V422.342Z" fill="#10100F"/>
<path opacity="0.1" d="M316.965 413.185H253.106V416.448H316.965V413.185Z" fill="#10100F"/>
<path opacity="0.1" d="M316.965 373.753H253.103V377.016H316.965V373.753Z" fill="#10100F"/>
<path opacity="0.1" d="M316.965 364.596H253.103V367.858H316.965V364.596Z" fill="#10100F"/>
<path opacity="0.1" d="M316.965 325.164H253.106V328.427H316.965V325.164Z" fill="#10100F"/>
<path opacity="0.1" d="M316.965 316.01H253.106V319.273H316.965V316.01Z" fill="#10100F"/>
<path d="M265.378 276.93H255.459V293.512H265.378V276.93Z" fill="#CE9555"/>
<path d="M314.605 276.93H304.686V293.512H314.605V276.93Z" fill="#CE9555"/>
<path opacity="0.1" d="M265.378 277.671H255.459V280.93H265.378V277.671Z" fill="#10100F"/>
<path opacity="0.1" d="M267.731 293.519H253.103V296.778H267.731V293.519Z" fill="#10100F"/>
<path opacity="0.1" d="M314.605 276.93H304.686V280.189H314.605V276.93Z" fill="#10100F"/>
<path opacity="0.1" d="M316.961 293.519H302.333V296.778H316.961V293.519Z" fill="#10100F"/>
<path d="M265.534 277.671H255.236L260.393 246.319L265.534 277.671Z" fill="#AB7C47"/>
<path d="M314.732 276.93H304.562L309.647 245.581L314.732 276.93Z" fill="#AB7C47"/>
<path opacity="0.3" d="M256.038 299.111H256.014C255.315 299.111 254.75 299.676 254.75 300.375V313.857H257.302V300.375C257.302 299.676 256.737 299.111 256.038 299.111Z" fill="#10100F"/>
<path opacity="0.3" d="M260.431 299.111H260.407C259.707 299.111 259.142 299.676 259.142 300.375V313.857H261.695V300.375C261.695 299.676 261.13 299.111 260.431 299.111Z" fill="#10100F"/>
<path opacity="0.3" d="M260.437 281.809H260.396C259.3 281.809 258.415 282.698 258.415 283.79V291.91H262.418V283.79C262.422 282.698 261.533 281.809 260.437 281.809Z" fill="#10100F"/>
<path opacity="0.3" d="M264.827 299.111H264.803C264.103 299.111 263.538 299.676 263.538 300.375V313.857H266.091V300.375C266.091 299.676 265.523 299.111 264.827 299.111Z" fill="#10100F"/>
<path opacity="0.3" d="M272.541 427.845H272.485C270.949 427.845 269.705 429.088 269.705 430.625V460.258H275.321V430.625C275.317 429.088 274.074 427.845 272.541 427.845Z" fill="#10100F"/>
<path opacity="0.3" d="M280.888 427.845H280.833C279.299 427.845 278.052 429.088 278.052 430.625V460.258H283.668V430.625C283.668 429.088 282.424 427.845 280.888 427.845Z" fill="#10100F"/>
<path opacity="0.3" d="M289.237 427.845H289.182C287.645 427.845 286.401 429.088 286.401 430.625V460.258H292.017V430.625C292.017 429.088 290.773 427.845 289.237 427.845Z" fill="#10100F"/>
<path opacity="0.3" d="M297.588 427.845H297.533C296 427.845 294.752 429.088 294.752 430.625V460.258H300.368V430.625C300.365 429.088 299.121 427.845 297.588 427.845Z" fill="#10100F"/>
<path opacity="0.3" d="M272.541 378.914H272.485C270.949 378.914 269.705 380.158 269.705 381.695V411.328H275.321V381.695C275.317 380.158 274.074 378.914 272.541 378.914Z" fill="#10100F"/>
<path opacity="0.3" d="M280.888 378.914H280.833C279.299 378.914 278.052 380.158 278.052 381.695V411.328H283.668V381.695C283.668 380.158 282.424 378.914 280.888 378.914Z" fill="#10100F"/>
<path opacity="0.3" d="M289.237 378.914H289.182C287.645 378.914 286.401 380.158 286.401 381.695V411.328H292.017V381.695C292.017 380.158 290.773 378.914 289.237 378.914Z" fill="#10100F"/>
<path opacity="0.3" d="M297.588 378.914H297.533C296 378.914 294.752 380.158 294.752 381.695V411.328H300.368V381.695C300.365 380.158 299.121 378.914 297.588 378.914Z" fill="#10100F"/>
<path opacity="0.3" d="M305.265 299.111H305.24C304.541 299.111 303.976 299.676 303.976 300.375V313.857H306.529V300.375C306.529 299.676 305.964 299.111 305.265 299.111Z" fill="#10100F"/>
<path opacity="0.3" d="M309.661 299.111H309.636C308.937 299.111 308.372 299.676 308.372 300.375V313.857H310.925V300.375C310.925 299.676 310.357 299.111 309.661 299.111Z" fill="#10100F"/>
<path opacity="0.3" d="M309.667 281.809H309.626C308.53 281.809 307.645 282.698 307.645 283.79V291.91H311.648V283.79C311.648 282.698 310.763 281.809 309.667 281.809Z" fill="#10100F"/>
<path opacity="0.3" d="M314.053 299.111H314.029C313.33 299.111 312.765 299.676 312.765 300.375V313.857H315.318V300.375C315.318 299.676 314.753 299.111 314.053 299.111Z" fill="#10100F"/>
<path d="M288.74 304.493H281.326V316.038H288.74V304.493Z" fill="#CE9555"/>
<path d="M287.552 296.082H282.522V304.489H287.552V296.082Z" fill="#CE9555"/>
<path opacity="0.1" d="M287.552 296.082H282.522V297.736H287.552V296.082Z" fill="#10100F"/>
<path opacity="0.1" d="M288.74 304.493H281.326V306.146H288.74V304.493Z" fill="#10100F"/>
<path d="M287.614 296.083H282.457L285.037 280.193L287.614 296.083Z" fill="#AB7C47"/>
<path opacity="0.3" d="M282.815 307.325H282.801C282.447 307.325 282.161 307.611 282.161 307.966V314.801H283.456V307.966C283.456 307.614 283.17 307.325 282.815 307.325Z" fill="#10100F"/>
<path opacity="0.3" d="M285.041 307.325H285.027C284.672 307.325 284.386 307.611 284.386 307.966V314.801H285.682V307.966C285.685 307.614 285.396 307.325 285.041 307.325Z" fill="#10100F"/>
<path opacity="0.3" d="M285.048 298.556H285.027C284.472 298.556 284.021 299.008 284.021 299.562V303.679H286.05V299.562C286.05 299.008 285.602 298.556 285.048 298.556Z" fill="#10100F"/>
<path opacity="0.3" d="M287.27 307.325H287.256C286.901 307.325 286.615 307.611 286.615 307.966V314.801H287.911V307.966C287.911 307.614 287.625 307.325 287.27 307.325Z" fill="#10100F"/>
<path d="M276.004 313.292H273.169L274.588 304.558L276.004 313.292Z" fill="#AB7C47"/>
<path d="M280.945 316.038C280.855 312.62 278.092 309.857 274.643 309.826C271.16 309.795 268.314 312.569 268.225 316.038H280.945Z" fill="#CE9555"/>
<path d="M296.844 313.292H294.012L295.428 304.558L296.844 313.292Z" fill="#AB7C47"/>
<path d="M301.788 316.038C301.702 312.62 298.936 309.857 295.487 309.826C292.004 309.795 289.158 312.569 289.068 316.038H301.788Z" fill="#CE9555"/>
<path opacity="0.3" d="M292.018 361.581V337.43C292.018 333.612 288.924 330.518 285.107 330.518H284.965C281.148 330.518 278.054 333.612 278.054 337.43V361.581H292.018Z" fill="#10100F"/>
<path opacity="0.3" d="M278.443 478.622H272.899V490.467H278.443V478.622Z" fill="#10100F"/>
<path opacity="0.3" d="M297.172 478.622H291.628V490.467H297.172V478.622Z" fill="#10100F"/>
<path d="M408.152 364.603H316.955V490.746H408.152V364.603Z" fill="#E0AB75"/>
<path opacity="0.3" d="M389.641 378.914H389.586C388.049 378.914 386.805 380.158 386.805 381.695V411.328H392.421V381.695C392.421 380.158 391.177 378.914 389.641 378.914Z" fill="#10100F"/>
<path opacity="0.3" d="M397.991 378.914H397.936C396.399 378.914 395.156 380.158 395.156 381.695V411.328H400.772V381.695C400.772 380.158 399.524 378.914 397.991 378.914Z" fill="#10100F"/>
<path opacity="0.3" d="M358.409 378.914H358.354C356.818 378.914 355.574 380.158 355.574 381.695V411.328H361.19V381.695C361.186 380.158 359.942 378.914 358.409 378.914Z" fill="#10100F"/>
<path opacity="0.3" d="M366.756 378.914H366.701C365.168 378.914 363.921 380.158 363.921 381.695V411.328H369.537V381.695C369.537 380.158 368.29 378.914 366.756 378.914Z" fill="#10100F"/>
<path opacity="0.3" d="M327.174 378.914H327.119C325.583 378.914 324.339 380.158 324.339 381.695V411.328H329.955V381.695C329.951 380.158 328.708 378.914 327.174 378.914Z" fill="#10100F"/>
<path opacity="0.3" d="M335.522 378.914H335.466C333.93 378.914 332.686 380.158 332.686 381.695V411.328H338.302V381.695C338.302 380.158 337.055 378.914 335.522 378.914Z" fill="#10100F"/>
<path opacity="0.3" d="M389.641 427.845H389.586C388.049 427.845 386.805 429.088 386.805 430.625V460.258H392.421V430.625C392.421 429.088 391.177 427.845 389.641 427.845Z" fill="#10100F"/>
<path opacity="0.3" d="M397.991 427.845H397.936C396.399 427.845 395.156 429.088 395.156 430.625V460.258H400.772V430.625C400.772 429.088 399.524 427.845 397.991 427.845Z" fill="#10100F"/>
<path opacity="0.3" d="M358.409 427.845H358.354C356.818 427.845 355.574 429.088 355.574 430.625V460.258H361.19V430.625C361.186 429.088 359.942 427.845 358.409 427.845Z" fill="#10100F"/>
<path opacity="0.3" d="M366.756 427.845H366.701C365.168 427.845 363.921 429.088 363.921 430.625V460.258H369.537V430.625C369.537 429.088 368.29 427.845 366.756 427.845Z" fill="#10100F"/>
<path opacity="0.3" d="M327.174 427.845H327.119C325.583 427.845 324.339 429.088 324.339 430.625V460.258H329.955V430.625C329.951 429.088 328.708 427.845 327.174 427.845Z" fill="#10100F"/>
<path opacity="0.3" d="M335.522 427.845H335.466C333.93 427.845 332.686 429.088 332.686 430.625V460.258H338.302V430.625C338.302 429.088 337.055 427.845 335.522 427.845Z" fill="#10100F"/>
<path opacity="0.3" d="M396.534 478.901H390.99V490.745H396.534V478.901Z" fill="#10100F"/>
<path opacity="0.3" d="M365.328 478.901H359.784V490.745H365.328V478.901Z" fill="#10100F"/>
<path opacity="0.3" d="M334.116 478.901H328.573V490.745H334.116V478.901Z" fill="#10100F"/>
<path opacity="0.1" d="M380.203 364.596H377.354V490.745H380.203V364.596Z" fill="#10100F"/>
<path opacity="0.1" d="M347.756 364.596H344.906V490.745H347.756V364.596Z" fill="#10100F"/>
<path opacity="0.1" d="M408.152 373.757H316.955V377.016H408.152V373.757Z" fill="#10100F"/>
<path opacity="0.1" d="M408.152 364.603H316.955V367.862H408.152V364.603Z" fill="#10100F"/>
<path opacity="0.1" d="M408.152 422.339H316.955V425.598H408.152V422.339Z" fill="#10100F"/>
<path opacity="0.1" d="M408.152 413.185H316.955V416.444H408.152V413.185Z" fill="#10100F"/>
<path opacity="0.1" d="M408.152 462.598H316.955V465.857H408.152V462.598Z" fill="#10100F"/>
<path d="M408.152 341.374H316.955V364.603H408.152V341.374Z" fill="#516264"/>
<path d="M348.999 353.057H343.604V364.603H348.999V353.057Z" fill="#CE9555"/>
<path d="M348.131 344.647H344.472V353.054H348.131V344.647Z" fill="#CE9555"/>
<path opacity="0.1" d="M348.131 344.647H344.472V346.301H348.131V344.647Z" fill="#10100F"/>
<path opacity="0.1" d="M348.999 353.057H343.604V354.711H348.999V353.057Z" fill="#10100F"/>
<path d="M348.175 344.647H344.427L346.301 328.758L348.175 344.647Z" fill="#AB7C47"/>
<path opacity="0.3" d="M344.685 355.89H344.675C344.416 355.89 344.209 356.176 344.209 356.53V363.366H345.15V356.53C345.153 356.179 344.943 355.89 344.685 355.89Z" fill="#10100F"/>
<path opacity="0.3" d="M346.305 355.89H346.295C346.036 355.89 345.83 356.176 345.83 356.53V363.366H346.77V356.53C346.774 356.179 346.563 355.89 346.305 355.89Z" fill="#10100F"/>
<path opacity="0.3" d="M346.308 347.121H346.294C345.891 347.121 345.564 347.572 345.564 348.127V352.244H347.042V348.127C347.039 347.569 346.711 347.121 346.308 347.121Z" fill="#10100F"/>
<path opacity="0.3" d="M347.929 355.89H347.918C347.66 355.89 347.453 356.176 347.453 356.53V363.366H348.394V356.53C348.394 356.179 348.184 355.89 347.929 355.89Z" fill="#10100F"/>
<path d="M381.479 353.057H376.084V364.603H381.479V353.057Z" fill="#CE9555"/>
<path d="M380.611 344.647H376.952V353.054H380.611V344.647Z" fill="#CE9555"/>
<path opacity="0.1" d="M380.611 344.647H376.952V346.301H380.611V344.647Z" fill="#10100F"/>
<path opacity="0.1" d="M381.479 353.057H376.084V354.711H381.479V353.057Z" fill="#10100F"/>
<path d="M380.655 344.647H376.906L378.781 328.758L380.655 344.647Z" fill="#AB7C47"/>
<path opacity="0.3" d="M377.165 355.89H377.155C376.896 355.89 376.689 356.176 376.689 356.53V363.366H377.63V356.53C377.63 356.179 377.423 355.89 377.165 355.89Z" fill="#10100F"/>
<path opacity="0.3" d="M378.785 355.89H378.774C378.516 355.89 378.309 356.176 378.309 356.53V363.366H379.25V356.53C379.253 356.179 379.043 355.89 378.785 355.89Z" fill="#10100F"/>
<path opacity="0.3" d="M378.788 347.121H378.774C378.371 347.121 378.043 347.572 378.043 348.127V352.244H379.521V348.127C379.518 347.569 379.191 347.121 378.788 347.121Z" fill="#10100F"/>
<path opacity="0.3" d="M380.408 355.89H380.398C380.139 355.89 379.933 356.176 379.933 356.53V363.366H380.873V356.53C380.873 356.179 380.663 355.89 380.408 355.89Z" fill="#10100F"/>
<path d="M333.523 360.513H329.148L331.336 347.031L333.523 360.513Z" fill="#AB7C47"/>
<path d="M341.152 364.751C341.017 359.472 336.745 355.207 331.426 355.162C326.048 355.117 321.658 359.397 321.521 364.751H341.152Z" fill="#CE9555"/>
<path d="M364.742 360.513H360.366L362.554 347.031L364.742 360.513Z" fill="#AB7C47"/>
<path d="M372.37 364.751C372.236 359.472 367.964 355.207 362.644 355.162C357.266 355.117 352.877 359.397 352.739 364.751H372.37Z" fill="#CE9555"/>
<path d="M395.958 360.513H391.583L393.77 347.031L395.958 360.513Z" fill="#AB7C47"/>
<path d="M403.586 364.751C403.452 359.472 399.18 355.207 393.86 355.162C388.482 355.117 384.093 359.397 383.955 364.751H403.586Z" fill="#CE9555"/>
<path d="M164.402 379.968H75.7031V490.745H164.402V379.968Z" fill="#D89D64"/>
<path opacity="0.3" d="M146.401 392.537H146.346C144.854 392.537 143.642 393.629 143.642 394.976V420.999H149.102V394.976C149.102 393.629 147.893 392.537 146.401 392.537Z" fill="#090908"/>
<path opacity="0.3" d="M154.522 392.537H154.467C152.975 392.537 151.762 393.629 151.762 394.976V420.999H157.223V394.976C157.223 393.629 156.014 392.537 154.522 392.537Z" fill="#090908"/>
<path opacity="0.3" d="M116.019 392.537H115.964C114.473 392.537 113.26 393.629 113.26 394.976V420.999H118.721V394.976C118.724 393.629 117.511 392.537 116.019 392.537Z" fill="#090908"/>
<path opacity="0.3" d="M124.14 392.537H124.085C122.593 392.537 121.38 393.629 121.38 394.976V420.999H126.841V394.976C126.841 393.629 125.632 392.537 124.14 392.537Z" fill="#090908"/>
<path opacity="0.3" d="M85.6391 392.537H85.584C84.0922 392.537 82.8794 393.629 82.8794 394.976V420.999H88.3402V394.976C88.3437 393.629 87.1309 392.537 85.6391 392.537Z" fill="#090908"/>
<path opacity="0.3" d="M93.7597 392.537H93.7046C92.2127 392.537 91 393.629 91 394.976V420.999H96.4608V394.976C96.4642 393.629 95.2515 392.537 93.7597 392.537Z" fill="#090908"/>
<path opacity="0.3" d="M146.401 435.503H146.346C144.854 435.503 143.642 436.595 143.642 437.943V463.965H149.102V437.943C149.102 436.599 147.893 435.503 146.401 435.503Z" fill="#090908"/>
<path opacity="0.3" d="M154.522 435.503H154.467C152.975 435.503 151.762 436.595 151.762 437.943V463.965H157.223V437.943C157.223 436.599 156.014 435.503 154.522 435.503Z" fill="#090908"/>
<path opacity="0.3" d="M116.019 435.503H115.964C114.473 435.503 113.26 436.595 113.26 437.943V463.965H118.721V437.943C118.724 436.599 117.511 435.503 116.019 435.503Z" fill="#090908"/>
<path opacity="0.3" d="M124.14 435.503H124.085C122.593 435.503 121.38 436.595 121.38 437.943V463.965H126.841V437.943C126.841 436.599 125.632 435.503 124.14 435.503Z" fill="#090908"/>
<path opacity="0.3" d="M85.6391 435.503H85.584C84.0922 435.503 82.8794 436.595 82.8794 437.943V463.965H88.3402V437.943C88.3437 436.599 87.1309 435.503 85.6391 435.503Z" fill="#090908"/>
<path opacity="0.3" d="M93.7597 435.503H93.7046C92.2127 435.503 91 436.595 91 437.943V463.965H96.4608V437.943C96.4642 436.599 95.2515 435.503 93.7597 435.503Z" fill="#090908"/>
<path opacity="0.3" d="M153.101 480.344H147.713V490.745H153.101V480.344Z" fill="#090908"/>
<path opacity="0.3" d="M122.745 480.344H117.356V490.745H122.745V480.344Z" fill="#090908"/>
<path opacity="0.3" d="M92.3914 480.344H87.0029V490.745H92.3914V480.344Z" fill="#090908"/>
<path opacity="0.1" d="M137.22 379.962H134.45V490.745H137.22V379.962Z" fill="#090908"/>
<path opacity="0.1" d="M105.661 379.962H102.891V490.745H105.661V379.962Z" fill="#090908"/>
<path opacity="0.1" d="M164.402 388.006H75.7031V390.869H164.402V388.006Z" fill="#090908"/>
<path opacity="0.1" d="M164.402 379.968H75.7031V382.831H164.402V379.968Z" fill="#090908"/>
<path opacity="0.1" d="M164.402 430.673H75.7031V433.536H164.402V430.673Z" fill="#090908"/>
<path opacity="0.1" d="M164.402 422.632H75.7031V425.495H164.402V422.632Z" fill="#090908"/>
<path opacity="0.1" d="M164.402 466.025H75.7031V468.888H164.402V466.025Z" fill="#090908"/>
<path d="M164.402 359.569H75.7031V379.969H164.402V359.569Z" fill="#415153"/>
<path d="M106.869 369.829H101.622V379.968H106.869V369.829Z" fill="#C38544"/>
<path d="M106.025 362.446H102.466V369.826H106.025V362.446Z" fill="#C38544"/>
<path opacity="0.1" d="M106.025 362.446H102.466V363.896H106.025V362.446Z" fill="#090908"/>
<path opacity="0.1" d="M106.869 369.829H101.622V371.279H106.869V369.829Z" fill="#090908"/>
<path d="M106.069 362.446H102.421L104.247 348.489L106.069 362.446Z" fill="#9D6B37"/>
<path opacity="0.3" d="M102.673 372.317H102.662C102.411 372.317 102.208 372.568 102.208 372.878V378.88H103.124V372.878C103.127 372.568 102.924 372.317 102.673 372.317Z" fill="#090908"/>
<path opacity="0.3" d="M104.25 372.317H104.24C103.988 372.317 103.785 372.568 103.785 372.878V378.88H104.702V372.878C104.705 372.568 104.502 372.317 104.25 372.317Z" fill="#090908"/>
<path opacity="0.3" d="M104.255 364.616H104.238C103.845 364.616 103.528 365.013 103.528 365.498V369.112H104.965V365.498C104.965 365.009 104.648 364.616 104.255 364.616Z" fill="#090908"/>
<path opacity="0.3" d="M105.825 372.317H105.815C105.563 372.317 105.36 372.568 105.36 372.878V378.88H106.276V372.878C106.28 372.568 106.076 372.317 105.825 372.317Z" fill="#090908"/>
<path d="M138.459 369.829H133.212V379.968H138.459V369.829Z" fill="#C38544"/>
<path d="M137.615 362.446H134.056V369.826H137.615V362.446Z" fill="#C38544"/>
<path opacity="0.1" d="M137.615 362.446H134.056V363.896H137.615V362.446Z" fill="#090908"/>
<path opacity="0.1" d="M138.459 369.829H133.212V371.279H138.459V369.829Z" fill="#090908"/>
<path d="M137.659 362.446H134.011L135.833 348.489L137.659 362.446Z" fill="#9D6B37"/>
<path opacity="0.3" d="M134.262 372.317H134.252C134.001 372.317 133.797 372.568 133.797 372.878V378.88H134.714V372.878C134.717 372.568 134.514 372.317 134.262 372.317Z" fill="#090908"/>
<path opacity="0.3" d="M135.84 372.317H135.83C135.578 372.317 135.375 372.568 135.375 372.878V378.88H136.291V372.878C136.291 372.568 136.088 372.317 135.84 372.317Z" fill="#090908"/>
<path opacity="0.3" d="M135.845 364.616H135.831C135.438 364.616 135.121 365.013 135.121 365.498V369.112H136.558V365.498C136.554 365.009 136.234 364.616 135.845 364.616Z" fill="#090908"/>
<path opacity="0.3" d="M137.415 372.317H137.405C137.153 372.317 136.95 372.568 136.95 372.878V378.88H137.866V372.878C137.87 372.568 137.666 372.317 137.415 372.317Z" fill="#090908"/>
<path d="M91.8165 376.375H87.5615L89.6873 364.537L91.8165 376.375Z" fill="#9D6B37"/>
<path d="M99.235 380.096C99.1041 375.462 94.949 371.717 89.7776 371.676C84.5477 371.634 80.2755 375.393 80.1411 380.096H99.235Z" fill="#C38544"/>
<path d="M122.18 376.375H117.925L120.054 364.537L122.18 376.375Z" fill="#9D6B37"/>
<path d="M129.598 380.096C129.467 375.462 125.312 371.717 120.141 371.676C114.911 371.634 110.639 375.393 110.504 380.096H129.598Z" fill="#C38544"/>
<path d="M152.544 376.375H148.289L150.414 364.537L152.544 376.375Z" fill="#9D6B37"/>
<path d="M159.965 380.096C159.834 375.462 155.679 371.717 150.504 371.676C145.274 371.634 141.005 375.393 140.871 380.096H159.965Z" fill="#C38544"/>
<path d="M253.102 379.968H164.403V490.745H253.102V379.968Z" fill="#D89D64"/>
<path opacity="0.3" d="M235.101 392.537H235.046C233.555 392.537 232.342 393.629 232.342 394.976V420.999H237.803V394.976C237.806 393.629 236.593 392.537 235.101 392.537Z" fill="#090908"/>
<path opacity="0.3" d="M243.222 392.537H243.166C241.675 392.537 240.462 393.629 240.462 394.976V420.999H245.923V394.976C245.926 393.629 244.713 392.537 243.222 392.537Z" fill="#090908"/>
<path opacity="0.3" d="M204.719 392.537H204.664C203.172 392.537 201.959 393.629 201.959 394.976V420.999H207.42V394.976C207.424 393.629 206.211 392.537 204.719 392.537Z" fill="#090908"/>
<path opacity="0.3" d="M212.84 392.537H212.785C211.293 392.537 210.08 393.629 210.08 394.976V420.999H215.541V394.976C215.544 393.629 214.335 392.537 212.84 392.537Z" fill="#090908"/>
<path opacity="0.3" d="M174.339 392.537H174.284C172.792 392.537 171.58 393.629 171.58 394.976V420.999H177.04V394.976C177.044 393.629 175.835 392.537 174.339 392.537Z" fill="#090908"/>
<path opacity="0.3" d="M182.459 392.537H182.404C180.912 392.537 179.7 393.629 179.7 394.976V420.999H185.161V394.976C185.164 393.629 183.955 392.537 182.459 392.537Z" fill="#090908"/>
<path opacity="0.3" d="M235.101 435.503H235.046C233.555 435.503 232.342 436.595 232.342 437.943V463.965H237.803V437.943C237.806 436.599 236.593 435.503 235.101 435.503Z" fill="#090908"/>
<path opacity="0.3" d="M243.222 435.503H243.166C241.675 435.503 240.462 436.595 240.462 437.943V463.965H245.923V437.943C245.926 436.599 244.713 435.503 243.222 435.503Z" fill="#090908"/>
<path opacity="0.3" d="M204.719 435.503H204.664C203.172 435.503 201.959 436.595 201.959 437.943V463.965H207.42V437.943C207.424 436.599 206.211 435.503 204.719 435.503Z" fill="#090908"/>
<path opacity="0.3" d="M212.84 435.503H212.785C211.293 435.503 210.08 436.595 210.08 437.943V463.965H215.541V437.943C215.544 436.599 214.335 435.503 212.84 435.503Z" fill="#090908"/>
<path opacity="0.3" d="M174.339 435.503H174.284C172.792 435.503 171.58 436.595 171.58 437.943V463.965H177.04V437.943C177.044 436.599 175.835 435.503 174.339 435.503Z" fill="#090908"/>
<path opacity="0.3" d="M182.459 435.503H182.404C180.912 435.503 179.7 436.595 179.7 437.943V463.965H185.161V437.943C185.164 436.599 183.955 435.503 182.459 435.503Z" fill="#090908"/>
<path opacity="0.3" d="M241.804 480.344H236.413V490.745H241.804V480.344Z" fill="#090908"/>
<path opacity="0.3" d="M211.451 480.344H206.06V490.745H211.451V480.344Z" fill="#090908"/>
<path opacity="0.3" d="M181.091 480.344H175.703V490.745H181.091V480.344Z" fill="#090908"/>
<path opacity="0.1" d="M225.923 379.962H223.153V490.745H225.923V379.962Z" fill="#090908"/>
<path opacity="0.1" d="M194.36 379.962H191.59V490.745H194.36V379.962Z" fill="#090908"/>
<path opacity="0.1" d="M253.102 388.006H164.403V390.869H253.102V388.006Z" fill="#090908"/>
<path opacity="0.1" d="M253.102 379.968H164.403V382.831H253.102V379.968Z" fill="#090908"/>
<path opacity="0.1" d="M253.102 430.673H164.403V433.536H253.102V430.673Z" fill="#090908"/>
<path opacity="0.1" d="M253.102 422.632H164.403V425.495H253.102V422.632Z" fill="#090908"/>
<path opacity="0.1" d="M253.102 466.025H164.403V468.888H253.102V466.025Z" fill="#090908"/>
<path d="M253.102 359.569H164.403V379.969H253.102V359.569Z" fill="#415153"/>
<path d="M195.568 369.829H190.321V379.968H195.568V369.829Z" fill="#C38544"/>
<path d="M194.728 362.446H191.169V369.826H194.728V362.446Z" fill="#C38544"/>
<path opacity="0.1" d="M194.728 362.446H191.169V363.896H194.728V362.446Z" fill="#090908"/>
<path opacity="0.1" d="M195.568 369.829H190.321V371.279H195.568V369.829Z" fill="#090908"/>
<path d="M194.769 362.446H191.124L192.947 348.489L194.769 362.446Z" fill="#9D6B37"/>
<path opacity="0.3" d="M191.375 372.317H191.365C191.113 372.317 190.91 372.568 190.91 372.878V378.88H191.827V372.878C191.83 372.568 191.627 372.317 191.375 372.317Z" fill="#090908"/>
<path opacity="0.3" d="M192.95 372.317H192.94C192.689 372.317 192.485 372.568 192.485 372.878V378.88H193.402V372.878C193.405 372.568 193.202 372.317 192.95 372.317Z" fill="#090908"/>
<path opacity="0.3" d="M192.954 364.616H192.941C192.548 364.616 192.231 365.013 192.231 365.498V369.112H193.668V365.498C193.664 365.009 193.347 364.616 192.954 364.616Z" fill="#090908"/>
<path opacity="0.3" d="M194.528 372.317H194.518C194.266 372.317 194.063 372.568 194.063 372.878V378.88H194.979V372.878C194.979 372.568 194.776 372.317 194.528 372.317Z" fill="#090908"/>
<path d="M227.158 369.829H221.911V379.968H227.158V369.829Z" fill="#C38544"/>
<path d="M226.315 362.446H222.756V369.826H226.315V362.446Z" fill="#C38544"/>
<path opacity="0.1" d="M226.315 362.446H222.756V363.896H226.315V362.446Z" fill="#090908"/>
<path opacity="0.1" d="M227.158 369.829H221.911V371.279H227.158V369.829Z" fill="#090908"/>
<path d="M226.36 362.446H222.711L224.537 348.489L226.36 362.446Z" fill="#9D6B37"/>
<path opacity="0.3" d="M222.965 372.317H222.955C222.703 372.317 222.5 372.568 222.5 372.878V378.88H223.416V372.878C223.416 372.568 223.213 372.317 222.965 372.317Z" fill="#090908"/>
<path opacity="0.3" d="M224.54 372.317H224.53C224.278 372.317 224.075 372.568 224.075 372.878V378.88H224.992V372.878C224.995 372.568 224.792 372.317 224.54 372.317Z" fill="#090908"/>
<path opacity="0.3" d="M224.544 364.616H224.531C224.138 364.616 223.821 365.013 223.821 365.498V369.112H225.257V365.498C225.254 365.009 224.937 364.616 224.544 364.616Z" fill="#090908"/>
<path opacity="0.3" d="M226.115 372.317H226.104C225.853 372.317 225.649 372.568 225.649 372.878V378.88H226.566V372.878C226.569 372.568 226.366 372.317 226.115 372.317Z" fill="#090908"/>
<path d="M180.516 376.375H176.261L178.39 364.537L180.516 376.375Z" fill="#9D6B37"/>
<path d="M187.938 380.096C187.807 375.462 183.652 371.717 178.48 371.676C173.25 371.634 168.978 375.393 168.844 380.096H187.938Z" fill="#C38544"/>
<path d="M210.879 376.375H206.625L208.754 364.537L210.879 376.375Z" fill="#9D6B37"/>
<path d="M218.301 380.096C218.17 375.462 214.015 371.717 208.844 371.676C203.614 371.634 199.345 375.393 199.208 380.096H218.301Z" fill="#C38544"/>
<path d="M241.243 376.375H236.988L239.117 364.537L241.243 376.375Z" fill="#9D6B37"/>
<path d="M248.665 380.096C248.534 375.462 244.379 371.717 239.207 371.676C233.977 371.634 229.705 375.393 229.571 380.096H248.665Z" fill="#C38544"/>
<path d="M75.6993 379.968H-13V490.745H75.6993V379.968Z" fill="#D89D64"/>
<path opacity="0.3" d="M57.6986 392.537H57.6435C56.1517 392.537 54.939 393.629 54.939 394.976V420.999H60.3998V394.976C60.4032 393.629 59.1939 392.537 57.6986 392.537Z" fill="#090908"/>
<path opacity="0.3" d="M65.8188 392.537H65.7636C64.2718 392.537 63.0591 393.629 63.0591 394.976V420.999H68.5199V394.976C68.5233 393.629 67.314 392.537 65.8188 392.537Z" fill="#090908"/>
<path opacity="0.3" d="M27.3168 392.537H27.2617C25.7699 392.537 24.5571 393.629 24.5571 394.976V420.999H30.0179V394.976C30.0214 393.629 28.8121 392.537 27.3168 392.537Z" fill="#090908"/>
<path opacity="0.3" d="M35.4404 392.537H35.3852C33.8934 392.537 32.6807 393.629 32.6807 394.976V420.999H38.1415V394.976C38.1415 393.629 36.9322 392.537 35.4404 392.537Z" fill="#090908"/>
<path opacity="0.3" d="M5.05998 392.537H5.00486C3.51304 392.537 2.30029 393.629 2.30029 394.976V420.999H7.7611V394.976C7.7611 393.629 6.55179 392.537 5.05998 392.537Z" fill="#090908"/>
<path opacity="0.3" d="M57.6986 435.503H57.6435C56.1517 435.503 54.939 436.595 54.939 437.943V463.965H60.3998V437.943C60.4032 436.599 59.1939 435.503 57.6986 435.503Z" fill="#090908"/>
<path opacity="0.3" d="M65.8188 435.503H65.7636C64.2718 435.503 63.0591 436.595 63.0591 437.943V463.965H68.5199V437.943C68.5233 436.599 67.314 435.503 65.8188 435.503Z" fill="#090908"/>
<path opacity="0.3" d="M27.3168 435.503H27.2617C25.7699 435.503 24.5571 436.595 24.5571 437.943V463.965H30.0179V437.943C30.0214 436.599 28.8121 435.503 27.3168 435.503Z" fill="#090908"/>
<path opacity="0.3" d="M35.4404 435.503H35.3852C33.8934 435.503 32.6807 436.595 32.6807 437.943V463.965H38.1415V437.943C38.1415 436.599 36.9322 435.503 35.4404 435.503Z" fill="#090908"/>
<path opacity="0.3" d="M5.05998 435.503H5.00486C3.51304 435.503 2.30029 436.595 2.30029 437.943V463.965H7.7611V437.943C7.7611 436.599 6.55179 435.503 5.05998 435.503Z" fill="#090908"/>
<path opacity="0.3" d="M64.3987 480.344H59.0103V490.745H64.3987V480.344Z" fill="#090908"/>
<path opacity="0.3" d="M34.0447 480.344H28.6562V490.745H34.0447V480.344Z" fill="#090908"/>
<path opacity="0.3" d="M3.68827 480.344H-1.7002V490.745H3.68827V480.344Z" fill="#090908"/>
<path opacity="0.1" d="M48.52 379.962H45.75V490.745H48.52V379.962Z" fill="#090908"/>
<path opacity="0.1" d="M16.9575 379.962H14.1875V490.745H16.9575V379.962Z" fill="#090908"/>
<path opacity="0.1" d="M75.6993 388.006H-13V390.869H75.6993V388.006Z" fill="#090908"/>
<path opacity="0.1" d="M75.6993 379.968H-13V382.831H75.6993V379.968Z" fill="#090908"/>
<path opacity="0.1" d="M75.6993 430.673H-13V433.536H75.6993V430.673Z" fill="#090908"/>
<path opacity="0.1" d="M75.6993 422.632H-13V425.495H75.6993V422.632Z" fill="#090908"/>
<path opacity="0.1" d="M75.6993 466.025H-13V468.888H75.6993V466.025Z" fill="#090908"/>
<path d="M75.6993 359.569H-13V379.969H75.6993V359.569Z" fill="#415153"/>
<path d="M18.1691 369.829H12.9219V379.968H18.1691V369.829Z" fill="#C38544"/>
<path d="M17.3256 362.446H13.7666V369.826H17.3256V362.446Z" fill="#C38544"/>
<path opacity="0.1" d="M17.3256 362.446H13.7666V363.896H17.3256V362.446Z" fill="#090908"/>
<path opacity="0.1" d="M18.1691 369.829H12.9219V371.279H18.1691V369.829Z" fill="#090908"/>
<path d="M17.3698 362.446H13.7212L15.5438 348.489L17.3698 362.446Z" fill="#9D6B37"/>
<path opacity="0.3" d="M13.9724 372.317H13.9621C13.7106 372.317 13.5073 372.568 13.5073 372.878V378.88H14.4238V372.878C14.4272 372.568 14.2239 372.317 13.9724 372.317Z" fill="#090908"/>
<path opacity="0.3" d="M15.551 372.317H15.5407C15.2892 372.317 15.0859 372.568 15.0859 372.878V378.88H16.0024V372.878C16.0024 372.568 15.7991 372.317 15.551 372.317Z" fill="#090908"/>
<path opacity="0.3" d="M15.5516 364.616H15.5379C15.1451 364.616 14.8281 365.013 14.8281 365.498V369.112H16.2648V365.498C16.2648 365.009 15.9444 364.616 15.5516 364.616Z" fill="#090908"/>
<path opacity="0.3" d="M17.1253 372.317H17.1149C16.8634 372.317 16.6602 372.568 16.6602 372.878V378.88H17.5766V372.878C17.58 372.568 17.3768 372.317 17.1253 372.317Z" fill="#090908"/>
<path d="M49.7589 369.829H44.5117V379.968H49.7589V369.829Z" fill="#C38544"/>
<path d="M48.9154 362.446H45.3564V369.826H48.9154V362.446Z" fill="#C38544"/>
<path opacity="0.1" d="M48.9154 362.446H45.3564V363.896H48.9154V362.446Z" fill="#090908"/>
<path opacity="0.1" d="M49.7589 369.829H44.5117V371.279H49.7589V369.829Z" fill="#090908"/>
<path d="M48.9596 362.446H45.311L47.1336 348.489L48.9596 362.446Z" fill="#9D6B37"/>
<path opacity="0.3" d="M45.5623 372.317H45.5519C45.3004 372.317 45.0972 372.568 45.0972 372.878V378.88H46.0136V372.878C46.0171 372.568 45.8138 372.317 45.5623 372.317Z" fill="#090908"/>
<path opacity="0.3" d="M47.137 372.317H47.1267C46.8751 372.317 46.6719 372.568 46.6719 372.878V378.88H47.5883V372.878C47.5918 372.568 47.3885 372.317 47.137 372.317Z" fill="#090908"/>
<path opacity="0.3" d="M47.1415 364.616H47.1277C46.7349 364.616 46.418 365.013 46.418 365.498V369.112H47.8547V365.498C47.8512 365.009 47.5342 364.616 47.1415 364.616Z" fill="#090908"/>
<path opacity="0.3" d="M48.7151 372.317H48.7048C48.4533 372.317 48.25 372.568 48.25 372.878V378.88H49.1664V372.878C49.1664 372.568 48.9666 372.317 48.7151 372.317Z" fill="#090908"/>
<path d="M3.11677 376.375H-1.13818L0.987571 364.537L3.11677 376.375Z" fill="#9D6B37"/>
<path d="M10.5353 380.096C10.4044 375.462 6.24931 371.717 1.07791 371.676C-4.15206 371.634 -8.42423 375.393 -8.55859 380.096H10.5353Z" fill="#C38544"/>
<path d="M33.48 376.375H29.2251L31.3509 364.537L33.48 376.375Z" fill="#9D6B37"/>
<path d="M40.8986 380.096C40.7676 375.462 36.6126 371.717 31.4412 371.676C26.2112 371.634 21.9425 375.393 21.8047 380.096H40.8986Z" fill="#C38544"/>
<path d="M63.8433 376.375H59.5884L61.7141 364.537L63.8433 376.375Z" fill="#9D6B37"/>
<path d="M71.2618 380.096C71.1309 375.462 66.9759 371.717 61.8045 371.676C56.5745 371.634 52.3023 375.393 52.168 380.096H71.2618Z" fill="#C38544"/>
</svg>
