<svg width="90" height="491" viewBox="0 0 90 491" fill="none" xmlns="http://www.w3.org/2000/svg">
<path d="M82.0468 140.637H8.01416V490.745H82.0468V140.637Z" fill="#B8864C"/>
<path d="M85.7428 166.15H4.30957V250.198H85.7428V166.15Z" fill="#976E3F"/>
<path d="M62.9185 103.897H27.139L8.01416 140.637H82.0434L62.9185 103.897Z" fill="#435053"/>
<path d="M45.0298 15.9241C42.7559 37.8259 36.5475 58.4701 26.9316 78.0222H63.128C53.7189 57.1988 47.2072 36.4822 45.0298 15.9241Z" fill="#435053"/>
<path d="M62.9211 78.0225H27.1382V103.897H62.9211V78.0225Z" fill="#B8864C"/>
<path d="M49.8425 20.1104H40.2129V22.9011H49.8425V20.1104Z" fill="#435053"/>
<path d="M45.0303 24.2963C44.4859 24.2963 44.0449 23.8553 44.0449 23.3109V0.985354C44.0449 0.440996 44.4859 0 45.0303 0C45.5746 0 46.0157 0.440996 46.0157 0.985354V23.3109C46.0157 23.8553 45.5712 24.2963 45.0303 24.2963Z" fill="#435053"/>
<path d="M47.5731 6.89739C47.5731 8.30308 46.4327 9.44348 45.027 9.44348C43.6213 9.44348 42.4844 8.30308 42.4844 6.89739C42.4844 5.49171 43.6248 4.35132 45.027 4.35132C46.4327 4.35132 47.5731 5.49171 47.5731 6.89739Z" fill="#435053"/>
<path d="M82.0468 430.119H8.01416V440.623H82.0468V430.119Z" fill="#976E3F"/>
<path d="M82.0468 365.767H8.01416V376.272H82.0468V365.767Z" fill="#976E3F"/>
<path d="M82.0468 301.416H8.01416V311.921H82.0468V301.416Z" fill="#976E3F"/>
<path opacity="0.3" d="M19.6857 254.357C18.4179 254.357 17.3877 255.387 17.3877 256.655V484.944C17.3877 486.212 18.4179 487.242 19.6857 487.242C20.9536 487.242 21.9837 486.212 21.9837 484.944V256.655C21.9837 255.387 20.9536 254.357 19.6857 254.357Z" fill="#10100F"/>
<path opacity="0.3" d="M29.8215 254.357C28.5536 254.357 27.5234 255.387 27.5234 256.655V484.944C27.5234 486.212 28.5536 487.242 29.8215 487.242C31.0894 487.242 32.1195 486.212 32.1195 484.944V256.655C32.1195 255.387 31.0928 254.357 29.8215 254.357Z" fill="#10100F"/>
<path opacity="0.3" d="M39.9572 254.357C38.6893 254.357 37.6592 255.387 37.6592 256.655V484.944C37.6592 486.212 38.6893 487.242 39.9572 487.242C41.225 487.242 42.2552 486.212 42.2552 484.944V256.655C42.2587 255.387 41.2285 254.357 39.9572 254.357Z" fill="#10100F"/>
<path opacity="0.3" d="M50.0978 254.357C48.83 254.357 47.7998 255.387 47.7998 256.655V484.944C47.7998 486.212 48.83 487.242 50.0978 487.242C51.3657 487.242 52.3958 486.212 52.3958 484.944V256.655C52.3958 255.387 51.3657 254.357 50.0978 254.357Z" fill="#10100F"/>
<path opacity="0.3" d="M60.2336 254.357C58.9657 254.357 57.9355 255.387 57.9355 256.655V484.944C57.9355 486.212 58.9657 487.242 60.2336 487.242C61.5015 487.242 62.5316 486.212 62.5316 484.944V256.655C62.5316 255.387 61.5015 254.357 60.2336 254.357Z" fill="#10100F"/>
<path opacity="0.3" d="M70.3698 254.357C69.1019 254.357 68.0718 255.387 68.0718 256.655V484.944C68.0718 486.212 69.1019 487.242 70.3698 487.242C71.6377 487.242 72.6678 486.212 72.6678 484.944V256.655C72.6678 255.387 71.6411 254.357 70.3698 254.357Z" fill="#10100F"/>
<path opacity="0.3" d="M16.5298 232.251C15.1034 232.251 13.9458 232.307 13.9458 232.376V244.82C13.9458 244.889 15.1034 244.944 16.5298 244.944C17.9561 244.944 19.1138 244.889 19.1138 244.82V232.376C19.1172 232.307 17.9596 232.251 16.5298 232.251Z" fill="#10100F"/>
<path opacity="0.3" d="M27.9307 232.251C26.5043 232.251 25.3467 232.307 25.3467 232.376V244.82C25.3467 244.889 26.5043 244.944 27.9307 244.944C29.357 244.944 30.5146 244.889 30.5146 244.82V232.376C30.5146 232.307 29.357 232.251 27.9307 232.251Z" fill="#10100F"/>
<path opacity="0.3" d="M39.3281 232.251C37.9018 232.251 36.7441 232.307 36.7441 232.376V244.82C36.7441 244.889 37.9018 244.944 39.3281 244.944C40.7545 244.944 41.9121 244.889 41.9121 244.82V232.376C41.9121 232.307 40.7579 232.251 39.3281 232.251Z" fill="#10100F"/>
<path opacity="0.3" d="M50.727 232.251C49.3007 232.251 48.1431 232.307 48.1431 232.376V244.82C48.1431 244.889 49.3007 244.944 50.727 244.944C52.1534 244.944 53.311 244.889 53.311 244.82V232.376C53.311 232.307 52.1534 232.251 50.727 232.251Z" fill="#10100F"/>
<path opacity="0.3" d="M62.125 232.251C60.6986 232.251 59.541 232.307 59.541 232.376V244.82C59.541 244.889 60.6986 244.944 62.125 244.944C63.5513 244.944 64.709 244.889 64.709 244.82V232.376C64.709 232.307 63.5548 232.251 62.125 232.251Z" fill="#10100F"/>
<path opacity="0.3" d="M73.5254 232.251C72.099 232.251 70.9414 232.307 70.9414 232.376V244.82C70.9414 244.889 72.099 244.944 73.5254 244.944C74.9517 244.944 76.1094 244.889 76.1094 244.82V232.376C76.1094 232.307 74.9517 232.251 73.5254 232.251Z" fill="#10100F"/>
<path opacity="0.3" d="M18.9001 146.232C17.5909 146.232 16.5298 146.291 16.5298 146.363V159.238C16.5298 159.311 17.5909 159.369 18.9001 159.369C20.2093 159.369 21.2705 159.311 21.2705 159.238V146.363C21.2705 146.291 20.2093 146.232 18.9001 146.232Z" fill="#10100F"/>
<path opacity="0.3" d="M29.3543 146.232C28.0451 146.232 26.9839 146.291 26.9839 146.363V159.238C26.9839 159.311 28.0451 159.369 29.3543 159.369C30.6635 159.369 31.7246 159.311 31.7246 159.238V146.363C31.7211 146.291 30.66 146.232 29.3543 146.232Z" fill="#10100F"/>
<path opacity="0.3" d="M39.8025 146.232C38.4932 146.232 37.4321 146.291 37.4321 146.363V159.238C37.4321 159.311 38.4932 159.369 39.8025 159.369C41.1117 159.369 42.1728 159.311 42.1728 159.238V146.363C42.1728 146.291 41.1117 146.232 39.8025 146.232Z" fill="#10100F"/>
<path opacity="0.3" d="M50.2527 146.232C48.9435 146.232 47.8823 146.291 47.8823 146.363V159.238C47.8823 159.311 48.9435 159.369 50.2527 159.369C51.5619 159.369 52.6231 159.311 52.6231 159.238V146.363C52.6231 146.291 51.5619 146.232 50.2527 146.232Z" fill="#10100F"/>
<path opacity="0.3" d="M60.7049 146.232C59.3956 146.232 58.3345 146.291 58.3345 146.363V159.238C58.3345 159.311 59.3956 159.369 60.7049 159.369C62.0141 159.369 63.0752 159.311 63.0752 159.238V146.363C63.0718 146.291 62.0106 146.232 60.7049 146.232Z" fill="#10100F"/>
<path opacity="0.3" d="M71.155 146.232C69.8458 146.232 68.7847 146.291 68.7847 146.363V159.238C68.7847 159.311 69.8458 159.369 71.155 159.369C72.4643 159.369 73.5254 159.311 73.5254 159.238V146.363C73.5254 146.291 72.4643 146.232 71.155 146.232Z" fill="#10100F"/>
<path opacity="0.3" d="M31.7205 80.2343C31.0556 80.2343 30.5146 80.3273 30.5146 80.4444V101.471C30.5146 101.588 31.0556 101.685 31.7205 101.685C32.3855 101.685 32.9263 101.592 32.9263 101.471V80.4444C32.9298 80.3307 32.3889 80.2343 31.7205 80.2343Z" fill="#10100F"/>
<path opacity="0.3" d="M37.0433 80.2343C36.3783 80.2343 35.8374 80.3273 35.8374 80.4444V101.471C35.8374 101.588 36.3783 101.685 37.0433 101.685C37.7082 101.685 38.2492 101.592 38.2492 101.471V80.4444C38.2492 80.3307 37.7117 80.2343 37.0433 80.2343Z" fill="#10100F"/>
<path opacity="0.3" d="M42.366 80.2343C41.701 80.2343 41.1602 80.3273 41.1602 80.4444V101.471C41.1602 101.588 41.701 101.685 42.366 101.685C43.0309 101.685 43.5719 101.592 43.5719 101.471V80.4444C43.5719 80.3307 43.0344 80.2343 42.366 80.2343Z" fill="#10100F"/>
<path opacity="0.3" d="M47.6907 80.2343C47.0257 80.2343 46.4849 80.3273 46.4849 80.4444V101.471C46.4849 101.588 47.0257 101.685 47.6907 101.685C48.3591 101.685 48.8966 101.592 48.8966 101.471V80.4444C48.8966 80.3307 48.3591 80.2343 47.6907 80.2343Z" fill="#10100F"/>
<path opacity="0.3" d="M53.013 80.2343C52.348 80.2343 51.8071 80.3273 51.8071 80.4444V101.471C51.8071 101.588 52.348 101.685 53.013 101.685C53.6779 101.685 54.2188 101.592 54.2188 101.471V80.4444C54.2188 80.3307 53.6779 80.2343 53.013 80.2343Z" fill="#10100F"/>
<path opacity="0.3" d="M58.3357 80.2343C57.6708 80.2343 57.1299 80.3273 57.1299 80.4444V101.471C57.1299 101.588 57.6708 101.685 58.3357 101.685C59.0007 101.685 59.5416 101.592 59.5416 101.471V80.4444C59.5416 80.3307 59.0007 80.2343 58.3357 80.2343Z" fill="#10100F"/>
<path d="M76.1059 172.933H13.9458V226.339H76.1059V172.933Z" fill="#CB9B6A"/>
<path d="M77.4227 227.655H12.6338V171.621H77.4227V227.655ZM15.2626 225.03H74.7974V174.246H15.2626V225.03Z" fill="#B8864C"/>
<path d="M89.3508 162.429H0.706543V169.871H89.3508V162.429Z" fill="#976E3F"/>
<path d="M83.9868 136.916H6.06787V144.358H83.9868V136.916Z" fill="#976E3F"/>
<path d="M64.7093 70.5804H25.3467V78.0223H64.7093V70.5804Z" fill="#976E3F"/>
<path d="M9.03772 116.027L6.06787 136.916H12.0041L9.03772 116.027Z" fill="#B8864C"/>
<path d="M27.7102 53.9292L25.3467 70.5804H30.0771L27.7102 53.9292Z" fill="#B8864C"/>
<path d="M62.3469 53.9292L59.98 70.5804H64.7104L62.3469 53.9292Z" fill="#B8864C"/>
<path d="M3.67292 145.261L0.706543 162.429H6.64277L3.67292 145.261Z" fill="#B8864C"/>
<path d="M85.7462 145.261L82.7798 162.429H88.7126L85.7462 145.261Z" fill="#B8864C"/>
<path d="M81.024 116.027L78.0542 136.916H83.9905L81.024 116.027Z" fill="#B8864C"/>
<path opacity="0.5" d="M29.2859 132.834H24.5073V125.337C24.5073 124.031 25.565 122.97 26.8742 122.97H26.9224C28.2282 122.97 29.2859 124.028 29.2859 125.337V132.834Z" fill="#10100F"/>
<path opacity="0.5" d="M41.3749 132.834H36.5962V125.337C36.5962 124.031 37.6539 122.97 38.9597 122.97H39.0079C40.3137 122.97 41.3749 124.028 41.3749 125.337V132.834Z" fill="#10100F"/>
<path opacity="0.5" d="M53.4617 132.834H48.6831V125.337C48.6831 124.031 49.7408 122.97 51.0465 122.97H51.0948C52.4006 122.97 53.4583 124.028 53.4583 125.337L53.4617 132.834Z" fill="#10100F"/>
<path opacity="0.5" d="M65.5506 132.834H60.772V125.337C60.772 124.031 61.8297 122.97 63.1355 122.97H63.1837C64.4895 122.97 65.5472 124.028 65.5472 125.337V132.834H65.5506Z" fill="#10100F"/>
<path opacity="0.5" d="M35.3319 118.88H30.5532V111.383C30.5532 110.077 31.6109 109.016 32.9167 109.016H32.9649C34.2707 109.016 35.3319 110.074 35.3319 111.383V118.88Z" fill="#10100F"/>
<path opacity="0.5" d="M47.4173 118.88H42.6387V111.383C42.6387 110.077 43.6964 109.016 45.0056 109.016H45.0538C46.3596 109.016 47.4173 110.074 47.4173 111.383V118.88Z" fill="#10100F"/>
<path opacity="0.5" d="M59.5047 118.88H54.7261V111.383C54.7261 110.077 55.7837 109.016 57.0895 109.016H57.1378C58.4435 109.016 59.5013 110.074 59.5013 111.383L59.5047 118.88Z" fill="#10100F"/>
<path opacity="0.5" d="M39.36 68.0205H36.5659V63.638C36.5659 62.8732 37.186 62.2565 37.9474 62.2565H37.975C38.7399 62.2565 39.3566 62.8766 39.3566 63.638L39.36 68.0205Z" fill="#10100F"/>
<path opacity="0.5" d="M42.5578 56.8094H39.7637V52.427C39.7637 51.6621 40.3838 51.0454 41.1452 51.0454H41.1728C41.9376 51.0454 42.5544 51.6656 42.5544 52.427V56.8094H42.5578Z" fill="#10100F"/>
<path opacity="0.5" d="M50.2946 56.8094H47.5005V52.427C47.5005 51.6621 48.1206 51.0454 48.8821 51.0454H48.9096C49.6745 51.0454 50.2912 51.6656 50.2912 52.427L50.2946 56.8094Z" fill="#10100F"/>
<path opacity="0.5" d="M46.4255 68.0205H43.6313V63.638C43.6313 62.8732 44.2515 62.2565 45.0129 62.2565H45.0405C45.8053 62.2565 46.422 62.8766 46.422 63.638V68.0205H46.4255Z" fill="#10100F"/>
<path opacity="0.5" d="M46.4255 44.5994H43.6313V40.217C43.6313 39.4522 44.2515 38.8354 45.0129 38.8354H45.0405C45.8053 38.8354 46.422 39.4556 46.422 40.217V44.5994H46.4255Z" fill="#10100F"/>
<path opacity="0.5" d="M53.4929 68.0205H50.6987V63.638C50.6987 62.8732 51.3189 62.2565 52.0803 62.2565H52.1078C52.8727 62.2565 53.4894 62.8766 53.4894 63.638V68.0205H53.4929Z" fill="#10100F"/>
<path d="M45.0303 223.211C58.0491 223.211 68.6031 212.657 68.6031 199.638C68.6031 186.619 58.0491 176.065 45.0303 176.065C32.0114 176.065 21.4575 186.619 21.4575 199.638C21.4575 212.657 32.0114 223.211 45.0303 223.211Z" fill="white"/>
<path d="M45.0304 218.543C34.6083 218.543 26.126 210.06 26.126 199.638C26.126 189.213 34.6083 180.734 45.0304 180.734C55.4558 180.734 63.9347 189.213 63.9347 199.638C63.9347 210.064 55.4524 218.543 45.0304 218.543ZM45.0304 182.046C35.3318 182.046 27.4387 189.936 27.4387 199.638C27.4387 209.34 35.3284 217.23 45.0304 217.23C54.7323 217.23 62.6221 209.34 62.6221 199.638C62.6186 189.94 54.7289 182.046 45.0304 182.046Z" fill="#B3B3B3"/>
<path d="M45.031 211.979C38.2265 211.979 32.6899 206.443 32.6899 199.638C32.6899 192.834 38.2265 187.297 45.031 187.297C51.8354 187.297 57.372 192.834 57.372 199.638C57.3686 206.443 51.8354 211.979 45.031 211.979ZM45.031 188.613C38.95 188.613 34.0026 193.561 34.0026 199.638C34.0026 205.719 38.95 210.667 45.031 210.667C51.1119 210.667 56.0594 205.719 56.0594 199.638C56.056 193.557 51.1085 188.613 45.031 188.613Z" fill="#B3B3B3"/>
<path d="M56.3614 178.909L50.3994 189.244L51.5364 189.9L57.4984 179.565L56.3614 178.909Z" fill="#B3B3B3"/>
<path d="M65.3177 187.425L54.9854 193.39L55.6417 194.527L65.974 188.562L65.3177 187.425Z" fill="#B3B3B3"/>
<path d="M68.851 199.228H56.9199V200.541H68.851V199.228Z" fill="#B3B3B3"/>
<path d="M55.6632 205.308L55.0068 206.445L65.3391 212.41L65.9955 211.274L55.6632 205.308Z" fill="#B3B3B3"/>
<path d="M51.5274 209.851L50.3906 210.508L56.3562 220.84L57.493 220.184L51.5274 209.851Z" fill="#B3B3B3"/>
<path d="M45.6842 211.776H44.3716V223.707H45.6842V211.776Z" fill="#B3B3B3"/>
<path d="M38.5132 209.83L32.5488 220.163L33.6857 220.82L39.6501 210.486L38.5132 209.83Z" fill="#B3B3B3"/>
<path d="M34.4165 205.292L24.083 211.256L24.7392 212.393L35.0727 206.429L34.4165 205.292Z" fill="#B3B3B3"/>
<path d="M33.1376 199.228H21.2065V200.541H33.1376V199.228Z" fill="#B3B3B3"/>
<path d="M24.7261 187.432L24.0698 188.569L34.4022 194.535L35.0585 193.398L24.7261 187.432Z" fill="#B3B3B3"/>
<path d="M33.672 178.933L32.5352 179.59L38.5007 189.922L39.6375 189.266L33.672 178.933Z" fill="#B3B3B3"/>
<path d="M45.6842 176.065H44.3716V187.997H45.6842V176.065Z" fill="#B3B3B3"/>
<path d="M45.0304 224.527C31.3078 224.527 20.145 213.361 20.145 199.638C20.145 185.916 31.3078 174.753 45.0304 174.753C58.7531 174.753 69.9193 185.919 69.9193 199.638C69.9159 213.361 58.7531 224.527 45.0304 224.527ZM45.0304 177.378C32.7548 177.378 22.7703 187.363 22.7703 199.638C22.7703 211.914 32.7548 221.898 45.0304 221.898C57.306 221.898 67.2906 211.914 67.2906 199.638C67.2906 187.363 57.3026 177.378 45.0304 177.378Z" fill="#59493A"/>
<path d="M52.7234 204.124L51.552 205.705L27.6968 186.777L52.7234 204.124Z" fill="#59493A"/>
<path d="M50.3457 201.667C51.0348 202.181 51.1795 203.152 50.6661 203.845C50.1528 204.534 49.1812 204.679 48.4887 204.169C47.7997 203.655 47.6549 202.684 48.1683 201.991C48.6817 201.302 49.6567 201.158 50.3457 201.667Z" fill="#59493A"/>
<path d="M42.0781 204.472L40.6001 203.17L56.259 186.911L42.0781 204.472Z" fill="#59493A"/>
<path d="M52.69 193.112C52.1697 193.705 51.2671 193.76 50.6779 193.24C50.0888 192.72 50.0302 191.817 50.5539 191.228C51.0742 190.635 51.9768 190.58 52.566 191.104C53.1551 191.621 53.2102 192.523 52.69 193.112Z" fill="#59493A"/>
</svg>
