<svg width="267" height="168" viewBox="0 0 267 168" fill="none" xmlns="http://www.w3.org/2000/svg">
<path d="M5.22153 11.228C5.21365 6.576 8.11821 2.24933 12.5945 0.974158C13.5521 0.701281 14.5596 0.559578 15.596 0.56745H238.586C247.644 0.609431 254.967 7.964 254.967 17.0214V57.4807C254.967 60.2436 252.726 62.4817 249.966 62.4817L227.008 66.6247L222.938 66.5906C221.17 66.5565 219.7 67.9917 219.7 69.7943L219.467 96.7199C219.433 99.3883 221.568 101.524 224.237 101.558L230.909 101.624C231.242 102.191 253.031 108.498 253.031 108.498C257.168 108.999 260.472 112.035 261.437 116.071C262.272 119.542 262.705 123.344 262.67 125.445V132.118L262.636 134.721V138.591L262.602 144.996C262.602 145.397 262.568 145.796 262.468 146.163C262.369 146.596 262.235 146.997 262.036 147.396C261.369 148.763 260.167 149.831 258.632 150.332L250.724 152.736L236.075 153.137L188.065 152.77L184.329 152.736L54.0061 151.733L14.6016 151.6L14.1687 151.466L13.4681 151.232L10.4639 150.332C8.32808 149.666 6.65933 148.131 5.82495 146.163C5.49173 145.428 5.2923 144.662 5.22409 143.859V143.224L5.35797 109.527C5.3606 107.404 5.24515 27.5482 5.22153 11.228Z" fill="#E6332A"/>
<path d="M15.8867 45.1488L36.8432 45.1776C39.3857 45.1803 41.4506 43.1232 41.4558 40.5781L41.4873 17.0818C41.4899 14.5393 39.4303 12.4744 36.8878 12.4717L15.9313 12.4429C13.3889 12.4402 11.3239 14.5 11.3186 17.0424L11.2871 40.5387C11.2845 43.0812 13.3416 45.1461 15.8867 45.1488Z" fill="#76D9E3"/>
<path d="M15.8844 46.18L36.8408 46.2088C39.9474 46.2114 42.482 43.6873 42.4846 40.5807L42.5161 17.0845C42.5214 13.9752 39.9946 11.4432 36.888 11.4406L15.9316 11.4118C12.825 11.4065 10.2904 13.9332 10.2878 17.0398L10.2562 40.5361C10.251 43.6454 12.7778 46.1774 15.8844 46.18ZM36.8854 13.5029C38.8559 13.5056 40.4564 15.1113 40.4538 17.0818L40.4223 40.5781C40.4197 42.5486 38.8139 44.1491 36.8434 44.1465L15.887 44.1176C13.9165 44.115 12.316 42.5092 12.3186 40.5387L12.35 17.0425C12.3527 15.072 13.9585 13.4715 15.929 13.4741L36.8854 13.5029Z" fill="#BF2A23"/>
<path d="M50.4483 45.1958L71.4047 45.2247C73.9472 45.2273 76.0121 43.1702 76.0174 40.6251L76.0488 17.1288C76.0514 14.5864 73.9944 12.5214 71.4493 12.5162L50.4929 12.4873C47.9504 12.4847 45.8855 14.5418 45.8802 17.0869L45.8487 40.5831C45.846 43.1282 47.9058 45.1932 50.4483 45.1958Z" fill="#76D9E3"/>
<path d="M50.4483 46.2271L71.4048 46.2559C74.514 46.2612 77.0434 43.7344 77.0486 40.6278L77.0801 17.1316C77.0853 14.025 74.5585 11.4904 71.4519 11.4877L50.4981 11.4589C47.3889 11.4536 44.8569 13.9804 44.8543 17.087L44.8228 40.5832C44.815 43.6925 47.3391 46.2245 50.4483 46.2271ZM71.4467 13.5474C73.4172 13.5501 75.0177 15.1558 75.0151 17.1263L74.9836 40.6226C74.981 42.5931 73.3753 44.1936 71.4048 44.191L50.4483 44.1621C48.4778 44.1595 46.8773 42.5537 46.8799 40.5832L46.9114 17.087C46.914 15.1165 48.5198 13.516 50.4903 13.5186L71.4467 13.5474Z" fill="#BF2A23"/>
<path d="M84.957 45.537L105.913 45.5659C108.456 45.5685 110.521 43.5088 110.526 40.9663L110.558 17.47C110.56 14.9275 108.5 12.8626 105.958 12.8574L85.0016 12.8285C82.4591 12.8259 80.3942 14.8829 80.3889 17.428L80.3574 40.9243C80.3548 43.4668 82.4145 45.5317 84.957 45.537Z" fill="#76D9E3"/>
<path d="M84.957 46.5683L105.913 46.5971C109.02 46.5998 111.555 44.0756 111.557 40.969L111.589 17.4727C111.594 14.3635 109.067 11.8315 105.961 11.8289L85.0043 11.8001C81.8977 11.7948 79.3657 14.3215 79.3605 17.4281L79.329 40.9244C79.3237 44.031 81.8478 46.563 84.957 46.5683ZM105.956 13.8886C107.926 13.8912 109.526 15.497 109.524 17.4675L109.492 40.9638C109.49 42.9343 107.884 44.5348 105.913 44.5322L84.957 44.5033C82.9866 44.5007 81.3861 42.8949 81.3887 40.9244L81.4202 17.4281C81.4228 15.4577 83.0286 13.8571 84.9991 13.8597L105.956 13.8886Z" fill="#BF2A23"/>
<path d="M119.52 45.5817L140.476 45.6106C143.019 45.6132 145.084 43.5562 145.089 41.0111L145.121 17.5148C145.123 14.9723 143.066 12.9073 140.521 12.9047L119.565 12.8759C117.019 12.8732 114.957 14.9303 114.952 17.4754L114.92 40.9717C114.918 43.5142 116.975 45.5791 119.52 45.5817Z" fill="#76D9E3"/>
<path d="M119.518 46.6156L140.474 46.6445C143.581 46.6497 146.113 44.123 146.118 41.0164L146.149 17.5201C146.155 14.4109 143.628 11.8815 140.521 11.8763L119.567 11.8474C116.458 11.8422 113.926 14.3689 113.924 17.4755L113.892 40.9718C113.887 44.0784 116.411 46.6104 119.518 46.6156ZM140.519 13.936C142.489 13.9386 144.09 15.5444 144.087 17.5149L144.056 41.0112C144.053 42.9817 142.447 44.5822 140.477 44.5796L119.523 44.5507C117.552 44.5481 115.952 42.9423 115.955 40.9718L115.986 17.4755C115.989 15.505 117.594 13.9045 119.565 13.9071L140.519 13.936Z" fill="#BF2A23"/>
<path d="M154.081 45.6289L175.038 45.6578C177.58 45.6604 179.645 43.6033 179.651 41.0582L179.682 17.562C179.685 15.0195 177.625 12.9545 175.083 12.9493L154.126 12.9204C151.584 12.9178 149.519 14.9775 149.513 17.52L149.482 41.0163C149.479 43.5614 151.539 45.6263 154.081 45.6289Z" fill="#76D9E3"/>
<path d="M154.082 46.6602L175.038 46.6891C178.145 46.6943 180.679 44.1676 180.682 41.061L180.713 17.5647C180.719 14.4581 178.192 11.9235 175.085 11.9208L154.129 11.892C151.022 11.8867 148.488 14.4135 148.485 17.5201L148.453 41.0164C148.448 44.1256 150.975 46.6576 154.082 46.6602ZM175.08 13.9832C177.051 13.9858 178.651 15.5916 178.648 17.5621L178.617 41.0583C178.614 43.0288 177.008 44.6293 175.038 44.6267L154.082 44.5979C152.111 44.5952 150.511 42.9895 150.513 41.019L150.545 17.5227C150.547 15.5522 152.153 13.9517 154.124 13.9543L175.08 13.9832Z" fill="#BF2A23"/>
<path d="M188.686 45.3822L209.643 45.4111C212.185 45.4137 214.25 43.3566 214.256 40.8115L214.287 17.3152C214.29 14.7728 212.23 12.7078 209.688 12.7026L188.731 12.6737C186.189 12.6711 184.124 14.7308 184.118 17.2733L184.087 40.7695C184.084 43.3146 186.144 45.3796 188.686 45.3822Z" fill="#76D9E3"/>
<path d="M188.684 46.416L209.641 46.4449C212.747 46.4502 215.282 43.9234 215.284 40.8168L215.316 17.3205C215.321 14.2113 212.794 11.6819 209.688 11.6767L188.731 11.6478C185.625 11.6426 183.09 14.1693 183.088 17.2759L183.056 40.7722C183.053 43.8788 185.578 46.4108 188.684 46.416ZM209.685 13.7364C211.656 13.739 213.256 15.3448 213.254 17.3153L213.222 40.8116C213.219 42.7821 211.614 44.3826 209.643 44.38L188.687 44.3511C186.716 44.3485 185.116 42.7427 185.118 40.7722L185.15 17.2759C185.152 15.3054 186.758 13.7049 188.729 13.7075L209.685 13.7364Z" fill="#BF2A23"/>
<path d="M223.292 45.1382L244.248 45.1671C246.791 45.1697 248.856 43.11 248.861 40.5675L248.893 17.0712C248.895 14.5287 246.836 12.4638 244.293 12.4586L223.337 12.4297C220.794 12.4271 218.729 14.4841 218.724 17.0292L218.692 40.5255C218.69 43.068 220.747 45.133 223.292 45.1382Z" fill="#76D9E3"/>
<path d="M223.29 46.1694L244.246 46.1983C247.353 46.2036 249.887 43.6768 249.89 40.5702L249.921 17.0739C249.927 13.9647 247.4 11.4327 244.293 11.4301L223.337 11.4013C220.23 11.396 217.696 13.9227 217.693 17.0293L217.662 40.5256C217.656 43.6322 220.183 46.1642 223.29 46.1694ZM244.291 13.4898C246.261 13.4924 247.862 15.0982 247.859 17.0687L247.828 40.565C247.825 42.5355 246.219 44.136 244.249 44.1334L223.292 44.1045C221.322 44.1019 219.721 42.4961 219.724 40.5256L219.755 17.0293C219.758 15.0588 221.364 13.4583 223.334 13.4609L244.291 13.4898Z" fill="#BF2A23"/>
<path d="M3.70511 106.559C0.598513 106.363 0.485695 118.708 3.54769 118.755C3.87304 116.469 3.97012 108.85 3.70511 106.559Z" fill="#FF4515"/>
<path d="M3.66551 106.576L5.61768 106.593L5.51279 118.789L3.56063 118.772L3.66551 106.576Z" fill="#B2B2B2"/>
<path d="M11.4555 143.93C11.445 145.024 11.5159 146.108 11.6654 147.168C11.836 148.443 12.1167 149.687 12.5024 150.886L13.5624 150.894L52.7675 151.057L54.0899 150.65L55.289 150.288C55.7876 148.567 56.0735 146.753 56.1234 144.88C56.147 144.689 56.1496 144.497 56.1496 144.305C56.2545 131.968 46.3339 121.88 33.9862 121.775C21.649 121.672 11.5604 131.59 11.4555 143.93Z" fill="#634E42"/>
<path d="M205.18 145.969V146.168C205.18 147.202 205.249 148.236 205.38 149.204C205.548 150.505 205.847 151.707 206.214 152.906V152.94H207.282L213.154 152.974L238.545 153.074L247.421 152.841L247.823 152.707L249.024 152.339C249.526 150.605 249.793 148.803 249.859 146.934V146.168C249.893 133.923 239.983 123.913 227.706 123.813C215.358 123.714 205.283 133.624 205.18 145.969Z" fill="#634E42"/>
<path d="M224.226 100.435C222.209 100.419 220.574 98.7584 220.592 96.7381L220.821 69.7941C220.831 68.637 221.778 67.7056 222.935 67.7134L226.218 67.7423C227.039 78.7807 228.115 88.1241 228.941 99.9785L224.226 100.435Z" fill="#76D9E3"/>
<path d="M222.542 66.3571L226.9 66.3939C227.32 67.0577 227.087 68.0548 226.528 68.493L222.524 68.4589C221.897 68.4536 221.38 68.9364 221.374 69.5346L221.141 96.9771C221.128 98.457 222.382 99.6718 223.935 99.6849L228.942 99.7689C228.915 99.6455 230.4 100.294 231.096 101.952L223.917 101.787C221.149 101.763 218.913 99.5983 218.934 96.9614L219.168 69.5189C219.184 67.7583 220.697 66.344 222.542 66.3571Z" fill="#BF2A23"/>
<path d="M207.615 148.231L207.576 152.946L248.103 152.702L248.137 148.643C248.232 137.51 239.274 128.4 228.131 128.305L227.884 128.303C216.785 128.208 207.71 137.132 207.615 148.231Z" fill="#1D1D1B"/>
<path d="M13.5239 146.182L13.4819 151.246L14.6075 151.592L54.0041 151.744L54.0461 146.591C54.1406 135.461 45.1829 126.348 34.0395 126.254L33.7928 126.251C22.6941 126.159 13.6184 135.083 13.5239 146.182Z" fill="#1D1D1B"/>
<path d="M222.797 116.131C222.781 120.161 248.261 123.74 256.846 123.774C260.551 123.79 262.894 123.239 263.841 122.226C265.088 120.893 264.251 118.797 264.259 116.506C264.269 114.239 265.077 112.08 263.886 110.736C262.96 109.692 260.659 109.194 256.904 109.178C248.322 109.141 222.813 112.098 222.797 116.131Z" fill="#BF2A23"/>
<path d="M263.833 110.723C266.769 110.587 266.677 122.239 263.786 122.234C263.516 120.072 263.544 112.88 263.833 110.723Z" fill="#FFE697"/>
<path d="M15.3626 126.899C15.3311 129.234 11.9726 131.152 6.85353 131.089C4.64428 131.06 2.36947 130.709 1.81585 130.113C1.08643 129.329 1.18087 124.225 1.90505 123.459C2.46655 122.864 4.72562 122.609 6.96636 122.638C12.0854 122.701 15.3915 124.564 15.3626 126.899Z" fill="#634E42"/>
<path d="M190.387 101.181L211.343 101.359C214.45 101.385 217 98.8794 217.026 95.7702L217.226 72.2739C217.252 69.1673 214.744 66.617 211.637 66.5907L190.681 66.4123C187.571 66.3861 185.024 68.8918 184.995 72.001L184.796 95.4973C184.769 98.6039 187.278 101.154 190.387 101.181ZM211.619 68.6504C213.589 68.6662 215.179 70.2824 215.161 72.2529L214.961 95.7492C214.946 97.7197 213.33 99.3097 211.359 99.2913L190.403 99.1129C188.432 99.0972 186.842 97.4809 186.86 95.5104L187.06 72.0141C187.076 70.0437 188.692 68.4536 190.662 68.472L211.619 68.6504Z" fill="#FF9E00"/>
<path d="M183.822 139.604C183.825 140.787 184.297 141.923 185.134 142.757C185.974 143.592 187.11 144.061 188.293 144.059L194.685 144.043C197.164 144.038 199.227 142.154 199.463 139.685C200.602 127.849 208.418 123.422 214.421 121.893C216.211 121.436 217.46 119.828 217.457 117.978L217.389 71.9143C217.384 68.7159 214.789 66.1288 211.59 66.134L189.886 66.1655C186.485 66.1708 183.736 68.931 183.738 72.3289L183.822 139.604Z" fill="#BF2A23"/>
<path d="M190.385 99.9969L211.341 99.9654C213.884 99.9628 215.944 97.8979 215.941 95.3527L215.907 71.8565C215.904 69.314 213.839 67.2543 211.294 67.2595L190.338 67.291C187.795 67.2936 185.735 69.3586 185.738 71.9037L185.772 95.4C185.777 97.9424 187.842 99.9995 190.385 99.9969Z" fill="#76D9E3"/>
<path d="M15.9841 99.9601L36.9405 99.9286C39.483 99.9234 41.5427 97.861 41.54 95.3159L41.5059 71.8196C41.5033 69.2771 39.4357 67.2175 36.8933 67.2201L15.9368 67.2516C13.3944 67.2542 11.3347 69.3191 11.3373 71.8642L11.3714 95.3605C11.374 97.903 13.4416 99.9627 15.9841 99.9601Z" fill="#76D9E3"/>
<path d="M15.9843 100.991L36.9408 100.96C40.05 100.955 42.5741 98.4227 42.5688 95.3135L42.5347 71.8172C42.5295 68.708 39.9975 66.1838 36.8909 66.1891L15.9345 66.2206C12.8279 66.2259 10.3012 68.7578 10.3064 71.867L10.3405 95.3633C10.3458 98.4699 12.8777 100.997 15.9843 100.991ZM36.8935 68.254C38.864 68.2514 40.4698 69.852 40.4725 71.8224L40.5066 95.3187C40.5092 97.2892 38.9086 98.895 36.9381 98.8976L15.9817 98.9291C14.0112 98.9317 12.4055 97.3312 12.4029 95.3607L12.3687 71.8644C12.3661 69.8939 13.9666 68.2881 15.9371 68.2855L36.8935 68.254Z" fill="#BF2A23"/>
<path d="M50.548 99.908L71.5045 99.8765C74.047 99.8739 76.1066 97.8089 76.104 95.2638L76.0699 71.7675C76.0673 69.2251 74.0023 67.1653 71.4572 67.168L50.5008 67.1994C47.9583 67.2021 45.8986 69.267 45.9013 71.8121L45.9354 95.3084C45.938 97.8535 48.0029 99.9132 50.548 99.908Z" fill="#76D9E3"/>
<path d="M50.5483 100.942L71.5047 100.91C74.614 100.905 77.1381 98.3731 77.1328 95.2665L77.0987 71.7702C77.0934 68.661 74.5614 66.1369 71.4522 66.1421L50.4984 66.1736C47.3892 66.1789 44.8651 68.7108 44.8704 71.8174L44.9045 95.3137C44.9071 98.4203 47.4391 100.944 50.5483 100.942ZM71.4575 68.2018C73.428 68.1992 75.0338 69.7997 75.0364 71.7702L75.0705 95.2665C75.0732 97.237 73.4726 98.8428 71.5021 98.8454L50.5457 98.8769C48.5752 98.8795 46.9694 97.279 46.9667 95.3085L46.9327 71.8122C46.9301 69.8417 48.5306 68.2359 50.5011 68.2333L71.4575 68.2018Z" fill="#BF2A23"/>
<path d="M85.0563 100.152L106.013 100.12C108.555 100.115 110.615 98.0525 110.612 95.5074L110.578 72.0112C110.576 69.4687 108.511 67.409 105.966 67.4116L85.0091 67.4431C82.4666 67.4457 80.4069 69.5107 80.4095 72.0558L80.4436 95.552C80.4462 98.0971 82.5112 100.154 85.0563 100.152Z" fill="#76D9E3"/>
<path d="M85.0566 101.183L106.013 101.151C109.122 101.146 111.646 98.6141 111.641 95.5075L111.607 72.0112C111.602 68.902 109.07 66.3779 105.963 66.3832L85.0067 66.4147C81.9001 66.4199 79.3734 68.9519 79.3787 72.0585L79.4128 95.5548C79.418 98.6614 81.95 101.188 85.0566 101.183ZM105.966 68.4455C107.936 68.4429 109.542 70.0434 109.545 72.0139L109.579 95.5102C109.581 97.4807 107.981 99.0864 106.01 99.0891L85.054 99.1205C83.0835 99.1232 81.4777 97.5226 81.475 95.5521L81.4409 72.0559C81.4383 70.0854 83.0389 68.4796 85.0094 68.477L105.966 68.4455Z" fill="#BF2A23"/>
<path d="M119.618 100.099L140.571 100.068C143.116 100.065 145.174 98.0005 145.171 95.4554L145.137 71.9591C145.134 69.4166 143.069 67.3569 140.524 67.3595L119.568 67.391C117.025 67.3936 114.966 69.4586 114.968 72.0037L115.002 95.5C115.01 98.0451 117.075 100.105 119.618 100.099Z" fill="#76D9E3"/>
<path d="M119.62 101.133L140.576 101.102C143.683 101.097 146.21 98.5646 146.205 95.458L146.17 71.9617C146.165 68.8525 143.633 66.3284 140.527 66.3336L119.573 66.3651C116.464 66.3703 113.939 68.9023 113.945 72.0089L113.979 95.5052C113.979 98.6118 116.511 101.139 119.62 101.133ZM140.527 68.3933C142.497 68.3907 144.103 69.9912 144.105 71.9617L144.14 95.458C144.142 97.4285 142.542 99.0342 140.571 99.0369L119.615 99.0684C117.644 99.071 116.039 97.4705 116.036 95.5L116.002 72.0037C115.999 70.0332 117.6 68.4274 119.57 68.4248L140.527 68.3933Z" fill="#BF2A23"/>
<path d="M154.18 100.049L175.137 100.018C177.679 100.013 179.739 97.9478 179.736 95.4053L179.702 71.909C179.7 69.3665 177.635 67.3068 175.09 67.3095L154.133 67.3409C151.591 67.3435 149.531 69.4085 149.534 71.9536L149.568 95.4499C149.573 97.995 151.635 100.055 154.18 100.049Z" fill="#76D9E3"/>
<path d="M154.181 101.081L175.137 101.049C178.246 101.044 180.77 98.512 180.765 95.4054L180.731 71.9091C180.726 68.7999 178.194 66.2758 175.087 66.281L154.131 66.3125C151.024 66.3177 148.497 68.8497 148.503 71.9563L148.537 95.4526C148.542 98.5618 151.074 101.086 154.181 101.081ZM175.09 68.3433C177.06 68.3407 178.666 69.9412 178.669 71.9117L178.703 95.408C178.705 97.3785 177.105 98.9843 175.134 98.9869L154.178 99.0184C152.208 99.021 150.602 97.4205 150.599 95.45L150.565 71.9537C150.562 69.9832 152.163 68.3775 154.133 68.3748L175.09 68.3433Z" fill="#BF2A23"/>
<path d="M187.451 107.336C187.451 107.887 190.075 108.33 193.31 108.325C196.545 108.32 199.169 107.871 199.167 107.32C199.167 106.769 196.543 106.328 193.308 106.331C190.072 106.333 187.451 106.785 187.451 107.336Z" fill="#EDEDED"/>
<path d="M2.33541 123.207C0.514485 123.092 0.44888 130.323 2.24357 130.349C2.43511 129.011 2.49284 124.551 2.33541 123.207Z" fill="#FFE697"/>
<path d="M254.513 129.504C254.508 130.226 255.101 130.829 255.822 130.835L262.692 130.892L262.702 128.253L255.846 128.195C255.122 128.187 254.518 128.78 254.513 129.504Z" fill="#634E42"/>
<path d="M254.481 133.361C254.476 134.083 255.069 134.673 255.791 134.681L262.681 134.739L262.691 132.11L255.812 132.052C255.09 132.047 254.487 132.627 254.481 133.361Z" fill="#634E42"/>
<path d="M254.448 137.206C254.44 137.94 255.033 138.531 255.757 138.536L262.657 138.594L262.668 135.964L255.778 135.907C255.056 135.904 254.455 136.484 254.448 137.206Z" fill="#634E42"/>
<path d="M212.976 99.9208C212.973 100.223 213.091 100.514 213.304 100.729C213.516 100.944 213.805 101.067 214.107 101.07L217.78 101.102C218.417 101.107 218.937 100.595 218.942 99.9575L219.063 85.5501C219.066 85.091 218.89 84.6502 218.567 84.3248C218.244 83.9995 217.809 83.8132 217.35 83.8079L214.713 83.7869C213.828 83.7791 213.107 84.4901 213.099 85.3743L212.976 99.9208Z" fill="#575756"/>
<path d="M223.539 107.617C223.696 107.619 223.859 107.583 224.011 107.507C224.52 107.249 224.722 106.628 224.468 106.121L217.701 92.7581C217.444 92.2491 216.825 92.047 216.316 92.3015C215.807 92.5587 215.604 93.1805 215.862 93.6869L222.626 107.05C222.807 107.409 223.166 107.614 223.539 107.617Z" fill="#3C3C3B"/>
<path d="M247.421 152.841L250.725 152.741L258.633 150.337C260.168 149.836 261.369 148.768 262.036 147.401C262.235 147.003 262.369 146.601 262.469 146.168H249.856V146.934C249.79 148.803 249.523 150.605 249.022 152.339L247.82 152.707L247.421 152.841Z" fill="#634E42"/>
<path d="M54.0429 146.168H205.18C205.18 147.202 205.248 148.236 205.379 149.204C205.547 150.505 205.847 151.707 206.214 152.906L188.062 152.772L184.326 152.738L54.0035 151.736L54.0429 146.168Z" fill="#634E42"/>
<path d="M5.82474 146.168C6.65911 148.136 8.32787 149.671 10.4637 150.338L13.4679 151.237L14.1685 151.471L13.7356 148.902L13.5361 146.166L5.82474 146.168Z" fill="#634E42"/>
<path d="M241.609 149.412C241.544 157.189 235.202 163.454 227.404 163.389C219.627 163.323 213.372 156.95 213.437 149.175C213.503 141.388 219.866 135.141 227.64 135.209C235.441 135.272 241.675 141.621 241.609 149.412Z" fill="#DADADA"/>
<path d="M234.855 149.357C234.821 153.405 231.52 156.664 227.461 156.63C223.413 156.596 220.159 153.279 220.193 149.231C220.227 145.177 223.539 141.926 227.585 141.96C231.644 141.997 234.889 145.303 234.855 149.357Z" fill="#F6F6F6"/>
<path d="M227.68 130.893C237.839 130.979 246.012 139.286 245.926 149.451C245.839 159.616 237.529 167.781 227.367 167.697C217.208 167.61 209.037 159.303 209.121 149.141C209.211 138.974 217.52 130.806 227.68 130.893ZM227.417 161.791C234.318 161.848 239.962 156.302 240.019 149.401C240.077 142.498 234.528 136.857 227.627 136.796C220.726 136.739 215.083 142.285 215.025 149.189C214.967 156.092 220.517 161.733 227.417 161.791Z" fill="#3C3C3B"/>
<path d="M47.8515 149.412C47.7859 157.189 41.4442 163.454 33.6462 163.389C25.8692 163.323 19.614 156.95 19.6796 149.175C19.7452 141.388 26.1079 135.141 33.8823 135.209C41.6803 135.272 47.9171 141.621 47.8515 149.412Z" fill="#DADADA"/>
<path d="M41.0949 149.357C41.0608 153.405 37.76 156.664 33.701 156.63C29.6524 156.596 26.3989 153.279 26.433 149.231C26.4671 145.177 29.7784 141.926 33.8269 141.96C37.8833 141.997 41.1291 145.303 41.0949 149.357Z" fill="#F6F6F6"/>
<path d="M33.9188 130.893C44.0808 130.979 52.2514 139.286 52.1648 149.451C52.0783 159.616 43.7686 167.781 33.6066 167.697C23.4472 167.61 15.2766 159.303 15.3605 149.141C15.4497 138.974 23.7594 130.806 33.9188 130.893ZM33.659 161.791C40.5597 161.848 46.2035 156.302 46.2613 149.401C46.319 142.498 40.7696 136.857 33.869 136.796C26.9683 136.739 21.3245 142.285 21.2668 149.189C21.209 156.092 26.7584 161.733 33.659 161.791Z" fill="#3C3C3B"/>
<path d="M10.7445 143.4C10.7288 145.373 9.11774 146.958 7.14725 146.942L3.53694 146.892C1.56645 146.877 -0.0183907 145.263 -2.38419e-05 143.29C0.0157185 141.317 1.62677 139.732 3.59988 139.748L7.21027 139.798C9.17551 139.816 10.7603 141.427 10.7445 143.4Z" fill="#EDEDED"/>
<path d="M253.928 144.623C253.912 146.596 255.497 148.207 257.47 148.225L263.397 148.275C265.371 148.291 266.982 146.706 267 144.733C267.016 142.76 265.431 141.149 263.458 141.131L257.531 141.081C255.557 141.065 253.944 142.652 253.928 144.623Z" fill="#EDEDED"/>
<path d="M11.4558 56.418C11.4558 59.6164 14.0508 62.2114 17.2492 62.2114H207.182C210.381 62.2114 212.976 59.6164 212.976 56.418C212.976 53.2196 210.381 50.6246 207.182 50.6246H17.2492C14.0482 50.6246 11.4558 53.2196 11.4558 56.418Z" fill="#E6332A"/>
</svg>
