<svg width="205" height="84" viewBox="0 0 205 84" fill="none" xmlns="http://www.w3.org/2000/svg">
<path d="M201.903 61.5766L201.801 62.0415C200.924 65.752 198.006 68.5498 194.399 69.3246C193.728 69.4796 193.043 69.5475 192.338 69.5475H16.946L9.57794 67.5373C4.8888 65.1662 2.10586 60.2032 2.50281 54.9642L2.84674 50.3791L3.94633 36.1928C3.98029 35.7109 4.05032 35.2312 4.13523 34.7663C4.90791 30.5229 7.63988 26.8654 11.5542 24.9422L11.6391 24.9083L13.2715 13.4348C14.2161 6.85642 19.7969 1.91042 26.4453 1.78942L115.121 0.00418369C121.304 -0.116813 127.195 2.39228 131.385 6.80547C132.175 7.6291 144.438 21.9194 145.434 22.6751C148.079 24.7193 151.256 26.0248 154.623 26.4197L186.123 30.0602C192.1 30.7649 196.959 35.1951 198.197 41.0687L201.941 58.7767C202.126 59.7043 202.126 60.6659 201.903 61.5766Z" fill="#3C3C3B"/>
<path d="M193.79 40.1241C194.983 40.1241 195.687 38.8292 195.089 37.7975C193.189 34.5158 189.839 32.2253 185.921 31.7711L184.216 31.5737C183.312 31.4696 182.52 32.1765 182.52 33.085V36.2076C182.52 38.3707 184.273 40.1262 186.439 40.1262L193.79 40.1241Z" fill="#EDEDED"/>
<path d="M52.5311 67.4163C52.5311 68.138 52.4971 68.8428 52.4292 69.5454H16.9454C16.8774 68.9446 16.8435 68.3439 16.8435 67.7241C16.7585 57.866 24.6742 49.7932 34.5344 49.7253C44.3903 49.6404 52.4441 57.5582 52.5311 67.4163Z" fill="#2E2E2D"/>
<path d="M194.414 67.4163C194.414 67.6901 194.397 68.4458 194.397 69.3225C193.726 69.4775 193.041 69.5454 192.336 69.5454H158.826C158.758 68.9446 158.722 68.3439 158.722 67.7241C158.637 57.866 166.555 49.7932 176.413 49.7253C186.273 49.6404 194.329 57.5582 194.414 67.4163Z" fill="#2E2E2D"/>
<path d="M22.667 67.6666C22.7222 74.3023 28.1352 79.6496 34.79 79.5922C41.4257 79.5371 46.7622 74.0986 46.707 67.4629C46.6497 60.8165 41.2219 55.4884 34.5862 55.5436C27.9314 55.601 22.6096 61.0203 22.667 67.6666Z" fill="#DADADA"/>
<path d="M28.4304 67.6202C28.4601 71.0739 31.277 73.8568 34.7392 73.8271C38.1929 73.7974 40.9716 70.9678 40.9418 67.5141C40.9121 64.054 38.0868 61.2817 34.6331 61.3114C31.1709 61.339 28.4007 64.1601 28.4304 67.6202Z" fill="#F6F6F6"/>
<path d="M34.5541 51.8651C25.8848 51.9394 18.9116 59.0272 18.9859 67.7008C19.0602 76.3743 26.1502 83.3412 34.8216 83.269C43.4909 83.1947 50.4642 76.1069 50.3899 67.4354C50.3135 58.7598 43.2234 51.7908 34.5541 51.8651ZM34.777 78.2296C28.8885 78.2784 24.072 73.5468 24.0232 67.6562C23.9744 61.7656 28.7081 56.9512 34.5966 56.9024C40.4851 56.8514 45.3016 61.5852 45.3504 67.4758C45.3992 73.3664 40.6634 78.1808 34.777 78.2296Z" fill="#3C3C3B"/>
<path d="M164.553 67.6666C164.61 74.3023 170.021 79.6496 176.676 79.5922C183.312 79.5371 188.648 74.0986 188.593 67.4629C188.536 60.8165 183.108 55.4884 176.472 55.5436C169.818 55.601 164.498 61.0203 164.553 67.6666Z" fill="#DADADA"/>
<path d="M170.318 67.6202C170.348 71.0739 173.165 73.8568 176.627 73.8271C180.081 73.7974 182.857 70.9678 182.83 67.5141C182.8 64.054 179.974 61.2817 176.523 61.3114C173.056 61.339 170.288 64.1601 170.318 67.6202Z" fill="#F6F6F6"/>
<path d="M176.44 51.8651C167.771 51.9394 160.798 59.0272 160.872 67.7008C160.946 76.3743 168.036 83.3412 176.708 83.269C185.377 83.1947 192.35 76.1069 192.276 67.4354C192.202 58.7598 185.11 51.7908 176.44 51.8651ZM176.663 78.2296C170.775 78.2784 165.958 73.5468 165.909 67.6562C165.861 61.7656 170.594 56.9512 176.483 56.9024C182.371 56.8514 187.188 61.5852 187.237 67.4758C187.288 73.3664 182.552 78.1808 176.663 78.2296Z" fill="#3C3C3B"/>
<path d="M144.708 26.3836C143.653 25.6916 142.655 24.9083 141.725 24.0379C141.158 23.5072 129.492 9.79217 128.785 9.0577C125.355 5.49149 120.593 3.4303 115.554 3.4303L31.2468 5.21766C26.2541 5.31743 22.1169 8.97704 21.41 13.9209L19.7691 25.388L19.5908 26.3836H144.708Z" fill="#76D9E3"/>
<path d="M59.1566 4.88013H49.7104V26.5003H59.1566V4.88013Z" fill="#3C3C3B"/>
<path d="M100.912 4.0968H91.4653V25.717H100.912V4.0968Z" fill="#3C3C3B"/>
<path d="M144.708 27.2432H19.5869C19.3322 27.2432 19.0923 27.1307 18.9267 26.9354C18.7633 26.7401 18.6954 26.4833 18.7399 26.2328L18.9204 25.2372L20.557 13.7998C21.3254 8.43991 25.8108 4.46825 31.2281 4.35999L115.537 2.57263C120.753 2.57263 125.803 4.71873 129.405 8.46538C129.719 8.79228 131.766 11.1761 135.096 15.0608C138.161 18.6333 141.974 23.0805 142.318 23.418C143.201 24.2459 144.167 25.0058 145.179 25.6681C145.496 25.8762 145.638 26.2667 145.532 26.6318C145.421 26.9927 145.086 27.2432 144.708 27.2432ZM20.6122 25.5259H142.11C141.779 25.2478 141.452 24.9613 141.138 24.6662C140.815 24.3648 138.147 21.2592 133.791 16.1773C131.173 13.1248 128.469 9.9704 128.165 9.65411C124.884 6.24498 120.29 4.28781 115.552 4.28781L31.262 6.07517C26.6917 6.16857 22.9026 9.51614 22.2573 14.0397L20.6122 25.5259Z" fill="#706F6F"/>
<path d="M93.6386 65.6013H55.3824C54.3359 65.6013 53.4868 64.7522 53.4868 63.7057V27.2433H95.5363V63.7036C95.5363 64.7522 94.6872 65.6013 93.6386 65.6013Z" fill="#2E2E2D"/>
<path d="M142.436 65.6013H98.8627C97.6081 65.6013 96.5913 64.5845 96.5913 63.33V27.2433H144.71V63.3279C144.708 64.5845 143.691 65.6013 142.436 65.6013Z" fill="#2E2E2D"/>
<path d="M87.3571 33.6836C90.2341 33.6836 92.5664 33.2027 92.5664 32.6095C92.5664 32.0163 90.2341 31.5354 87.3571 31.5354C84.4802 31.5354 82.1479 32.0163 82.1479 32.6095C82.1479 33.2027 84.4802 33.6836 87.3571 33.6836Z" fill="#C6C6C6"/>
<path d="M110.228 32.6095C110.228 33.2017 107.895 33.6836 105.019 33.6836C102.142 33.6836 99.8096 33.2039 99.8096 32.6095C99.8096 32.0173 102.142 31.5354 105.019 31.5354C107.895 31.5375 110.228 32.0173 110.228 32.6095Z" fill="#C6C6C6"/>
<path d="M7.61877 36.7233L6.89704 48.7295C6.82912 49.7251 5.96939 50.4978 4.97382 50.4299L2.84473 50.3789L3.94432 36.1926C3.97828 35.7107 4.04831 35.231 4.13322 34.7661L5.9206 34.8001C6.93103 34.868 7.6867 35.7277 7.61877 36.7233Z" fill="#E6332A"/>
<path d="M198.515 64.3851H202.058C203.185 64.3851 204.098 63.4723 204.098 62.3452V58.8023C204.098 57.6751 203.185 56.7623 202.058 56.7623H198.515C197.388 56.7623 196.475 57.6751 196.475 58.8023V62.3452C196.475 63.4723 197.39 64.3851 198.515 64.3851Z" fill="#9D9D9C"/>
<path d="M2.03996 64.3851H5.58283C6.71001 64.3851 7.62279 63.4723 7.62279 62.3452V58.8023C7.62279 57.6751 6.71001 56.7623 5.58283 56.7623H2.03996C0.912778 56.7623 0 57.6751 0 58.8023V62.3452C0 63.4723 0.912778 64.3851 2.03996 64.3851Z" fill="#9D9D9C"/>
<path d="M96.589 5.7738H95.5361V24.524H96.589V5.7738Z" fill="#F9B233"/>
</svg>
