<svg width="400" height="83" viewBox="0 0 400 83" fill="none" xmlns="http://www.w3.org/2000/svg">
<path d="M16.378 66.0337C20.6775 66.0337 24.5564 67.7282 27.4683 70.4332C32.2619 60.6765 46.7689 53.5301 64.1456 53.5301C74.9732 53.5301 84.7283 56.3088 91.719 60.7503C96.3233 51.962 105.427 45.8994 116.044 45.8994C123.455 45.8994 130.152 48.857 135.103 53.6143C144.9 39.0477 165.084 29.0279 188.463 29.0279C204.788 29.0279 219.558 33.9115 230.344 41.8157C239.3 17.4293 262.637 0 290.106 0C317.385 0 340.596 17.1873 349.678 41.3211C354.209 39.2161 359.213 37.9636 364.532 37.9636C384.127 37.9636 400 53.8668 400 73.4749C400 76.7903 399.401 79.9478 398.549 83H350.887H330.525H246.774H229.324H141.82H130.162H101.39H90.2577H32.672H26.8902H0.0630386C0.0525264 82.8 0 82.6108 0 82.4003C0.0210244 73.3594 7.33751 66.0337 16.378 66.0337Z" fill="#F6F6F6"/>
</svg>
