<svg width="209" height="61" viewBox="0 0 209 61" fill="none" xmlns="http://www.w3.org/2000/svg">
<path d="M20.074 34.6336C25.2618 34.6336 29.9436 36.6645 33.5067 39.9226C36.2431 17.4603 55.0345 0 78.0801 0C98.0545 0 114.801 13.1544 120.744 31.2678C126.245 22.0317 136.186 15.7881 147.659 15.7881C162.474 15.7881 174.809 26.1294 178.165 40.0087C181.422 37.3749 185.498 35.7315 190.002 35.7315C200.491 35.7315 209 44.3003 209 54.864C209 57.0242 208.565 59.0624 207.91 61H176.042H172.094H120.323H119.283H39.1148H35.844H1.04038C0.420413 59.0552 4.2321e-06 57.017 4.2321e-06 54.864C-0.00712182 43.6903 8.98585 34.6336 20.074 34.6336Z" fill="#F6F6F6"/>
</svg>
