<svg width="334" height="69" viewBox="0 0 334 69" fill="none" xmlns="http://www.w3.org/2000/svg">
<path d="M13.6756 54.8955C17.2657 54.8955 20.5046 56.3042 22.936 58.5529C26.9387 50.4419 39.052 44.5009 53.5616 44.5009C62.6026 44.5009 70.7482 46.8109 76.5853 50.5033C80.43 43.1973 88.0314 38.1574 96.8969 38.1574C103.085 38.1574 108.677 40.616 112.811 44.5709C120.992 32.4613 137.845 24.1316 157.367 24.1316C170.998 24.1316 183.331 28.1915 192.337 34.7625C199.816 14.4894 219.302 0 242.238 0C265.016 0 284.397 14.2882 291.981 34.3513C295.764 32.6013 299.943 31.5601 304.384 31.5601C320.746 31.5601 334 44.7808 334 61.0815C334 63.8377 333.5 66.4626 332.789 69H292.991H275.988H206.056H191.485H118.42H108.685H84.6609H75.3652H27.2811H22.4533H0.0526373C0.0438596 68.8338 0 68.6765 0 68.5015C0.0175554 60.9855 6.12682 54.8955 13.6756 54.8955Z" fill="#F6F6F6"/>
</svg>
