<svg width="26" height="142" viewBox="0 0 26 142" fill="none" xmlns="http://www.w3.org/2000/svg">
<path d="M16.1852 116.635H9.27539L10.6507 34.2876H14.8083L16.1852 116.635Z" fill="#3C3C3B"/>
<path d="M14.1747 1.44502C14.1747 2.24358 13.5282 2.89004 12.7297 2.89004C11.9311 2.89004 11.2847 2.24358 11.2847 1.44502C11.2847 0.646454 11.9311 0 12.7297 0C13.5282 0 14.1747 0.648039 14.1747 1.44502Z" fill="#3C3C3B"/>
<path d="M15.2758 4.33503C15.2758 5.74044 14.1366 6.88124 12.7296 6.88124C11.3242 6.88124 10.1833 5.74202 10.1833 4.33503C10.1833 2.92804 11.3226 1.78882 12.7296 1.78882C14.1366 1.78882 15.2758 2.92962 15.2758 4.33503Z" fill="#2E2E2D"/>
<path d="M20.2002 32.4051H5.2604L1.5813 11.4222H23.8793L20.2002 32.4051Z" fill="#3C3C3B"/>
<path d="M6.64679 30.7541L3.54761 13.0748H21.913L18.8138 30.7541H6.64679Z" fill="#F9B233"/>
<path d="M23.8711 11.2859C23.7966 7.55452 18.8405 4.54248 12.7293 4.54248C6.61803 4.54248 1.66187 7.55452 1.5874 11.2859H23.8711Z" fill="#3C3C3B"/>
<path d="M22.1712 32.7617C22.1712 33.6046 21.4883 34.2875 20.6454 34.2875H4.81514C3.97221 34.2875 3.28931 33.6046 3.28931 32.7617C3.28931 31.9187 3.97221 31.2358 4.81514 31.2358H20.6454C21.4883 31.2358 22.1712 31.9187 22.1712 32.7617Z" fill="#2E2E2D"/>
<path d="M19.929 35.1354C19.929 35.7771 19.4078 36.2984 18.7661 36.2984H6.6957C6.054 36.2984 5.53271 35.7771 5.53271 35.1354C5.53271 34.4937 6.054 33.9724 6.6957 33.9724H18.7661C19.4078 33.9724 19.929 34.4937 19.929 35.1354Z" fill="#3C3C3B"/>
<path d="M25.4605 11.4222C25.4605 12.1827 24.8442 12.7991 24.0837 12.7991H1.37689C0.616351 12.7991 0 12.1827 0 11.4222C0 10.6616 0.616351 10.0469 1.37689 10.0469H24.0837C24.8442 10.0469 25.4605 10.6632 25.4605 11.4222Z" fill="#2E2E2D"/>
<path d="M13.5548 11.5602H11.9038V32.204H13.5548V11.5602Z" fill="#2E2E2D"/>
<path d="M20.1274 138.31C21.0147 135.83 21.536 132.883 21.536 129.713C21.536 124.928 20.3571 120.648 18.5002 117.736H6.95744C5.10046 120.648 3.92163 124.928 3.92163 129.713C3.92163 132.883 4.44291 135.83 5.3302 138.31H20.1274Z" fill="#3C3C3B"/>
<path d="M9.80921 134.453C8.46718 134.453 7.31846 133.482 7.10297 132.157C6.92393 131.05 6.83203 129.898 6.83203 128.727C6.83203 126.303 7.22656 123.972 7.94273 122.011C8.33884 120.93 9.36715 120.215 10.5175 120.215H14.9413C16.0916 120.215 17.1215 120.93 17.516 122.011C18.2337 123.972 18.6283 126.303 18.6283 128.727C18.6283 129.898 18.5364 131.052 18.3573 132.157C18.1434 133.482 16.9931 134.453 15.6511 134.453H9.80921Z" fill="#2E2E2D"/>
<path d="M19.9294 116.12C19.9294 117.544 18.7743 118.701 17.3483 118.701H8.11256C6.68814 118.701 5.53149 117.546 5.53149 116.12C5.53149 114.695 6.68656 113.539 8.11256 113.539H17.3483C18.7743 113.539 19.9294 114.694 19.9294 116.12Z" fill="#2E2E2D"/>
<path d="M23.1204 138.723C23.1204 140.091 22.0113 141.2 20.6439 141.2H4.81683C3.44787 141.2 2.34033 140.091 2.34033 138.723C2.34033 137.356 3.44945 136.247 4.81683 136.247H20.6439C22.0113 136.247 23.1204 137.356 23.1204 138.723Z" fill="#2E2E2D"/>
<path d="M9.50346 45.0714C9.41473 45.0714 9.32442 45.0524 9.23886 45.0112C8.92989 44.8638 8.79838 44.4946 8.94415 44.1857C9.69043 42.6155 9.39889 40.1453 9.15171 39.38C8.87919 38.5355 8.38167 37.8732 7.75264 37.5151C7.0951 37.1412 6.26167 37.1459 5.72454 37.5294C5.28723 37.8415 5.03214 38.4325 5.10502 38.9633C5.17791 39.5052 5.57244 39.9948 6.08421 40.1833C6.4217 40.3053 6.78137 40.2847 7.02221 40.1247C7.22977 39.9884 7.3486 39.7001 7.2773 39.5084C7.25037 39.4355 7.16798 39.3626 7.07291 39.3293C7.00637 39.3071 6.94616 39.3071 6.90971 39.3261C6.61501 39.5004 6.23632 39.4038 6.06045 39.1107C5.88457 38.816 5.98281 38.4373 6.27593 38.2614C6.62926 38.0507 7.07133 38.0142 7.48487 38.1616C7.92693 38.3169 8.28343 38.6591 8.43871 39.0774C8.70965 39.8094 8.39434 40.7046 7.70194 41.1594C7.13154 41.5365 6.36624 41.6062 5.658 41.3463C4.71049 41.0009 4.01175 40.1326 3.87549 39.1313C3.73922 38.1315 4.18129 37.1079 5.00362 36.5217C5.93211 35.8578 7.28206 35.8261 8.36265 36.4393C9.26104 36.9495 9.95978 37.8589 10.329 38.9997C10.6744 40.0693 10.9501 42.8452 10.0612 44.7165C9.95819 44.9414 9.73638 45.0714 9.50346 45.0714Z" fill="#2E2E2D"/>
<path d="M15.957 45.0714C15.724 45.0714 15.5022 44.9415 15.3961 44.7181C14.5072 42.8468 14.7829 40.0709 15.1283 39.0014C15.4975 37.8606 16.1962 36.9511 17.0946 36.4409C18.1736 35.8277 19.5236 35.861 20.4536 36.5233C21.276 37.1095 21.718 38.1331 21.5818 39.1329C21.4455 40.1327 20.7468 41.0025 19.7993 41.3479C19.091 41.6078 18.3273 41.5381 17.7553 41.1626C17.0645 40.7062 16.7476 39.811 17.0185 39.079C17.1738 38.6607 17.5303 38.3185 17.9724 38.1632C18.3859 38.0159 18.828 38.0523 19.1813 38.263C19.4744 38.4373 19.5711 38.8176 19.3968 39.1123C19.2225 39.4054 18.8422 39.5021 18.5475 39.3278C18.5127 39.3072 18.4509 39.3072 18.3843 39.3309C18.2893 39.3642 18.2085 39.4371 18.1799 39.51C18.1086 39.7017 18.2275 39.9901 18.435 40.1279C18.6775 40.2864 19.0371 40.307 19.373 40.185C19.8848 39.998 20.2793 39.5084 20.3522 38.9665C20.4251 38.4341 20.17 37.8431 19.7327 37.531C19.1956 37.1476 18.3622 37.1428 17.7062 37.5167C17.0772 37.8748 16.5797 38.5355 16.3071 39.3816C16.06 40.1469 15.7684 42.6171 16.5147 44.1873C16.662 44.4962 16.5305 44.8654 16.22 45.0128C16.136 45.0524 16.0457 45.0714 15.957 45.0714Z" fill="#2E2E2D"/>
</svg>
