<svg width="518" height="551" viewBox="0 0 518 551" fill="none" xmlns="http://www.w3.org/2000/svg">
<path d="M348.671 522.658L264.828 258.087L252.792 261.9L335.433 522.658H348.671Z" fill="#B2B2B2"/>
<path d="M182.476 522.658L265.11 261.9L253.081 258.087L169.238 522.658H182.476Z" fill="#B2B2B2"/>
<path d="M258.955 461.59C147.399 461.59 56.6387 370.83 56.6387 259.274C56.6387 147.718 147.399 56.9578 258.955 56.9578C370.511 56.9578 461.271 147.718 461.271 259.274C461.271 370.83 370.511 461.59 258.955 461.59ZM258.955 60.1142C149.137 60.1142 59.7951 149.456 59.7951 259.274C59.7951 369.092 149.137 458.434 258.955 458.434C368.773 458.434 458.115 369.092 458.115 259.274C458.115 149.456 368.773 60.1142 258.955 60.1142Z" fill="#B2B2B2"/>
<path d="M258.954 490.923C131.22 490.923 27.2974 387 27.2974 259.266C27.2974 131.532 131.22 27.6172 258.954 27.6172C386.688 27.6172 490.603 131.54 490.603 259.266C490.603 387.008 386.688 490.923 258.954 490.923ZM258.954 33.93C134.697 33.93 33.6102 135.017 33.6102 259.274C33.6102 383.53 134.697 484.617 258.954 484.617C383.203 484.617 484.298 383.53 484.298 259.274C484.29 135.017 383.203 33.93 258.954 33.93Z" fill="#B2B2B2"/>
<path d="M303.075 33.6368L258.145 259.139L259.689 259.447L304.619 33.9445L303.075 33.6368Z" fill="#B2B2B2"/>
<path d="M346.088 46.542L258.25 259.03L259.712 259.634L347.55 47.1463L346.088 46.542Z" fill="#B2B2B2"/>
<path d="M385.948 67.5511L258.377 258.861L259.687 259.735L387.258 68.4246L385.948 67.5511Z" fill="#B2B2B2"/>
<path d="M420.976 96.1277L258.385 258.718L259.499 259.832L422.089 97.241L420.976 96.1277Z" fill="#B2B2B2"/>
<path d="M449.783 130.976L258.473 258.547L259.346 259.857L450.656 132.286L449.783 130.976Z" fill="#B2B2B2"/>
<path d="M471.048 170.642L258.56 258.479L259.164 259.941L471.652 172.104L471.048 170.642Z" fill="#B2B2B2"/>
<path d="M484.288 213.577L258.786 258.507L259.093 260.051L484.596 215.121L484.288 213.577Z" fill="#B2B2B2"/>
<path d="M488.893 258.482H258.953V260.064H488.893V258.482Z" fill="#B2B2B2"/>
<path d="M259.126 258.487L258.818 260.031L484.344 304.892L484.651 303.348L259.126 258.487Z" fill="#B2B2B2"/>
<path d="M259.279 258.519L258.673 259.981L471.122 347.982L471.727 346.52L259.279 258.519Z" fill="#B2B2B2"/>
<path d="M259.431 258.593L258.556 259.902L449.752 387.657L450.626 386.348L259.431 258.593Z" fill="#B2B2B2"/>
<path d="M259.499 258.721L258.385 259.834L420.976 422.425L422.089 421.312L259.499 258.721Z" fill="#B2B2B2"/>
<path d="M259.65 258.816L258.341 259.69L386.1 450.892L387.409 450.017L259.65 258.816Z" fill="#B2B2B2"/>
<path d="M259.712 258.953L258.25 259.558L346.249 472L347.71 471.395L259.712 258.953Z" fill="#B2B2B2"/>
<path d="M259.744 259.117L258.2 259.424L303.061 484.95L304.605 484.643L259.744 259.117Z" fill="#B2B2B2"/>
<path d="M259.738 259.273H258.163V489.221H259.738V259.273Z" fill="#B2B2B2"/>
<path d="M258.212 259.165L213.282 484.668L214.826 484.975L259.756 259.473L258.212 259.165Z" fill="#B2B2B2"/>
<path d="M258.159 258.966L170.342 471.484L171.804 472.088L259.621 259.57L258.159 258.966Z" fill="#B2B2B2"/>
<path d="M258.214 258.744L130.639 450.061L131.949 450.934L259.524 259.617L258.214 258.744Z" fill="#B2B2B2"/>
<path d="M258.383 258.721L95.792 421.312L96.9053 422.425L259.496 259.835L258.383 258.721Z" fill="#B2B2B2"/>
<path d="M258.588 258.727L67.2778 386.298L68.1513 387.608L259.462 260.037L258.588 258.727Z" fill="#B2B2B2"/>
<path d="M258.664 258.614L46.1924 346.546L46.7973 348.007L259.269 260.075L258.664 258.614Z" fill="#B2B2B2"/>
<path d="M258.771 258.439L33.2617 303.371L33.5694 304.915L259.079 259.983L258.771 258.439Z" fill="#B2B2B2"/>
<path d="M258.954 258.482H29.0137V260.064H258.954V258.482Z" fill="#B2B2B2"/>
<path d="M33.605 213.637L33.2979 215.181L258.823 260.042L259.13 258.498L33.605 213.637Z" fill="#B2B2B2"/>
<path d="M46.8456 170.541L46.2402 172.002L258.682 260.001L259.287 258.539L46.8456 170.541Z" fill="#B2B2B2"/>
<path d="M68.2361 130.857L67.3613 132.167L258.557 259.921L259.431 258.612L68.2361 130.857Z" fill="#B2B2B2"/>
<path d="M96.9053 96.1352L95.792 97.2485L258.383 259.839L259.496 258.726L96.9053 96.1352Z" fill="#B2B2B2"/>
<path d="M131.893 67.6301L130.584 68.5049L258.339 259.7L259.648 258.825L131.893 67.6301Z" fill="#B2B2B2"/>
<path d="M171.713 46.5281L170.251 47.1335L258.25 259.575L259.711 258.97L171.713 46.5281Z" fill="#B2B2B2"/>
<path d="M214.881 33.5949L213.336 33.9021L258.198 259.428L259.742 259.12L214.881 33.5949Z" fill="#B2B2B2"/>
<path d="M259.738 29.3333H258.163V259.274H259.738V29.3333Z" fill="#B2B2B2"/>
<path d="M284.145 259.273C284.145 273.19 272.862 284.465 258.953 284.465C245.037 284.465 233.762 273.182 233.762 259.273C233.762 245.357 245.044 234.082 258.953 234.082C272.87 234.082 284.145 245.357 284.145 259.273Z" fill="#DADADA"/>
<path d="M297.138 63.5907L257.962 32.0042L259.94 29.5417L299.115 61.1282L297.138 63.5907Z" fill="#B2B2B2"/>
<path d="M346.46 45.3883L297.629 60.8916L298.585 63.9L347.415 48.3966L346.46 45.3883Z" fill="#B2B2B2"/>
<path d="M348.313 46.0944L345.509 47.5444L369.05 93.0569L371.853 91.6069L348.313 46.0944Z" fill="#B2B2B2"/>
<path d="M370.625 90.8072L370.358 93.9521L421.415 98.282L421.682 95.1371L370.625 90.8072Z" fill="#B2B2B2"/>
<path d="M423.073 96.5886L419.928 96.855L424.253 147.912L427.398 147.645L423.073 96.5886Z" fill="#B2B2B2"/>
<path d="M426.592 146.304L425.143 149.108L470.66 172.643L472.11 169.839L426.592 146.304Z" fill="#B2B2B2"/>
<path d="M469.816 170.779L454.312 219.61L457.321 220.566L472.824 171.735L469.816 170.779Z" fill="#B2B2B2"/>
<path d="M445.454 181.156L443.484 183.622L483.513 215.602L485.483 213.136L445.454 181.156Z" fill="#B2B2B2"/>
<path d="M448.573 131.328L442.872 182.237L446.008 182.588L451.71 131.679L448.573 131.328Z" fill="#B2B2B2"/>
<path d="M401.284 115.785L400.41 118.818L449.662 133.01L450.536 129.977L401.284 115.785Z" fill="#B2B2B2"/>
<path d="M388.224 67.6263L385.191 68.5002L399.382 117.745L402.415 116.871L388.224 67.6263Z" fill="#B2B2B2"/>
<path d="M386.541 66.5579L335.625 72.2603L335.976 75.3971L386.892 69.6948L386.541 66.5579Z" fill="#B2B2B2"/>
<path d="M305.066 32.7297L302.6 34.7L334.575 74.7231L337.041 72.7529L305.066 32.7297Z" fill="#B2B2B2"/>
<path d="M261.945 59.9266L260.363 57.1955L303.023 32.3845L304.605 35.1156L261.945 59.9266Z" fill="#B2B2B2"/>
<path d="M457.126 219.038L454.713 221.073L487.744 260.241L490.157 258.207L457.126 219.038Z" fill="#B2B2B2"/>
<path d="M483.178 213.642L458.353 258.48L461.115 260.009L485.939 215.171L483.178 213.642Z" fill="#B2B2B2"/>
<path d="M257.957 29.5549L218.761 61.103L220.74 63.5619L259.936 32.0137L257.957 29.5549Z" fill="#B2B2B2"/>
<path d="M171.411 45.3088L170.455 48.3169L219.281 63.8407L220.237 60.8327L171.411 45.3088Z" fill="#B2B2B2"/>
<path d="M169.547 46.0951L146.033 91.623L148.837 93.0715L172.352 47.5436L169.547 46.0951Z" fill="#B2B2B2"/>
<path d="M147.32 90.7902L96.2583 95.0945L96.5234 98.2398L147.585 93.9356L147.32 90.7902Z" fill="#B2B2B2"/>
<path d="M94.7984 96.5214L90.4941 147.583L93.6395 147.849L97.9438 96.7865L94.7984 96.5214Z" fill="#B2B2B2"/>
<path d="M91.3194 146.36L45.7915 169.875L47.24 172.679L92.7678 149.164L91.3194 146.36Z" fill="#B2B2B2"/>
<path d="M48.053 170.795L45.0449 171.752L60.5739 220.578L63.5819 219.621L48.053 170.795Z" fill="#B2B2B2"/>
<path d="M72.4672 181.171L32.4639 213.182L34.436 215.646L74.4393 183.635L72.4672 181.171Z" fill="#B2B2B2"/>
<path d="M69.3399 131.306L66.2031 131.656L71.8944 182.565L75.0312 182.215L69.3399 131.306Z" fill="#B2B2B2"/>
<path d="M116.59 115.817L67.3433 130.031L68.2185 133.063L117.465 118.85L116.59 115.817Z" fill="#B2B2B2"/>
<path d="M129.693 67.625L115.481 116.865L118.514 117.74L132.725 68.5003L129.693 67.625Z" fill="#B2B2B2"/>
<path d="M131.379 66.5214L131.028 69.6582L181.937 75.3495L182.288 72.2126L131.379 66.5214Z" fill="#B2B2B2"/>
<path d="M212.911 32.7686L180.905 72.7771L183.37 74.7489L215.375 34.7404L212.911 32.7686Z" fill="#B2B2B2"/>
<path d="M255.964 59.9268L213.304 35.1159L214.886 32.3848L257.546 57.1958L255.964 59.9268Z" fill="#B2B2B2"/>
<path d="M60.8676 219.119L27.8218 258.272L30.2339 260.308L63.2797 221.155L60.8676 219.119Z" fill="#B2B2B2"/>
<path d="M34.7855 213.613L32.0229 215.14L56.812 259.993L59.5745 258.466L34.7855 213.613Z" fill="#B2B2B2"/>
<path d="M259.939 489.721L257.962 487.259L297.137 455.68L299.115 458.135L259.939 489.721Z" fill="#B2B2B2"/>
<path d="M298.632 455.363L297.676 458.371L346.502 473.9L347.458 470.892L298.632 455.363Z" fill="#B2B2B2"/>
<path d="M369.044 426.219L345.531 471.754L348.336 473.202L371.849 427.667L369.044 426.219Z" fill="#B2B2B2"/>
<path d="M421.478 421.01L370.417 425.314L370.682 428.46L421.743 424.156L421.478 421.01Z" fill="#B2B2B2"/>
<path d="M424.269 371.448L419.954 422.512L423.099 422.778L427.414 371.714L424.269 371.448Z" fill="#B2B2B2"/>
<path d="M470.695 346.608L425.161 370.126L426.609 372.93L472.144 349.412L470.695 346.608Z" fill="#B2B2B2"/>
<path d="M457.427 298.673L454.418 299.63L469.947 348.456L472.956 347.499L457.427 298.673Z" fill="#B2B2B2"/>
<path d="M483.509 303.57L443.506 335.571L445.478 338.036L485.48 306.035L483.509 303.57Z" fill="#B2B2B2"/>
<path d="M445.979 336.695L442.842 337.045L448.529 387.961L451.666 387.611L445.979 336.695Z" fill="#B2B2B2"/>
<path d="M449.719 386.243L400.479 400.454L401.355 403.487L450.595 389.276L449.719 386.243Z" fill="#B2B2B2"/>
<path d="M399.443 401.474L385.227 450.714L388.26 451.589L402.476 402.349L399.443 401.474Z" fill="#B2B2B2"/>
<path d="M335.909 443.916L335.559 447.053L386.475 452.74L386.825 449.603L335.909 443.916Z" fill="#B2B2B2"/>
<path d="M334.614 444.536L302.613 484.539L305.078 486.511L337.079 446.508L334.614 444.536Z" fill="#B2B2B2"/>
<path d="M303.023 486.886L260.363 462.075L261.945 459.344L304.605 484.155L303.023 486.886Z" fill="#B2B2B2"/>
<path d="M487.717 259.013L454.666 298.16L457.078 300.197L490.129 261.049L487.717 259.013Z" fill="#B2B2B2"/>
<path d="M461.145 259.206L458.382 260.733L483.175 305.598L485.938 304.071L461.145 259.206Z" fill="#B2B2B2"/>
<path d="M257.962 489.721L218.794 458.135L220.771 455.68L259.939 487.259L257.962 489.721Z" fill="#B2B2B2"/>
<path d="M219.315 455.444L170.484 470.952L171.44 473.961L220.271 458.452L219.315 455.444Z" fill="#B2B2B2"/>
<path d="M148.837 426.232L146.033 427.682L169.572 473.206L172.376 471.756L148.837 426.232Z" fill="#B2B2B2"/>
<path d="M96.4378 421.013L96.1714 424.159L147.228 428.483L147.495 425.338L96.4378 421.013Z" fill="#B2B2B2"/>
<path d="M93.5665 371.394L90.4214 371.661L94.7468 422.725L97.8919 422.459L93.5665 371.394Z" fill="#B2B2B2"/>
<path d="M47.231 346.54L45.7812 349.344L91.2989 372.879L92.7486 370.075L47.231 346.54Z" fill="#B2B2B2"/>
<path d="M60.5241 298.664L45.0156 347.495L48.024 348.45L63.5325 299.619L60.5241 298.664Z" fill="#B2B2B2"/>
<path d="M34.4414 303.638L32.4712 306.104L72.4943 338.08L74.4645 335.614L34.4414 303.638Z" fill="#B2B2B2"/>
<path d="M71.8952 336.678L66.2031 387.594L69.3399 387.944L75.032 337.028L71.8952 336.678Z" fill="#B2B2B2"/>
<path d="M68.2104 386.233L67.3364 389.266L116.581 403.457L117.455 400.424L68.2104 386.233Z" fill="#B2B2B2"/>
<path d="M118.53 401.487L115.497 402.361L129.687 451.606L132.72 450.732L118.53 401.487Z" fill="#B2B2B2"/>
<path d="M181.927 443.969L131.018 449.671L131.369 452.807L182.278 447.106L181.927 443.969Z" fill="#B2B2B2"/>
<path d="M183.379 444.536L180.913 446.506L212.893 486.535L215.359 484.565L183.379 444.536Z" fill="#B2B2B2"/>
<path d="M214.882 486.885L213.3 484.154L255.96 459.343L257.542 462.074L214.882 486.885Z" fill="#B2B2B2"/>
<path d="M30.2641 258.961L27.8511 260.996L60.8815 300.165L63.2946 298.13L30.2641 258.961Z" fill="#B2B2B2"/>
<path d="M56.861 259.263L32.0376 304.107L34.7992 305.635L59.6226 260.791L56.861 259.263Z" fill="#B2B2B2"/>
<path d="M386.705 521.584H131.207V550.499H386.705V521.584Z" fill="#B2B2B2"/>
<path d="M272.923 13.7748C272.923 21.386 266.752 27.5496 259.148 27.5496C251.537 27.5496 245.374 21.386 245.374 13.7748C245.374 6.16358 251.545 0 259.148 0C266.76 0 272.923 6.17105 272.923 13.7748Z" fill="#878787"/>
<path d="M260.363 13.2231H271.288C271.012 7.17142 266.318 2.29875 260.363 1.69434V13.2231Z" fill="#F9B233"/>
<path d="M258.001 1.69434C252.017 2.26891 247.293 7.14903 247.01 13.2231H258.001V1.69434Z" fill="#F9B233"/>
<path d="M225.652 18.2448C225.652 25.856 219.489 32.0195 211.877 32.0195C204.274 32.0195 198.103 25.856 198.103 18.2448C198.103 10.641 204.274 4.46997 211.877 4.46997C219.489 4.46997 225.652 10.641 225.652 18.2448Z" fill="#878787"/>
<path d="M213.092 17.6928H224.017C223.74 11.6411 219.047 6.76848 213.092 6.16406V17.6928Z" fill="#F9B233"/>
<path d="M210.73 6.16406C204.738 6.73863 200.022 11.6187 199.739 17.6928H210.73V6.16406Z" fill="#F9B233"/>
<path d="M179.113 32.5492C179.113 40.1529 172.949 46.324 165.338 46.324C157.727 46.324 151.563 40.1604 151.563 32.5492C151.563 24.938 157.727 18.7744 165.338 18.7744C172.949 18.7744 179.113 24.938 179.113 32.5492Z" fill="#878787"/>
<path d="M166.546 31.9975H177.471C177.195 25.9458 172.501 21.0732 166.546 20.4688V31.9975Z" fill="#F9B233"/>
<path d="M164.18 20.4604C158.188 21.035 153.465 25.9151 153.189 31.9892H164.18V20.4604Z" fill="#F9B233"/>
<path d="M136.243 55.8158C136.243 63.427 130.08 69.5906 122.469 69.5906C114.865 69.5906 108.694 63.427 108.694 55.8158C108.694 48.2046 114.865 42.041 122.469 42.041C130.08 42.041 136.243 48.2121 136.243 55.8158Z" fill="#878787"/>
<path d="M123.684 55.2641H134.608C134.332 49.2124 129.638 44.3398 123.684 43.7354V55.2641Z" fill="#F9B233"/>
<path d="M121.322 43.7354C115.33 44.3099 110.614 49.1975 110.33 55.2641H121.322V43.7354Z" fill="#F9B233"/>
<path d="M85.6581 99.3037C93.2657 99.3037 99.4329 93.1365 99.4329 85.5289C99.4329 77.9213 93.2657 71.7542 85.6581 71.7542C78.0505 71.7542 71.8833 77.9213 71.8833 85.5289C71.8833 93.1365 78.0505 99.3037 85.6581 99.3037Z" fill="#878787"/>
<path d="M86.8657 84.9846H97.79C97.5139 78.9329 92.8204 74.0602 86.8657 73.4558V84.9846Z" fill="#F9B233"/>
<path d="M84.4998 73.4485C78.5078 74.0231 73.7844 78.9107 73.5083 84.9772H84.4998V73.4485Z" fill="#F9B233"/>
<path d="M67.1973 123.734C67.5779 131.33 61.7277 137.8 54.1314 138.18C46.5352 138.561 40.0656 132.711 39.685 125.115C39.3045 117.518 45.1547 111.049 52.7509 110.668C60.3472 110.288 66.8168 116.138 67.1973 123.734Z" fill="#878787"/>
<path d="M54.6231 123.816L65.5324 123.264C64.9504 117.234 60.0255 112.6 54.041 112.302L54.6231 123.816Z" fill="#F9B233"/>
<path d="M51.6832 112.414C45.7286 113.287 41.2589 118.406 41.2887 124.48L52.2653 123.928L51.6832 112.414Z" fill="#F9B233"/>
<path d="M45.5074 166.133C45.8879 173.729 40.0378 180.199 32.4415 180.579C24.8452 180.96 18.3757 175.11 17.9951 167.513C17.6145 159.917 23.4647 153.448 31.061 153.067C38.6573 152.687 45.1268 158.537 45.5074 166.133Z" fill="#878787"/>
<path d="M32.9398 166.215L43.8567 165.663C43.2746 159.633 38.3497 155 32.3652 154.701L32.9398 166.215Z" fill="#F9B233"/>
<path d="M29.9933 154.82C24.0386 155.693 19.5689 160.812 19.5988 166.886L30.5753 166.334L29.9933 154.82Z" fill="#F9B233"/>
<path d="M31.731 211.51C32.1116 219.106 26.2614 225.575 18.6651 225.956C11.0688 226.337 4.59929 220.486 4.21873 212.89C3.83817 205.294 9.68835 198.824 17.2846 198.444C24.8809 198.063 31.3505 203.913 31.731 211.51Z" fill="#878787"/>
<path d="M19.164 211.584L30.0735 211.032C29.4914 205.003 24.5665 200.369 18.582 200.07L19.164 211.584Z" fill="#F9B233"/>
<path d="M16.2169 200.19C10.2623 201.063 5.79257 206.182 5.82241 212.256L16.799 211.703L16.2169 200.19Z" fill="#F9B233"/>
<path d="M27.5298 259.304C27.9103 266.9 22.0602 273.37 14.4639 273.75C6.86762 274.131 0.398123 268.281 0.0175627 260.684C-0.362997 253.088 5.48718 246.618 13.0835 246.238C20.6723 245.857 27.1418 251.708 27.5298 259.304Z" fill="#878787"/>
<path d="M14.9555 259.386L25.8723 258.833C25.2903 252.804 20.3654 248.17 14.3809 247.872L14.9555 259.386Z" fill="#F9B233"/>
<path d="M12.0089 247.984C6.05426 248.857 1.58456 253.976 1.61441 260.05L12.591 259.498L12.0089 247.984Z" fill="#F9B233"/>
<path d="M18.3075 319.924C25.9151 319.924 32.0823 313.757 32.0823 306.149C32.0823 298.542 25.9151 292.375 18.3075 292.375C10.6999 292.375 4.53271 298.542 4.53271 306.149C4.53271 313.757 10.6999 319.924 18.3075 319.924Z" fill="#878787"/>
<path d="M19.4955 305.53L30.4123 304.978C29.8303 298.949 24.9054 294.315 18.9209 294.016L19.4955 305.53Z" fill="#F9B233"/>
<path d="M16.545 294.135C10.5904 295.009 6.12069 300.127 6.15054 306.209L17.1271 305.657L16.545 294.135Z" fill="#F9B233"/>
<path d="M46.4468 353.063C46.8274 360.659 40.9772 367.128 33.3809 367.509C25.7847 367.89 19.3151 362.039 18.9346 354.443C18.554 346.847 24.4042 340.377 32.0004 339.997C39.5967 339.609 46.0663 345.459 46.4468 353.063Z" fill="#878787"/>
<path d="M33.8729 353.137L44.7898 352.585C44.2077 346.556 39.2828 341.922 33.2983 341.624L33.8729 353.137Z" fill="#F9B233"/>
<path d="M30.9332 341.743C24.9786 342.616 20.5089 347.735 20.5387 353.809L31.5153 353.257L30.9332 341.743Z" fill="#F9B233"/>
<path d="M69.2559 395.462C69.6365 403.058 63.7863 409.528 56.19 409.908C48.5938 410.289 42.1242 404.439 41.7436 396.842C41.3631 389.246 47.2133 382.776 54.8095 382.396C62.4058 382.015 68.8754 387.865 69.2559 395.462Z" fill="#878787"/>
<path d="M56.6815 395.543L67.5984 394.991C67.0163 388.962 62.0914 384.328 56.1069 384.03L56.6815 395.543Z" fill="#F9B233"/>
<path d="M53.7418 384.142C47.7872 385.015 43.3175 390.134 43.3473 396.208L54.3239 395.656L53.7418 384.142Z" fill="#F9B233"/>
<path d="M85.5453 446.74C93.1529 446.74 99.3201 440.573 99.3201 432.965C99.3201 425.358 93.1529 419.191 85.5453 419.191C77.9377 419.191 71.7705 425.358 71.7705 432.965C71.7705 440.573 77.9377 446.74 85.5453 446.74Z" fill="#878787"/>
<path d="M86.722 432.353L97.6389 431.801C97.0569 425.772 92.132 421.138 86.1475 420.839L86.722 432.353Z" fill="#F9B233"/>
<path d="M83.7828 420.96C77.8282 421.833 73.3585 426.952 73.3883 433.026L84.3649 432.474L83.7828 420.96Z" fill="#F9B233"/>
<path d="M123.019 477.222C130.627 477.222 136.794 471.055 136.794 463.447C136.794 455.84 130.627 449.673 123.019 449.673C115.411 449.673 109.244 455.84 109.244 463.447C109.244 471.055 115.411 477.222 123.019 477.222Z" fill="#878787"/>
<path d="M124.196 462.835L135.113 462.283C134.531 456.254 129.606 451.62 123.622 451.321L124.196 462.835Z" fill="#F9B233"/>
<path d="M121.257 451.442C115.302 452.315 110.832 457.434 110.862 463.515L121.839 462.963L121.257 451.442Z" fill="#F9B233"/>
<path d="M178.456 484.826C178.837 492.422 172.986 498.892 165.39 499.272C157.794 499.653 151.324 493.803 150.944 486.206C150.563 478.61 156.413 472.141 164.01 471.76C171.606 471.379 178.075 477.23 178.456 484.826Z" fill="#878787"/>
<path d="M165.882 484.908L176.798 484.355C176.216 478.326 171.292 473.692 165.307 473.394L165.882 484.908Z" fill="#F9B233"/>
<path d="M162.943 473.506C156.988 474.379 152.518 479.498 152.548 485.579L163.525 485.027L162.943 473.506Z" fill="#F9B233"/>
<path d="M225.636 499.422C226.016 507.018 220.166 513.488 212.57 513.868C204.974 514.249 198.504 508.399 198.124 500.802C197.743 493.206 203.593 486.737 211.189 486.356C218.786 485.975 225.255 491.826 225.636 499.422Z" fill="#878787"/>
<path d="M213.062 499.504L223.979 498.952C223.397 492.922 218.472 488.288 212.487 487.99L213.062 499.504Z" fill="#F9B233"/>
<path d="M210.122 488.102C204.168 488.975 199.698 494.094 199.728 500.168L210.704 499.616L210.122 488.102Z" fill="#F9B233"/>
<path d="M245.075 13.7748C245.075 21.386 251.239 27.5496 258.85 27.5496C266.461 27.5496 272.625 21.386 272.625 13.7748C272.625 6.16358 266.454 0 258.85 0C251.246 0 245.075 6.17105 245.075 13.7748Z" fill="#878787"/>
<path d="M257.636 13.2231H246.711C246.988 7.17142 251.681 2.29875 257.636 1.69434V13.2231Z" fill="#F9B233"/>
<path d="M259.999 1.69434C265.991 2.26891 270.714 7.14903 270.99 13.2231H259.999V1.69434Z" fill="#F9B233"/>
<path d="M292.339 18.2448C292.339 25.856 298.51 32.0195 306.114 32.0195C313.725 32.0195 319.888 25.856 319.888 18.2448C319.888 10.641 313.717 4.46997 306.114 4.46997C298.51 4.46997 292.339 10.641 292.339 18.2448Z" fill="#878787"/>
<path d="M304.907 17.6928H293.982C294.259 11.6411 298.952 6.76848 304.907 6.16406V17.6928Z" fill="#F9B233"/>
<path d="M307.271 6.16406C313.262 6.73863 317.978 11.6187 318.262 17.6928H307.271V6.16406Z" fill="#F9B233"/>
<path d="M338.885 32.5492C338.885 40.1529 345.056 46.324 352.66 46.324C360.271 46.324 366.435 40.1604 366.435 32.5492C366.435 24.938 360.264 18.7744 352.66 18.7744C345.056 18.7744 338.885 24.938 338.885 32.5492Z" fill="#878787"/>
<path d="M351.446 31.9975H340.521C340.798 25.9458 345.491 21.0732 351.446 20.4688V31.9975Z" fill="#F9B233"/>
<path d="M353.816 20.4604C359.801 21.035 364.524 25.9151 364.808 31.9892H353.816V20.4604Z" fill="#F9B233"/>
<path d="M381.755 55.8158C381.755 63.427 387.918 69.5906 395.53 69.5906C403.133 69.5906 409.304 63.427 409.304 55.8158C409.304 48.2046 403.133 42.041 395.53 42.041C387.918 42.041 381.755 48.2121 381.755 55.8158Z" fill="#878787"/>
<path d="M394.312 55.2641H383.388C383.664 49.2124 388.357 44.3398 394.312 43.7354V55.2641Z" fill="#F9B233"/>
<path d="M396.679 43.7354C402.671 44.3099 407.387 49.1975 407.671 55.2641H396.679V43.7354Z" fill="#F9B233"/>
<path d="M418.566 85.5289C418.566 93.1401 424.737 99.3037 432.341 99.3037C439.952 99.3037 446.115 93.1401 446.115 85.5289C446.115 77.9177 439.952 71.7542 432.341 71.7542C424.737 71.7542 418.566 77.9252 418.566 85.5289Z" fill="#878787"/>
<path d="M431.133 84.9846H420.209C420.485 78.9329 425.179 74.0602 431.133 73.4558V84.9846Z" fill="#F9B233"/>
<path d="M433.497 73.4485C439.482 74.0231 444.205 78.9107 444.489 84.9772H433.497V73.4485Z" fill="#F9B233"/>
<path d="M450.803 123.734C450.423 131.33 456.273 137.8 463.869 138.18C471.465 138.561 477.935 132.711 478.315 125.115C478.696 117.518 472.846 111.049 465.25 110.668C457.653 110.288 451.184 116.138 450.803 123.734Z" fill="#878787"/>
<path d="M463.375 123.816L452.458 123.264C453.04 117.234 457.965 112.6 463.949 112.302L463.375 123.816Z" fill="#F9B233"/>
<path d="M466.317 112.414C472.272 113.287 476.742 118.406 476.712 124.48L465.735 123.928L466.317 112.414Z" fill="#F9B233"/>
<path d="M472.485 166.133C472.105 173.729 477.955 180.199 485.551 180.579C493.147 180.96 499.617 175.11 499.998 167.513C500.378 159.917 494.528 153.448 486.932 153.067C479.343 152.687 472.873 158.537 472.485 166.133Z" fill="#878787"/>
<path d="M485.057 166.215L474.141 165.663C474.723 159.633 479.648 155 485.632 154.701L485.057 166.215Z" fill="#F9B233"/>
<path d="M488.007 154.82C493.962 155.693 498.431 160.812 498.401 166.886L487.425 166.334L488.007 154.82Z" fill="#F9B233"/>
<path d="M486.27 211.51C485.889 219.106 491.739 225.575 499.335 225.956C506.932 226.337 513.401 220.486 513.782 212.89C514.162 205.294 508.312 198.824 500.716 198.444C493.12 198.063 486.65 203.913 486.27 211.51Z" fill="#878787"/>
<path d="M498.834 211.584L487.917 211.032C488.499 205.003 493.424 200.369 499.408 200.07L498.834 211.584Z" fill="#F9B233"/>
<path d="M501.783 200.19C507.738 201.063 512.208 206.182 512.178 212.256L501.201 211.703L501.783 200.19Z" fill="#F9B233"/>
<path d="M490.47 259.304C490.09 266.9 495.94 273.37 503.536 273.75C511.132 274.131 517.602 268.281 517.982 260.684C518.363 253.088 512.513 246.618 504.916 246.238C497.328 245.857 490.858 251.708 490.47 259.304Z" fill="#878787"/>
<path d="M503.042 259.386L492.132 258.833C492.714 252.804 497.639 248.17 503.624 247.872L503.042 259.386Z" fill="#F9B233"/>
<path d="M505.991 247.984C511.946 248.857 516.416 253.976 516.386 260.05L505.409 259.498L505.991 247.984Z" fill="#F9B233"/>
<path d="M485.941 305.456C485.561 313.052 491.411 319.521 499.007 319.902C506.604 320.282 513.073 314.432 513.454 306.836C513.834 299.24 507.984 292.77 500.388 292.39C492.792 292.009 486.322 297.859 485.941 305.456Z" fill="#878787"/>
<path d="M498.506 305.53L487.589 304.978C488.171 298.949 493.096 294.315 499.08 294.016L498.506 305.53Z" fill="#F9B233"/>
<path d="M501.455 294.135C507.41 295.009 511.88 300.127 511.85 306.209L500.874 305.657L501.455 294.135Z" fill="#F9B233"/>
<path d="M485.314 367.524C492.921 367.524 499.089 361.357 499.089 353.75C499.089 346.142 492.921 339.975 485.314 339.975C477.706 339.975 471.539 346.142 471.539 353.75C471.539 361.357 477.706 367.524 485.314 367.524Z" fill="#878787"/>
<path d="M484.129 353.137L473.212 352.585C473.794 346.556 478.719 341.922 484.703 341.624L484.129 353.137Z" fill="#F9B233"/>
<path d="M487.067 341.744C493.022 342.617 497.491 347.736 497.461 353.81L486.485 353.258L487.067 341.744Z" fill="#F9B233"/>
<path d="M448.741 395.462C448.36 403.058 454.21 409.528 461.807 409.908C469.403 410.289 475.872 404.439 476.253 396.842C476.633 389.246 470.783 382.776 463.187 382.396C455.591 382.015 449.121 387.865 448.741 395.462Z" fill="#878787"/>
<path d="M461.312 395.543L450.396 394.991C450.978 388.962 455.902 384.328 461.887 384.03L461.312 395.543Z" fill="#F9B233"/>
<path d="M464.254 384.142C470.209 385.015 474.679 390.134 474.649 396.208L463.672 395.656L464.254 384.142Z" fill="#F9B233"/>
<path d="M418.7 432.279C418.319 439.875 424.169 446.345 431.766 446.725C439.362 447.106 445.831 441.256 446.212 433.659C446.592 426.063 440.742 419.593 433.146 419.213C425.55 418.832 419.08 424.682 418.7 432.279Z" fill="#878787"/>
<path d="M431.275 432.353L420.366 431.801C420.948 425.772 425.873 421.138 431.857 420.839L431.275 432.353Z" fill="#F9B233"/>
<path d="M434.214 420.959C440.169 421.832 444.638 426.951 444.608 433.025L433.632 432.473L434.214 420.959Z" fill="#F9B233"/>
<path d="M381.226 462.761C380.845 470.358 386.696 476.827 394.292 477.208C401.888 477.588 408.358 471.738 408.738 464.142C409.119 456.546 403.269 450.076 395.672 449.695C388.076 449.307 381.607 455.165 381.226 462.761Z" fill="#878787"/>
<path d="M393.798 462.836L382.881 462.284C383.463 456.255 388.388 451.621 394.373 451.322L393.798 462.836Z" fill="#F9B233"/>
<path d="M396.74 451.442C402.695 452.315 407.165 457.434 407.135 463.515L396.158 462.963L396.74 451.442Z" fill="#F9B233"/>
<path d="M339.544 484.826C339.163 492.422 345.014 498.892 352.61 499.272C360.206 499.653 366.676 493.803 367.056 486.206C367.437 478.61 361.587 472.141 353.99 471.76C346.394 471.379 339.924 477.23 339.544 484.826Z" fill="#878787"/>
<path d="M352.116 484.908L341.199 484.355C341.781 478.326 346.706 473.692 352.69 473.394L352.116 484.908Z" fill="#F9B233"/>
<path d="M355.058 473.506C361.013 474.379 365.482 479.498 365.453 485.579L354.476 485.027L355.058 473.506Z" fill="#F9B233"/>
<path d="M292.36 499.422C291.98 507.018 297.83 513.488 305.426 513.868C313.023 514.249 319.492 508.399 319.873 500.802C320.253 493.206 314.403 486.737 306.807 486.356C299.21 485.975 292.741 491.826 292.36 499.422Z" fill="#878787"/>
<path d="M304.932 499.504L294.015 498.952C294.597 492.922 299.522 488.288 305.507 487.99L304.932 499.504Z" fill="#F9B233"/>
<path d="M307.875 488.102C313.829 488.975 318.299 494.094 318.269 500.168L307.292 499.616L307.875 488.102Z" fill="#F9B233"/>
<path d="M246.227 503.496C246.227 511.107 252.398 517.271 260.001 517.271C267.613 517.271 273.776 511.107 273.776 503.496C273.776 495.885 267.613 489.721 260.001 489.721C252.398 489.721 246.227 495.885 246.227 503.496Z" fill="#878787"/>
<path d="M258.787 502.944H247.863C248.139 496.892 252.832 492.02 258.787 491.415V502.944Z" fill="#F9B233"/>
<path d="M261.158 491.415C267.15 491.99 271.866 496.87 272.149 502.944H261.158V491.415Z" fill="#F9B233"/>
<path d="M272.834 259.273C272.834 266.937 266.618 273.152 258.954 273.152C251.291 273.152 245.075 266.937 245.075 259.273C245.075 251.61 251.291 245.394 258.954 245.394C266.618 245.394 272.834 251.602 272.834 259.273Z" fill="#EDEDED"/>
</svg>
