<svg width="35" height="100" viewBox="0 0 35 100" fill="none" xmlns="http://www.w3.org/2000/svg">
<path d="M17.6368 2.98076L16.0126 5.02741L25.1232 12.2588L26.7475 10.2122C28.7221 7.72389 28.3093 4.10158 25.8174 2.12333L25.7256 2.05074C23.2374 0.0754874 19.6115 0.492491 17.6368 2.98076Z" fill="#3C3C3B"/>
<path d="M17.6067 3.01794L16.0124 5.02679L25.1231 12.2582L26.7041 10.2661C23.2858 8.00767 20.2071 5.60461 17.6067 3.01794Z" fill="#706F6F"/>
<path d="M14.4826 4.6849C17.7701 8.24719 21.5898 11.2785 25.8055 13.6719C26.2177 13.9065 26.7307 13.7655 26.9455 13.3671C26.9479 13.3623 26.9509 13.3575 26.9533 13.3527C27.1687 12.9537 27.0181 12.4557 26.6233 12.2307C22.5564 9.92183 18.8717 6.99736 15.7 3.56107C15.3916 3.22746 14.872 3.19385 14.5324 3.49446C14.5282 3.49806 14.524 3.50167 14.5198 3.50527C14.1814 3.80467 14.161 4.33629 14.4826 4.6849Z" fill="#4F4F4E"/>
<path d="M27.2638 16.0587L26.905 15.5061L26.779 14.0546C26.761 13.847 26.6608 13.6544 26.5012 13.5206C26.3416 13.3862 26.1351 13.3214 25.9269 13.3394C25.6839 13.3604 25.5045 13.5746 25.5255 13.8176L25.8087 17.0751C25.8393 17.4267 25.9161 17.7729 26.0361 18.1054L26.9482 20.221L29.332 19.1452L29.9092 17.4609C30.1283 16.8939 30.2297 16.2879 30.2075 15.6807L30.0772 14.165C30.0682 13.9166 29.983 13.6772 29.8342 13.4786L27.1624 11.3702C26.3938 10.6292 25.5489 11.4824 26.3332 12.1376L28.2784 13.8266L28.2988 14.3271C28.3138 14.6931 28.1842 15.0501 27.937 15.3207L27.2638 16.0587Z" fill="#FFD2A1"/>
<path d="M14.6472 54.5497H11.8997V61.3539H14.6472H17.394V54.5497H14.6472Z" fill="white"/>
<path d="M8.68069 35.4884L11.9226 30.9481L11.9436 30.9397L11.9688 30.9313V27.8064C14.5284 27.7686 14.9671 27.7644 15.0391 27.7644C15.1105 27.7644 15.5491 27.7686 18.1051 27.8064V30.9313L18.1303 30.9397L18.1513 30.9481L21.8984 35.2184L8.68069 35.4884Z" fill="#F2C28D"/>
<path d="M8.81926 23.6309C8.94646 24.4205 9.12466 25.0355 9.55728 25.1981C9.66048 25.2377 9.76368 25.2497 9.86688 25.2341C9.89868 25.2263 9.92628 25.2143 9.95809 25.2065C10.1963 26.3292 10.5131 27.2214 10.9181 27.8166C11.3981 28.5186 11.7671 29.0502 12.1121 29.451C12.4056 29.7925 12.6396 30.03 12.8658 30.1891C13.3776 30.5659 13.8654 30.5737 15.0114 30.5737H15.0672C15.2496 30.5737 15.42 30.5695 15.579 30.5617C16.7059 30.5059 17.2849 30.2407 17.9629 29.451C18.3079 29.0502 18.6769 28.5192 19.1569 27.8166C19.5655 27.2214 19.8787 26.3292 20.1206 25.2065C20.1482 25.2143 20.18 25.2263 20.2118 25.2341C20.3108 25.2503 20.4182 25.2383 20.5172 25.1981C20.9498 25.0355 21.128 24.4205 21.2552 23.6309C21.4136 22.6511 21.3224 21.7822 20.783 21.691C20.6798 21.6754 20.5766 21.691 20.4734 21.7264V19.2634C20.4734 17.2287 18.8275 15.5823 16.7965 15.5823H13.2822C11.2511 15.5823 9.60108 17.2287 9.60108 19.2634V21.7264C9.50207 21.691 9.39467 21.6748 9.29567 21.691C8.75146 21.7828 8.66026 22.6517 8.81926 23.6309Z" fill="#FFD2A1"/>
<path d="M10.1361 16.4596C10.1835 16.4038 10.2315 16.3444 10.2825 16.2928C10.2987 16.2688 10.3179 16.2489 10.3377 16.2291C11.5119 14.9835 12.6861 14.5791 15.034 14.5791C15.034 14.5791 15.034 14.5791 15.0382 14.5791H15.0424C16.6564 14.5791 17.7161 14.7693 18.6005 15.2931C18.6041 15.2973 18.6041 15.2973 18.6083 15.2973C19.0091 15.5349 19.3739 15.8445 19.7387 16.2291C19.8263 16.3203 19.9091 16.4158 19.9847 16.5148C20.6393 17.3356 20.9922 18.3634 20.9526 19.4224L20.7822 21.6917C20.4887 21.6443 20.1833 21.8387 19.9409 22.1879V19.5538C19.9409 19.5298 19.9409 19.5022 19.9367 19.4782C16.6678 16.285 13.3996 22.8101 10.1349 19.5256V22.1873C9.89307 21.8381 9.58766 21.6437 9.29366 21.6911L9.11905 19.4218C9.08065 18.3394 9.44966 17.2882 10.1361 16.4596Z" fill="#3C3C3B"/>
<path d="M34.4648 30.131L34.4864 30.1796C35.0822 31.5152 34.4828 33.0818 33.1471 33.6777L24.0107 37.9299C22.6751 38.5264 21.1084 37.9264 20.5126 36.5907L20.491 36.5421C19.8946 35.2059 20.4946 33.6399 21.8302 33.044L30.9667 28.7917C32.3017 28.1953 33.8683 28.7953 34.4648 30.131Z" fill="#4D4D4D"/>
<path d="M14.4907 98.7684C14.1499 98.307 14.1217 97.6752 14.3773 96.7524C14.4697 96.4188 14.5975 96.0426 14.7679 95.6166C14.8033 95.5104 14.8531 95.4036 14.8957 95.2902C14.9593 95.304 15.0163 95.3255 15.0661 95.3399C15.2791 95.418 15.4135 95.5104 15.5059 95.6166C15.7969 95.9292 15.7045 96.312 16.2727 96.3408C17.3521 96.3762 17.9978 96.0924 18.6938 95.6166C18.7364 95.5812 18.779 95.553 18.8216 95.517C18.857 95.4954 18.8924 95.4744 18.9278 95.4462C19.0058 95.5026 19.091 95.5596 19.169 95.6166C19.2188 95.652 19.268 95.6874 19.3178 95.7234C19.3958 95.7804 19.4738 95.8296 19.559 95.8866C19.7294 96.0006 20.7092 96.5964 20.9006 96.696C20.936 96.717 21.5108 97.008 21.6884 97.086C21.7737 97.1286 21.8661 97.164 21.9513 97.2C23.1579 97.725 24.5415 97.7388 25.6216 98.0658C26.1184 98.2644 26.4448 98.7474 26.4304 99.2797V99.2851C26.431 99.2893 26.4322 99.2923 26.4322 99.2965H26.4304L26.4346 99.7933L23.0319 99.8101C22.6761 99.8119 22.3155 99.8059 21.9597 99.7915C21.6602 99.7795 21.3608 99.7621 21.0614 99.7393L18.8396 99.5689L17.1943 99.5041V99.8101H14.4931V99.3973C14.4931 99.3973 14.4715 98.9347 14.4931 98.7684H14.4907Z" fill="#4D4D4D"/>
<path d="M15.2428 98.7684C15.2644 98.9347 15.2428 99.3973 15.2428 99.3973V99.8101H12.5421V99.5041L10.8969 99.5689L8.67501 99.7393C8.3762 99.7621 8.0768 99.7795 7.77679 99.7915C7.42158 99.8053 7.06097 99.8113 6.70516 99.8101L3.30247 99.7933L3.30668 99.2965H3.30487C3.30487 99.2923 3.30547 99.2887 3.30607 99.2851V99.2797C3.29167 98.7474 3.61868 98.2644 4.11549 98.0658C5.19552 97.7388 6.57856 97.725 7.78579 97.2C7.87099 97.164 7.96339 97.1286 8.04859 97.086C8.2262 97.008 8.80162 96.717 8.83642 96.696C9.02782 96.5964 10.0076 96.0006 10.1781 95.8866C10.2633 95.8296 10.3413 95.7804 10.4193 95.7234C10.4691 95.688 10.5189 95.6526 10.5681 95.6166C10.6461 95.5596 10.7313 95.5032 10.8099 95.4462C10.8453 95.4744 10.8807 95.496 10.9161 95.517C10.9587 95.5524 11.0013 95.5812 11.0439 95.6166C11.7399 96.0924 12.3855 96.3762 13.4643 96.3408C14.0326 96.312 13.9401 95.9292 14.2312 95.6166C14.3236 95.5104 14.4586 95.418 14.671 95.3399C14.7208 95.3255 14.7772 95.304 14.8414 95.2902C14.884 95.4036 14.9338 95.5104 14.9692 95.6166C15.1396 96.0426 15.2674 96.4188 15.3592 96.7524C15.6148 97.6752 15.5866 98.307 15.2458 98.7684H15.2428Z" fill="#4D4D4D"/>
<path d="M9.41565 60.2643V95.946L14.8506 97.1184L20.4985 95.946V60.2643H9.41565Z" fill="#3C3C3B"/>
<path d="M9.59139 57.3818H20.5303V63.1462H9.59139V57.3818Z" fill="#3C3C3B"/>
<path d="M3.78031 36.4256V39.0453H6.81879V65.626V54.9799C6.81879 54.9799 6.81879 54.9799 4.96414 71.8019H12.7955C13.761 71.8019 14.6058 71.3195 15.1098 70.5809C15.6282 71.3189 16.4088 71.8019 17.3035 71.8019L24.8895 71.7461C23.3156 55.6405 23.2736 55.3309 23.2736 55.3309L23.2538 38.3349L28.6768 35.7806C28.6768 34.496 26.2911 32.0239 24.9069 31.6261L19.2985 31.8895L19.2913 31.8823L16.7995 34.2602H13.3068L10.8149 31.8823L10.8077 31.8895L6.10837 33.6074C4.71754 34.0052 3.78031 35.141 3.78031 36.4256Z" fill="#4D4D4D"/>
<path d="M10.8029 31.8811L13.74 41.6248L15.0252 45.8789L16.3303 41.5738L19.2739 31.8811C16.4167 32.8435 13.5936 32.8321 10.8029 31.8811Z" fill="white"/>
<path d="M14.468 34.2914H15.6104L15.8198 32.579H14.258L14.468 34.2914Z" fill="#C6C6C6"/>
<path d="M13.2749 37.2663L14.4677 34.2944H15.6084L16.8462 37.2663H13.2749Z" fill="#DADADA"/>
<path d="M15.0382 32.5987L16.7854 34.5194L19.2749 31.8835L18.1271 30.6396V30.9631C18.1271 31.5661 16.4986 32.0893 15.0382 32.5987Z" fill="#EDEDED"/>
<path d="M15.0386 32.5987L13.2907 34.5194L10.8013 31.8835L11.9497 30.6396V30.9631C11.9497 31.5661 13.5775 32.0893 15.0386 32.5987Z" fill="#EDEDED"/>
<path d="M15.025 45.879L20.8944 35.8377L19.1135 35.0283L21.1158 35.1285L21.3252 31.8812L18.8141 31.3838L15.025 45.879Z" fill="#616161"/>
<path d="M15.6001 48.0732L9.15533 35.8377L10.9368 35.0283L8.93392 35.1285L8.82232 32.5988L11.2356 31.3838L15.6001 48.0732Z" fill="#616161"/>
<path d="M14.0748 49.3841C14.0748 49.6157 14.2626 49.8035 14.4942 49.8035C14.7258 49.8035 14.9136 49.6157 14.9136 49.3841C14.9136 49.1525 14.7258 48.9647 14.4942 48.9647C14.2626 48.9647 14.0748 49.1525 14.0748 49.3841Z" fill="#E6E6E6"/>
<path d="M14.0748 53.2207C14.0748 53.4523 14.2626 53.6401 14.4942 53.6401C14.7258 53.6401 14.9136 53.4523 14.9136 53.2207C14.9136 52.9891 14.7258 52.8013 14.4942 52.8013C14.2626 52.8013 14.0748 52.9891 14.0748 53.2207Z" fill="#E6E6E6"/>
<g opacity="0.1">
<path d="M8.41179 44.2666H11.9507V45.1432H8.41179V44.2666Z" fill="black"/>
</g>
<path d="M2.33548 49.6955L2.38708 49.7105C3.79112 50.1221 5.26236 49.3175 5.67397 47.9135L8.91825 37.3136C9.32986 35.9096 8.52464 34.4384 7.12121 34.0267L7.0702 34.0117C5.66617 33.6001 4.19493 34.4048 3.78332 35.8088L0.539034 46.4087C0.127423 47.8127 0.932046 49.2839 2.33548 49.6955Z" fill="#4D4D4D"/>
<path d="M14.0748 56.6564C14.0748 56.888 14.2626 57.0757 14.4942 57.0757C14.7258 57.0757 14.9136 56.888 14.9136 56.6564C14.9136 56.4247 14.7258 56.2369 14.4942 56.2369C14.2626 56.2369 14.0748 56.4247 14.0748 56.6564Z" fill="#E6E6E6"/>
<path d="M30.9652 19.828C30.9676 19.8346 30.9718 19.84 30.9742 19.846L34.6259 30.3127C35.1245 31.6879 34.4135 33.2071 33.0382 33.7052L32.9878 33.7238C31.6126 34.2224 30.0934 33.5114 29.5953 32.1355L25.9454 21.6244L30.9652 19.828Z" fill="#4D4D4D"/>
<path d="M30.9432 21.2476C30.8748 21.0742 30.6786 20.9896 30.5052 21.058C30.3324 21.1264 30.2477 21.3226 30.3161 21.4954C30.3846 21.6688 30.5808 21.7534 30.7536 21.685C30.9264 21.6166 31.0116 21.421 30.9432 21.2476Z" fill="#E6E6E6"/>
<path d="M31.3308 22.4164C31.2624 22.243 31.0662 22.1584 30.8928 22.2268C30.72 22.2952 30.6348 22.4914 30.7038 22.6642C30.7722 22.8376 30.9684 22.9223 31.1412 22.8539C31.3146 22.7855 31.3992 22.5898 31.3308 22.4164Z" fill="#E6E6E6"/>
<path d="M31.7358 23.6537C31.6674 23.4803 31.4712 23.3957 31.2978 23.4641C31.125 23.5325 31.0398 23.7287 31.1082 23.9016C31.1766 24.0744 31.3728 24.1595 31.5456 24.0905C31.7196 24.0227 31.8048 23.8265 31.7358 23.6537Z" fill="#E6E6E6"/>
<path d="M29.8114 18.4071L25.8483 19.9761L26.4321 21.4504L30.4468 20.0133L29.8114 18.4071Z" fill="#DADADA"/>
<path d="M4.39589 62.4436H4.40729C4.7067 62.4436 4.94971 62.6866 4.94971 62.9854V67.3691C4.94971 67.6685 4.7067 67.9109 4.40729 67.9109H4.39589C4.09709 67.9109 3.85408 67.6685 3.85408 67.3691V62.9854C3.85408 62.6866 4.09709 62.4436 4.39589 62.4436Z" fill="#FAC48E"/>
<path d="M3.30128 62.9236H3.31207C3.61148 62.9236 3.85449 63.1666 3.85449 63.4654V67.7855C3.85449 68.0849 3.61208 68.3279 3.31207 68.3279H3.30128C3.00187 68.3279 2.75947 68.0849 2.75947 67.7855V63.4654C2.75947 63.1666 3.00187 62.9236 3.30128 62.9236Z" fill="#FAC48E"/>
<path d="M2.20618 62.7645H2.21698C2.51638 62.7645 2.75879 63.0069 2.75879 63.3063V67.6265C2.75879 67.9259 2.51638 68.1683 2.21698 68.1683H2.20618C1.90677 68.1683 1.66437 67.9259 1.66437 67.6265V63.3063C1.66437 63.0069 1.90737 62.7645 2.20618 62.7645Z" fill="#FAC48E"/>
<path d="M1.21357 62.6962H1.22378C1.49859 62.6962 1.72119 62.9188 1.72119 63.1942V67.1603C1.72119 67.4351 1.49859 67.6577 1.22378 67.6577H1.21357C0.938766 67.6577 0.716164 67.4351 0.716164 67.1603V63.1942C0.716164 62.9194 0.939366 62.6962 1.21357 62.6962Z" fill="#FAC48E"/>
<path d="M4.07978 60.8745C4.08338 60.8733 4.08758 60.8715 4.09118 60.8703C4.40379 60.7647 4.7224 60.9627 4.8142 61.2951C5.18081 62.5672 5.67102 63.7552 6.25904 64.8436C6.40844 65.1286 6.31004 65.4808 6.03283 65.6476C6.02923 65.65 6.02623 65.6518 6.02263 65.6536C5.74542 65.8204 5.38541 65.7256 5.22461 65.4244C4.60119 64.2838 4.07978 63.0412 3.68617 61.7127C3.58597 61.3623 3.76777 60.9795 4.07978 60.8745Z" fill="#FAC48E"/>
<path d="M2.28695 60.3177H3.35438C4.2352 60.3177 4.94922 61.0318 4.94922 61.9126V63.2164H0.692112V61.9126C0.692712 61.0318 1.40612 60.3177 2.28695 60.3177Z" fill="#FFCF9F"/>
<path d="M1.4235 58.7462H4.21777V61.6449H1.4235V58.7462Z" fill="#FFCF9F"/>
<path d="M0.692596 63.0183V63.9879C0.692596 64.2537 0.908002 64.4691 1.17381 64.4691H1.18341C1.44922 64.4691 1.66463 64.2537 1.66463 63.9879V64.1643C1.66463 64.4638 1.90703 64.7068 2.20644 64.7068H2.21724C2.51664 64.7068 2.75905 64.4644 2.75905 64.1643V64.3275C2.75905 64.627 3.00146 64.8694 3.30086 64.8694H3.31167C3.61107 64.8694 3.85408 64.6264 3.85408 64.3275C3.85408 64.627 4.09649 64.8694 4.39589 64.8694H4.40729C4.7067 64.8694 4.94971 64.6264 4.94971 64.3275V63.0183H0.692596Z" fill="#FFCF9F"/>
<path d="M0.00140285 58.5188C0.00140285 58.5122 -0.000396252 58.5056 0.000203609 58.4984L0.456816 47.4227C0.499417 45.9604 1.71984 44.8096 3.18208 44.8522L3.23608 44.854C4.69832 44.8966 5.84915 46.117 5.80595 47.5793L5.33074 58.6958L0.00140285 58.5188Z" fill="#4D4D4D"/>
<path d="M0.544816 57.2072C0.544816 57.3932 0.696027 57.5444 0.882032 57.5444C1.06804 57.5444 1.21924 57.3932 1.21924 57.2072C1.21924 57.0206 1.06864 56.87 0.882032 56.87C0.695427 56.87 0.544816 57.0206 0.544816 57.2072Z" fill="#E6E6E6"/>
<path d="M0.614161 55.9772C0.614161 56.1632 0.765363 56.3144 0.951368 56.3144C1.13737 56.3144 1.28857 56.1632 1.28857 55.9772C1.28857 55.7912 1.13737 55.64 0.951368 55.64C0.765363 55.6406 0.614161 55.7912 0.614161 55.9772Z" fill="#E6E6E6"/>
<path d="M0.692765 54.6782C0.692765 54.8642 0.843367 55.0154 1.02997 55.0154C1.21598 55.0154 1.36719 54.8648 1.36719 54.6782C1.36719 54.4922 1.21598 54.3409 1.02997 54.3409C0.843967 54.3409 0.692765 54.4922 0.692765 54.6782Z" fill="#E6E6E6"/>
<path d="M0.551563 60.2643H4.81348V58.6791L0.551563 58.5369V60.2643Z" fill="#DADADA"/>
<path d="M11.2143 27.1475C12.0208 26.8643 12.4096 26.4599 13.5448 26.1341C14.4808 25.8659 14.7808 26.0111 15.037 26.2469C15.2933 26.0111 15.7829 25.8647 16.7189 26.1329C17.8547 26.4581 18.0533 26.8643 18.8597 27.1469C19.7394 27.4553 20.4048 26.2697 20.4048 26.2511C20.4048 26.2697 20.0982 27.6419 19.1142 27.6989C18.1307 27.8591 17.2607 27.1043 16.3835 27.3449C15.7733 27.5123 15.3089 27.4997 15.037 27.3425C14.7652 27.5003 14.3008 27.5123 13.6906 27.3449C12.8134 27.1043 11.9434 27.8591 10.9599 27.6989C9.97651 27.6419 9.66991 26.2697 9.66931 26.2511C9.66871 26.2703 10.3347 27.4559 11.2143 27.1475Z" fill="#3C3C3B"/>
</svg>
