<svg width="218" height="598" viewBox="0 0 218 598" fill="none" xmlns="http://www.w3.org/2000/svg">
<path d="M108.515 0C104.33 0 100.146 1.78202 97.2319 5.35585C69.4584 39.3516 0 144.982 0 351.25C0 449.801 14.7482 538.015 37.983 597.47H179.046C202.281 538.025 217.029 449.811 217.029 351.25C217.029 144.972 147.571 39.3516 119.797 5.35585C116.883 1.79186 112.699 0 108.515 0Z" fill="#DADADA"/>
<path d="M108.515 0C104.33 0 100.146 1.78202 97.2319 5.35585C69.4584 39.3516 0 144.982 0 351.25C0 449.801 14.7482 538.015 37.983 597.47H179.046C202.281 538.025 217.029 449.811 217.029 351.25C217.029 144.972 147.571 39.3516 119.797 5.35585C116.883 1.79186 112.699 0 108.515 0Z" fill="#DADADA"/>
<path d="M38.3777 405.97L23.787 382.892L9.19629 405.97L23.787 429.047L38.3777 405.97Z" fill="#839699"/>
<path d="M38.3777 352.352L23.787 329.275L9.19629 352.352L23.787 375.429L38.3777 352.352Z" fill="#485354"/>
<path d="M23.787 436.51L9.19629 459.587L23.787 482.665L38.3777 459.587L23.787 436.51Z" fill="#839699"/>
<path d="M38.3777 298.735L23.787 275.658L9.19629 298.735L23.787 321.822L38.3777 298.735Z" fill="#839699"/>
<path d="M55.3208 164.702L40.7301 141.615L26.1394 164.702L40.7301 187.779L55.3208 164.702Z" fill="#839699"/>
<path d="M72.2638 137.893L57.6731 114.806L43.0923 137.893L57.6731 160.97L72.2638 137.893Z" fill="#485354"/>
<path d="M55.3208 486.396L40.7301 463.319L26.1394 486.396L40.7301 509.474L55.3208 486.396Z" fill="#839699"/>
<path d="M55.3208 218.309L40.7301 195.231L26.1394 218.309L40.7301 241.396L55.3208 218.309Z" fill="#485354"/>
<path d="M76.981 566.822L91.5716 589.899L106.162 566.822L91.5716 543.735L76.981 566.822Z" fill="#839699"/>
<path d="M161.709 540.013L176.3 563.09L190.891 540.013L176.3 516.926L161.709 540.013Z" fill="#839699"/>
<path d="M173.947 566.822L159.356 543.735L144.766 566.822L159.356 589.899L173.947 566.822Z" fill="#485354"/>
<path d="M110.867 566.822L125.458 589.899L140.049 566.822L125.458 543.735L110.867 566.822Z" fill="#839699"/>
<path d="M40.7301 516.926L26.1394 540.013L40.7301 563.09L55.3208 540.013L40.7301 516.926Z" fill="#485354"/>
<path d="M159.356 597.352L159.277 597.47H159.425L159.356 597.352Z" fill="#839699"/>
<path d="M43.0923 566.822L57.6731 589.899L72.2638 566.822L57.6731 543.735L43.0923 566.822Z" fill="#485354"/>
<path d="M74.6261 516.926L60.0354 540.013L74.6261 563.09L89.2168 540.013L74.6261 516.926Z" fill="#839699"/>
<path d="M108.515 516.926L93.9243 540.013L108.515 563.09L123.106 540.013L108.515 516.926Z" fill="#839699"/>
<path d="M89.2168 111.084L74.6261 87.9968L60.0354 111.084L74.6261 134.161L89.2168 111.084Z" fill="#647375"/>
<path d="M38.3777 245.117L23.787 222.04L9.19629 245.117L23.787 268.205L38.3777 245.117Z" fill="#839699"/>
<path d="M178.653 459.587L193.243 482.665L207.834 459.587L193.243 436.51L178.653 459.587Z" fill="#485354"/>
<path d="M178.653 352.352L193.243 375.429L207.834 352.352L193.243 329.275L178.653 352.352Z" fill="#839699"/>
<path d="M178.653 405.97L193.243 429.047L207.834 405.97L193.243 382.892L178.653 405.97Z" fill="#839699"/>
<path d="M178.653 298.735L193.243 321.822L207.834 298.735L193.243 275.658L178.653 298.735Z" fill="#485354"/>
<path d="M161.709 486.396L176.3 509.474L190.891 486.396L176.3 463.319L161.709 486.396Z" fill="#839699"/>
<path d="M156.992 486.396L142.401 463.319L127.82 486.396L142.401 509.474L156.992 486.396Z" fill="#839699"/>
<path d="M140.049 513.204L125.458 490.127L110.867 513.204L125.458 536.281L140.049 513.204Z" fill="#485354"/>
<path d="M193.243 268.205L207.834 245.117L193.243 222.04L178.653 245.117L193.243 268.205Z" fill="#839699"/>
<path d="M106.162 84.2752L91.5716 61.188L76.981 84.2752L91.5716 107.353L106.162 84.2752Z" fill="#647375"/>
<path d="M173.947 513.204L159.356 490.127L144.766 513.204L159.356 536.281L173.947 513.204Z" fill="#839699"/>
<path d="M89.2168 486.396L74.6261 463.319L60.0354 486.396L74.6261 509.474L89.2168 486.396Z" fill="#839699"/>
<path d="M125.458 107.353L140.049 84.2752L125.458 61.188L110.867 84.2752L125.458 107.353Z" fill="#647375"/>
<path d="M142.401 134.161L156.992 111.084L142.401 87.9968L127.82 111.084L142.401 134.161Z" fill="#647375"/>
<path d="M123.106 57.4661L108.515 34.3789L93.9243 57.4661L108.515 80.5434L123.106 57.4661Z" fill="#647375"/>
<path d="M161.709 218.309L176.3 241.396L190.891 218.309L176.3 195.231L161.709 218.309Z" fill="#839699"/>
<path d="M123.106 486.396L108.515 463.319L93.9243 486.396L108.515 509.474L123.106 486.396Z" fill="#485354"/>
<path d="M176.3 187.779L190.891 164.702L176.3 141.615L161.709 164.702L176.3 187.779Z" fill="#839699"/>
<path d="M159.356 160.97L173.947 137.893L159.356 114.806L144.766 137.893L159.356 160.97Z" fill="#485354"/>
<path d="M106.162 513.204L91.5716 490.127L76.981 513.204L91.5716 536.281L106.162 513.204Z" fill="#839699"/>
<path d="M142.401 516.926L127.82 540.013L142.401 563.09L156.992 540.013L142.401 516.926Z" fill="#485354"/>
<path d="M140.049 352.352L125.458 329.275L110.867 352.352L125.458 375.429L140.049 352.352Z" fill="#485354"/>
<path d="M178.653 191.511L193.243 214.588L202.813 199.456C201.11 190.999 199.288 182.847 197.378 174.961L193.253 168.424L178.653 191.511Z" fill="#839699"/>
<path d="M195.596 271.927L210.186 295.004L214.686 287.886C213.711 274.801 212.47 262.19 210.964 250.07L210.186 248.839L195.596 271.927Z" fill="#839699"/>
<path d="M209.733 240.667C208.03 228.321 206.081 216.497 203.905 205.175L195.596 218.319L209.733 240.667Z" fill="#839699"/>
<path d="M215.708 303.746C215.541 300.674 215.384 297.573 215.187 294.56L212.538 298.744L215.708 303.746Z" fill="#839699"/>
<path d="M195.596 325.543L210.186 348.621L216.891 338.017C216.763 329.117 216.527 320.384 216.143 311.878L210.186 302.456L195.596 325.543Z" fill="#485354"/>
<path d="M121.116 7.00001C120.683 6.44868 120.22 5.86781 119.797 5.35585C116.882 1.78202 112.698 0 108.514 0C104.33 0 100.145 1.78202 97.2313 5.35585C96.8178 5.86781 96.3551 6.44868 95.9219 7.00001L108.514 26.9268L121.116 7.00001Z" fill="#647375"/>
<path d="M125.458 53.7353L139.065 32.2037C133.404 23.3331 128.195 16.1066 123.716 10.3176L110.858 30.658L125.458 53.7353Z" fill="#647375"/>
<path d="M176.3 134.161L182.581 124.217C179.037 113.939 175.365 104.36 171.633 95.3806L161.709 111.074L176.3 134.161Z" fill="#647375"/>
<path d="M216.952 359.332C216.971 356.635 217.03 353.967 217.03 351.259C217.03 349.261 216.981 347.341 216.971 345.362L212.551 352.352L216.952 359.332Z" fill="#485354"/>
<path d="M106.162 30.658L93.3036 10.3176C88.824 16.1066 83.6159 23.3331 77.9548 32.2037L91.561 53.7353L106.162 30.658Z" fill="#647375"/>
<path d="M159.356 107.353L169.753 90.9112C165.638 81.3022 161.483 72.4611 157.358 64.3486L144.766 84.2656L159.356 107.353Z" fill="#647375"/>
<path d="M142.402 80.5438L155.24 60.2428C150.494 51.1753 145.847 43.1022 141.407 35.9644L127.811 57.4664L142.402 80.5438Z" fill="#647375"/>
<path d="M123.106 325.544L108.515 302.467L93.9243 325.544L108.515 348.631L123.106 325.544Z" fill="#485354"/>
<path d="M161.709 593.631L164.141 597.48H179.047C180.839 592.892 182.562 588.068 184.255 583.146L176.3 570.553L161.709 593.631Z" fill="#485354"/>
<path d="M195.596 379.161L210.186 402.238L216.103 392.875C216.478 384.241 216.743 375.508 216.881 366.667L210.186 356.074L195.596 379.161Z" fill="#839699"/>
<path d="M76.981 352.352L91.5716 375.429L106.162 352.352L91.5716 329.275L76.981 352.352Z" fill="#839699"/>
<path d="M178.653 566.822L185.879 578.262C189.158 568.309 192.229 557.774 195.055 546.62L193.233 543.735L178.653 566.822Z" fill="#839699"/>
<path d="M108.515 248.849L93.9243 271.926L108.515 295.014L123.106 271.926L108.515 248.849Z" fill="#839699"/>
<path d="M196.373 541.234C196.698 539.915 197.013 538.605 197.328 537.276L195.596 540.013L196.373 541.234Z" fill="#839699"/>
<path d="M215.209 410.174C215.396 407.102 215.573 404.03 215.731 400.929L212.551 405.96L215.209 410.174Z" fill="#839699"/>
<path d="M195.596 432.779L210.186 455.856L211.447 453.867C212.786 441.856 213.888 429.52 214.755 416.928L210.186 409.701L195.596 432.779Z" fill="#839699"/>
<path d="M195.596 486.395L204.752 500.878C206.859 488.837 208.7 476.353 210.295 463.485L210.186 463.308L195.596 486.395Z" fill="#485354"/>
<path d="M178.653 513.204L193.243 536.281L199.918 525.727C201.247 519.515 202.527 513.184 203.719 506.696L193.243 490.127L178.653 513.204Z" fill="#839699"/>
<path d="M193.243 160.97L193.647 160.34C190.673 149.313 187.493 138.946 184.215 129.111L178.662 137.893L193.243 160.97Z" fill="#485354"/>
<path d="M19.7 537.276C20.015 538.605 20.3399 539.915 20.6549 541.234L21.4229 540.013L19.7 537.276Z" fill="#839699"/>
<path d="M23.786 543.735L21.9646 546.62C24.7902 557.764 27.8718 568.299 31.1404 578.262L38.3767 566.822L23.786 543.735Z" fill="#839699"/>
<path d="M57.6055 597.47H57.7539L57.6747 597.352L57.6055 597.47Z" fill="#839699"/>
<path d="M40.7311 570.544L32.7761 583.136C34.4695 588.059 36.1924 592.883 37.9843 597.471H52.89L55.3218 593.621L40.7311 570.544Z" fill="#839699"/>
<path d="M38.3771 513.204L23.7864 490.127L13.311 506.696C14.5023 513.194 15.7822 519.515 17.1212 525.727L23.7963 536.281L38.3771 513.204Z" fill="#485354"/>
<path d="M6.84342 463.319L6.73511 463.496C8.33004 476.364 10.1711 488.848 12.278 500.889L21.4341 486.406L6.84342 463.319Z" fill="#485354"/>
<path d="M125.39 597.47H125.539L125.46 597.352L125.39 597.47Z" fill="#839699"/>
<path d="M142.401 570.544L127.82 593.631L130.242 597.471H154.56L156.992 593.631L142.401 570.544Z" fill="#839699"/>
<path d="M21.4328 432.779L6.84214 409.701L2.27393 416.928C3.14031 429.52 4.24296 441.856 5.59176 453.867L6.85198 455.856L21.4328 432.779Z" fill="#839699"/>
<path d="M108.515 570.544L93.9243 593.631L96.3561 597.471H120.674L123.106 593.631L108.515 570.544Z" fill="#839699"/>
<path d="M74.6261 570.544L60.0354 593.631L62.4672 597.471H86.785L89.2168 593.631L74.6261 570.544Z" fill="#485354"/>
<path d="M91.4917 597.47H91.6401L91.5709 597.352L91.4917 597.47Z" fill="#839699"/>
<path d="M72.2642 84.2754L59.672 64.3584C55.5469 72.4611 51.3922 81.3119 47.2769 90.9209L57.6636 107.363L72.2642 84.2754Z" fill="#647375"/>
<path d="M38.3766 137.893L32.8239 129.111C29.5355 138.956 26.3654 149.323 23.3921 160.34L23.7957 160.97L38.3766 137.893Z" fill="#485354"/>
<path d="M13.1234 205.175C10.9475 216.497 8.99815 228.331 7.29492 240.667L21.4229 218.309L13.1234 205.175Z" fill="#839699"/>
<path d="M38.3773 191.51L23.7866 168.433L19.6614 174.97C17.7416 182.856 15.9202 191.008 14.2268 199.465L23.7964 214.598L38.3773 191.51Z" fill="#485354"/>
<path d="M55.3207 111.083L45.3967 95.3901C41.6653 104.369 37.993 113.958 34.4487 124.227L40.73 134.171L55.3207 111.083Z" fill="#647375"/>
<path d="M89.2168 57.4664L75.6205 35.9644C71.1803 43.112 66.5333 51.1753 61.7878 60.2428L74.6261 80.5438L89.2168 57.4664Z" fill="#647375"/>
<path d="M0.0590767 345.362C0.0492315 347.341 0 349.261 0 351.259C0 353.967 0.0492207 356.635 0.0787565 359.332L4.48942 352.362L0.0590767 345.362Z" fill="#839699"/>
<path d="M21.432 379.161L6.84127 356.083L0.146484 366.677C0.284318 375.518 0.550126 384.251 0.924247 392.885L6.84127 402.248L21.432 379.161Z" fill="#839699"/>
<path d="M1.30029 400.939C1.45782 404.04 1.63501 407.112 1.82207 410.184L4.4803 405.98L1.30029 400.939Z" fill="#839699"/>
<path d="M21.4328 325.544L6.84208 302.467L0.885694 311.889C0.501728 320.395 0.26544 329.138 0.137451 338.028L6.84208 348.631L21.4328 325.544Z" fill="#485354"/>
<path d="M21.4336 271.926L6.84288 248.849L6.06508 250.08C4.55875 262.199 3.30842 274.811 2.33374 287.895L6.83304 295.014L21.4336 271.926Z" fill="#839699"/>
<path d="M1.84139 294.55C1.64449 297.573 1.48695 300.664 1.31958 303.736L4.4799 298.735L1.84139 294.55Z" fill="#839699"/>
<path d="M106.162 405.97L91.5716 382.892L76.981 405.97L91.5716 429.047L106.162 405.97Z" fill="#839699"/>
<path d="M190.891 432.779L176.3 409.701L161.709 432.779L176.3 455.856L190.891 432.779Z" fill="#485354"/>
<path d="M176.3 302.467L161.709 325.544L176.3 348.631L190.891 325.544L176.3 302.467Z" fill="#839699"/>
<path d="M176.3 356.083L161.709 379.161L176.3 402.238L190.891 379.161L176.3 356.083Z" fill="#839699"/>
<path d="M127.82 164.702L142.401 187.779L156.992 164.702L142.401 141.615L127.82 164.702Z" fill="#839699"/>
<path d="M144.766 245.117L159.356 268.205L173.947 245.117L159.356 222.04L144.766 245.117Z" fill="#485354"/>
<path d="M159.356 168.424L144.766 191.511L159.356 214.588L173.947 191.511L159.356 168.424Z" fill="#839699"/>
<path d="M176.3 248.849L161.709 271.926L176.3 295.014L190.891 271.926L176.3 248.849Z" fill="#485354"/>
<path d="M106.162 459.587L91.5716 436.51L76.981 459.587L91.5716 482.665L106.162 459.587Z" fill="#485354"/>
<path d="M123.106 432.779L108.515 409.701L93.9243 432.779L108.515 455.856L123.106 432.779Z" fill="#839699"/>
<path d="M156.992 432.779L142.401 409.701L127.82 432.779L142.401 455.856L156.992 432.779Z" fill="#839699"/>
<path d="M173.947 459.587L159.356 436.51L144.766 459.587L159.356 482.665L173.947 459.587Z" fill="#839699"/>
<path d="M140.049 459.587L125.458 436.51L110.867 459.587L125.458 482.665L140.049 459.587Z" fill="#839699"/>
<path d="M57.6731 268.205L72.2638 245.117L57.6731 222.04L43.0923 245.117L57.6731 268.205Z" fill="#485354"/>
<path d="M40.7301 348.631L55.3208 325.544L40.7301 302.467L26.1394 325.544L40.7301 348.631Z" fill="#839699"/>
<path d="M40.7301 402.238L55.3208 379.161L40.7301 356.083L26.1394 379.161L40.7301 402.238Z" fill="#485354"/>
<path d="M26.1394 271.926L40.7301 295.014L55.3208 271.926L40.7301 248.849L26.1394 271.926Z" fill="#839699"/>
<path d="M72.2638 459.587L57.6731 436.51L43.0923 459.587L57.6731 482.665L72.2638 459.587Z" fill="#839699"/>
<path d="M110.867 137.893L125.458 160.97L140.049 137.893L125.458 114.806L110.867 137.893Z" fill="#485354"/>
<path d="M40.7301 455.856L55.3208 432.779L40.7301 409.701L26.1394 432.779L40.7301 455.856Z" fill="#839699"/>
<path d="M93.9243 111.084L108.515 134.161L123.106 111.084L108.515 87.9968L93.9243 111.084Z" fill="#647375"/>
<path d="M76.981 137.893L91.5716 160.97L106.162 137.893L91.5716 114.806L76.981 137.893Z" fill="#485354"/>
<path d="M89.2168 432.779L74.6261 409.701L60.0354 432.779L74.6261 455.856L89.2168 432.779Z" fill="#485354"/>
<path d="M60.0354 164.702L74.6261 187.779L89.2168 164.702L74.6261 141.615L60.0354 164.702Z" fill="#839699"/>
<path d="M43.0923 191.511L57.6731 214.588L72.2638 191.511L57.6731 168.424L43.0923 191.511Z" fill="#839699"/>
<path d="M93.9243 164.702L108.515 187.779L123.106 164.702L108.515 141.615L93.9243 164.702Z" fill="#485354"/>
<path d="M57.6731 536.281L72.2638 513.204L57.6731 490.127L43.0923 513.204L57.6731 536.281Z" fill="#839699"/>
<path d="M74.6261 402.238L89.2168 379.161L74.6261 356.083L60.0354 379.161L74.6261 402.238Z" fill="#839699"/>
<path d="M60.0354 325.544L74.6261 348.631L89.2168 325.544L74.6261 302.467L60.0354 325.544Z" fill="#839699"/>
<path d="M123.106 379.161L108.515 356.083L93.9243 379.161L108.515 402.238L123.106 379.161Z" fill="#839699"/>
<path d="M156.992 379.161L142.401 356.083L127.82 379.161L142.401 402.238L156.992 379.161Z" fill="#485354"/>
<path d="M140.049 405.97L125.458 382.892L110.867 405.97L125.458 429.047L140.049 405.97Z" fill="#839699"/>
<path d="M93.9243 218.309L108.515 241.396L123.106 218.309L108.515 195.231L93.9243 218.309Z" fill="#839699"/>
<path d="M125.458 222.04L110.867 245.117L125.458 268.205L140.049 245.117L125.458 222.04Z" fill="#839699"/>
<path d="M91.5716 321.822L106.162 298.735L91.5716 275.658L76.981 298.735L91.5716 321.822Z" fill="#485354"/>
<path d="M110.867 298.735L125.458 321.822L140.049 298.735L125.458 275.658L110.867 298.735Z" fill="#839699"/>
<path d="M76.981 245.117L91.5716 268.205L106.162 245.117L91.5716 222.04L76.981 245.117Z" fill="#839699"/>
<path d="M173.947 405.97L159.356 382.892L144.766 405.97L159.356 429.047L173.947 405.97Z" fill="#485354"/>
<path d="M110.867 191.511L125.458 214.588L140.049 191.511L125.458 168.424L110.867 191.511Z" fill="#485354"/>
<path d="M60.0354 218.309L74.6261 241.396L89.2168 218.309L74.6261 195.231L60.0354 218.309Z" fill="#839699"/>
<path d="M76.981 191.511L91.5716 214.588L106.162 191.511L91.5716 168.424L76.981 191.511Z" fill="#839699"/>
<path d="M74.6261 295.014L89.2168 271.926L74.6261 248.849L60.0354 271.926L74.6261 295.014Z" fill="#485354"/>
<path d="M57.6731 375.429L72.2638 352.352L57.6731 329.275L43.0923 352.352L57.6731 375.429Z" fill="#839699"/>
<path d="M43.0923 298.735L57.6731 321.822L72.2638 298.735L57.6731 275.658L43.0923 298.735Z" fill="#839699"/>
<path d="M159.356 329.275L144.766 352.352L159.356 375.429L173.947 352.352L159.356 329.275Z" fill="#839699"/>
<path d="M159.356 275.658L144.766 298.735L159.356 321.822L173.947 298.735L159.356 275.658Z" fill="#839699"/>
<path d="M127.82 271.926L142.401 295.014L156.992 271.926L142.401 248.849L127.82 271.926Z" fill="#839699"/>
<path d="M142.401 195.231L127.82 218.309L142.401 241.396L156.992 218.309L142.401 195.231Z" fill="#485354"/>
<path d="M156.992 325.544L142.401 302.467L127.82 325.544L142.401 348.631L156.992 325.544Z" fill="#839699"/>
<path d="M57.6731 429.047L72.2638 405.97L57.6731 382.892L43.0923 405.97L57.6731 429.047Z" fill="#485354"/>
<path d="M190.733 128.648H24.4065V139.685H190.733V128.648Z" fill="#485354"/>
</svg>
