<svg width="220" height="246" viewBox="0 0 220 246" fill="none" xmlns="http://www.w3.org/2000/svg">
<path d="M196.705 46.2144H177.46L169.367 71.0102H204.798L196.705 46.2144Z" fill="#516264"/>
<path d="M219.01 71.0103H155.151V245.746H219.01V71.0103Z" fill="#E0AB75"/>
<path d="M169.784 48.519H155.151V245.466H169.784V48.519Z" fill="#CE9555"/>
<path d="M219.01 48.519H204.378V245.466H219.01V48.519Z" fill="#CE9555"/>
<path opacity="0.1" d="M219.013 217.318H155.155V220.581H219.013V217.318Z" fill="#10100F"/>
<path opacity="0.1" d="M219.013 177.342H155.155V180.605H219.013V177.342Z" fill="#10100F"/>
<path opacity="0.1" d="M219.013 168.185H155.155V171.448H219.013V168.185Z" fill="#10100F"/>
<path opacity="0.1" d="M219.014 128.753H155.151V132.016H219.014V128.753Z" fill="#10100F"/>
<path opacity="0.1" d="M219.014 119.596H155.151V122.858H219.014V119.596Z" fill="#10100F"/>
<path opacity="0.1" d="M219.01 80.1644H155.151V83.4272H219.01V80.1644Z" fill="#10100F"/>
<path opacity="0.1" d="M219.01 71.0103H155.151V74.273H219.01V71.0103Z" fill="#10100F"/>
<path d="M167.424 31.9301H157.505V48.5123H167.424V31.9301Z" fill="#CE9555"/>
<path d="M216.654 31.9301H206.735V48.5123H216.654V31.9301Z" fill="#CE9555"/>
<path opacity="0.1" d="M167.424 32.6708H157.505V35.93H167.424V32.6708Z" fill="#10100F"/>
<path opacity="0.1" d="M169.784 48.519H155.151V51.7783H169.784V48.519Z" fill="#10100F"/>
<path opacity="0.1" d="M216.654 31.9301H206.735V35.1893H216.654V31.9301Z" fill="#10100F"/>
<path opacity="0.1" d="M219.01 48.519H204.378V51.7783H219.01V48.519Z" fill="#10100F"/>
<path d="M167.579 32.6709H157.284L162.438 1.3186L167.579 32.6709Z" fill="#AB7C47"/>
<path d="M216.781 31.9301H206.607L211.696 0.581299L216.781 31.9301Z" fill="#AB7C47"/>
<path opacity="0.3" d="M158.087 54.111H158.063C157.363 54.111 156.798 54.676 156.798 55.3754V68.8569H159.351V55.3754C159.351 54.676 158.783 54.111 158.087 54.111Z" fill="#10100F"/>
<path opacity="0.3" d="M162.479 54.111H162.455C161.756 54.111 161.191 54.676 161.191 55.3754V68.8569H163.744V55.3754C163.744 54.676 163.179 54.111 162.479 54.111Z" fill="#10100F"/>
<path opacity="0.3" d="M162.486 36.8087H162.445C161.349 36.8087 160.464 37.6976 160.464 38.7898V46.9103H164.467V38.7898C164.467 37.6976 163.582 36.8087 162.486 36.8087Z" fill="#10100F"/>
<path opacity="0.3" d="M166.872 54.111H166.847C166.148 54.111 165.583 54.676 165.583 55.3754V68.8569H168.139V55.3754C168.136 54.676 167.571 54.111 166.872 54.111Z" fill="#10100F"/>
<path opacity="0.3" d="M174.586 182.845H174.531C172.994 182.845 171.75 184.088 171.75 185.625V215.258H177.366V185.625C177.366 184.088 176.123 182.845 174.586 182.845Z" fill="#10100F"/>
<path opacity="0.3" d="M182.937 182.845H182.881C181.345 182.845 180.101 184.088 180.101 185.625V215.258H185.717V185.625C185.713 184.088 184.47 182.845 182.937 182.845Z" fill="#10100F"/>
<path opacity="0.3" d="M191.286 182.845H191.231C189.697 182.845 188.45 184.088 188.45 185.625V215.258H194.066V185.625C194.066 184.088 192.819 182.845 191.286 182.845Z" fill="#10100F"/>
<path opacity="0.3" d="M199.633 182.845H199.578C198.045 182.845 196.797 184.088 196.797 185.625V215.258H202.413V185.625C202.413 184.088 201.169 182.845 199.633 182.845Z" fill="#10100F"/>
<path opacity="0.3" d="M174.586 133.914H174.531C172.994 133.914 171.75 135.158 171.75 136.695V166.328H177.366V136.695C177.366 135.158 176.123 133.914 174.586 133.914Z" fill="#10100F"/>
<path opacity="0.3" d="M182.937 133.914H182.881C181.345 133.914 180.101 135.158 180.101 136.695V166.328H185.717V136.695C185.713 135.158 184.47 133.914 182.937 133.914Z" fill="#10100F"/>
<path opacity="0.3" d="M191.286 133.914H191.231C189.697 133.914 188.45 135.158 188.45 136.695V166.328H194.066V136.695C194.066 135.158 192.819 133.914 191.286 133.914Z" fill="#10100F"/>
<path opacity="0.3" d="M199.633 133.914H199.578C198.045 133.914 196.797 135.158 196.797 136.695V166.328H202.413V136.695C202.413 135.158 201.169 133.914 199.633 133.914Z" fill="#10100F"/>
<path opacity="0.3" d="M207.313 54.111H207.289C206.59 54.111 206.025 54.676 206.025 55.3754V68.8569H208.581V55.3754C208.578 54.676 208.013 54.111 207.313 54.111Z" fill="#10100F"/>
<path opacity="0.3" d="M211.706 54.111H211.682C210.983 54.111 210.417 54.676 210.417 55.3754V68.8569H212.974V55.3754C212.97 54.676 212.405 54.111 211.706 54.111Z" fill="#10100F"/>
<path opacity="0.3" d="M211.713 36.8087H211.671C210.576 36.8087 209.69 37.6976 209.69 38.7898V46.9103H213.694V38.7898C213.697 37.6976 212.808 36.8087 211.713 36.8087Z" fill="#10100F"/>
<path opacity="0.3" d="M216.102 54.111H216.077C215.378 54.111 214.813 54.676 214.813 55.3754V68.8569H217.369V55.3754C217.366 54.676 216.798 54.111 216.102 54.111Z" fill="#10100F"/>
<path d="M190.789 59.4927H183.375V71.0379H190.789V59.4927Z" fill="#CE9555"/>
<path d="M189.598 51.0824H184.568V59.4889H189.598V51.0824Z" fill="#CE9555"/>
<path opacity="0.1" d="M189.598 51.0824H184.568V52.7362H189.598V51.0824Z" fill="#10100F"/>
<path opacity="0.1" d="M190.789 59.4927H183.375V61.1464H190.789V59.4927Z" fill="#10100F"/>
<path d="M189.66 51.0827H184.505L187.082 35.193L189.66 51.0827Z" fill="#AB7C47"/>
<path opacity="0.3" d="M184.861 62.3247H184.847C184.492 62.3247 184.206 62.6107 184.206 62.9655V69.801H185.502V62.9655C185.505 62.6141 185.216 62.3247 184.861 62.3247Z" fill="#10100F"/>
<path opacity="0.3" d="M187.09 62.3247H187.076C186.721 62.3247 186.435 62.6107 186.435 62.9655V69.801H187.731V62.9655C187.731 62.6141 187.445 62.3247 187.09 62.3247Z" fill="#10100F"/>
<path opacity="0.3" d="M187.093 53.5563H187.072C186.518 53.5563 186.066 54.0076 186.066 54.5623V58.6794H188.096V54.5623C188.099 54.0076 187.648 53.5563 187.093 53.5563Z" fill="#10100F"/>
<path opacity="0.3" d="M189.315 62.3247H189.301C188.947 62.3247 188.661 62.6107 188.661 62.9655V69.801H189.956V62.9655C189.956 62.6141 189.67 62.3247 189.315 62.3247Z" fill="#10100F"/>
<path d="M178.05 68.2919H175.218L176.634 59.5581L178.05 68.2919Z" fill="#AB7C47"/>
<path d="M182.993 71.0379C182.903 67.6202 180.14 64.8571 176.692 64.8261C173.208 64.7951 170.363 67.5685 170.273 71.0379H182.993Z" fill="#CE9555"/>
<path d="M198.893 68.2919H196.058L197.477 59.5581L198.893 68.2919Z" fill="#AB7C47"/>
<path d="M203.833 71.0379C203.744 67.6202 200.981 64.8571 197.532 64.8261C194.049 64.7951 191.203 67.5685 191.113 71.0379H203.833Z" fill="#CE9555"/>
<path opacity="0.3" d="M194.067 116.581V92.4295C194.067 88.6121 190.973 85.5182 187.156 85.5182H187.014C183.197 85.5182 180.103 88.6121 180.103 92.4295V116.581H194.067Z" fill="#10100F"/>
<path opacity="0.3" d="M180.492 233.622H174.949V245.467H180.492V233.622Z" fill="#10100F"/>
<path opacity="0.3" d="M199.221 233.622H193.677V245.467H199.221V233.622Z" fill="#10100F"/>
<path d="M41.6558 46.2144H22.4138L14.3208 71.0102H49.7488L41.6558 46.2144Z" fill="#516264"/>
<path d="M63.9646 71.0103H0.105957V245.746H63.9646V71.0103Z" fill="#E0AB75"/>
<path d="M14.7313 48.519H0.102539V245.466H14.7313V48.519Z" fill="#CE9555"/>
<path d="M63.9613 48.519H49.3325V245.466H63.9613V48.519Z" fill="#CE9555"/>
<path opacity="0.1" d="M63.9646 217.318H0.105957V220.581H63.9646V217.318Z" fill="#10100F"/>
<path opacity="0.1" d="M63.9646 177.342H0.105957V180.605H63.9646V177.342Z" fill="#10100F"/>
<path opacity="0.1" d="M63.9646 168.185H0.105957V171.448H63.9646V168.185Z" fill="#10100F"/>
<path opacity="0.1" d="M63.9647 128.753H0.102539V132.016H63.9647V128.753Z" fill="#10100F"/>
<path opacity="0.1" d="M63.9647 119.596H0.102539V122.858H63.9647V119.596Z" fill="#10100F"/>
<path opacity="0.1" d="M63.9646 80.1644H0.105957V83.4272H63.9646V80.1644Z" fill="#10100F"/>
<path opacity="0.1" d="M63.9646 71.0103H0.105957V74.273H63.9646V71.0103Z" fill="#10100F"/>
<path d="M12.3785 31.9301H2.45947V48.5123H12.3785V31.9301Z" fill="#CE9555"/>
<path d="M61.6051 31.9301H51.686V48.5123H61.6051V31.9301Z" fill="#CE9555"/>
<path opacity="0.1" d="M12.3785 32.6708H2.45947V35.93H12.3785V32.6708Z" fill="#10100F"/>
<path opacity="0.1" d="M14.7313 48.519H0.102539V51.7783H14.7313V48.519Z" fill="#10100F"/>
<path opacity="0.1" d="M61.6051 31.9301H51.686V35.1893H61.6051V31.9301Z" fill="#10100F"/>
<path opacity="0.1" d="M63.9613 48.519H49.3325V51.7783H63.9613V48.519Z" fill="#10100F"/>
<path d="M12.5338 32.6709H2.23584L7.39346 1.3186L12.5338 32.6709Z" fill="#AB7C47"/>
<path d="M61.732 31.9301H51.5615L56.6468 0.581299L61.732 31.9301Z" fill="#AB7C47"/>
<path opacity="0.3" d="M3.03806 54.111H3.01393C2.31453 54.111 1.74951 54.676 1.74951 55.3754V68.8569H4.30247V55.3754C4.30247 54.676 3.73745 54.111 3.03806 54.111Z" fill="#10100F"/>
<path opacity="0.3" d="M7.43064 54.111H7.4065C6.70711 54.111 6.14209 54.676 6.14209 55.3754V68.8569H8.69505V55.3754C8.69505 54.676 8.13003 54.111 7.43064 54.111Z" fill="#10100F"/>
<path opacity="0.3" d="M7.43742 36.8087H7.39608C6.30047 36.8087 5.41504 37.6976 5.41504 38.7898V46.9103H9.41846V38.7898C9.42191 37.6976 8.53303 36.8087 7.43742 36.8087Z" fill="#10100F"/>
<path opacity="0.3" d="M11.8266 54.111H11.8025C11.1031 54.111 10.5381 54.676 10.5381 55.3754V68.8569H13.091V55.3754C13.091 54.676 12.5226 54.111 11.8266 54.111Z" fill="#10100F"/>
<path opacity="0.3" d="M19.5406 182.845H19.4854C17.9488 182.845 16.7051 184.088 16.7051 185.625V215.258H22.3209V185.625C22.3175 184.088 21.0737 182.845 19.5406 182.845Z" fill="#10100F"/>
<path opacity="0.3" d="M27.8877 182.845H27.8326C26.2994 182.845 25.0522 184.088 25.0522 185.625V215.258H30.6681V185.625C30.6681 184.088 29.4243 182.845 27.8877 182.845Z" fill="#10100F"/>
<path opacity="0.3" d="M36.2369 182.845H36.1818C34.6451 182.845 33.4014 184.088 33.4014 185.625V215.258H39.0172V185.625C39.0172 184.088 37.7735 182.845 36.2369 182.845Z" fill="#10100F"/>
<path opacity="0.3" d="M44.5879 182.845H44.5328C42.9996 182.845 41.7524 184.088 41.7524 185.625V215.258H47.3683V185.625C47.3648 184.088 46.1211 182.845 44.5879 182.845Z" fill="#10100F"/>
<path opacity="0.3" d="M19.5406 133.914H19.4854C17.9488 133.914 16.7051 135.158 16.7051 136.695V166.328H22.3209V136.695C22.3175 135.158 21.0737 133.914 19.5406 133.914Z" fill="#10100F"/>
<path opacity="0.3" d="M27.8877 133.914H27.8326C26.2994 133.914 25.0522 135.158 25.0522 136.695V166.328H30.6681V136.695C30.6681 135.158 29.4243 133.914 27.8877 133.914Z" fill="#10100F"/>
<path opacity="0.3" d="M36.2369 133.914H36.1818C34.6451 133.914 33.4014 135.158 33.4014 136.695V166.328H39.0172V136.695C39.0172 135.158 37.7735 133.914 36.2369 133.914Z" fill="#10100F"/>
<path opacity="0.3" d="M44.5879 133.914H44.5328C42.9996 133.914 41.7524 135.158 41.7524 136.695V166.328H47.3683V136.695C47.3648 135.158 46.1211 133.914 44.5879 133.914Z" fill="#10100F"/>
<path opacity="0.3" d="M52.2646 54.111H52.2405C51.5411 54.111 50.9761 54.676 50.9761 55.3754V68.8569H53.529V55.3754C53.529 54.676 52.964 54.111 52.2646 54.111Z" fill="#10100F"/>
<path opacity="0.3" d="M56.6606 54.111H56.6365C55.9371 54.111 55.3721 54.676 55.3721 55.3754V68.8569H57.925V55.3754C57.925 54.676 57.3565 54.111 56.6606 54.111Z" fill="#10100F"/>
<path opacity="0.3" d="M56.6674 36.8087H56.6261C55.5305 36.8087 54.645 37.6976 54.645 38.7898V46.9103H58.6485V38.7898C58.6485 37.6976 57.763 36.8087 56.6674 36.8087Z" fill="#10100F"/>
<path opacity="0.3" d="M61.0532 54.111H61.0291C60.3297 54.111 59.7646 54.676 59.7646 55.3754V68.8569H62.3176V55.3754C62.3176 54.676 61.7526 54.111 61.0532 54.111Z" fill="#10100F"/>
<path d="M35.7405 59.4927H28.3262V71.0379H35.7405V59.4927Z" fill="#CE9555"/>
<path d="M34.5521 51.0824H29.522V59.4889H34.5521V51.0824Z" fill="#CE9555"/>
<path opacity="0.1" d="M34.5521 51.0824H29.522V52.7362H34.5521V51.0824Z" fill="#10100F"/>
<path opacity="0.1" d="M35.7405 59.4927H28.3262V61.1464H35.7405V59.4927Z" fill="#10100F"/>
<path d="M34.6142 51.0827H29.4565L32.0371 35.193L34.6142 51.0827Z" fill="#AB7C47"/>
<path opacity="0.3" d="M29.8152 62.3247H29.8015C29.4466 62.3247 29.1606 62.6107 29.1606 62.9655V69.801H30.4561V62.9655C30.4561 62.6141 30.1701 62.3247 29.8152 62.3247Z" fill="#10100F"/>
<path opacity="0.3" d="M32.0408 62.3247H32.0271C31.6722 62.3247 31.3862 62.6107 31.3862 62.9655V69.801H32.6817V62.9655C32.6851 62.6141 32.3957 62.3247 32.0408 62.3247Z" fill="#10100F"/>
<path opacity="0.3" d="M32.0477 53.5563H32.027C31.4723 53.5563 31.021 54.0076 31.021 54.5623V58.6794H33.0503V54.5623C33.0503 54.0076 32.6024 53.5563 32.0477 53.5563Z" fill="#10100F"/>
<path opacity="0.3" d="M34.2699 62.3247H34.2561C33.9012 62.3247 33.6152 62.6107 33.6152 62.9655V69.801H34.9107V62.9655C34.9107 62.6141 34.6247 62.3247 34.2699 62.3247Z" fill="#10100F"/>
<path d="M23.0044 68.2919H20.1689L21.5884 59.5581L23.0044 68.2919Z" fill="#AB7C47"/>
<path d="M27.9446 71.0379C27.8551 67.6202 25.092 64.8571 21.6432 64.8261C18.16 64.7951 15.3142 67.5685 15.2246 71.0379H27.9446Z" fill="#CE9555"/>
<path d="M43.8443 68.2919H41.0122L42.4282 59.5581L43.8443 68.2919Z" fill="#AB7C47"/>
<path d="M48.7884 71.0379C48.7023 67.6202 45.9357 64.8571 42.487 64.8261C39.0038 64.7951 36.1579 67.5685 36.0684 71.0379H48.7884Z" fill="#CE9555"/>
<path opacity="0.3" d="M39.018 116.581V92.4295C39.018 88.6121 35.9241 85.5182 32.1067 85.5182H31.9655C28.1481 85.5182 25.0542 88.6121 25.0542 92.4295V116.581H39.018Z" fill="#10100F"/>
<path opacity="0.3" d="M25.4429 233.622H19.8994V245.467H25.4429V233.622Z" fill="#10100F"/>
<path opacity="0.3" d="M44.1719 233.622H38.6284V245.467H44.1719V233.622Z" fill="#10100F"/>
<path d="M155.152 119.603H63.9551V245.746H155.152V119.603Z" fill="#E0AB75"/>
<path opacity="0.3" d="M136.641 133.914H136.586C135.049 133.914 133.805 135.158 133.805 136.695V166.328H139.421V136.695C139.421 135.158 138.177 133.914 136.641 133.914Z" fill="#10100F"/>
<path opacity="0.3" d="M144.991 133.914H144.936C143.399 133.914 142.156 135.158 142.156 136.695V166.328H147.772V136.695C147.772 135.158 146.524 133.914 144.991 133.914Z" fill="#10100F"/>
<path opacity="0.3" d="M105.409 133.914H105.354C103.818 133.914 102.574 135.158 102.574 136.695V166.328H108.19V136.695C108.186 135.158 106.942 133.914 105.409 133.914Z" fill="#10100F"/>
<path opacity="0.3" d="M113.756 133.914H113.701C112.168 133.914 110.921 135.158 110.921 136.695V166.328H116.537V136.695C116.537 135.158 115.29 133.914 113.756 133.914Z" fill="#10100F"/>
<path opacity="0.3" d="M74.1743 133.914H74.1193C72.5826 133.914 71.3389 135.158 71.3389 136.695V166.328H76.9547V136.695C76.9513 135.158 75.7075 133.914 74.1743 133.914Z" fill="#10100F"/>
<path opacity="0.3" d="M82.5215 133.914H82.4664C80.9298 133.914 79.686 135.158 79.686 136.695V166.328H85.3019V136.695C85.3019 135.158 84.0547 133.914 82.5215 133.914Z" fill="#10100F"/>
<path opacity="0.3" d="M136.641 182.845H136.586C135.049 182.845 133.805 184.088 133.805 185.625V215.258H139.421V185.625C139.421 184.088 138.177 182.845 136.641 182.845Z" fill="#10100F"/>
<path opacity="0.3" d="M144.991 182.845H144.936C143.399 182.845 142.156 184.088 142.156 185.625V215.258H147.772V185.625C147.772 184.088 146.524 182.845 144.991 182.845Z" fill="#10100F"/>
<path opacity="0.3" d="M105.409 182.845H105.354C103.818 182.845 102.574 184.088 102.574 185.625V215.258H108.19V185.625C108.186 184.088 106.942 182.845 105.409 182.845Z" fill="#10100F"/>
<path opacity="0.3" d="M113.756 182.845H113.701C112.168 182.845 110.921 184.088 110.921 185.625V215.258H116.537V185.625C116.537 184.088 115.29 182.845 113.756 182.845Z" fill="#10100F"/>
<path opacity="0.3" d="M74.1743 182.845H74.1193C72.5826 182.845 71.3389 184.088 71.3389 185.625V215.258H76.9547V185.625C76.9513 184.088 75.7075 182.845 74.1743 182.845Z" fill="#10100F"/>
<path opacity="0.3" d="M82.5215 182.845H82.4664C80.9298 182.845 79.686 184.088 79.686 185.625V215.258H85.3019V185.625C85.3019 184.088 84.0547 182.845 82.5215 182.845Z" fill="#10100F"/>
<path opacity="0.3" d="M143.534 233.901H137.99V245.745H143.534V233.901Z" fill="#10100F"/>
<path opacity="0.3" d="M112.328 233.901H106.784V245.745H112.328V233.901Z" fill="#10100F"/>
<path opacity="0.3" d="M81.1162 233.901H75.5728V245.745H81.1162V233.901Z" fill="#10100F"/>
<path opacity="0.1" d="M127.203 119.596H124.354V245.745H127.203V119.596Z" fill="#10100F"/>
<path opacity="0.1" d="M94.7555 119.596H91.9062V245.745H94.7555V119.596Z" fill="#10100F"/>
<path opacity="0.1" d="M155.152 128.757H63.9551V132.016H155.152V128.757Z" fill="#10100F"/>
<path opacity="0.1" d="M155.152 119.603H63.9551V122.862H155.152V119.603Z" fill="#10100F"/>
<path opacity="0.1" d="M155.152 177.339H63.9551V180.598H155.152V177.339Z" fill="#10100F"/>
<path opacity="0.1" d="M155.152 168.185H63.9551V171.444H155.152V168.185Z" fill="#10100F"/>
<path opacity="0.1" d="M155.152 217.598H63.9551V220.857H155.152V217.598Z" fill="#10100F"/>
<path d="M155.152 96.3744H63.9551V119.603H155.152V96.3744Z" fill="#516264"/>
<path d="M95.9994 108.057H90.604V119.603H95.9994V108.057Z" fill="#CE9555"/>
<path d="M95.1311 99.6472H91.4722V108.054H95.1311V99.6472Z" fill="#CE9555"/>
<path opacity="0.1" d="M95.1311 99.6472H91.4722V101.301H95.1311V99.6472Z" fill="#10100F"/>
<path opacity="0.1" d="M95.9994 108.057H90.604V109.711H95.9994V108.057Z" fill="#10100F"/>
<path d="M95.1752 99.6474H91.4268L93.301 83.7577L95.1752 99.6474Z" fill="#AB7C47"/>
<path opacity="0.3" d="M91.6849 110.89H91.6746C91.4162 110.89 91.2095 111.176 91.2095 111.53V118.366H92.15V111.53C92.1535 111.179 91.9433 110.89 91.6849 110.89Z" fill="#10100F"/>
<path opacity="0.3" d="M93.305 110.89H93.2947C93.0363 110.89 92.8296 111.176 92.8296 111.53V118.366H93.7701V111.53C93.7736 111.179 93.5634 110.89 93.305 110.89Z" fill="#10100F"/>
<path opacity="0.3" d="M93.3082 102.121H93.2944C92.8913 102.121 92.564 102.572 92.564 103.127V107.244H94.042V103.127C94.0386 102.569 93.7113 102.121 93.3082 102.121Z" fill="#10100F"/>
<path opacity="0.3" d="M94.9286 110.89H94.9182C94.6598 110.89 94.4531 111.176 94.4531 111.53V118.366H95.3937V111.53C95.3937 111.179 95.1835 110.89 94.9286 110.89Z" fill="#10100F"/>
<path d="M128.479 108.057H123.084V119.603H128.479V108.057Z" fill="#CE9555"/>
<path d="M127.611 99.6472H123.952V108.054H127.611V99.6472Z" fill="#CE9555"/>
<path opacity="0.1" d="M127.611 99.6472H123.952V101.301H127.611V99.6472Z" fill="#10100F"/>
<path opacity="0.1" d="M128.479 108.057H123.084V109.711H128.479V108.057Z" fill="#10100F"/>
<path d="M127.655 99.6474H123.906L125.781 83.7577L127.655 99.6474Z" fill="#AB7C47"/>
<path opacity="0.3" d="M124.165 110.89H124.155C123.896 110.89 123.689 111.176 123.689 111.53V118.366H124.63V111.53C124.63 111.179 124.423 110.89 124.165 110.89Z" fill="#10100F"/>
<path opacity="0.3" d="M125.785 110.89H125.774C125.516 110.89 125.309 111.176 125.309 111.53V118.366H126.25V111.53C126.253 111.179 126.043 110.89 125.785 110.89Z" fill="#10100F"/>
<path opacity="0.3" d="M125.788 102.121H125.774C125.371 102.121 125.043 102.572 125.043 103.127V107.244H126.521V103.127C126.518 102.569 126.191 102.121 125.788 102.121Z" fill="#10100F"/>
<path opacity="0.3" d="M127.408 110.89H127.398C127.139 110.89 126.933 111.176 126.933 111.53V118.366H127.873V111.53C127.873 111.179 127.663 110.89 127.408 110.89Z" fill="#10100F"/>
<path d="M80.5235 115.513H76.1479L78.3358 102.031L80.5235 115.513Z" fill="#AB7C47"/>
<path d="M88.1518 119.751C88.0175 114.472 83.7453 110.207 78.4258 110.162C73.0476 110.117 68.6583 114.397 68.5205 119.751H88.1518Z" fill="#CE9555"/>
<path d="M111.742 115.513H107.366L109.554 102.031L111.742 115.513Z" fill="#AB7C47"/>
<path d="M119.37 119.751C119.236 114.472 114.964 110.207 109.644 110.162C104.266 110.117 99.8766 114.397 99.7388 119.751H119.37Z" fill="#CE9555"/>
<path d="M142.958 115.513H138.583L140.77 102.031L142.958 115.513Z" fill="#AB7C47"/>
<path d="M150.586 119.751C150.452 114.472 146.18 110.207 140.86 110.162C135.482 110.117 131.093 114.397 130.955 119.751H150.586Z" fill="#CE9555"/>
</svg>
