<svg width="254" height="143" viewBox="0 0 254 143" fill="none" xmlns="http://www.w3.org/2000/svg">
<path d="M164.402 31.9684H75.7031V142.745H164.402V31.9684Z" fill="#D89D64"/>
<path opacity="0.3" d="M146.401 44.5372H146.346C144.854 44.5372 143.642 45.6294 143.642 46.9765V72.9989H149.102V46.9765C149.102 45.6294 147.893 44.5372 146.401 44.5372Z" fill="#090908"/>
<path opacity="0.3" d="M154.522 44.5372H154.467C152.975 44.5372 151.762 45.6294 151.762 46.9765V72.9989H157.223V46.9765C157.223 45.6294 156.014 44.5372 154.522 44.5372Z" fill="#090908"/>
<path opacity="0.3" d="M116.019 44.5372H115.964C114.473 44.5372 113.26 45.6294 113.26 46.9765V72.9989H118.721V46.9765C118.724 45.6294 117.511 44.5372 116.019 44.5372Z" fill="#090908"/>
<path opacity="0.3" d="M124.14 44.5372H124.085C122.593 44.5372 121.38 45.6294 121.38 46.9765V72.9989H126.841V46.9765C126.841 45.6294 125.632 44.5372 124.14 44.5372Z" fill="#090908"/>
<path opacity="0.3" d="M85.6391 44.5372H85.584C84.0922 44.5372 82.8794 45.6294 82.8794 46.9765V72.9989H88.3402V46.9765C88.3437 45.6294 87.1309 44.5372 85.6391 44.5372Z" fill="#090908"/>
<path opacity="0.3" d="M93.7597 44.5372H93.7046C92.2127 44.5372 91 45.6294 91 46.9765V72.9989H96.4608V46.9765C96.4642 45.6294 95.2515 44.5372 93.7597 44.5372Z" fill="#090908"/>
<path opacity="0.3" d="M146.401 87.5033H146.346C144.854 87.5033 143.642 88.5955 143.642 89.9426V115.965H149.102V89.9426C149.102 88.5989 147.893 87.5033 146.401 87.5033Z" fill="#090908"/>
<path opacity="0.3" d="M154.522 87.5033H154.467C152.975 87.5033 151.762 88.5955 151.762 89.9426V115.965H157.223V89.9426C157.223 88.5989 156.014 87.5033 154.522 87.5033Z" fill="#090908"/>
<path opacity="0.3" d="M116.019 87.5033H115.964C114.473 87.5033 113.26 88.5955 113.26 89.9426V115.965H118.721V89.9426C118.724 88.5989 117.511 87.5033 116.019 87.5033Z" fill="#090908"/>
<path opacity="0.3" d="M124.14 87.5033H124.085C122.593 87.5033 121.38 88.5955 121.38 89.9426V115.965H126.841V89.9426C126.841 88.5989 125.632 87.5033 124.14 87.5033Z" fill="#090908"/>
<path opacity="0.3" d="M85.6391 87.5033H85.584C84.0922 87.5033 82.8794 88.5955 82.8794 89.9426V115.965H88.3402V89.9426C88.3437 88.5989 87.1309 87.5033 85.6391 87.5033Z" fill="#090908"/>
<path opacity="0.3" d="M93.7597 87.5033H93.7046C92.2127 87.5033 91 88.5955 91 89.9426V115.965H96.4608V89.9426C96.4642 88.5989 95.2515 87.5033 93.7597 87.5033Z" fill="#090908"/>
<path opacity="0.3" d="M153.101 132.344H147.713V142.745H153.101V132.344Z" fill="#090908"/>
<path opacity="0.3" d="M122.745 132.344H117.356V142.745H122.745V132.344Z" fill="#090908"/>
<path opacity="0.3" d="M92.3914 132.344H87.0029V142.745H92.3914V132.344Z" fill="#090908"/>
<path opacity="0.1" d="M137.22 31.9617H134.45V142.745H137.22V31.9617Z" fill="#090908"/>
<path opacity="0.1" d="M105.661 31.9617H102.891V142.745H105.661V31.9617Z" fill="#090908"/>
<path opacity="0.1" d="M164.402 40.0063H75.7031V42.8694H164.402V40.0063Z" fill="#090908"/>
<path opacity="0.1" d="M164.402 31.9684H75.7031V34.8314H164.402V31.9684Z" fill="#090908"/>
<path opacity="0.1" d="M164.402 82.6731H75.7031V85.5361H164.402V82.6731Z" fill="#090908"/>
<path opacity="0.1" d="M164.402 74.6318H75.7031V77.4949H164.402V74.6318Z" fill="#090908"/>
<path opacity="0.1" d="M164.402 118.025H75.7031V120.888H164.402V118.025Z" fill="#090908"/>
<path d="M164.402 11.5691H75.7031V31.9688H164.402V11.5691Z" fill="#415153"/>
<path d="M106.869 21.8289H101.622V31.9684H106.869V21.8289Z" fill="#C38544"/>
<path d="M106.025 14.4459H102.466V21.8258H106.025V14.4459Z" fill="#C38544"/>
<path opacity="0.1" d="M106.025 14.4459H102.466V15.8964H106.025V14.4459Z" fill="#090908"/>
<path opacity="0.1" d="M106.869 21.8289H101.622V23.2793H106.869V21.8289Z" fill="#090908"/>
<path d="M106.069 14.4457H102.421L104.247 0.48877L106.069 14.4457Z" fill="#9D6B37"/>
<path opacity="0.3" d="M102.673 24.3165H102.662C102.411 24.3165 102.208 24.568 102.208 24.8781V30.8798H103.124V24.8781C103.127 24.568 102.924 24.3165 102.673 24.3165Z" fill="#090908"/>
<path opacity="0.3" d="M104.25 24.3165H104.24C103.988 24.3165 103.785 24.568 103.785 24.8781V30.8798H104.702V24.8781C104.705 24.568 104.502 24.3165 104.25 24.3165Z" fill="#090908"/>
<path opacity="0.3" d="M104.255 16.6163H104.238C103.845 16.6163 103.528 17.0125 103.528 17.4983V21.1125H104.965V17.4983C104.965 17.0091 104.648 16.6163 104.255 16.6163Z" fill="#090908"/>
<path opacity="0.3" d="M105.825 24.3165H105.815C105.563 24.3165 105.36 24.568 105.36 24.8781V30.8798H106.276V24.8781C106.28 24.568 106.076 24.3165 105.825 24.3165Z" fill="#090908"/>
<path d="M138.459 21.8289H133.212V31.9684H138.459V21.8289Z" fill="#C38544"/>
<path d="M137.615 14.4459H134.056V21.8258H137.615V14.4459Z" fill="#C38544"/>
<path opacity="0.1" d="M137.615 14.4459H134.056V15.8964H137.615V14.4459Z" fill="#090908"/>
<path opacity="0.1" d="M138.459 21.8289H133.212V23.2793H138.459V21.8289Z" fill="#090908"/>
<path d="M137.659 14.4457H134.011L135.833 0.48877L137.659 14.4457Z" fill="#9D6B37"/>
<path opacity="0.3" d="M134.262 24.3165H134.252C134.001 24.3165 133.797 24.568 133.797 24.8781V30.8798H134.714V24.8781C134.717 24.568 134.514 24.3165 134.262 24.3165Z" fill="#090908"/>
<path opacity="0.3" d="M135.84 24.3165H135.83C135.578 24.3165 135.375 24.568 135.375 24.8781V30.8798H136.291V24.8781C136.291 24.568 136.088 24.3165 135.84 24.3165Z" fill="#090908"/>
<path opacity="0.3" d="M135.845 16.6163H135.831C135.438 16.6163 135.121 17.0125 135.121 17.4983V21.1125H136.558V17.4983C136.554 17.0091 136.234 16.6163 135.845 16.6163Z" fill="#090908"/>
<path opacity="0.3" d="M137.415 24.3165H137.405C137.153 24.3165 136.95 24.568 136.95 24.8781V30.8798H137.866V24.8781C137.87 24.568 137.666 24.3165 137.415 24.3165Z" fill="#090908"/>
<path d="M91.8165 28.375H87.5615L89.6873 16.537L91.8165 28.375Z" fill="#9D6B37"/>
<path d="M99.235 32.0958C99.1041 27.4619 94.949 23.7169 89.7776 23.6755C84.5477 23.6342 80.2755 27.393 80.1411 32.0958H99.235Z" fill="#C38544"/>
<path d="M122.18 28.375H117.925L120.054 16.537L122.18 28.375Z" fill="#9D6B37"/>
<path d="M129.598 32.0958C129.467 27.4619 125.312 23.7169 120.141 23.6755C114.911 23.6342 110.639 27.393 110.504 32.0958H129.598Z" fill="#C38544"/>
<path d="M152.544 28.375H148.289L150.414 16.537L152.544 28.375Z" fill="#9D6B37"/>
<path d="M159.965 32.0958C159.834 27.4619 155.679 23.7169 150.504 23.6755C145.274 23.6342 141.005 27.393 140.871 32.0958H159.965Z" fill="#C38544"/>
<path d="M253.102 31.9684H164.403V142.745H253.102V31.9684Z" fill="#D89D64"/>
<path opacity="0.3" d="M235.101 44.5372H235.046C233.555 44.5372 232.342 45.6294 232.342 46.9765V72.9989H237.803V46.9765C237.806 45.6294 236.593 44.5372 235.101 44.5372Z" fill="#090908"/>
<path opacity="0.3" d="M243.222 44.5372H243.166C241.675 44.5372 240.462 45.6294 240.462 46.9765V72.9989H245.923V46.9765C245.926 45.6294 244.713 44.5372 243.222 44.5372Z" fill="#090908"/>
<path opacity="0.3" d="M204.719 44.5372H204.664C203.172 44.5372 201.959 45.6294 201.959 46.9765V72.9989H207.42V46.9765C207.424 45.6294 206.211 44.5372 204.719 44.5372Z" fill="#090908"/>
<path opacity="0.3" d="M212.84 44.5372H212.785C211.293 44.5372 210.08 45.6294 210.08 46.9765V72.9989H215.541V46.9765C215.544 45.6294 214.335 44.5372 212.84 44.5372Z" fill="#090908"/>
<path opacity="0.3" d="M174.339 44.5372H174.284C172.792 44.5372 171.58 45.6294 171.58 46.9765V72.9989H177.04V46.9765C177.044 45.6294 175.835 44.5372 174.339 44.5372Z" fill="#090908"/>
<path opacity="0.3" d="M182.459 44.5372H182.404C180.912 44.5372 179.7 45.6294 179.7 46.9765V72.9989H185.161V46.9765C185.164 45.6294 183.955 44.5372 182.459 44.5372Z" fill="#090908"/>
<path opacity="0.3" d="M235.101 87.5033H235.046C233.555 87.5033 232.342 88.5955 232.342 89.9426V115.965H237.803V89.9426C237.806 88.5989 236.593 87.5033 235.101 87.5033Z" fill="#090908"/>
<path opacity="0.3" d="M243.222 87.5033H243.166C241.675 87.5033 240.462 88.5955 240.462 89.9426V115.965H245.923V89.9426C245.926 88.5989 244.713 87.5033 243.222 87.5033Z" fill="#090908"/>
<path opacity="0.3" d="M204.719 87.5033H204.664C203.172 87.5033 201.959 88.5955 201.959 89.9426V115.965H207.42V89.9426C207.424 88.5989 206.211 87.5033 204.719 87.5033Z" fill="#090908"/>
<path opacity="0.3" d="M212.84 87.5033H212.785C211.293 87.5033 210.08 88.5955 210.08 89.9426V115.965H215.541V89.9426C215.544 88.5989 214.335 87.5033 212.84 87.5033Z" fill="#090908"/>
<path opacity="0.3" d="M174.339 87.5033H174.284C172.792 87.5033 171.58 88.5955 171.58 89.9426V115.965H177.04V89.9426C177.044 88.5989 175.835 87.5033 174.339 87.5033Z" fill="#090908"/>
<path opacity="0.3" d="M182.459 87.5033H182.404C180.912 87.5033 179.7 88.5955 179.7 89.9426V115.965H185.161V89.9426C185.164 88.5989 183.955 87.5033 182.459 87.5033Z" fill="#090908"/>
<path opacity="0.3" d="M241.804 132.344H236.413V142.745H241.804V132.344Z" fill="#090908"/>
<path opacity="0.3" d="M211.451 132.344H206.06V142.745H211.451V132.344Z" fill="#090908"/>
<path opacity="0.3" d="M181.091 132.344H175.703V142.745H181.091V132.344Z" fill="#090908"/>
<path opacity="0.1" d="M225.923 31.9617H223.153V142.745H225.923V31.9617Z" fill="#090908"/>
<path opacity="0.1" d="M194.36 31.9617H191.59V142.745H194.36V31.9617Z" fill="#090908"/>
<path opacity="0.1" d="M253.102 40.0063H164.403V42.8694H253.102V40.0063Z" fill="#090908"/>
<path opacity="0.1" d="M253.102 31.9684H164.403V34.8314H253.102V31.9684Z" fill="#090908"/>
<path opacity="0.1" d="M253.102 82.6731H164.403V85.5361H253.102V82.6731Z" fill="#090908"/>
<path opacity="0.1" d="M253.102 74.6318H164.403V77.4949H253.102V74.6318Z" fill="#090908"/>
<path opacity="0.1" d="M253.102 118.025H164.403V120.888H253.102V118.025Z" fill="#090908"/>
<path d="M253.102 11.5691H164.403V31.9688H253.102V11.5691Z" fill="#415153"/>
<path d="M195.568 21.8289H190.321V31.9684H195.568V21.8289Z" fill="#C38544"/>
<path d="M194.728 14.4459H191.169V21.8258H194.728V14.4459Z" fill="#C38544"/>
<path opacity="0.1" d="M194.728 14.4459H191.169V15.8964H194.728V14.4459Z" fill="#090908"/>
<path opacity="0.1" d="M195.568 21.8289H190.321V23.2793H195.568V21.8289Z" fill="#090908"/>
<path d="M194.769 14.4457H191.124L192.947 0.48877L194.769 14.4457Z" fill="#9D6B37"/>
<path opacity="0.3" d="M191.375 24.3165H191.365C191.113 24.3165 190.91 24.568 190.91 24.8781V30.8798H191.827V24.8781C191.83 24.568 191.627 24.3165 191.375 24.3165Z" fill="#090908"/>
<path opacity="0.3" d="M192.95 24.3165H192.94C192.689 24.3165 192.485 24.568 192.485 24.8781V30.8798H193.402V24.8781C193.405 24.568 193.202 24.3165 192.95 24.3165Z" fill="#090908"/>
<path opacity="0.3" d="M192.954 16.6163H192.941C192.548 16.6163 192.231 17.0125 192.231 17.4983V21.1125H193.668V17.4983C193.664 17.0091 193.347 16.6163 192.954 16.6163Z" fill="#090908"/>
<path opacity="0.3" d="M194.528 24.3165H194.518C194.266 24.3165 194.063 24.568 194.063 24.8781V30.8798H194.979V24.8781C194.979 24.568 194.776 24.3165 194.528 24.3165Z" fill="#090908"/>
<path d="M227.158 21.8289H221.911V31.9684H227.158V21.8289Z" fill="#C38544"/>
<path d="M226.315 14.4459H222.756V21.8258H226.315V14.4459Z" fill="#C38544"/>
<path opacity="0.1" d="M226.315 14.4459H222.756V15.8964H226.315V14.4459Z" fill="#090908"/>
<path opacity="0.1" d="M227.158 21.8289H221.911V23.2793H227.158V21.8289Z" fill="#090908"/>
<path d="M226.36 14.4457H222.711L224.537 0.48877L226.36 14.4457Z" fill="#9D6B37"/>
<path opacity="0.3" d="M222.965 24.3165H222.955C222.703 24.3165 222.5 24.568 222.5 24.8781V30.8798H223.416V24.8781C223.416 24.568 223.213 24.3165 222.965 24.3165Z" fill="#090908"/>
<path opacity="0.3" d="M224.54 24.3165H224.53C224.278 24.3165 224.075 24.568 224.075 24.8781V30.8798H224.992V24.8781C224.995 24.568 224.792 24.3165 224.54 24.3165Z" fill="#090908"/>
<path opacity="0.3" d="M224.544 16.6163H224.531C224.138 16.6163 223.821 17.0125 223.821 17.4983V21.1125H225.257V17.4983C225.254 17.0091 224.937 16.6163 224.544 16.6163Z" fill="#090908"/>
<path opacity="0.3" d="M226.115 24.3165H226.104C225.853 24.3165 225.649 24.568 225.649 24.8781V30.8798H226.566V24.8781C226.569 24.568 226.366 24.3165 226.115 24.3165Z" fill="#090908"/>
<path d="M180.516 28.375H176.261L178.39 16.537L180.516 28.375Z" fill="#9D6B37"/>
<path d="M187.938 32.0958C187.807 27.4619 183.652 23.7169 178.48 23.6755C173.25 23.6342 168.978 27.393 168.844 32.0958H187.938Z" fill="#C38544"/>
<path d="M210.879 28.375H206.625L208.754 16.537L210.879 28.375Z" fill="#9D6B37"/>
<path d="M218.301 32.0958C218.17 27.4619 214.015 23.7169 208.844 23.6755C203.614 23.6342 199.345 27.393 199.208 32.0958H218.301Z" fill="#C38544"/>
<path d="M241.243 28.375H236.988L239.117 16.537L241.243 28.375Z" fill="#9D6B37"/>
<path d="M248.665 32.0958C248.534 27.4619 244.379 23.7169 239.207 23.6755C233.977 23.6342 229.705 27.393 229.571 32.0958H248.665Z" fill="#C38544"/>
<path d="M75.6993 31.9684H-13V142.745H75.6993V31.9684Z" fill="#D89D64"/>
<path opacity="0.3" d="M57.6986 44.5372H57.6435C56.1517 44.5372 54.939 45.6294 54.939 46.9765V72.9989H60.3998V46.9765C60.4032 45.6294 59.1939 44.5372 57.6986 44.5372Z" fill="#090908"/>
<path opacity="0.3" d="M65.8188 44.5372H65.7636C64.2718 44.5372 63.0591 45.6294 63.0591 46.9765V72.9989H68.5199V46.9765C68.5233 45.6294 67.314 44.5372 65.8188 44.5372Z" fill="#090908"/>
<path opacity="0.3" d="M27.3168 44.5372H27.2617C25.7699 44.5372 24.5571 45.6294 24.5571 46.9765V72.9989H30.0179V46.9765C30.0214 45.6294 28.8121 44.5372 27.3168 44.5372Z" fill="#090908"/>
<path opacity="0.3" d="M35.4404 44.5372H35.3852C33.8934 44.5372 32.6807 45.6294 32.6807 46.9765V72.9989H38.1415V46.9765C38.1415 45.6294 36.9322 44.5372 35.4404 44.5372Z" fill="#090908"/>
<path opacity="0.3" d="M5.05998 44.5372H5.00486C3.51304 44.5372 2.30029 45.6294 2.30029 46.9765V72.9989H7.7611V46.9765C7.7611 45.6294 6.55179 44.5372 5.05998 44.5372Z" fill="#090908"/>
<path opacity="0.3" d="M57.6986 87.5033H57.6435C56.1517 87.5033 54.939 88.5955 54.939 89.9426V115.965H60.3998V89.9426C60.4032 88.5989 59.1939 87.5033 57.6986 87.5033Z" fill="#090908"/>
<path opacity="0.3" d="M65.8188 87.5033H65.7636C64.2718 87.5033 63.0591 88.5955 63.0591 89.9426V115.965H68.5199V89.9426C68.5233 88.5989 67.314 87.5033 65.8188 87.5033Z" fill="#090908"/>
<path opacity="0.3" d="M27.3168 87.5033H27.2617C25.7699 87.5033 24.5571 88.5955 24.5571 89.9426V115.965H30.0179V89.9426C30.0214 88.5989 28.8121 87.5033 27.3168 87.5033Z" fill="#090908"/>
<path opacity="0.3" d="M35.4404 87.5033H35.3852C33.8934 87.5033 32.6807 88.5955 32.6807 89.9426V115.965H38.1415V89.9426C38.1415 88.5989 36.9322 87.5033 35.4404 87.5033Z" fill="#090908"/>
<path opacity="0.3" d="M5.05998 87.5033H5.00486C3.51304 87.5033 2.30029 88.5955 2.30029 89.9426V115.965H7.7611V89.9426C7.7611 88.5989 6.55179 87.5033 5.05998 87.5033Z" fill="#090908"/>
<path opacity="0.3" d="M64.3987 132.344H59.0103V142.745H64.3987V132.344Z" fill="#090908"/>
<path opacity="0.3" d="M34.0447 132.344H28.6562V142.745H34.0447V132.344Z" fill="#090908"/>
<path opacity="0.3" d="M3.68827 132.344H-1.7002V142.745H3.68827V132.344Z" fill="#090908"/>
<path opacity="0.1" d="M48.52 31.9617H45.75V142.745H48.52V31.9617Z" fill="#090908"/>
<path opacity="0.1" d="M16.9575 31.9617H14.1875V142.745H16.9575V31.9617Z" fill="#090908"/>
<path opacity="0.1" d="M75.6993 40.0063H-13V42.8694H75.6993V40.0063Z" fill="#090908"/>
<path opacity="0.1" d="M75.6993 31.9684H-13V34.8314H75.6993V31.9684Z" fill="#090908"/>
<path opacity="0.1" d="M75.6993 82.6731H-13V85.5361H75.6993V82.6731Z" fill="#090908"/>
<path opacity="0.1" d="M75.6993 74.6318H-13V77.4949H75.6993V74.6318Z" fill="#090908"/>
<path opacity="0.1" d="M75.6993 118.025H-13V120.888H75.6993V118.025Z" fill="#090908"/>
<path d="M75.6993 11.5691H-13V31.9688H75.6993V11.5691Z" fill="#415153"/>
<path d="M18.1691 21.8289H12.9219V31.9684H18.1691V21.8289Z" fill="#C38544"/>
<path d="M17.3256 14.4459H13.7666V21.8258H17.3256V14.4459Z" fill="#C38544"/>
<path opacity="0.1" d="M17.3256 14.4459H13.7666V15.8964H17.3256V14.4459Z" fill="#090908"/>
<path opacity="0.1" d="M18.1691 21.8289H12.9219V23.2793H18.1691V21.8289Z" fill="#090908"/>
<path d="M17.3698 14.4457H13.7212L15.5438 0.48877L17.3698 14.4457Z" fill="#9D6B37"/>
<path opacity="0.3" d="M13.9724 24.3165H13.9621C13.7106 24.3165 13.5073 24.568 13.5073 24.8781V30.8798H14.4238V24.8781C14.4272 24.568 14.2239 24.3165 13.9724 24.3165Z" fill="#090908"/>
<path opacity="0.3" d="M15.551 24.3165H15.5407C15.2892 24.3165 15.0859 24.568 15.0859 24.8781V30.8798H16.0024V24.8781C16.0024 24.568 15.7991 24.3165 15.551 24.3165Z" fill="#090908"/>
<path opacity="0.3" d="M15.5516 16.6163H15.5379C15.1451 16.6163 14.8281 17.0125 14.8281 17.4983V21.1125H16.2648V17.4983C16.2648 17.0091 15.9444 16.6163 15.5516 16.6163Z" fill="#090908"/>
<path opacity="0.3" d="M17.1253 24.3165H17.1149C16.8634 24.3165 16.6602 24.568 16.6602 24.8781V30.8798H17.5766V24.8781C17.58 24.568 17.3768 24.3165 17.1253 24.3165Z" fill="#090908"/>
<path d="M49.7589 21.8289H44.5117V31.9684H49.7589V21.8289Z" fill="#C38544"/>
<path d="M48.9154 14.4459H45.3564V21.8258H48.9154V14.4459Z" fill="#C38544"/>
<path opacity="0.1" d="M48.9154 14.4459H45.3564V15.8964H48.9154V14.4459Z" fill="#090908"/>
<path opacity="0.1" d="M49.7589 21.8289H44.5117V23.2793H49.7589V21.8289Z" fill="#090908"/>
<path d="M48.9596 14.4457H45.311L47.1336 0.48877L48.9596 14.4457Z" fill="#9D6B37"/>
<path opacity="0.3" d="M45.5623 24.3165H45.5519C45.3004 24.3165 45.0972 24.568 45.0972 24.8781V30.8798H46.0136V24.8781C46.0171 24.568 45.8138 24.3165 45.5623 24.3165Z" fill="#090908"/>
<path opacity="0.3" d="M47.137 24.3165H47.1267C46.8751 24.3165 46.6719 24.568 46.6719 24.8781V30.8798H47.5883V24.8781C47.5918 24.568 47.3885 24.3165 47.137 24.3165Z" fill="#090908"/>
<path opacity="0.3" d="M47.1415 16.6163H47.1277C46.7349 16.6163 46.418 17.0125 46.418 17.4983V21.1125H47.8547V17.4983C47.8512 17.0091 47.5342 16.6163 47.1415 16.6163Z" fill="#090908"/>
<path opacity="0.3" d="M48.7151 24.3165H48.7048C48.4533 24.3165 48.25 24.568 48.25 24.8781V30.8798H49.1664V24.8781C49.1664 24.568 48.9666 24.3165 48.7151 24.3165Z" fill="#090908"/>
<path d="M3.11677 28.375H-1.13818L0.987571 16.537L3.11677 28.375Z" fill="#9D6B37"/>
<path d="M10.5353 32.0958C10.4044 27.4619 6.24931 23.7169 1.07791 23.6755C-4.15206 23.6342 -8.42423 27.393 -8.55859 32.0958H10.5353Z" fill="#C38544"/>
<path d="M33.48 28.375H29.2251L31.3509 16.537L33.48 28.375Z" fill="#9D6B37"/>
<path d="M40.8986 32.0958C40.7676 27.4619 36.6126 23.7169 31.4412 23.6755C26.2112 23.6342 21.9425 27.393 21.8047 32.0958H40.8986Z" fill="#C38544"/>
<path d="M63.8433 28.375H59.5884L61.7141 16.537L63.8433 28.375Z" fill="#9D6B37"/>
<path d="M71.2618 32.0958C71.1309 27.4619 66.9759 23.7169 61.8045 23.6755C56.5745 23.6342 52.3023 27.393 52.168 32.0958H71.2618Z" fill="#C38544"/>
</svg>
