<svg width="62" height="134" viewBox="0 0 62 134" fill="none" xmlns="http://www.w3.org/2000/svg">
<path d="M61.1916 17.118H0.813477V125.441H61.1916V17.118Z" fill="#CF2E26"/>
<path d="M59.2406 133.467H2.76652C1.2727 133.467 0.0600586 132.496 0.0600586 131.299V31.4528C0.0600586 30.2558 1.2727 29.285 2.76652 29.285H59.2406C60.7344 29.285 61.947 30.2558 61.947 31.4528V131.299C61.9445 132.496 60.7344 133.467 59.2406 133.467Z" fill="#E6332A"/>
<path d="M56.8404 33.373H5.16162V129.374H56.8404V33.373Z" fill="#CF2E26"/>
<path d="M31.0012 0.486572C16.6379 0.486572 4.43879 5.89224 0 13.4128H0.0577702V17.5622C0.0577702 18.0571 0.5348 18.4568 1.11978 18.4568H60.8802C61.4677 18.4568 61.9422 18.0571 61.9422 17.5622V13.4128H62C57.5662 5.89013 45.367 0.486572 31.0012 0.486572Z" fill="#E6332A"/>
<path d="M5.3623 14.1571C9.63037 8.58224 19.8636 4.78601 31.0008 4.78601C42.1379 4.78601 52.3713 8.58224 56.6393 14.1571H5.3623Z" fill="#CF2E26"/>
<path d="M51.7391 20.3667H10.2661V26.7621H51.7391V20.3667Z" fill="#F6F6F6"/>
<path d="M20.4747 38.1949H11.8633V56.9878H20.4747V38.1949Z" fill="#2E2E2D"/>
<path d="M30.3659 38.1949H21.752V56.9878H30.3659V38.1949Z" fill="#2E2E2D"/>
<path d="M40.2556 38.1949H31.6416V56.9878H40.2556V38.1949Z" fill="#2E2E2D"/>
<path d="M50.1428 38.1949H41.5288V56.9878H50.1428V38.1949Z" fill="#2E2E2D"/>
<path d="M20.4747 57.9564H11.8633V76.7493H20.4747V57.9564Z" fill="#2E2E2D"/>
<path d="M30.3659 57.9564H21.752V76.7493H30.3659V57.9564Z" fill="#2E2E2D"/>
<path d="M40.2556 57.9564H31.6416V76.7493H40.2556V57.9564Z" fill="#2E2E2D"/>
<path d="M50.1428 57.9564H41.5288V76.7493H50.1428V57.9564Z" fill="#2E2E2D"/>
<path d="M20.4747 77.7179H11.8633V96.5108H20.4747V77.7179Z" fill="#2E2E2D"/>
<path d="M30.3659 77.7179H21.752V96.5108H30.3659V77.7179Z" fill="#2E2E2D"/>
<path d="M40.2556 77.7179H31.6416V96.5108H40.2556V77.7179Z" fill="#2E2E2D"/>
<path d="M50.1428 77.7179H41.5288V96.5108H50.1428V77.7179Z" fill="#2E2E2D"/>
<path d="M20.4747 97.4795H11.8633V116.272H20.4747V97.4795Z" fill="#2E2E2D"/>
<path d="M30.3659 97.4795H21.752V116.272H30.3659V97.4795Z" fill="#2E2E2D"/>
<path d="M40.2556 97.4795H31.6416V116.272H40.2556V97.4795Z" fill="#2E2E2D"/>
<path d="M50.1428 97.4795H41.5288V116.272H50.1428V97.4795Z" fill="#2E2E2D"/>
<path d="M50.1429 119.595H11.8633V126.24H50.1429V119.595Z" fill="#E6332A"/>
<path d="M8.13915 78.6994C9.3122 78.6994 10.2632 77.9372 10.2632 76.9969C10.2632 76.0567 9.3122 75.2944 8.13915 75.2944C6.9661 75.2944 6.01514 76.0567 6.01514 76.9969C6.01514 77.9372 6.9661 78.6994 8.13915 78.6994Z" fill="#F9B233"/>
<path d="M21.5714 10.49C21.5438 11.0864 21.8902 11.7653 22.2593 12.2242C22.9647 13.3091 28.217 11.8689 27.9986 10.6084C27.9333 10.2299 27.8103 9.87034 27.6346 9.54465C29.0757 9.36065 30.5243 9.25913 31.9704 9.25913C33.4165 9.29508 34.8626 9.43467 36.2962 9.65674C36.1104 9.9782 35.9724 10.3335 35.892 10.7121C35.6259 11.9641 40.8203 13.5439 41.566 12.478C41.9526 12.0296 42.3217 11.3592 42.3167 10.7628C42.3067 9.50023 41.2647 8.44913 39.8688 8.16785L39.8713 8.16151C37.4637 7.5207 34.599 7.14636 32.008 7.08925C29.4145 7.07656 26.5399 7.37689 24.1096 7.95425L24.1121 7.95848C22.7087 8.20592 21.6266 9.22952 21.5714 10.49ZM37.0745 10.6338C37.6017 10.6592 38.2595 10.7924 38.9299 11.0082C39.7559 11.2746 40.4739 11.6299 40.853 11.9577C41.0363 12.1163 41.1217 12.258 41.0865 12.3384C40.9836 12.5647 39.8964 12.5901 38.4277 12.1163C37.6017 11.8499 36.8837 11.4946 36.5046 11.1668C36.3213 11.0081 36.236 10.8664 36.2711 10.7861C36.3088 10.6994 36.5447 10.6063 37.0745 10.6338ZM24.9482 10.8241C26.2688 10.4371 27.3433 10.4223 27.5818 10.6296C27.5968 10.6423 27.6069 10.6571 27.6144 10.6719C27.7073 10.9003 26.8964 11.5094 25.4101 11.9451C24.0895 12.3321 23.015 12.3469 22.7765 12.1396C22.7614 12.1269 22.7514 12.1121 22.7439 12.0973C22.651 11.8689 23.4619 11.2598 24.9482 10.8241Z" fill="#E6332A"/>
</svg>
