<svg width="97" height="98" viewBox="0 0 97 98" fill="none" xmlns="http://www.w3.org/2000/svg">
<path d="M16.9031 24.8282H11.2686V31.3063H16.9031V24.8282Z" fill="#E3B684"/>
<path d="M14.0889 96.6712L11.6536 96.3679L11.7942 97.5579C12.5868 97.6 13.4247 97.6487 14.0889 97.4096V96.6712Z" fill="#3C3C3B"/>
<path d="M14.0891 95.7957L3.9436 96.6469L4.00671 97.3975C5.9561 98.1181 9.42759 97.9808 14.0891 96.7709V95.7957Z" fill="#3C3C3B"/>
<path d="M14.0891 94.0223C13.9939 93.7323 13.8534 93.4766 13.6408 93.3072C12.9866 92.7836 11.5896 93.2674 9.72544 93.8087C8.00298 94.3101 7.00447 94.6655 6.24065 94.9688C4.73516 95.5743 3.90159 96.1311 3.94366 96.6458C4.76061 97.506 12.1663 97.0355 14.088 96.171V94.0223H14.0891Z" fill="#634E42"/>
<path d="M14.0889 96.6712L16.5242 96.3679L16.3836 97.5579C15.591 97.6 14.7531 97.6487 14.0889 97.4096V96.6712Z" fill="#3C3C3B"/>
<path d="M14.0889 95.7957L24.2344 96.6469L24.1712 97.3975C22.2219 98.1181 18.7504 97.9808 14.0889 96.7709V95.7957Z" fill="#3C3C3B"/>
<path d="M14.0889 94.0223C14.1841 93.7323 14.3247 93.4766 14.5372 93.3072C15.1914 92.7836 16.5884 93.2674 18.4526 93.8087C20.175 94.3101 21.1724 94.6655 21.9362 94.9688C23.4417 95.5743 24.2753 96.1311 24.2332 96.6458C23.4163 97.506 16.0106 97.0355 14.0889 96.171V94.0223Z" fill="#634E42"/>
<path d="M20.4808 50.9519H7.69629V94.1263H20.4808V50.9519Z" fill="#3C3C3B"/>
<path d="M8.67384 19.5038C8.77015 19.4883 8.86867 19.5015 8.96498 19.537V17.2123C8.96498 15.2972 10.5181 13.7441 12.4331 13.7441H15.7463C17.6614 13.7441 19.2145 15.2972 19.2145 17.2123V19.537C19.3108 19.5004 19.4082 19.4883 19.5056 19.5038C20.016 19.5868 20.1023 20.4082 19.9529 21.3292C19.8322 22.0764 19.6639 22.6531 19.2566 22.807C19.1614 22.8446 19.0617 22.8568 18.9665 22.8402C18.9367 22.8347 18.909 22.8236 18.8813 22.8136C18.6555 23.8741 18.3566 24.7143 17.9747 25.2756C17.5219 25.9397 17.1732 26.439 16.85 26.8154C16.1149 27.6677 15.5083 27.8759 14.1157 27.8759C14.1091 27.8759 14.1025 27.8759 14.0958 27.8759H14.0914H14.087C14.0803 27.8759 14.0737 27.8759 14.0671 27.8759C12.5062 27.8759 12.2361 27.8626 11.3328 26.8154C11.0085 26.4401 10.6597 25.9397 10.2081 25.2756C9.82619 24.7143 9.5262 23.8752 9.30148 22.8136C9.27381 22.8236 9.24503 22.8347 9.21625 22.8402C9.12105 22.8568 9.02143 22.8446 8.92623 22.807C8.51997 22.6531 8.3506 22.0764 8.22994 21.3292C8.07718 20.4082 8.16352 19.5868 8.67384 19.5038Z" fill="#FFD2A1"/>
<path d="M14.0892 12.7977H14.0936C16.3076 12.7977 17.4146 13.1785 18.5216 14.3519C19.2865 15.1633 19.7082 16.2449 19.6673 17.3607L19.5057 19.5027C19.2278 19.4573 18.9411 19.64 18.7131 19.9676V17.4858C18.7131 16.3987 17.833 15.5187 16.746 15.5187H11.4347C10.3476 15.5187 9.46758 16.3987 9.46758 17.4858V19.9676C9.23954 19.64 8.95283 19.4573 8.67498 19.5027L8.51336 17.3607C8.4713 16.2438 8.89414 15.1633 9.65906 14.3519C10.766 13.1774 11.873 12.7977 14.087 12.7977H14.0892Z" fill="#3C3C3B"/>
<path d="M24.5249 34.7458L22.1527 48.975V51.2697L23.7545 65.9726H4.25169L6.29407 51.2697V48.975L3.65503 34.7458C3.65503 33.0854 4.70888 31.6275 6.28965 31.1083L10.401 29.3416L14.0606 30.5471L17.7712 29.3416L21.8903 31.1083C23.4633 31.6286 24.5249 33.0865 24.5249 34.7458Z" fill="#E6332A"/>
<path d="M22.1523 48.9749H6.2937V51.2696H22.1523V48.9749Z" fill="#F6F6F6"/>
<path d="M14.2784 30.3024H13.8445V65.9726H14.2784V30.3024Z" fill="#F6F6F6"/>
<path d="M15.9267 33.7274C15.9267 33.9853 15.7175 34.1945 15.4596 34.1945C15.2016 34.1945 14.9924 33.9853 14.9924 33.7274C14.9924 33.4695 15.2016 33.2603 15.4596 33.2603C15.7175 33.2603 15.9267 33.4695 15.9267 33.7274Z" fill="#F6F6F6"/>
<path d="M15.9267 37.7845C15.9267 38.0425 15.7175 38.2517 15.4596 38.2517C15.2016 38.2517 14.9924 38.0425 14.9924 37.7845C14.9924 37.5266 15.2016 37.3174 15.4596 37.3174C15.7175 37.3174 15.9267 37.5266 15.9267 37.7845Z" fill="#F6F6F6"/>
<path d="M15.9267 41.8415C15.9267 42.0995 15.7175 42.3087 15.4596 42.3087C15.2016 42.3087 14.9924 42.0995 14.9924 41.8415C14.9924 41.5836 15.2016 41.3744 15.4596 41.3744C15.7175 41.3744 15.9267 41.5836 15.9267 41.8415Z" fill="#F6F6F6"/>
<path d="M15.9267 45.8987C15.9267 46.1566 15.7175 46.3658 15.4596 46.3658C15.2016 46.3658 14.9924 46.1566 14.9924 45.8987C14.9924 45.6407 15.2016 45.4315 15.4596 45.4315C15.7175 45.4315 15.9267 45.6407 15.9267 45.8987Z" fill="#F6F6F6"/>
<path d="M12.7895 28.5091L11.2685 27.7286L10.4006 29.3415L14.0891 30.547V30.3024C14.0891 29.4865 13.5644 28.7626 12.7895 28.5091Z" fill="#3C3C3B"/>
<path d="M15.3833 28.5091L16.9043 27.7286L17.7722 29.3415L14.0837 30.547V30.3024C14.0826 29.4865 14.6074 28.7626 15.3833 28.5091Z" fill="#3C3C3B"/>
<path d="M15.7464 48.7247H12.7V51.4346H15.7464V48.7247Z" fill="#F9B233"/>
<path d="M14.0904 27.1861C12.6856 27.1861 11.3871 26.4157 10.434 25.0186C9.40449 23.5076 8.85986 21.37 8.85986 18.8384H9.72773C9.72773 23.9781 11.9893 26.3194 14.0914 26.3194C16.1936 26.3194 18.4552 23.9781 18.4552 18.8384H19.323C19.3208 24.5736 16.6098 27.1861 14.0904 27.1861Z" fill="#F9B233"/>
<path d="M15.1972 0.38623H12.9821C8.88188 0.38623 5.55762 3.71049 5.55762 7.81075V19.2016C5.55762 20.4967 6.82401 21.3713 8.05829 20.9805C12.1995 19.6676 16.2488 19.6455 20.1986 20.9506C21.3952 21.3458 22.6206 20.4093 22.6206 19.1484V7.81075C22.6217 3.71049 19.2975 0.38623 15.1972 0.38623Z" fill="#3C3C3B"/>
<path d="M8.26424 35.6293C4.50826 41.3966 4.56027 47.2426 6.19085 56.0121L5.96505 56.0641L2.38284 56.8445L1.09873 57.1224C-0.366908 49.1256 -1.14732 40.5642 3.90051 32.7932C4.68093 31.5877 6.29492 31.2489 7.50042 32.0305C8.70703 32.8109 9.04466 34.4238 8.26424 35.6293Z" fill="#E6332A"/>
<path d="M3.57714 54.7617L1.03711 55.3282L1.35979 56.7749L3.89983 56.2084L3.57714 54.7617Z" fill="#F6F6F6"/>
<path d="M3.47216 54.5321L1.04345 55.0735L0.803223 53.6089L3.15005 53.0853L3.47216 54.5321Z" fill="#F6F6F6"/>
<path d="M3.05593 52.8328L0.803225 53.3354L0.572998 51.8686L2.73382 51.3871L3.05593 52.8328Z" fill="#F6F6F6"/>
<path d="M23.8637 58.8215L23.5505 59.3772L23.515 60.7875C23.5106 60.99 23.4254 61.1816 23.2781 61.3199C23.132 61.4594 22.9361 61.5347 22.7335 61.5291C22.4977 61.5236 22.3107 61.3266 22.3173 61.0908L22.397 57.9248C22.4059 57.5828 22.459 57.244 22.5553 56.9152L23.3114 54.8153L25.6803 55.7131L26.339 57.3071C26.5847 57.8418 26.7187 58.4218 26.7342 59.0108L26.6987 60.4841C26.7042 60.7244 26.6367 60.9613 26.5039 61.1627L24.0464 63.3612C23.3479 64.1239 22.48 63.349 23.1985 62.6682L24.9785 60.9192L24.9685 60.4343C24.9608 60.0801 24.8146 59.7425 24.56 59.4956L23.8637 58.8215Z" fill="#FFD2A1"/>
<path d="M20.8608 32.0303C22.0652 31.2477 23.678 31.5886 24.4607 32.793C29.5107 40.5607 28.7303 49.1232 27.2647 57.1233L22.1714 56.0108C23.8053 47.2469 23.8507 41.4009 20.0992 35.6313C19.3132 34.4258 19.6553 32.8141 20.8608 32.0303Z" fill="#E6332A"/>
<path d="M24.7973 54.7999L24.4746 56.2466L27.0147 56.8131L27.3373 55.3665L24.7973 54.7999Z" fill="#F6F6F6"/>
<path d="M24.8889 54.5319L27.3176 55.0732L27.5578 53.6087L25.211 53.0851L24.8889 54.5319Z" fill="#F6F6F6"/>
<path d="M25.3042 52.8327L27.558 53.3352L27.7871 51.8685L25.6263 51.387L25.3042 52.8327Z" fill="#F6F6F6"/>
<path d="M3.96272 17.4575L2.37891 17.7113L2.5162 18.5682L4.10001 18.3145L3.96272 17.4575Z" fill="#575756"/>
<path d="M8.01966 49.3978L7.11192 49.5428L4.37437 32.4455C4.23821 31.5975 4.81606 30.8005 5.6629 30.6655L6.71562 30.4972L9.42993 47.4495C9.57827 48.3771 8.9473 49.2494 8.01966 49.3978Z" fill="#3C3C3B"/>
<path d="M5.3938 61.3122L10.6232 60.4743L8.66494 48.2465L6.44102 45.354L5.3938 61.3122Z" fill="#3C3C3B"/>
<path d="M4.42564 16.2634L3.13257 16.4705L5.80153 33.1392L7.0946 32.9322L4.42564 16.2634Z" fill="#3C3C3B"/>
<path d="M2.9385 18.9581L1.52488 19.1839L0.493164 3.68506L2.9385 18.9581Z" fill="#9D9D9C"/>
<path d="M8.59403 61.589L5.29853 61.5193C5.06385 61.4584 4.8646 61.32 4.70852 61.1285L3.71998 60.0359C3.34692 59.5843 3.07792 59.0563 2.91298 58.4917L2.375 56.8523L2.38385 56.8434L5.96603 56.063C6.0878 56.1582 6.20071 56.2711 6.30477 56.3929L8.43018 58.743C8.58627 58.9168 8.57741 59.1858 8.39586 59.3419C8.24863 59.4802 8.04939 59.55 7.84903 59.5411C7.64977 59.5323 7.45827 59.4371 7.31989 59.2898L6.37453 58.2404L5.77563 58.0234L5.68929 58.9865C5.65497 59.3419 5.76679 59.6972 5.99262 59.9662L6.29592 60.3393L8.78551 60.513C9.77293 60.5573 9.61688 61.7108 8.59403 61.589Z" fill="#FFD2A1"/>
<path d="M51.2195 24.8282H45.585V31.3063H51.2195V24.8282Z" fill="#E3B684"/>
<path d="M48.4053 96.6712L45.97 96.3679L46.1106 97.5579C46.9032 97.6 47.7412 97.6487 48.4053 97.4096V96.6712Z" fill="#3C3C3B"/>
<path d="M48.4055 95.7957L38.26 96.6469L38.3231 97.3975C40.2725 98.1181 43.744 97.9808 48.4055 96.7709V95.7957Z" fill="#3C3C3B"/>
<path d="M48.4055 94.0223C48.3103 93.7323 48.1698 93.4766 47.9572 93.3072C47.303 92.7836 45.906 93.2674 44.0418 93.8087C42.3194 94.3101 41.3209 94.6655 40.5571 94.9688C39.0516 95.5743 38.218 96.1311 38.2601 96.6458C39.077 97.506 46.4827 97.0355 48.4044 96.171V94.0223H48.4055Z" fill="#634E42"/>
<path d="M48.4053 96.6712L50.8406 96.3679L50.7 97.5579C49.9074 97.6 49.0695 97.6487 48.4053 97.4096V96.6712Z" fill="#3C3C3B"/>
<path d="M48.4053 95.7957L58.5508 96.6469L58.4877 97.3975C56.5383 98.1181 53.0668 97.9808 48.4053 96.7709V95.7957Z" fill="#3C3C3B"/>
<path d="M48.4053 94.0223C48.5005 93.7323 48.6411 93.4766 48.8536 93.3072C49.5078 92.7836 50.9048 93.2674 52.769 93.8087C54.4914 94.3101 55.4888 94.6655 56.2526 94.9688C57.7581 95.5743 58.5917 96.1311 58.5496 96.6458C57.7327 97.506 50.327 97.0355 48.4053 96.171V94.0223Z" fill="#634E42"/>
<path d="M54.7972 50.9519H42.0127V94.1263H54.7972V50.9519Z" fill="#3C3C3B"/>
<path d="M42.9902 19.5038C43.0866 19.4883 43.1851 19.5015 43.2814 19.537V17.2123C43.2814 15.2972 44.8345 13.7441 46.7495 13.7441H50.0627C51.9778 13.7441 53.5309 15.2972 53.5309 17.2123V19.537C53.6272 19.5004 53.7246 19.4883 53.8221 19.5038C54.3324 19.5868 54.4187 20.4082 54.2693 21.3292C54.1486 22.0764 53.9803 22.6531 53.573 22.807C53.4778 22.8446 53.3782 22.8568 53.283 22.8402C53.2531 22.8347 53.2254 22.8236 53.1977 22.8136C52.9719 23.8741 52.673 24.7143 52.2911 25.2756C51.8383 25.9397 51.4896 26.439 51.1664 26.8154C50.4314 27.6677 49.8247 27.8759 48.4321 27.8759C48.4255 27.8759 48.4189 27.8759 48.4122 27.8759H48.4078H48.4034C48.3967 27.8759 48.3901 27.8759 48.3835 27.8759C46.8226 27.8759 46.5525 27.8626 45.6492 26.8154C45.3249 26.4401 44.9762 25.9397 44.5245 25.2756C44.1426 24.7143 43.8426 23.8752 43.6179 22.8136C43.5902 22.8236 43.5614 22.8347 43.5327 22.8402C43.4375 22.8568 43.3378 22.8446 43.2426 22.807C42.8364 22.6531 42.667 22.0764 42.5463 21.3292C42.3936 20.4082 42.4799 19.5868 42.9902 19.5038Z" fill="#FFD2A1"/>
<path d="M48.4056 12.7977H48.41C50.624 12.7977 51.731 13.1785 52.838 14.3519C53.6029 15.1633 54.0247 16.2449 53.9837 17.3607L53.8221 19.5027C53.5442 19.4573 53.2575 19.64 53.0295 19.9676V17.4858C53.0295 16.3987 52.1494 15.5187 51.0624 15.5187H45.7511C44.664 15.5187 43.784 16.3987 43.784 17.4858V19.9676C43.5559 19.64 43.2692 19.4573 42.9914 19.5027L42.8298 17.3607C42.7877 16.2438 43.2105 15.1633 43.9755 14.3519C45.0824 13.1774 46.1894 12.7977 48.4034 12.7977H48.4056Z" fill="#3C3C3B"/>
<path d="M58.8413 34.7458L56.4691 48.975V51.2697L58.0709 65.9726H38.5681L40.6105 51.2697V48.975L37.9714 34.7458C37.9714 33.0854 39.0253 31.6275 40.6061 31.1083L44.7174 29.3416L48.377 30.5471L52.0876 29.3416L56.2067 31.1083C57.7797 31.6286 58.8413 33.0865 58.8413 34.7458Z" fill="#E6332A"/>
<path d="M56.4687 48.9749H40.6101V51.2696H56.4687V48.9749Z" fill="#F6F6F6"/>
<path d="M48.5948 30.3024H48.1609V65.9726H48.5948V30.3024Z" fill="#F6F6F6"/>
<path d="M50.2431 33.7274C50.2431 33.9853 50.0339 34.1945 49.776 34.1945C49.5181 34.1945 49.3088 33.9853 49.3088 33.7274C49.3088 33.4695 49.5181 33.2603 49.776 33.2603C50.0339 33.2603 50.2431 33.4695 50.2431 33.7274Z" fill="#F6F6F6"/>
<path d="M50.2431 37.7845C50.2431 38.0425 50.0339 38.2517 49.776 38.2517C49.5181 38.2517 49.3088 38.0425 49.3088 37.7845C49.3088 37.5266 49.5181 37.3174 49.776 37.3174C50.0339 37.3174 50.2431 37.5266 50.2431 37.7845Z" fill="#F6F6F6"/>
<path d="M50.2431 41.8415C50.2431 42.0995 50.0339 42.3087 49.776 42.3087C49.5181 42.3087 49.3088 42.0995 49.3088 41.8415C49.3088 41.5836 49.5181 41.3744 49.776 41.3744C50.0339 41.3744 50.2431 41.5836 50.2431 41.8415Z" fill="#F6F6F6"/>
<path d="M50.2431 45.8987C50.2431 46.1566 50.0339 46.3658 49.776 46.3658C49.5181 46.3658 49.3088 46.1566 49.3088 45.8987C49.3088 45.6407 49.5181 45.4315 49.776 45.4315C50.0339 45.4315 50.2431 45.6407 50.2431 45.8987Z" fill="#F6F6F6"/>
<path d="M47.1059 28.5091L45.5849 27.7286L44.717 29.3415L48.4055 30.547V30.3024C48.4055 29.4865 47.8808 28.7626 47.1059 28.5091Z" fill="#3C3C3B"/>
<path d="M49.6998 28.5091L51.2207 27.7286L52.0886 29.3415L48.4001 30.547V30.3024C48.399 29.4865 48.9238 28.7626 49.6998 28.5091Z" fill="#3C3C3B"/>
<path d="M50.0628 48.7247H47.0164V51.4346H50.0628V48.7247Z" fill="#F9B233"/>
<path d="M48.4068 27.1861C47.002 27.1861 45.7035 26.4157 44.7504 25.0186C43.7209 23.5076 43.1763 21.37 43.1763 18.8384H44.0441C44.0441 23.9781 46.3057 26.3194 48.4078 26.3194C50.51 26.3194 52.7716 23.9781 52.7716 18.8384H53.6394C53.6372 24.5736 50.9262 27.1861 48.4068 27.1861Z" fill="#F9B233"/>
<path d="M49.5136 0.38623H47.2985C43.1983 0.38623 39.874 3.71049 39.874 7.81075V19.2016C39.874 20.4967 41.1404 21.3713 42.3747 20.9805C46.5159 19.6676 50.5653 19.6455 54.515 20.9506C55.7116 21.3458 56.937 20.4093 56.937 19.1484V7.81075C56.9381 3.71049 53.6139 0.38623 49.5136 0.38623Z" fill="#3C3C3B"/>
<path d="M42.5806 35.6293C38.8247 41.3966 38.8767 47.2426 40.5073 56.0121L40.2815 56.0641L36.6992 56.8445L35.4151 57.1224C33.9495 49.1256 33.1691 40.5642 38.2169 32.7932C38.9973 31.5877 40.6113 31.2489 41.8168 32.0305C43.0234 32.8109 43.3611 34.4238 42.5806 35.6293Z" fill="#E6332A"/>
<path d="M37.8933 54.7617L35.3533 55.3282L35.676 56.7749L38.216 56.2084L37.8933 54.7617Z" fill="#F6F6F6"/>
<path d="M37.7886 54.5321L35.3599 55.0735L35.1196 53.6089L37.4665 53.0853L37.7886 54.5321Z" fill="#F6F6F6"/>
<path d="M37.3723 52.8328L35.1196 53.3354L34.8894 51.8686L37.0502 51.3871L37.3723 52.8328Z" fill="#F6F6F6"/>
<path d="M58.1801 58.8215L57.8669 59.3772L57.8314 60.7875C57.827 60.99 57.7418 61.1816 57.5946 61.3199C57.4484 61.4594 57.2525 61.5347 57.0499 61.5291C56.8141 61.5236 56.6271 61.3266 56.6337 61.0908L56.7134 57.9248C56.7223 57.5828 56.7754 57.244 56.8717 56.9152L57.6278 54.8153L59.9967 55.7131L60.6554 57.3071C60.9011 57.8418 61.0351 58.4218 61.0506 59.0108L61.0151 60.4841C61.0207 60.7244 60.9531 60.9613 60.8203 61.1627L58.3628 63.3612C57.6643 64.1239 56.7964 63.349 57.5149 62.6682L59.2949 60.9192L59.2849 60.4343C59.2772 60.0801 59.131 59.7425 58.8764 59.4956L58.1801 58.8215Z" fill="#FFD2A1"/>
<path d="M55.1772 32.0303C56.3816 31.2477 57.9944 31.5886 58.7771 32.793C63.8271 40.5607 63.0467 49.1232 61.5811 57.1233L56.4878 56.0108C58.1217 47.2469 58.1671 41.4009 54.4156 35.6313C53.6296 34.4258 53.9717 32.8141 55.1772 32.0303Z" fill="#E6332A"/>
<path d="M59.1137 54.7999L58.791 56.2466L61.3311 56.8131L61.6538 55.3665L59.1137 54.7999Z" fill="#F6F6F6"/>
<path d="M59.2053 54.5319L61.634 55.0732L61.8742 53.6087L59.5274 53.0851L59.2053 54.5319Z" fill="#F6F6F6"/>
<path d="M59.6204 52.8327L61.8742 53.3352L62.1033 51.8685L59.9425 51.387L59.6204 52.8327Z" fill="#F6F6F6"/>
<path d="M38.2791 17.4575L36.6953 17.7113L36.8326 18.5682L38.4164 18.3145L38.2791 17.4575Z" fill="#575756"/>
<path d="M42.3361 49.3978L41.4283 49.5428L38.6908 32.4455C38.5546 31.5975 39.1325 30.8005 39.9793 30.6655L41.032 30.4972L43.7463 47.4495C43.8947 48.3771 43.2637 49.2494 42.3361 49.3978Z" fill="#3C3C3B"/>
<path d="M39.7102 61.3122L44.9396 60.4743L42.9814 48.2465L40.7574 45.354L39.7102 61.3122Z" fill="#3C3C3B"/>
<path d="M38.742 16.2634L37.449 16.4705L40.1179 33.1392L41.411 32.9322L38.742 16.2634Z" fill="#3C3C3B"/>
<path d="M37.2549 18.9581L35.8413 19.1839L34.8096 3.68506L37.2549 18.9581Z" fill="#9D9D9C"/>
<path d="M42.9104 61.589L39.6149 61.5193C39.3803 61.4584 39.181 61.32 39.0249 61.1285L38.0364 60.0359C37.6633 59.5843 37.3943 59.0563 37.2294 58.4917L36.6914 56.8523L36.7003 56.8434L40.2824 56.063C40.4042 56.1582 40.5171 56.2711 40.6212 56.3929L42.7466 58.743C42.9027 58.9168 42.8938 59.1858 42.7123 59.3419C42.565 59.4802 42.3658 59.55 42.1654 59.5411C41.9662 59.5323 41.7747 59.4371 41.6363 59.2898L40.6909 58.2404L40.092 58.0234L40.0057 58.9865C39.9714 59.3419 40.0832 59.6972 40.309 59.9662L40.6123 60.3393L43.1019 60.513C44.0893 60.5573 43.9333 61.7108 42.9104 61.589Z" fill="#FFD2A1"/>
<path d="M85.5356 24.8282H79.9011V31.3063H85.5356V24.8282Z" fill="#E3B684"/>
<path d="M82.7217 96.6712L80.2864 96.3679L80.427 97.5579C81.2196 97.6 82.0576 97.6487 82.7217 97.4096V96.6712Z" fill="#3C3C3B"/>
<path d="M82.7219 95.7957L72.5764 96.6469L72.6395 97.3975C74.5889 98.1181 78.0604 97.9808 82.7219 96.7709V95.7957Z" fill="#3C3C3B"/>
<path d="M82.7217 94.0223C82.6265 93.7323 82.4859 93.4766 82.2734 93.3072C81.6192 92.7836 80.2222 93.2674 78.358 93.8087C76.6355 94.3101 75.637 94.6655 74.8732 94.9688C73.3677 95.5743 72.5342 96.1311 72.5762 96.6458C73.3932 97.506 80.7989 97.0355 82.7206 96.171V94.0223H82.7217Z" fill="#634E42"/>
<path d="M82.7217 96.6712L85.157 96.3679L85.0164 97.5579C84.2238 97.6 83.3859 97.6487 82.7217 97.4096V96.6712Z" fill="#3C3C3B"/>
<path d="M82.7217 95.7957L92.8672 96.6469L92.8041 97.3975C90.8547 98.1181 87.3832 97.9808 82.7217 96.7709V95.7957Z" fill="#3C3C3B"/>
<path d="M82.7217 94.0223C82.8169 93.7323 82.9575 93.4766 83.17 93.3072C83.8242 92.7836 85.2212 93.2674 87.0854 93.8087C88.8078 94.3101 89.8052 94.6655 90.5691 94.9688C92.0745 95.5743 92.9081 96.1311 92.866 96.6458C92.0491 97.506 84.6434 97.0355 82.7217 96.171V94.0223Z" fill="#634E42"/>
<path d="M89.1134 50.9519H76.3289V94.1263H89.1134V50.9519Z" fill="#3C3C3B"/>
<path d="M77.3064 19.5038C77.4027 19.4883 77.5012 19.5015 77.5975 19.537V17.2123C77.5975 15.2972 79.1506 13.7441 81.0657 13.7441H84.3789C86.294 13.7441 87.8471 15.2972 87.8471 17.2123V19.537C87.9434 19.5004 88.0408 19.4883 88.1382 19.5038C88.6485 19.5868 88.7349 20.4082 88.5854 21.3292C88.4648 22.0764 88.2965 22.6531 87.8891 22.807C87.7939 22.8446 87.6943 22.8568 87.5991 22.8402C87.5692 22.8347 87.5416 22.8236 87.5139 22.8136C87.2881 23.8741 86.9892 24.7143 86.6073 25.2756C86.1545 25.9397 85.8058 26.439 85.4825 26.8154C84.7475 27.6677 84.1409 27.8759 82.7483 27.8759C82.7417 27.8759 82.735 27.8759 82.7284 27.8759H82.7239H82.7195C82.7129 27.8759 82.7063 27.8759 82.6996 27.8759C81.1388 27.8759 80.8687 27.8626 79.9654 26.8154C79.641 26.4401 79.2923 25.9397 78.8407 25.2756C78.4588 24.7143 78.1588 23.8752 77.934 22.8136C77.9064 22.8236 77.8776 22.8347 77.8488 22.8402C77.7536 22.8568 77.654 22.8446 77.5588 22.807C77.1525 22.6531 76.9832 22.0764 76.8625 21.3292C76.7097 20.4082 76.7961 19.5868 77.3064 19.5038Z" fill="#FFD2A1"/>
<path d="M82.7218 12.7977H82.7262C84.9402 12.7977 86.0471 13.1785 87.1541 14.3519C87.919 15.1633 88.3408 16.2449 88.2999 17.3607L88.1382 19.5027C87.8604 19.4573 87.5737 19.64 87.3456 19.9676V17.4858C87.3456 16.3987 86.4656 15.5187 85.3785 15.5187H80.0672C78.9802 15.5187 78.1001 16.3987 78.1001 17.4858V19.9676C77.8721 19.64 77.5854 19.4573 77.3075 19.5027L77.1459 17.3607C77.1039 16.2438 77.5267 15.1633 78.2916 14.3519C79.3986 13.1774 80.5056 12.7977 82.7195 12.7977H82.7218Z" fill="#3C3C3B"/>
<path d="M93.1575 34.7458L90.7852 48.975V51.2697L92.387 65.9726H72.8843L74.9266 51.2697V48.975L72.2876 34.7458C72.2876 33.0854 73.3414 31.6275 74.9222 31.1083L79.0335 29.3416L82.6932 30.5471L86.4038 29.3416L90.5229 31.1083C92.0959 31.6286 93.1575 33.0865 93.1575 34.7458Z" fill="#E6332A"/>
<path d="M90.7849 48.9749H74.9263V51.2696H90.7849V48.9749Z" fill="#F6F6F6"/>
<path d="M82.911 30.3024H82.4771V65.9726H82.911V30.3024Z" fill="#F6F6F6"/>
<path d="M84.5593 33.7274C84.5593 33.9853 84.3501 34.1945 84.0921 34.1945C83.8342 34.1945 83.625 33.9853 83.625 33.7274C83.625 33.4695 83.8342 33.2603 84.0921 33.2603C84.3501 33.2603 84.5593 33.4695 84.5593 33.7274Z" fill="#F6F6F6"/>
<path d="M84.5593 37.7845C84.5593 38.0425 84.3501 38.2517 84.0921 38.2517C83.8342 38.2517 83.625 38.0425 83.625 37.7845C83.625 37.5266 83.8342 37.3174 84.0921 37.3174C84.3501 37.3174 84.5593 37.5266 84.5593 37.7845Z" fill="#F6F6F6"/>
<path d="M84.5593 41.8415C84.5593 42.0995 84.3501 42.3087 84.0921 42.3087C83.8342 42.3087 83.625 42.0995 83.625 41.8415C83.625 41.5836 83.8342 41.3744 84.0921 41.3744C84.3501 41.3744 84.5593 41.5836 84.5593 41.8415Z" fill="#F6F6F6"/>
<path d="M84.5593 45.8987C84.5593 46.1566 84.3501 46.3658 84.0921 46.3658C83.8342 46.3658 83.625 46.1566 83.625 45.8987C83.625 45.6407 83.8342 45.4315 84.0921 45.4315C84.3501 45.4315 84.5593 45.6407 84.5593 45.8987Z" fill="#F6F6F6"/>
<path d="M81.4221 28.5091L79.9011 27.7286L79.0332 29.3415L82.7217 30.547V30.3024C82.7217 29.4865 82.1969 28.7626 81.4221 28.5091Z" fill="#3C3C3B"/>
<path d="M84.0159 28.5091L85.5369 27.7286L86.4048 29.3415L82.7163 30.547V30.3024C82.7152 29.4865 83.2399 28.7626 84.0159 28.5091Z" fill="#3C3C3B"/>
<path d="M84.3789 48.7247H81.3325V51.4346H84.3789V48.7247Z" fill="#F9B233"/>
<path d="M82.7229 27.1861C81.3182 27.1861 80.0197 26.4157 79.0666 25.0186C78.0371 23.5076 77.4924 21.37 77.4924 18.8384H78.3603C78.3603 23.9781 80.6218 26.3194 82.724 26.3194C84.8262 26.3194 87.0877 23.9781 87.0877 18.8384H87.9556C87.9534 24.5736 85.2424 27.1861 82.7229 27.1861Z" fill="#F9B233"/>
<path d="M83.8298 0.38623H81.6147C77.5144 0.38623 74.1902 3.71049 74.1902 7.81075V19.2016C74.1902 20.4967 75.4566 21.3713 76.6909 20.9805C80.8321 19.6676 84.8814 19.6455 88.8311 20.9506C90.0278 21.3458 91.2532 20.4093 91.2532 19.1484V7.81075C91.2543 3.71049 87.93 0.38623 83.8298 0.38623Z" fill="#3C3C3B"/>
<path d="M76.8968 35.6293C73.1408 41.3966 73.1928 47.2426 74.8234 56.0121L74.5976 56.0641L71.0154 56.8445L69.7313 57.1224C68.2657 49.1256 67.4852 40.5642 72.5331 32.7932C73.3135 31.5877 74.9275 31.2489 76.133 32.0305C77.3396 32.8109 77.6772 34.4238 76.8968 35.6293Z" fill="#E6332A"/>
<path d="M72.2095 54.7617L69.6694 55.3282L69.9921 56.7749L72.5321 56.2084L72.2095 54.7617Z" fill="#F6F6F6"/>
<path d="M72.1047 54.5321L69.676 55.0735L69.4358 53.6089L71.7826 53.0853L72.1047 54.5321Z" fill="#F6F6F6"/>
<path d="M71.6885 52.8328L69.4358 53.3354L69.2056 51.8686L71.3664 51.3871L71.6885 52.8328Z" fill="#F6F6F6"/>
<path d="M92.4963 58.8215L92.183 59.3772L92.1476 60.7875C92.1432 60.99 92.0579 61.1816 91.9107 61.3199C91.7646 61.4594 91.5687 61.5347 91.3661 61.5291C91.1303 61.5236 90.9432 61.3266 90.9499 61.0908L91.0296 57.9248C91.0384 57.5828 91.0916 57.244 91.1879 56.9152L91.9439 54.8153L94.3129 55.7131L94.9715 57.3071C95.2173 57.8418 95.3512 58.4218 95.3667 59.0108L95.3313 60.4841C95.3368 60.7244 95.2693 60.9613 95.1365 61.1627L92.679 63.3612C91.9805 64.1239 91.1126 63.349 91.831 62.6682L93.6111 60.9192L93.6011 60.4343C93.5933 60.0801 93.4472 59.7425 93.1926 59.4956L92.4963 58.8215Z" fill="#FFD2A1"/>
<path d="M89.4934 32.0303C90.6977 31.2477 92.3106 31.5886 93.0932 32.793C98.1433 40.5607 97.3629 49.1232 95.8972 57.1233L90.804 56.0108C92.4379 47.2469 92.4833 41.4009 88.7317 35.6313C87.9458 34.4258 88.2878 32.8141 89.4934 32.0303Z" fill="#E6332A"/>
<path d="M93.4299 54.7999L93.1072 56.2466L95.6472 56.8131L95.9699 55.3665L93.4299 54.7999Z" fill="#F6F6F6"/>
<path d="M93.5215 54.5319L95.9502 55.0732L96.1904 53.6087L93.8436 53.0851L93.5215 54.5319Z" fill="#F6F6F6"/>
<path d="M93.9365 52.8327L96.1903 53.3352L96.4195 51.8685L94.2586 51.387L93.9365 52.8327Z" fill="#F6F6F6"/>
<path d="M72.5953 17.4575L71.0115 17.7113L71.1488 18.5682L72.7326 18.3145L72.5953 17.4575Z" fill="#575756"/>
<path d="M76.6522 49.3978L75.7445 49.5428L73.0069 32.4455C72.8708 31.5975 73.4486 30.8005 74.2955 30.6655L75.3482 30.4972L78.0625 47.4495C78.2108 48.3771 77.5799 49.2494 76.6522 49.3978Z" fill="#3C3C3B"/>
<path d="M74.0264 61.3122L79.2557 60.4743L77.2975 48.2465L75.0736 45.354L74.0264 61.3122Z" fill="#3C3C3B"/>
<path d="M73.0582 16.2634L71.7651 16.4705L74.4341 33.1392L75.7272 32.9322L73.0582 16.2634Z" fill="#3C3C3B"/>
<path d="M71.5711 18.9581L70.1574 19.1839L69.1257 3.68506L71.5711 18.9581Z" fill="#9D9D9C"/>
<path d="M77.2266 61.589L73.9311 61.5193C73.6964 61.4584 73.4972 61.32 73.3411 61.1285L72.3525 60.0359C71.9795 59.5843 71.7105 59.0563 71.5456 58.4917L71.0076 56.8523L71.0164 56.8434L74.5986 56.063C74.7204 56.1582 74.8333 56.2711 74.9373 56.3929L77.0628 58.743C77.2188 58.9168 77.21 59.1858 77.0284 59.3419C76.8812 59.4802 76.682 59.55 76.4816 59.5411C76.2823 59.5323 76.0908 59.4371 75.9525 59.2898L75.0071 58.2404L74.4082 58.0234L74.3219 58.9865C74.2875 59.3419 74.3994 59.6972 74.6252 59.9662L74.9285 60.3393L77.4181 60.513C78.4055 60.5573 78.2494 61.7108 77.2266 61.589Z" fill="#FFD2A1"/>
</svg>
