<svg width="415" height="512" viewBox="0 0 415 512" fill="none" xmlns="http://www.w3.org/2000/svg">
<path d="M207.244 115.66C165.01 115.66 130.726 149.695 130.319 191.84H284.169C283.751 149.705 249.477 115.66 207.244 115.66Z" fill="#EDEDED"/>
<path d="M200.965 193.718V191.84C200.975 171.419 201.442 152.24 202.266 137.84C203.658 113.782 205.238 113.782 207.235 113.782C209.232 113.782 210.822 113.782 212.204 137.84C213.029 152.24 213.496 171.409 213.506 191.84V193.718H200.965ZM207.245 122.835C205.933 133.627 204.79 157.993 204.731 189.962H209.759C209.7 157.993 208.557 133.627 207.245 122.835Z" fill="#DADADA"/>
<path d="M191.316 193.718V191.84C191.376 160.468 195.659 113.792 207.246 113.792C218.832 113.792 223.115 160.468 223.175 191.84V193.718H191.316ZM207.246 117.538C202.406 117.538 195.36 145.681 195.082 189.962H219.409C219.131 145.691 212.085 117.538 207.246 117.538Z" fill="#DADADA"/>
<path d="M181.655 193.718V191.83C181.794 147.331 192.785 113.782 207.234 113.782C221.683 113.782 232.683 147.341 232.822 191.83L232.832 193.718H181.655ZM207.244 117.538C196.959 117.538 185.878 146.555 185.431 189.962H229.056C228.609 146.555 217.519 117.538 207.244 117.538Z" fill="#DADADA"/>
<path d="M171.997 193.718L172.007 191.83C172.195 148.066 187.668 113.782 207.244 113.782C226.821 113.782 242.293 148.066 242.482 191.83L242.492 193.718H171.997ZM207.244 117.538C190.331 117.538 176.379 149.855 175.783 189.962H238.706C238.11 149.855 224.158 117.538 207.244 117.538Z" fill="#DADADA"/>
<path d="M162.348 193.718L162.358 191.83C162.596 148.066 182.312 113.782 207.245 113.782C232.178 113.782 251.893 148.066 252.132 191.83L252.142 193.718H162.348ZM207.245 117.538C185.134 117.538 166.909 149.855 166.144 189.962H248.356C247.571 149.855 229.346 117.538 207.245 117.538Z" fill="#DADADA"/>
<path d="M152.69 193.718L152.7 191.83C152.988 148.791 177.454 113.782 207.236 113.782C237.018 113.782 261.484 148.791 261.782 191.83L261.792 193.718H152.69ZM207.246 117.538C179.948 117.538 157.45 149.855 156.496 189.962H258.006C257.042 149.855 234.544 117.538 207.246 117.538Z" fill="#DADADA"/>
<path d="M143.029 193.718L143.039 191.82C143.387 148.791 172.175 113.782 207.234 113.782C242.293 113.782 271.082 148.791 271.43 191.82L271.449 193.718H143.029ZM207.244 117.538C174.759 117.538 147.978 149.855 146.845 189.962H267.643C266.511 149.855 239.729 117.538 207.244 117.538Z" fill="#DADADA"/>
<path d="M133.38 193.718L133.4 191.82C133.797 148.791 166.928 113.782 207.244 113.782C247.57 113.782 280.691 148.791 281.089 191.82L281.109 193.718H133.38ZM207.244 117.538C169.572 117.538 138.508 149.855 137.196 189.962H277.293C275.971 149.855 244.917 117.538 207.244 117.538Z" fill="#DADADA"/>
<path d="M284.189 190.429H130.299V233.418H284.189V190.429Z" fill="#EDEDED"/>
<path d="M140.753 199.861H135.913V231.859H140.753V199.861Z" fill="#C6C6C6"/>
<path d="M278.563 199.861H273.724V231.859H278.563V199.861Z" fill="#C6C6C6"/>
<path d="M153.283 199.861H148.444V231.859H153.283V199.861Z" fill="#C6C6C6"/>
<path d="M266.032 199.861H261.192V231.859H266.032V199.861Z" fill="#C6C6C6"/>
<path d="M165.814 199.861H160.975V231.859H165.814V199.861Z" fill="#C6C6C6"/>
<path d="M253.511 199.861H248.672V231.859H253.511V199.861Z" fill="#C6C6C6"/>
<path d="M178.345 199.861H173.505V231.859H178.345V199.861Z" fill="#C6C6C6"/>
<path d="M240.98 199.861H236.14V231.859H240.98V199.861Z" fill="#C6C6C6"/>
<path d="M190.866 199.861H186.027V231.859H190.866V199.861Z" fill="#C6C6C6"/>
<path d="M228.449 199.861H223.61V231.859H228.449V199.861Z" fill="#C6C6C6"/>
<path d="M203.397 199.861H198.558V231.859H203.397V199.861Z" fill="#C6C6C6"/>
<path d="M215.928 199.861H211.089V231.859H215.928V199.861Z" fill="#C6C6C6"/>
<path d="M287.109 190.429H127.366V195.686H287.109V190.429Z" fill="#C6C6C6"/>
<path d="M287.109 196.908H127.366V199.86H287.109V196.908Z" fill="#C6C6C6"/>
<path d="M315.342 231.859H99.1453V303.765H315.342V231.859Z" fill="#EDEDED"/>
<path d="M231.649 259.881H182.827V300.217H231.649V259.881Z" fill="#3C3C3B"/>
<path d="M122.469 247.628H116.298V301.151H122.469V247.628Z" fill="#C6C6C6"/>
<path d="M298.192 247.628H292.021V301.151H298.192V247.628Z" fill="#C6C6C6"/>
<path d="M138.437 247.628H132.266V301.151H138.437V247.628Z" fill="#C6C6C6"/>
<path d="M282.212 247.628H276.041V301.151H282.212V247.628Z" fill="#C6C6C6"/>
<path d="M154.419 247.628H148.248V301.151H154.419V247.628Z" fill="#C6C6C6"/>
<path d="M266.243 247.628H260.072V301.151H266.243V247.628Z" fill="#C6C6C6"/>
<path d="M170.387 247.628H164.216V301.151H170.387V247.628Z" fill="#C6C6C6"/>
<path d="M250.264 247.628H244.093V301.151H250.264V247.628Z" fill="#C6C6C6"/>
<path d="M186.366 247.628H180.195V301.151H186.366V247.628Z" fill="#C6C6C6"/>
<path d="M234.284 247.628H228.113V301.151H234.284V247.628Z" fill="#C6C6C6"/>
<path d="M202.347 247.628H196.176V301.151H202.347V247.628Z" fill="#C6C6C6"/>
<path d="M218.315 247.628H212.144V301.151H218.315V247.628Z" fill="#C6C6C6"/>
<path d="M315.342 231.859H99.1453V240.643H315.342V231.859Z" fill="#C6C6C6"/>
<path d="M315.342 242.7H99.1453V247.639H315.342V242.7Z" fill="#C6C6C6"/>
<path d="M315.342 301.152H99.1453V329.94H315.342V301.152Z" fill="#DADADA"/>
<path d="M414.477 496.37H0V511.554H414.477V496.37Z" fill="#B2B2B2"/>
<path d="M414.477 424.236H0V439.42H414.477V424.236Z" fill="#B2B2B2"/>
<path d="M394.434 352.091H20.0447V367.275H394.434V352.091Z" fill="#B2B2B2"/>
<path d="M391.044 347.072H23.4314V352.468H391.044V347.072Z" fill="#EDEDED"/>
<path d="M394.037 329.582H20.4524V347.082H394.037V329.582Z" fill="#EDEDED"/>
<path d="M407.591 439.42H6.8877V496.38H407.591V439.42Z" fill="#EDEDED"/>
<path d="M387.546 367.274H26.9392V424.235H387.546V367.274Z" fill="#EDEDED"/>
<path d="M13.5148 439.42H6.83691V496.38H13.5148V439.42Z" fill="#C6C6C6"/>
<path d="M407.639 439.42H400.961V496.38H407.639V439.42Z" fill="#C6C6C6"/>
<path d="M23.3817 439.42H16.7039V496.38H23.3817V439.42Z" fill="#C6C6C6"/>
<path d="M397.772 439.42H391.094V496.38H397.772V439.42Z" fill="#C6C6C6"/>
<path d="M48.4652 439.42H41.7874V496.38H48.4652V439.42Z" fill="#C6C6C6"/>
<path d="M372.691 439.42H366.013V496.38H372.691V439.42Z" fill="#C6C6C6"/>
<path d="M58.332 439.42H51.6541V496.38H58.332V439.42Z" fill="#C6C6C6"/>
<path d="M362.824 439.42H356.146V496.38H362.824V439.42Z" fill="#C6C6C6"/>
<path d="M83.413 439.42H76.7351V496.38H83.413V439.42Z" fill="#C6C6C6"/>
<path d="M337.75 439.42H331.072V496.38H337.75V439.42Z" fill="#C6C6C6"/>
<path d="M93.2807 439.42H86.6028V496.38H93.2807V439.42Z" fill="#C6C6C6"/>
<path d="M327.883 439.42H321.205V496.38H327.883V439.42Z" fill="#C6C6C6"/>
<path d="M118.354 439.42H111.676V496.38H118.354V439.42Z" fill="#C6C6C6"/>
<path d="M302.802 439.42H296.124V496.38H302.802V439.42Z" fill="#C6C6C6"/>
<path d="M128.221 439.42H121.543V496.38H128.221V439.42Z" fill="#C6C6C6"/>
<path d="M292.934 439.42H286.257V496.38H292.934V439.42Z" fill="#C6C6C6"/>
<path d="M153.302 439.42H146.625V496.38H153.302V439.42Z" fill="#C6C6C6"/>
<path d="M267.851 439.42H261.173V496.38H267.851V439.42Z" fill="#C6C6C6"/>
<path d="M163.169 439.42H156.491V496.38H163.169V439.42Z" fill="#C6C6C6"/>
<path d="M257.982 439.42H251.304V496.38H257.982V439.42Z" fill="#C6C6C6"/>
<path d="M188.253 439.42H181.575V496.38H188.253V439.42Z" fill="#C6C6C6"/>
<path d="M232.9 439.42H226.222V496.38H232.9V439.42Z" fill="#C6C6C6"/>
<path d="M198.12 439.42H191.442V496.38H198.12V439.42Z" fill="#C6C6C6"/>
<path d="M223.043 439.42H216.365V496.38H223.043V439.42Z" fill="#C6C6C6"/>
<path d="M188.192 367.274H182.021V424.235H188.192V367.274Z" fill="#C6C6C6"/>
<path d="M232.454 367.274H226.283V424.235H232.454V367.274Z" fill="#C6C6C6"/>
<path d="M197.314 367.274H191.143V424.235H197.314V367.274Z" fill="#C6C6C6"/>
<path d="M223.33 367.274H217.159V424.235H223.33V367.274Z" fill="#C6C6C6"/>
<path d="M152.847 367.274H146.676V424.235H152.847V367.274Z" fill="#C6C6C6"/>
<path d="M267.802 367.274H261.631V424.235H267.802V367.274Z" fill="#C6C6C6"/>
<path d="M161.969 367.274H155.798V424.235H161.969V367.274Z" fill="#C6C6C6"/>
<path d="M258.678 367.274H252.507V424.235H258.678V367.274Z" fill="#C6C6C6"/>
<path d="M117.639 367.274H110.961V424.235H117.639V367.274Z" fill="#C6C6C6"/>
<path d="M303.517 367.274H296.84V424.235H303.517V367.274Z" fill="#C6C6C6"/>
<path d="M127.506 367.274H120.828V424.235H127.506V367.274Z" fill="#C6C6C6"/>
<path d="M293.658 367.274H286.98V424.235H293.658V367.274Z" fill="#C6C6C6"/>
<path d="M69.3637 367.274H62.6858V424.235H69.3637V367.274Z" fill="#C6C6C6"/>
<path d="M351.792 367.274H345.114V424.235H351.792V367.274Z" fill="#C6C6C6"/>
<path d="M79.2308 367.274H72.553V424.235H79.2308V367.274Z" fill="#C6C6C6"/>
<path d="M341.934 367.274H335.257V424.235H341.934V367.274Z" fill="#C6C6C6"/>
<path d="M33.6172 367.274H26.9392V424.235H33.6172V367.274Z" fill="#C6C6C6"/>
<path d="M387.546 367.274H380.868V424.235H387.546V367.274Z" fill="#C6C6C6"/>
<path d="M43.4747 367.274H36.7969V424.235H43.4747V367.274Z" fill="#C6C6C6"/>
<path d="M377.679 367.274H371.001V424.235H377.679V367.274Z" fill="#C6C6C6"/>
<path d="M76.2588 475.899H59.0374V450.698C59.0374 445.988 62.8533 442.172 67.5636 442.172H67.7325C72.4428 442.172 76.2588 445.988 76.2588 450.698V475.899Z" fill="#3C3C3B"/>
<path d="M338.217 475.899H355.438V450.698C355.438 445.988 351.623 442.172 346.912 442.172H346.743C342.033 442.172 338.217 445.988 338.217 450.698V475.899Z" fill="#3C3C3B"/>
<path d="M107.264 475.899H97.6243V461.222C97.6243 458.479 99.7608 456.253 102.394 456.253H102.494C105.127 456.253 107.264 458.479 107.264 461.222V475.899Z" fill="#3C3C3B"/>
<path d="M307.223 475.899H316.863V461.222C316.863 458.479 314.726 456.253 312.093 456.253H311.993C309.36 456.253 307.223 458.479 307.223 461.222V475.899Z" fill="#3C3C3B"/>
<path d="M142.342 410.582H132.703V381.714C132.703 378.971 134.84 376.745 137.473 376.745H137.572C140.206 376.745 142.342 378.971 142.342 381.714V410.582Z" fill="#3C3C3B"/>
<path d="M272.144 410.582H281.783V381.714C281.783 378.971 279.646 376.745 277.013 376.745H276.914C274.28 376.745 272.144 378.971 272.144 381.714V410.582Z" fill="#3C3C3B"/>
<path d="M216.366 372.582H198.121V424.236H216.366V372.582Z" fill="#3C3C3B"/>
<path d="M107.264 418.938H83.4148V424.235H107.264V418.938Z" fill="#C6C6C6"/>
<path d="M331.073 418.938H307.223V424.235H331.073V418.938Z" fill="#C6C6C6"/>
<path d="M108.517 382.042L95.34 374.082L82.1631 382.042V384.973H108.517V382.042Z" fill="#C6C6C6"/>
<path d="M305.971 382.042L319.148 374.082L332.325 382.042V384.973H305.971V382.042Z" fill="#C6C6C6"/>
<path d="M89.9319 384.973H84.8142V418.929H89.9319V384.973Z" fill="#DADADA"/>
<path d="M329.661 384.973H324.543V418.929H329.661V384.973Z" fill="#DADADA"/>
<path d="M106.221 384.973H101.103V418.929H106.221V384.973Z" fill="#DADADA"/>
<path d="M313.375 384.973H308.257V418.929H313.375V384.973Z" fill="#DADADA"/>
<path d="M101.112 386.573H89.9429V418.939H101.112V386.573Z" fill="#3C3C3B"/>
<path d="M324.543 386.573H313.373V418.939H324.543V386.573Z" fill="#3C3C3B"/>
<path d="M272.144 352.091H142.343V366.728H272.144V352.091Z" fill="#C6C6C6"/>
<path d="M142.343 352.09L207.243 322.696L272.144 352.09H142.343Z" fill="#C6C6C6"/>
<path d="M165.545 347.081L207.243 328.201L248.93 347.081H165.545Z" fill="#DADADA"/>
<path d="M266.71 355.35H147.77V363.469H266.71V355.35Z" fill="#DADADA"/>
<path d="M120.581 302.096H70.4666V352.458H120.581V302.096Z" fill="#EDEDED"/>
<path d="M344.02 302.096H293.906V352.458H344.02V302.096Z" fill="#EDEDED"/>
<path d="M113.683 255.598H77.3516V302.095H113.683V255.598Z" fill="#EDEDED"/>
<path d="M337.125 255.598H300.794V302.095H337.125V255.598Z" fill="#EDEDED"/>
<path d="M108.059 225.687H82.9973V255.598H108.059V225.687Z" fill="#EDEDED"/>
<path d="M331.49 225.687H306.427V255.598H331.49V225.687Z" fill="#EDEDED"/>
<path d="M126.532 341.884H64.5127V352.457H126.532V341.884Z" fill="#C6C6C6"/>
<path d="M349.974 341.884H287.955V352.457H349.974V341.884Z" fill="#C6C6C6"/>
<path d="M124.653 295.198H66.3906V307.103H124.653V295.198Z" fill="#B2B2B2"/>
<path d="M348.095 295.198H289.833V307.103H348.095V295.198Z" fill="#B2B2B2"/>
<path d="M116.505 249.825H74.5396V259.882H116.505V249.825Z" fill="#B2B2B2"/>
<path d="M339.935 249.825H297.97V259.882H339.935V249.825Z" fill="#B2B2B2"/>
<path d="M116.505 260.657H74.5396V263.439H116.505V260.657Z" fill="#DADADA"/>
<path d="M339.935 260.657H297.97V263.439H339.935V260.657Z" fill="#DADADA"/>
<path d="M109.518 222.954H81.5342V228.419H109.518V222.954Z" fill="#DADADA"/>
<path d="M332.95 222.954H304.967V228.419H332.95V222.954Z" fill="#DADADA"/>
<path d="M109.518 229.126H81.5342V231.858H109.518V229.126Z" fill="#DADADA"/>
<path d="M332.95 229.126H304.967V231.858H332.95V229.126Z" fill="#DADADA"/>
<path d="M102.414 210.731C102.414 207.213 99.3235 204.371 95.5174 204.371C91.7114 204.371 88.6309 207.213 88.6309 210.731C88.6309 214.249 91.7214 217.091 95.5174 217.091C99.3235 217.091 102.414 214.239 102.414 210.731Z" fill="#EDEDED"/>
<path d="M312.073 210.731C312.073 207.213 315.154 204.371 318.96 204.371C322.766 204.371 325.846 207.213 325.846 210.731C325.846 214.249 322.766 217.091 318.96 217.091C315.154 217.091 312.073 214.239 312.073 210.731Z" fill="#EDEDED"/>
<path d="M96.9386 191.84H94.1165V211.883H96.9386V191.84Z" fill="#EDEDED"/>
<path d="M320.369 191.84H317.546V211.883H320.369V191.84Z" fill="#EDEDED"/>
<path d="M108.049 225.686H82.9973C86.694 222.407 89.0591 217.886 88.6318 210.731H102.415C101.203 216.166 104.164 220.996 108.049 225.686Z" fill="#B2B2B2"/>
<path d="M306.427 225.686H331.49C327.793 222.407 325.428 217.886 325.855 210.731H312.072C313.274 216.166 310.313 220.996 306.427 225.686Z" fill="#B2B2B2"/>
<path d="M82.9975 307.103H70.4666V341.884H82.9975V307.103Z" fill="#C6C6C6"/>
<path d="M344.02 307.103H331.489V341.884H344.02V307.103Z" fill="#C6C6C6"/>
<path d="M82.9954 262.624H79.6565V295.199H82.9954V262.624Z" fill="#DADADA"/>
<path d="M334.828 262.624H331.489V295.199H334.828V262.624Z" fill="#DADADA"/>
<path d="M88.6312 230.487H85.2922V249.825H88.6312V230.487Z" fill="#DADADA"/>
<path d="M329.185 230.487H325.846V249.825H329.185V230.487Z" fill="#DADADA"/>
<path d="M94.2647 230.487H90.9258V249.825H94.2647V230.487Z" fill="#DADADA"/>
<path d="M323.549 230.487H320.21V249.825H323.549V230.487Z" fill="#DADADA"/>
<path d="M99.9007 230.487H96.5618V249.825H99.9007V230.487Z" fill="#DADADA"/>
<path d="M317.915 230.487H314.576V249.825H317.915V230.487Z" fill="#DADADA"/>
<path d="M105.544 230.487H102.205V249.825H105.544V230.487Z" fill="#DADADA"/>
<path d="M312.27 230.487H308.931V249.825H312.27V230.487Z" fill="#DADADA"/>
<path d="M88.6312 262.624H85.2922V295.199H88.6312V262.624Z" fill="#DADADA"/>
<path d="M329.185 262.624H325.846V295.199H329.185V262.624Z" fill="#DADADA"/>
<path d="M94.2647 262.624H90.9258V295.199H94.2647V262.624Z" fill="#DADADA"/>
<path d="M323.549 262.624H320.21V295.199H323.549V262.624Z" fill="#DADADA"/>
<path d="M99.9007 262.624H96.5618V295.199H99.9007V262.624Z" fill="#DADADA"/>
<path d="M317.915 262.624H314.576V295.199H317.915V262.624Z" fill="#DADADA"/>
<path d="M105.544 262.624H102.205V295.199H105.544V262.624Z" fill="#DADADA"/>
<path d="M312.27 262.624H308.931V295.199H312.27V262.624Z" fill="#DADADA"/>
<path d="M111.179 262.624H107.84V295.199H111.179V262.624Z" fill="#DADADA"/>
<path d="M306.637 262.624H303.298V295.199H306.637V262.624Z" fill="#DADADA"/>
<path d="M120.58 307.103H108.049V341.884H120.58V307.103Z" fill="#C6C6C6"/>
<path d="M306.437 307.103H293.906V341.884H306.437V307.103Z" fill="#C6C6C6"/>
<path d="M106.328 322.764C106.328 328.737 101.489 333.566 95.5265 333.566C89.5641 333.566 84.7246 328.727 84.7246 322.764C84.7246 316.792 89.5641 311.963 95.5265 311.963C101.489 311.953 106.328 316.792 106.328 322.764Z" fill="#DADADA"/>
<path d="M318.959 333.566C324.925 333.566 329.761 328.73 329.761 322.764C329.761 316.799 324.925 311.963 318.959 311.963C312.993 311.963 308.157 316.799 308.157 322.764C308.157 328.73 312.993 333.566 318.959 333.566Z" fill="#DADADA"/>
<path d="M102.671 322.765C102.671 326.71 99.4713 329.92 95.5162 329.92C91.5711 329.92 88.3613 326.72 88.3613 322.765C88.3613 318.81 91.5612 315.61 95.5162 315.61C99.4713 315.61 102.671 318.81 102.671 322.765Z" fill="#3C3C3B"/>
<path d="M318.958 331.539C323.804 331.539 327.732 327.611 327.732 322.764C327.732 317.918 323.804 313.99 318.958 313.99C314.111 313.99 310.183 317.918 310.183 322.764C310.183 327.611 314.111 331.539 318.958 331.539Z" fill="white"/>
<path d="M76.7264 287.368L72.344 307.103H81.3274L76.7264 287.368Z" fill="#C6C6C6"/>
<path d="M337.749 287.368L342.132 307.103H333.158L337.749 287.368Z" fill="#C6C6C6"/>
<path d="M114.21 287.368L109.827 307.103H118.801L114.21 287.368Z" fill="#C6C6C6"/>
<path d="M300.266 287.368L304.659 307.103H295.675L300.266 287.368Z" fill="#C6C6C6"/>
<path d="M97.913 193.301C97.913 194.891 96.8397 196.173 95.528 196.173C94.2063 196.173 93.1431 194.891 93.1431 193.301C93.1431 191.711 94.2163 190.429 95.528 190.429C96.8397 190.429 97.913 191.721 97.913 193.301Z" fill="#EDEDED"/>
<path d="M316.573 193.301C316.573 194.891 317.646 196.173 318.958 196.173C320.28 196.173 321.343 194.891 321.343 193.301C321.343 191.711 320.27 190.429 318.958 190.429C317.637 190.429 316.573 191.721 316.573 193.301Z" fill="#EDEDED"/>
<path d="M207.245 312.759C205.496 312.927 204.084 317.28 204.084 322.616C204.084 324.246 204.214 325.776 204.452 327.128H210.037C210.265 325.776 210.405 324.246 210.405 322.616C210.405 317.28 208.994 312.927 207.245 312.759Z" fill="#C6C6C6"/>
<path d="M148.504 352.716C148.732 351.365 148.871 349.834 148.871 348.205C148.871 342.759 147.41 338.337 145.612 338.337C143.813 338.337 142.352 342.759 142.352 348.205C142.352 349.834 142.482 351.365 142.72 352.716H148.504Z" fill="#C6C6C6"/>
<path d="M265.983 352.716C265.754 351.365 265.615 349.834 265.615 348.205C265.615 342.759 267.076 338.337 268.875 338.337C270.673 338.337 272.134 342.759 272.134 348.205C272.134 349.834 272.005 351.365 271.766 352.716H265.983Z" fill="#C6C6C6"/>
<path d="M26.2828 352.716C26.5113 351.365 26.6505 349.834 26.6505 348.205C26.6505 342.759 25.1897 338.337 23.391 338.337C21.5923 338.337 20.1316 342.759 20.1316 348.205C20.1316 349.834 20.2608 351.365 20.4993 352.716H26.2828Z" fill="#C6C6C6"/>
<path d="M388.193 352.716C387.965 351.365 387.826 349.834 387.826 348.205C387.826 342.759 389.287 338.337 391.085 338.337C392.884 338.337 394.345 342.759 394.345 348.205C394.345 349.834 394.215 351.365 393.977 352.716H388.193Z" fill="#C6C6C6"/>
<path d="M208.844 0H205.645V17.5394H208.844V0Z" fill="#C6C6C6"/>
<path d="M213.019 5.57544H201.461V8.77525H213.019V5.57544Z" fill="#C6C6C6"/>
<path d="M207.245 47.1919C209.511 47.1919 211.349 41.3947 211.349 34.2435C211.349 27.0924 209.511 21.2952 207.245 21.2952C204.978 21.2952 203.141 27.0924 203.141 34.2435C203.141 41.3947 204.978 47.1919 207.245 47.1919Z" fill="#C6C6C6"/>
<path d="M207.245 24.4065C209.457 24.4065 211.25 22.6135 211.25 20.4017C211.25 18.19 209.457 16.397 207.245 16.397C205.033 16.397 203.24 18.19 203.24 20.4017C203.24 22.6135 205.033 24.4065 207.245 24.4065Z" fill="#DADADA"/>
<path d="M207.244 56.3245C212.288 56.3245 216.376 52.2358 216.376 47.1921C216.376 42.1484 212.288 38.0596 207.244 38.0596C202.2 38.0596 198.112 42.1484 198.112 47.1921C198.112 52.2358 202.2 56.3245 207.244 56.3245Z" fill="#DADADA"/>
<path d="M225.112 110.385H189.387V119.785H225.112V110.385Z" fill="#C6C6C6"/>
<path d="M221.454 102.135H193.023V111.536H221.454V102.135Z" fill="#DADADA"/>
<path d="M221.454 67.9712H193.023V75.2553H221.454V67.9712Z" fill="#DADADA"/>
<path d="M219.179 75.2458H195.3V103.438H219.179V75.2458Z" fill="#C6C6C6"/>
<path d="M216.377 47.1926H198.102V68.4883H216.377V47.1926Z" fill="#C6C6C6"/>
<path d="M211.308 78.0978H203.179V102.136H211.308V78.0978Z" fill="#3C3C3B"/>
<path d="M203.179 68.3496V55.6C203.179 54.1889 204.978 53.0361 207.204 53.0361H207.284C209.51 53.0361 211.308 54.179 211.308 55.6V68.3496H203.179Z" fill="#3C3C3B"/>
<path d="M315.06 316.527L314.076 317.268L319.467 324.417L320.451 323.675L315.06 316.527Z" fill="#3C3C3B"/>
<path d="M324.219 318.588L317.698 323.508L318.375 324.405L324.895 319.484L324.219 318.588Z" fill="#3C3C3B"/>
</svg>
