<svg width="892" height="311" viewBox="0 0 892 311" fill="none" xmlns="http://www.w3.org/2000/svg">
<path d="M237.216 137.381H235.855V254.1H237.216V137.381Z" fill="#C6C6C6"/>
<path d="M223.123 156.386H221.763V254.091H223.123V156.386Z" fill="#C6C6C6"/>
<path d="M209.033 171.562H207.673V254.091H209.033V171.562Z" fill="#C6C6C6"/>
<path d="M194.917 184.158H193.557V254.091H194.917V184.158Z" fill="#C6C6C6"/>
<path d="M180.825 194.764H179.464V254.091H180.825V194.764Z" fill="#C6C6C6"/>
<path d="M166.736 203.771H165.375V254.091H166.736V203.771Z" fill="#C6C6C6"/>
<path d="M152.645 211.52H151.285V254.091H152.645V211.52Z" fill="#C6C6C6"/>
<path d="M138.525 218.157H137.165V254.091H138.525V218.157Z" fill="#C6C6C6"/>
<path d="M124.437 223.818H123.077V254.091H124.437V223.818Z" fill="#C6C6C6"/>
<path d="M110.344 228.632H108.984V254.091H110.344V228.632Z" fill="#C6C6C6"/>
<path d="M96.2582 232.684H94.8979V254.091H96.2582V232.684Z" fill="#C6C6C6"/>
<path d="M82.1652 235.975H80.8052V254.091H82.1652V235.975Z" fill="#C6C6C6"/>
<path d="M68.0497 238.616H66.6895V254.091H68.0497V238.616Z" fill="#C6C6C6"/>
<path d="M53.9568 240.546H52.5967V254.091H53.9568V240.546Z" fill="#C6C6C6"/>
<path d="M39.8684 241.826H38.5083V254.096H39.8684V241.826Z" fill="#C6C6C6"/>
<path d="M25.7781 242.369H24.418V254.091H25.7781V242.369Z" fill="#C6C6C6"/>
<path d="M11.6853 242.149H10.3252V254.091H11.6853V242.149Z" fill="#C6C6C6"/>
<path d="M21.9861 244.449C15.3443 244.449 8.84746 244.182 2.54688 243.64L2.89741 239.578C73.7276 245.668 197.351 217.185 247.611 113.721L251.284 115.502C227.91 163.625 186.661 200.732 131.999 222.817C97.5557 236.732 57.7377 244.449 21.9861 244.449Z" fill="#9D9D9C"/>
<path d="M229.812 252.413H0V275.302H229.812V252.413Z" fill="#C4C4C4"/>
<path d="M5.44057 238.199H0V270.006H5.44057V238.199Z" fill="#C4C4C4"/>
<path d="M656.145 137.381H654.785V254.1H656.145V137.381Z" fill="#C6C6C6"/>
<path d="M670.236 156.386H668.876V254.091H670.236V156.386Z" fill="#C6C6C6"/>
<path d="M684.329 171.562H682.969V254.091H684.329V171.562Z" fill="#C6C6C6"/>
<path d="M698.445 184.158H697.084V254.091H698.445V184.158Z" fill="#C6C6C6"/>
<path d="M712.536 194.764H711.176V254.091H712.536V194.764Z" fill="#C6C6C6"/>
<path d="M726.623 203.771H725.263V254.091H726.623V203.771Z" fill="#C6C6C6"/>
<path d="M740.716 211.52H739.356V254.091H740.716V211.52Z" fill="#C6C6C6"/>
<path d="M754.832 218.157H753.472V254.091H754.832V218.157Z" fill="#C6C6C6"/>
<path d="M768.924 223.818H767.563V254.091H768.924V223.818Z" fill="#C6C6C6"/>
<path d="M783.011 228.632H781.651V254.091H783.011V228.632Z" fill="#C6C6C6"/>
<path d="M797.104 232.684H795.744V254.091H797.104V232.684Z" fill="#C6C6C6"/>
<path d="M811.195 235.975H809.835V254.091H811.195V235.975Z" fill="#C6C6C6"/>
<path d="M825.311 238.616H823.951V254.091H825.311V238.616Z" fill="#C6C6C6"/>
<path d="M839.404 240.546H838.044V254.091H839.404V240.546Z" fill="#C6C6C6"/>
<path d="M853.491 241.826H852.131V254.096H853.491V241.826Z" fill="#C6C6C6"/>
<path d="M867.584 242.369H866.223V254.091H867.584V242.369Z" fill="#C6C6C6"/>
<path d="M881.671 242.149H880.311V254.091H881.671V242.149Z" fill="#C6C6C6"/>
<path d="M870.014 244.449C876.655 244.449 883.152 244.182 889.453 243.64L889.102 239.578C818.272 245.668 694.649 217.185 644.389 113.721L640.72 115.502C664.095 163.625 705.343 200.732 760.006 222.817C794.444 236.732 834.262 244.449 870.014 244.449Z" fill="#9D9D9C"/>
<path d="M892 252.413H662.188V275.302H892V252.413Z" fill="#C4C4C4"/>
<path d="M892 238.199H886.559V270.006H892V238.199Z" fill="#C4C4C4"/>
<path d="M431.147 202.117L313.109 274.877L314.46 278.14L432.498 205.384L431.147 202.117Z" fill="#74A19F"/>
<path d="M305.743 254.625L305.131 255.578L306.706 259.392L324.477 270.806L326.36 267.871L305.743 254.625Z" fill="#74A19F"/>
<path d="M318.117 247.019L314.895 248.351L323.867 270.057L327.089 268.725L318.117 247.019Z" fill="#74A19F"/>
<path d="M319.789 245.985L317.904 248.918L338.521 262.164L340.406 259.23L319.789 245.985Z" fill="#74A19F"/>
<path d="M332.13 238.387L328.907 239.719L337.877 261.425L341.099 260.094L332.13 238.387Z" fill="#74A19F"/>
<path d="M334.105 237.304L332.221 240.238L352.84 253.484L354.725 250.55L334.105 237.304Z" fill="#74A19F"/>
<path d="M346.257 229.725L343.034 231.057L352.004 252.763L355.226 251.432L346.257 229.725Z" fill="#74A19F"/>
<path d="M348.052 228.735L346.243 231.548L366.86 244.795L368.749 241.859L348.211 228.665L348.052 228.735Z" fill="#74A19F"/>
<path d="M361.427 223.31L358.204 224.642L366.239 244.081L369.461 242.749L361.427 223.31Z" fill="#74A19F"/>
<path d="M361.094 223.341L380.991 236.125L382.875 233.189L365.02 221.719L361.094 223.341Z" fill="#74A19F"/>
<path d="M376.558 217.05L373.335 218.382L380.37 235.401L383.593 234.069L376.558 217.05Z" fill="#74A19F"/>
<path d="M377.9 216.395L395.119 227.454L397.003 224.519L381.826 214.769L377.9 216.395Z" fill="#74A19F"/>
<path d="M391.676 210.82L388.453 212.152L394.49 226.757L397.712 225.425L391.676 210.82Z" fill="#74A19F"/>
<path d="M394.708 209.445L409.245 218.784L411.133 215.849L398.639 207.823L394.708 209.445Z" fill="#74A19F"/>
<path d="M406.832 204.501L403.609 205.833L408.646 218.019L411.869 216.687L406.832 204.501Z" fill="#74A19F"/>
<path d="M428.448 195.636L301.945 247.923L305.291 256.019L431.794 203.731L428.448 195.636Z" fill="#9FC4C3"/>
<path d="M460.59 202.116L578.628 274.877L577.277 278.139L459.239 205.383L460.59 202.116Z" fill="#74A19F"/>
<path d="M585.994 254.624L586.606 255.578L585.031 259.391L567.261 270.806L565.377 267.87L585.994 254.624Z" fill="#74A19F"/>
<path d="M573.749 246.908L564.777 268.615L567.999 269.947L576.971 248.24L573.749 246.908Z" fill="#74A19F"/>
<path d="M571.783 245.919L551.167 259.165L553.051 262.098L573.668 248.853L571.783 245.919Z" fill="#74A19F"/>
<path d="M559.496 238.184L550.526 259.891L553.749 261.222L562.719 239.516L559.496 238.184Z" fill="#74A19F"/>
<path d="M557.856 237.27L537.237 250.516L539.121 253.449L559.741 240.204L557.856 237.27Z" fill="#74A19F"/>
<path d="M545.49 229.57L536.518 251.277L539.741 252.609L548.713 230.902L545.49 229.57Z" fill="#74A19F"/>
<path d="M543.684 228.735L545.493 231.548L524.876 244.795L522.992 241.859L543.525 228.665L543.684 228.735Z" fill="#74A19F"/>
<path d="M530.408 223.133L522.373 242.572L525.596 243.904L533.63 224.465L530.408 223.133Z" fill="#74A19F"/>
<path d="M530.644 223.341L510.747 236.124L508.863 233.189L526.718 221.719L530.644 223.341Z" fill="#74A19F"/>
<path d="M515.262 216.838L508.228 233.858L511.45 235.19L518.485 218.17L515.262 216.838Z" fill="#74A19F"/>
<path d="M513.838 216.395L496.618 227.454L494.735 224.519L509.911 214.769L513.838 216.395Z" fill="#74A19F"/>
<path d="M500.169 210.661L494.132 225.266L497.355 226.598L503.392 211.993L500.169 210.661Z" fill="#74A19F"/>
<path d="M497.028 209.445L482.491 218.784L480.603 215.849L493.097 207.823L497.028 209.445Z" fill="#74A19F"/>
<path d="M485.017 204.359L479.98 216.545L483.203 217.877L488.239 205.691L485.017 204.359Z" fill="#74A19F"/>
<path d="M463.395 195.497L460.049 203.592L586.553 255.88L589.899 247.785L463.395 195.497Z" fill="#9FC4C3"/>
<path d="M584.191 111.702H307.545V126.546H584.191V111.702Z" fill="#74A19F"/>
<path d="M584.191 99.5403H307.545V108.641H584.191V99.5403Z" fill="#9FC4C3"/>
<path d="M303.621 55.88H243.611V90.4772H303.621V55.88Z" fill="#66807E"/>
<path d="M249.443 25.6483L240.021 66.2189H258.866L249.443 25.6483Z" fill="#74A19F"/>
<path d="M299.693 25.6483L290.271 66.2189H309.116L299.693 25.6483Z" fill="#74A19F"/>
<path d="M274.534 0.0534668L262.32 64.8868H286.747L274.534 0.0534668Z" fill="#74A19F"/>
<path d="M285.77 66.2191H263.297V89.0984H285.77V66.2191Z" fill="#D8D8D8"/>
<path d="M298.124 89.0984H251.014V252.413H298.124V89.0984Z" fill="#D8D8D8"/>
<path d="M258.866 252.413H243.161V136.591L240.021 132.029V122.662H258.866V252.413Z" fill="#C4C4C4"/>
<path d="M305.975 252.413H290.271V122.662H309.116V132.029L305.975 136.147V252.413Z" fill="#C4C4C4"/>
<path d="M319.32 252.413H229.812V310.899H319.32V252.413Z" fill="#9D9D9C"/>
<path opacity="0.1" d="M305.975 207.066H243.161V216.489H305.975V207.066Z" fill="#1D1D1B"/>
<path opacity="0.1" d="M305.975 164.864H243.161V174.287H305.975V164.864Z" fill="#1D1D1B"/>
<path d="M258.866 66.2191H240.021V132.029H258.866V66.2191Z" fill="#C4C4C4"/>
<path d="M309.116 66.2191H290.271V132.029H309.116V66.2191Z" fill="#C4C4C4"/>
<path opacity="0.1" d="M309.117 122.662H240.021V132.085H309.117V122.662Z" fill="#1D1D1B"/>
<path opacity="0.1" d="M309.117 87.7148H240.021V90.4818H309.117V87.7148Z" fill="#1D1D1B"/>
<path d="M305.975 241.607H243.161V252.413H305.975V241.607Z" fill="#706F6F"/>
<path d="M267.756 221.976H263.292V238.073H267.756V221.976Z" fill="#706F6F"/>
<path d="M268.35 238.662H262.708V221.387H268.35V238.662ZM263.882 237.485H267.167V222.565H263.882V237.485Z" fill="white"/>
<path d="M285.841 221.976H281.377V238.073H285.841V221.976Z" fill="#706F6F"/>
<path d="M286.435 238.662H280.793V221.387H286.435V238.662ZM281.966 237.485H285.252V222.565H281.966V237.485Z" fill="white"/>
<path d="M277.899 221.976H271.851V238.073H277.899V221.976Z" fill="#706F6F"/>
<path d="M278.488 238.662H271.262V221.387H278.488V238.662ZM272.44 237.485H277.31V222.565H272.44V237.485Z" fill="white"/>
<path d="M267.756 187.538H263.292V203.635H267.756V187.538Z" fill="#706F6F"/>
<path d="M268.35 204.219H262.708V186.949H268.35V204.219ZM263.882 203.046H267.167V188.127H263.882V203.046Z" fill="white"/>
<path d="M285.841 187.538H281.377V203.635H285.841V187.538Z" fill="#706F6F"/>
<path d="M286.435 204.219H280.793V186.949H286.435V204.219ZM281.966 203.046H285.252V188.127H281.966V203.046Z" fill="white"/>
<path d="M277.899 187.538H271.851V203.635H277.899V187.538Z" fill="#706F6F"/>
<path d="M278.488 204.219H271.262V186.949H278.488V204.219ZM272.44 203.046H277.31V188.127H272.44V203.046Z" fill="white"/>
<path d="M267.756 145.042H263.292V161.139H267.756V145.042Z" fill="#706F6F"/>
<path d="M268.35 161.724H262.708V144.448H268.35V161.724ZM263.882 160.546H267.167V145.626H263.882V160.546Z" fill="white"/>
<path d="M285.841 145.042H281.377V161.139H285.841V145.042Z" fill="#706F6F"/>
<path d="M286.435 161.724H280.793V144.448H286.435V161.724ZM281.966 160.546H285.252V145.626H281.966V160.546Z" fill="white"/>
<path d="M277.899 145.042H271.851V161.139H277.899V145.042Z" fill="#706F6F"/>
<path d="M278.488 161.724H271.262V144.448H278.488V161.724ZM272.44 160.546H277.31V145.626H272.44V160.546Z" fill="white"/>
<path d="M268.789 93.473H264.998V106.168H268.789V93.473Z" fill="#706F6F"/>
<path d="M269.378 106.752H264.409V92.8842H269.378V106.752ZM265.587 105.574H268.2V94.0621H265.587V105.574Z" fill="white"/>
<path d="M284.139 93.473H280.348V106.168H284.139V93.473Z" fill="#706F6F"/>
<path d="M284.728 106.752H279.759V92.8842H284.728V106.752ZM280.937 105.574H283.55V94.0621H280.937V105.574Z" fill="white"/>
<path d="M277.394 93.473H272.262V106.168H277.394V93.473Z" fill="#706F6F"/>
<path d="M277.983 106.752H271.673V92.8842H277.983V106.752ZM272.851 105.574H276.805V94.0621H272.851V105.574Z" fill="white"/>
<path d="M263.37 133.843H260.426V140.919H263.37V133.843Z" fill="#C4C4C4"/>
<path d="M268.437 133.843H265.493V140.919H268.437V133.843Z" fill="#C4C4C4"/>
<path d="M273.504 133.843H270.559V140.919H273.504V133.843Z" fill="#C4C4C4"/>
<path d="M278.57 133.843H275.625V140.919H278.57V133.843Z" fill="#C4C4C4"/>
<path d="M283.637 133.843H280.692V140.919H283.637V133.843Z" fill="#C4C4C4"/>
<path d="M288.703 133.843H285.759V140.919H288.703V133.843Z" fill="#C4C4C4"/>
<path d="M285.84 109.094H263.292V120.129H285.84V109.094Z" fill="#C4C4C4"/>
<path d="M266.989 111.075H264.998V118.152H266.989V111.075Z" fill="#878787"/>
<path d="M270.419 111.075H268.428V118.152H270.419V111.075Z" fill="#878787"/>
<path d="M273.845 111.075H271.854V118.152H273.845V111.075Z" fill="#878787"/>
<path d="M277.277 111.075H275.286V118.152H277.277V111.075Z" fill="#878787"/>
<path d="M280.707 111.075H278.716V118.152H280.707V111.075Z" fill="#878787"/>
<path d="M284.133 111.075H282.142V118.152H284.133V111.075Z" fill="#878787"/>
<path d="M260.428 64.7469H238.455V67.8971H260.428V64.7469Z" fill="#9D9D9C"/>
<path d="M310.678 64.7469H288.705V67.8971H310.678V64.7469Z" fill="#9D9D9C"/>
<path d="M287.676 64.6438H261.875V67.7941H287.676V64.6438Z" fill="#9D9D9C"/>
<path d="M274.533 75.8474C279.164 75.8474 282.918 72.0931 282.918 67.4621C282.918 62.8311 279.164 59.0769 274.533 59.0769C269.902 59.0769 266.148 62.8311 266.148 67.4621C266.148 72.0931 269.902 75.8474 274.533 75.8474Z" fill="#D8D8D8"/>
<path d="M267.335 67.7895C267.331 67.5885 267.326 67.3876 267.335 67.1866C267.536 63.3539 270.696 60.3531 274.524 60.3531C274.65 60.3531 274.776 60.3577 274.907 60.3624C278.829 60.568 281.858 63.8867 281.731 67.7895H284.083C284.209 62.6387 280.203 58.2778 275.029 58.0114C269.719 57.745 265.256 61.8114 264.984 67.065C264.97 67.3081 264.98 67.5512 264.984 67.7942H267.335V67.7895Z" fill="#9D9D9C"/>
<path d="M269.929 71.0939H266.891V83.7885H269.929V71.0939Z" fill="#706F6F"/>
<path d="M270.524 84.3775H266.308V70.5098H270.524V84.3775ZM267.481 83.1997H269.341V71.6875H267.481V83.1997Z" fill="white"/>
<path d="M282.24 71.0939H279.202V83.7885H282.24V71.0939Z" fill="#706F6F"/>
<path d="M282.829 84.3775H278.613V70.5098H282.829V84.3775ZM279.791 83.1997H281.651V71.6875H279.791V83.1997Z" fill="white"/>
<path d="M276.838 71.0939H272.72V83.7885H276.838V71.0939Z" fill="#706F6F"/>
<path d="M277.423 84.3775H272.127V70.5098H277.423V84.3775ZM273.309 83.1997H276.249V71.6875H273.309V83.1997Z" fill="white"/>
<path d="M646.221 55.88H586.211V90.4772H646.221V55.88Z" fill="#66807E"/>
<path d="M592.04 25.6483L582.617 66.2189H601.463L592.04 25.6483Z" fill="#74A19F"/>
<path d="M642.291 25.6483L632.868 66.2189H651.713L642.291 25.6483Z" fill="#74A19F"/>
<path d="M617.131 0.0534668L604.917 64.8868H629.344L617.131 0.0534668Z" fill="#74A19F"/>
<path d="M628.367 66.2191H605.894V89.0984H628.367V66.2191Z" fill="#D8D8D8"/>
<path d="M640.719 89.0984H593.61V252.413H640.719V89.0984Z" fill="#D8D8D8"/>
<path d="M601.463 252.413H585.758V136.591L582.617 132.029V122.662H601.463V252.413Z" fill="#C4C4C4"/>
<path d="M648.572 252.413H632.868V122.662H651.713V132.029L648.572 136.147V252.413Z" fill="#C4C4C4"/>
<path d="M661.917 252.413H572.409V310.899H661.917V252.413Z" fill="#9D9D9C"/>
<path opacity="0.1" d="M648.571 207.066H585.757V216.489H648.571V207.066Z" fill="#1D1D1B"/>
<path opacity="0.1" d="M648.571 164.864H585.757V174.287H648.571V164.864Z" fill="#1D1D1B"/>
<path d="M601.463 66.2191H582.617V132.029H601.463V66.2191Z" fill="#C4C4C4"/>
<path d="M651.713 66.2191H632.868V132.029H651.713V66.2191Z" fill="#C4C4C4"/>
<path opacity="0.1" d="M651.713 122.662H582.617V132.085H651.713V122.662Z" fill="#1D1D1B"/>
<path opacity="0.1" d="M651.713 87.7148H582.617V90.4818H651.713V87.7148Z" fill="#1D1D1B"/>
<path d="M648.571 241.607H585.757V252.413H648.571V241.607Z" fill="#706F6F"/>
<path d="M610.358 221.976H605.89V238.073H610.358V221.976Z" fill="#706F6F"/>
<path d="M610.947 238.662H605.305V221.387H610.947V238.662ZM606.478 237.485H609.769V222.565H606.478V237.485Z" fill="white"/>
<path d="M628.436 221.976H623.973V238.073H628.436V221.976Z" fill="#706F6F"/>
<path d="M629.03 238.662H623.388V221.387H629.03V238.662ZM624.566 237.485H627.852V222.565H624.566V237.485Z" fill="white"/>
<path d="M620.496 221.976H614.448V238.073H620.496V221.976Z" fill="#706F6F"/>
<path d="M621.085 238.662H613.859V221.387H621.085V238.662ZM615.037 237.485H619.907V222.565H615.037V237.485Z" fill="white"/>
<path d="M610.358 187.538H605.89V203.635H610.358V187.538Z" fill="#706F6F"/>
<path d="M610.947 204.219H605.305V186.949H610.947V204.219ZM606.478 203.046H609.769V188.127H606.478V203.046Z" fill="white"/>
<path d="M628.436 187.538H623.973V203.635H628.436V187.538Z" fill="#706F6F"/>
<path d="M629.03 204.219H623.388V186.949H629.03V204.219ZM624.566 203.046H627.852V188.127H624.566V203.046Z" fill="white"/>
<path d="M620.496 187.538H614.448V203.635H620.496V187.538Z" fill="#706F6F"/>
<path d="M621.085 204.219H613.859V186.949H621.085V204.219ZM615.037 203.046H619.907V188.127H615.037V203.046Z" fill="white"/>
<path d="M610.358 145.042H605.89V161.139H610.358V145.042Z" fill="#706F6F"/>
<path d="M610.947 161.724H605.305V144.448H610.947V161.724ZM606.478 160.546H609.769V145.626H606.478V160.546Z" fill="white"/>
<path d="M628.436 145.042H623.973V161.139H628.436V145.042Z" fill="#706F6F"/>
<path d="M629.03 161.724H623.388V144.448H629.03V161.724ZM624.566 160.546H627.852V145.626H624.566V160.546Z" fill="white"/>
<path d="M620.496 145.042H614.448V161.139H620.496V145.042Z" fill="#706F6F"/>
<path d="M621.085 161.724H613.859V144.448H621.085V161.724ZM615.037 160.546H619.907V145.626H615.037V160.546Z" fill="white"/>
<path d="M611.386 93.473H607.595V106.168H611.386V93.473Z" fill="#706F6F"/>
<path d="M611.975 106.752H607.006V92.8842H611.975V106.752ZM608.184 105.574H610.797V94.0621H608.184V105.574Z" fill="white"/>
<path d="M626.735 93.473H622.944V106.168H626.735V93.473Z" fill="#706F6F"/>
<path d="M627.324 106.752H622.355V92.8842H627.324V106.752ZM623.533 105.574H626.146V94.0621H623.533V105.574Z" fill="white"/>
<path d="M619.99 93.473H614.858V106.168H619.99V93.473Z" fill="#706F6F"/>
<path d="M620.579 106.752H614.27V92.8842H620.579V106.752ZM615.447 105.574H619.402V94.0621H615.447V105.574Z" fill="white"/>
<path d="M605.973 133.843H603.029V140.919H605.973V133.843Z" fill="#C4C4C4"/>
<path d="M611.04 133.843H608.095V140.919H611.04V133.843Z" fill="#C4C4C4"/>
<path d="M616.106 133.843H613.162V140.919H616.106V133.843Z" fill="#C4C4C4"/>
<path d="M621.173 133.843H618.229V140.919H621.173V133.843Z" fill="#C4C4C4"/>
<path d="M626.24 133.843H623.295V140.919H626.24V133.843Z" fill="#C4C4C4"/>
<path d="M631.306 133.843H628.361V140.919H631.306V133.843Z" fill="#C4C4C4"/>
<path d="M628.437 109.094H605.89V120.129H628.437V109.094Z" fill="#C4C4C4"/>
<path d="M609.586 111.075H607.595V118.152H609.586V111.075Z" fill="#878787"/>
<path d="M613.017 111.075H611.025V118.152H613.017V111.075Z" fill="#878787"/>
<path d="M616.448 111.075H614.457V118.152H616.448V111.075Z" fill="#878787"/>
<path d="M619.873 111.075H617.882V118.152H619.873V111.075Z" fill="#878787"/>
<path d="M623.305 111.075H621.313V118.152H623.305V111.075Z" fill="#878787"/>
<path d="M626.735 111.075H624.744V118.152H626.735V111.075Z" fill="#878787"/>
<path d="M603.029 64.7469H581.056V67.8971H603.029V64.7469Z" fill="#9D9D9C"/>
<path d="M653.279 64.7469H631.307V67.8971H653.279V64.7469Z" fill="#9D9D9C"/>
<path d="M630.274 64.6438H604.473V67.7941H630.274V64.6438Z" fill="#9D9D9C"/>
<path d="M608.754 67.023C608.516 71.6456 612.068 75.5905 616.691 75.8336C621.314 76.0766 625.259 72.5196 625.502 67.897C625.74 63.2744 622.188 59.3296 617.565 59.0865C612.942 58.8481 608.998 62.4004 608.754 67.023Z" fill="#D8D8D8"/>
<path d="M609.932 67.7895C609.928 67.5885 609.923 67.3876 609.932 67.1866C610.133 63.3539 613.293 60.3531 617.121 60.3531C617.247 60.3531 617.373 60.3577 617.504 60.3624C621.426 60.568 624.454 63.8867 624.328 67.7895H626.679C626.805 62.6387 622.8 58.2778 617.626 58.0114C612.316 57.745 607.852 61.8114 607.581 67.065C607.567 67.3081 607.576 67.5512 607.581 67.7942H609.932V67.7895Z" fill="#9D9D9C"/>
<path d="M612.531 71.0939H609.493V83.7885H612.531V71.0939Z" fill="#706F6F"/>
<path d="M613.12 84.3775H608.904V70.5098H613.12V84.3775ZM610.082 83.1997H611.942V71.6875H610.082V83.1997Z" fill="white"/>
<path d="M624.838 71.0939H621.8V83.7885H624.838V71.0939Z" fill="#706F6F"/>
<path d="M625.427 84.3775H621.211V70.5098H625.427V84.3775ZM622.389 83.1997H624.25V71.6875H622.389V83.1997Z" fill="white"/>
<path d="M619.435 71.0939H615.317V83.7885H619.435V71.0939Z" fill="#706F6F"/>
<path d="M620.024 84.3775H614.733V70.5098H620.024V84.3775ZM615.907 83.1997H618.847V71.6875H615.907V83.1997Z" fill="white"/>
<path d="M446.024 88.9718H445.715C437.255 88.9718 430.394 95.8287 430.394 104.293V119.208H461.345V104.293C461.34 95.8287 454.484 88.9718 446.024 88.9718Z" fill="#DADADA"/>
<path d="M432.104 119.376C432.109 119.325 432.137 119.278 432.137 119.222V90.8509C432.137 89.9815 431.356 89.2804 430.393 89.2804C429.43 89.2804 428.65 89.9862 428.65 90.8509V119.222C428.65 119.278 428.678 119.32 428.683 119.376H432.104Z" fill="#66807E"/>
<path d="M463.051 119.376C463.056 119.325 463.084 119.278 463.084 119.222V90.8509C463.084 89.9815 462.303 89.2804 461.341 89.2804C460.378 89.2804 459.597 89.9862 459.597 90.8509V119.222C459.597 119.278 459.625 119.32 459.63 119.376H463.051Z" fill="#66807E"/>
</svg>
