<svg width="60" height="60" viewBox="0 0 60 60" fill="none" xmlns="http://www.w3.org/2000/svg">
<g clip-path="url(#clip0_385_6)">
<path d="M19.7109 45.1055C17.9531 44.4727 15.9961 44.7422 14.4844 45.8555C13.5234 46.5586 11.8711 47.5898 9.86719 48.5156C10.5234 46.793 11.0273 44.8477 11.1914 42.7266C11.3086 41.2148 10.8047 39.7148 9.80859 38.5664C7.07812 35.4844 5.625 31.875 5.625 28.125C5.625 18.8086 15.3867 9.375 30 9.375C44.6133 9.375 54.375 18.8086 54.375 28.125C54.375 37.4414 44.6133 46.875 30 46.875C26.2969 46.875 22.8164 46.2305 19.7109 45.1055ZM3.08203 49.6641C2.89453 49.9805 2.69531 50.2969 2.48438 50.6133L2.44922 50.6719C2.26172 50.9414 2.07422 51.2109 1.88672 51.4805C1.47656 52.0312 1.03125 52.5703 0.5625 53.0625C0.0234375 53.6016 -0.128906 54.3984 0.164062 55.1016C0.457031 55.8047 1.13672 56.2617 1.89844 56.2617C2.49609 56.2617 3.09375 56.2266 3.69141 56.168L3.77344 56.1562C4.28906 56.0977 4.80469 56.0273 5.32031 55.9336C5.41406 55.9219 5.50781 55.8984 5.60156 55.875C7.6875 55.4648 9.69141 54.7617 11.4727 53.9883C14.1562 52.8164 16.4414 51.4219 17.8359 50.4023C21.5625 51.75 25.6875 52.5 30.0352 52.5C46.6055 52.5 60.0352 41.5898 60.0352 28.125C60.0352 14.6602 46.5703 3.75 30 3.75C13.4297 3.75 0 14.6602 0 28.125C0 33.4102 2.07422 38.2969 5.58984 42.293C5.36719 45.1641 4.25391 47.7188 3.08203 49.6641ZM16.875 31.875C17.8696 31.875 18.8234 31.4799 19.5266 30.7766C20.2299 30.0734 20.625 29.1196 20.625 28.125C20.625 27.1304 20.2299 26.1766 19.5266 25.4734C18.8234 24.7701 17.8696 24.375 16.875 24.375C15.8804 24.375 14.9266 24.7701 14.2233 25.4734C13.5201 26.1766 13.125 27.1304 13.125 28.125C13.125 29.1196 13.5201 30.0734 14.2233 30.7766C14.9266 31.4799 15.8804 31.875 16.875 31.875ZM33.75 28.125C33.75 27.1304 33.3549 26.1766 32.6516 25.4734C31.9484 24.7701 30.9946 24.375 30 24.375C29.0054 24.375 28.0516 24.7701 27.3484 25.4734C26.6451 26.1766 26.25 27.1304 26.25 28.125C26.25 29.1196 26.6451 30.0734 27.3484 30.7766C28.0516 31.4799 29.0054 31.875 30 31.875C30.9946 31.875 31.9484 31.4799 32.6516 30.7766C33.3549 30.0734 33.75 29.1196 33.75 28.125ZM43.125 31.875C44.1196 31.875 45.0734 31.4799 45.7766 30.7766C46.4799 30.0734 46.875 29.1196 46.875 28.125C46.875 27.1304 46.4799 26.1766 45.7766 25.4734C45.0734 24.7701 44.1196 24.375 43.125 24.375C42.1304 24.375 41.1766 24.7701 40.4734 25.4734C39.7701 26.1766 39.375 27.1304 39.375 28.125C39.375 29.1196 39.7701 30.0734 40.4734 30.7766C41.1766 31.4799 42.1304 31.875 43.125 31.875Z" fill="#E6332A"/>
</g>
<defs>
<clipPath id="clip0_385_6">
<rect width="60" height="60" fill="white"/>
</clipPath>
</defs>
</svg>
