<svg width="60" height="80" viewBox="0 0 60 80" fill="none" xmlns="http://www.w3.org/2000/svg">
<g clip-path="url(#clip0_385_4)">
<path d="M27.156 0.859375C28.8748 -0.28125 31.1248 -0.28125 32.8435 0.859375L35.6248 2.6875C36.5623 3.29688 37.656 3.59375 38.7654 3.53125L42.0935 3.32812C44.156 3.20312 46.0935 4.32812 47.0154 6.17188L48.5154 9.15625C49.0154 10.1562 49.8279 10.9531 50.8123 11.4531L53.8279 12.9688C55.6717 13.8906 56.7967 15.8281 56.6717 17.8906L56.4685 21.2188C56.406 22.3281 56.7029 23.4375 57.3123 24.3594L59.156 27.1406C60.2967 28.8594 60.2967 31.1094 59.156 32.8281L57.3123 35.625C56.7029 36.5625 56.406 37.6563 56.4685 38.7656L56.6717 42.0938C56.7967 44.1562 55.6717 46.0938 53.8279 47.0156L50.8435 48.5156C49.8435 49.0156 49.0467 49.8281 48.5467 50.8125L47.031 53.8281C46.1092 55.6719 44.1717 56.7969 42.1092 56.6719L38.781 56.4688C37.6717 56.4062 36.5623 56.7031 35.6404 57.3125L32.8592 59.1562C31.1404 60.2969 28.8904 60.2969 27.1717 59.1562L24.3748 57.3125C23.4373 56.7031 22.3435 56.4062 21.2342 56.4688L17.906 56.6719C15.8435 56.7969 13.906 55.6719 12.9842 53.8281L11.4842 50.8438C10.9842 49.8438 10.1717 49.0469 9.18728 48.5469L6.17166 47.0312C4.32791 46.1094 3.20291 44.1719 3.32791 42.1094L3.53103 38.7812C3.59353 37.6719 3.29666 36.5625 2.68728 35.6406L0.859156 32.8438C-0.281469 31.125 -0.281469 28.875 0.859156 27.1563L2.68728 24.375C3.29666 23.4375 3.59353 22.3438 3.53103 21.2344L3.32791 17.9062C3.20291 15.8438 4.32791 13.9062 6.17166 12.9844L9.15603 11.4844C10.156 10.9688 10.9685 10.1562 11.4685 9.15625L12.9685 6.17188C13.8904 4.32812 15.8279 3.20312 17.8904 3.32812L21.2185 3.53125C22.3279 3.59375 23.4373 3.29688 24.3592 2.6875L27.156 0.859375ZM42.4998 30C42.4998 26.6848 41.1828 23.5054 38.8386 21.1612C36.4944 18.817 33.315 17.5 29.9998 17.5C26.6846 17.5 23.5052 18.817 21.1609 21.1612C18.8167 23.5054 17.4998 26.6848 17.4998 30C17.4998 33.3152 18.8167 36.4946 21.1609 38.8388C23.5052 41.183 26.6846 42.5 29.9998 42.5C33.315 42.5 36.4944 41.183 38.8386 38.8388C41.1828 36.4946 42.4998 33.3152 42.4998 30ZM0.202906 69.0312L6.93728 53.0156C6.96853 53.0312 6.98416 53.0469 6.99978 53.0781L8.49978 56.0625C10.3279 59.6875 14.1248 61.8906 18.1873 61.6562L21.5154 61.4531C21.5467 61.4531 21.5935 61.4531 21.6248 61.4844L24.406 63.3281C25.2029 63.8438 26.0467 64.25 26.9217 64.5312L21.0467 78.4844C20.6873 79.3438 19.8904 79.9219 18.9685 80C18.0467 80.0781 17.156 79.6562 16.656 78.875L11.6248 71.1719L2.85916 72.4688C1.96853 72.5938 1.07791 72.2344 0.515406 71.5312C-0.0470939 70.8281 -0.156469 69.8594 0.187281 69.0312H0.202906ZM38.9529 78.4688L33.0779 64.5312C33.9529 64.25 34.7967 63.8594 35.5935 63.3281L38.3748 61.4844C38.406 61.4688 38.4373 61.4531 38.4842 61.4531L41.8123 61.6562C45.8748 61.8906 49.6717 59.6875 51.4998 56.0625L52.9998 53.0781C53.0154 53.0469 53.031 53.0312 53.0623 53.0156L59.8123 69.0312C60.156 69.8594 60.031 70.8125 59.4842 71.5312C58.9373 72.25 58.031 72.6094 57.1404 72.4688L48.3748 71.1719L43.3435 78.8594C42.8435 79.6406 41.9529 80.0625 41.031 79.9844C40.1092 79.9062 39.3123 79.3125 38.9529 78.4688Z" fill="#E6332A"/>
</g>
<defs>
<clipPath id="clip0_385_4">
<rect width="60" height="80" fill="white"/>
</clipPath>
</defs>
</svg>
