<svg width="60" height="80" viewBox="0 0 60 80" fill="none" xmlns="http://www.w3.org/2000/svg">
<g clip-path="url(#clip0_385_2)">
<path d="M58.5313 18.5312C60.4844 16.5781 60.4844 13.4062 58.5313 11.4531C56.5781 9.5 53.4062 9.5 51.4531 11.4531L1.45312 61.4531C-0.5 63.4062 -0.5 66.5781 1.45312 68.5312C3.40625 70.4844 6.57812 70.4844 8.53125 68.5312L58.5313 18.5312ZM20 20C20 17.3478 18.9464 14.8043 17.0711 12.9289C15.1957 11.0536 12.6522 10 10 10C7.34783 10 4.8043 11.0536 2.92893 12.9289C1.05357 14.8043 -2.98023e-08 17.3478 -2.98023e-08 20C-2.98023e-08 22.6522 1.05357 25.1957 2.92893 27.0711C4.8043 28.9464 7.34783 30 10 30C12.6522 30 15.1957 28.9464 17.0711 27.0711C18.9464 25.1957 20 22.6522 20 20ZM60 60C60 57.3478 58.9464 54.8043 57.0711 52.9289C55.1957 51.0536 52.6522 50 50 50C47.3478 50 44.8043 51.0536 42.9289 52.9289C41.0536 54.8043 40 57.3478 40 60C40 62.6522 41.0536 65.1957 42.9289 67.0711C44.8043 68.9464 47.3478 70 50 70C52.6522 70 55.1957 68.9464 57.0711 67.0711C58.9464 65.1957 60 62.6522 60 60Z" fill="#E6332A"/>
</g>
<defs>
<clipPath id="clip0_385_2">
<rect width="60" height="80" fill="white"/>
</clipPath>
</defs>
</svg>
