<?xml version="1.0" standalone="no"?>
<!DOCTYPE svg PUBLIC "-//W3C//DTD SVG 20010904//EN"
 "http://www.w3.org/TR/2001/REC-SVG-20010904/DTD/svg10.dtd">
<svg version="1.0" xmlns="http://www.w3.org/2000/svg"
 width="8000.000000pt" height="8000.000000pt" viewBox="0 0 8000.000000 8000.000000"
 preserveAspectRatio="xMidYMid meet">

<g transform="translate(0.000000,8000.000000) scale(0.100000,-0.100000)"
fill="#000000" stroke="none">
<path d="M39285 70950 c-537 -22 -1076 -64 -1560 -120 -188 -22 -575 -75 -672
-91 l-63 -11 0 -8304 0 -8304 -8100 0 -8100 0 -5 -22 c-7 -33 -61 -525 -79
-723 -124 -1372 -104 -2802 60 -4152 l7 -53 8108 0 8109 0 0 -8359 c0 -7953 1
-8360 18 -8365 28 -8 500 -73 732 -100 1188 -139 2435 -166 3660 -81 401 28
891 80 1285 135 116 17 211 30 213 30 1 0 2 3767 2 8370 l0 8370 8160 0 c7764
0 8160 -1 8161 -17 5 -59 81 669 103 987 44 603 55 977 50 1595 -3 495 -11
726 -40 1155 -27 417 -87 1007 -129 1285 -14 90 -14 90 -8 18 l5 -73 -8151 0
-8151 0 -2 8312 -3 8312 -35 7 c-53 11 -399 56 -640 84 -394 45 -782 77 -1285
106 -241 13 -1386 20 -1650 9z"/>
<path d="M44710 63704 c0 -6259 1 -6676 17 -6670 9 4 2493 1312 5519 2906
3026 1595 5507 2900 5513 2900 5 0 24 -20 41 -45 17 -25 33 -45 36 -45 24 0
-571 783 -865 1140 -2218 2691 -5099 4730 -8351 5912 -425 154 -976 331 -1410
451 -245 68 -471 127 -489 127 -8 0 -11 -1986 -11 -6676z"/>
<path d="M34910 70284 c-729 -200 -1483 -454 -2136 -717 -1994 -806 -3829
-1928 -5450 -3333 -1012 -878 -1938 -1864 -2745 -2924 -222 -291 -342 -461
-333 -469 5 -5 2437 -1288 5404 -2851 2967 -1563 5423 -2857 5458 -2876 l62
-34 0 6635 c0 5302 -3 6635 -12 6634 -7 0 -119 -29 -248 -65z"/>
<path d="M55860 62710 c12 -16 24 -30 26 -30 3 0 -4 14 -16 30 -12 17 -24 30
-26 30 -3 0 4 -13 16 -30z"/>
<path d="M55940 62595 c17 -25 33 -45 36 -45 3 0 -9 20 -26 45 -17 25 -33 45
-36 45 -3 0 9 -20 26 -45z"/>
<path d="M56121 62328 c107 -161 160 -236 134 -188 -21 37 -246 370 -250 370
-3 0 49 -82 116 -182z"/>
<path d="M56263 62108 c1 -6 -158 -95 -353 -197 -552 -290 -568 -298 -2295
-1201 -896 -469 -1679 -878 -1740 -910 -173 -91 -1354 -708 -1730 -905 -187
-97 -376 -196 -420 -220 -44 -23 -141 -74 -215 -113 -176 -91 -538 -280 -665
-347 -55 -29 -206 -108 -335 -175 -129 -68 -271 -142 -315 -165 -44 -23 -836
-437 -1760 -920 -924 -483 -1690 -884 -1702 -891 -19 -12 -23 -23 -23 -69 l0
-55 1837 0 1836 0 176 91 c97 51 221 115 276 144 55 29 300 157 545 285 472
247 1009 528 1175 615 55 29 156 82 225 118 150 78 738 385 900 470 63 33 160
83 215 112 55 29 645 337 1310 685 666 348 1255 656 1310 685 55 29 649 339
1320 690 671 350 1248 652 1282 671 l63 34 30 -60 c17 -33 33 -60 35 -60 13 0
-231 456 -425 795 -181 316 -543 905 -556 905 -2 0 -3 -5 -1 -12z"/>
<path d="M22846 60606 c-44 -76 -388 -773 -471 -956 -148 -327 -274 -625 -267
-632 4 -4 189 -102 412 -218 223 -116 468 -244 545 -285 77 -40 349 -182 605
-315 507 -264 662 -345 815 -425 55 -29 156 -82 225 -118 768 -400 1289 -672
1400 -730 74 -38 176 -91 225 -117 126 -67 995 -519 1200 -625 94 -49 175 -91
180 -95 6 -4 73 -39 150 -79 l140 -71 1940 2 1940 3 -210 109 c-115 60 -246
128 -290 151 -44 23 -186 98 -315 165 -129 67 -289 151 -355 185 -359 187
-555 290 -690 360 -82 42 -181 94 -220 115 -38 21 -137 72 -220 115 -82 43
-190 99 -240 125 -49 26 -454 238 -900 470 -743 387 -1063 554 -1360 710 -60
32 -630 329 -1265 660 -635 331 -1200 626 -1255 655 -106 56 -479 250 -705
368 -74 38 -180 93 -235 122 -160 84 -321 168 -450 235 -66 34 -161 85 -211
111 l-92 49 -26 -44z"/>
<path d="M57337 60235 c48 -96 89 -173 91 -171 4 5 -166 346 -173 346 -3 0 34
-79 82 -175z"/>
<path d="M57431 60045 c0 -5 24 -57 54 -115 30 -58 54 -100 54 -95 0 6 -24 57
-54 115 -30 58 -54 101 -54 95z"/>
<path d="M57541 59815 c0 -5 15 -39 34 -75 19 -36 34 -60 34 -55 0 6 -15 39
-34 75 -19 36 -34 61 -34 55z"/>
<path d="M57611 59665 c0 -5 11 -30 24 -55 13 -25 24 -40 24 -35 0 6 -11 30
-24 55 -13 25 -24 41 -24 35z"/>
<path d="M57664 59550 c8 -30 69 -160 73 -156 2 2 -14 41 -37 87 -22 46 -38
77 -36 69z"/>
<path d="M57741 59375 c0 -5 8 -26 19 -45 11 -19 19 -30 19 -25 0 6 -8 26 -19
45 -11 19 -19 31 -19 25z"/>
<path d="M57781 59285 c0 -5 6 -21 14 -35 8 -14 14 -20 14 -15 0 6 -6 21 -14
35 -8 14 -14 21 -14 15z"/>
<path d="M57811 59215 c0 -5 6 -21 14 -35 8 -14 14 -20 14 -15 0 6 -6 21 -14
35 -8 14 -14 21 -14 15z"/>
<path d="M57844 59140 c9 -32 39 -101 43 -97 2 3 -8 29 -22 58 -14 30 -23 47
-21 39z"/>
<path d="M57894 59020 c9 -32 39 -101 43 -97 2 3 -8 29 -22 58 -14 30 -23 47
-21 39z"/>
<path d="M57940 58905 c0 -5 5 -17 10 -25 5 -8 10 -10 10 -5 0 6 -5 17 -10 25
-5 8 -10 11 -10 5z"/>
<path d="M57960 58855 c0 -5 5 -17 10 -25 5 -8 10 -10 10 -5 0 6 -5 17 -10 25
-5 8 -10 11 -10 5z"/>
<path d="M57980 58805 c0 -5 5 -17 10 -25 5 -8 10 -10 10 -5 0 6 -5 17 -10 25
-5 8 -10 11 -10 5z"/>
<path d="M58000 58755 c0 -5 5 -17 10 -25 5 -8 10 -10 10 -5 0 6 -5 17 -10 25
-5 8 -10 11 -10 5z"/>
<path d="M58020 58705 c0 -5 5 -17 10 -25 5 -8 10 -10 10 -5 0 6 -5 17 -10 25
-5 8 -10 11 -10 5z"/>
<path d="M58040 58655 c0 -5 5 -17 10 -25 5 -8 10 -10 10 -5 0 6 -5 17 -10 25
-5 8 -10 11 -10 5z"/>
<path d="M58066 58590 c3 -14 11 -32 16 -40 6 -10 7 -7 2 10 -3 14 -11 32 -16
40 -6 10 -7 7 -2 -10z"/>
<path d="M58090 58525 c0 -5 5 -17 10 -25 5 -8 10 -10 10 -5 0 6 -5 17 -10 25
-5 8 -10 11 -10 5z"/>
<path d="M58116 58460 c3 -14 11 -32 16 -40 6 -10 7 -7 2 10 -3 14 -11 32 -16
40 -6 10 -7 7 -2 -10z"/>
<path d="M58146 58380 c3 -14 11 -32 16 -40 6 -10 7 -7 2 10 -3 14 -11 32 -16
40 -6 10 -7 7 -2 -10z"/>
<path d="M58170 58317 c0 -3 4 -17 9 -30 9 -23 -38 -49 -2190 -1183 l-2200
-1159 2538 -2 c2372 -3 2539 -4 2551 -20 20 -28 16 -3 -57 292 -162 656 -347
1271 -571 1899 -64 181 -80 222 -80 203z"/>
<path d="M21805 58243 c-29 -74 -188 -535 -245 -713 -146 -458 -222 -725 -345
-1215 l-93 -370 1269 -3 c698 -1 1841 -1 2540 0 l1271 3 -2154 1135 c-1184
624 -2172 1145 -2194 1157 -39 22 -42 22 -49 6z"/>
<path d="M58890 55894 c0 -21 54 -253 58 -249 2 2 -8 59 -23 127 -25 111 -35
148 -35 122z"/>
<path d="M58952 55610 c0 -14 2 -19 5 -12 2 6 2 18 0 25 -3 6 -5 1 -5 -13z"/>
<path d="M58961 55570 c0 -22 77 -388 78 -369 1 16 -65 355 -73 374 -3 6 -5 3
-5 -5z"/>
<path d="M59042 55160 c0 -14 4 -38 8 -55 7 -27 8 -27 8 -5 0 14 -4 39 -8 55
-7 27 -8 27 -8 5z"/>
<path d="M59062 55050 c0 -14 4 -38 8 -55 7 -27 8 -27 8 -5 0 14 -4 39 -8 55
-7 27 -8 27 -8 5z"/>
<path d="M59082 54935 c0 -16 2 -22 5 -12 2 9 2 23 0 30 -3 6 -5 -1 -5 -18z"/>
<path d="M59092 54885 c-1 -11 8 -65 18 -120 11 -57 17 -77 14 -45 -6 65 -31
194 -32 165z"/>
<path d="M59132 54635 c0 -16 2 -22 5 -12 2 9 2 23 0 30 -3 6 -5 -1 -5 -18z"/>
<path d="M59142 54580 c-1 -14 3 -43 7 -65 6 -26 9 -31 9 -15 1 14 -3 43 -7
65 -6 26 -9 31 -9 15z"/>
<path d="M59162 54440 c0 -19 2 -27 5 -17 2 9 2 25 0 35 -3 9 -5 1 -5 -18z"/>
<path d="M59172 54370 c0 -19 2 -27 5 -17 2 9 2 25 0 35 -3 9 -5 1 -5 -18z"/>
<path d="M59182 54300 c0 -19 2 -27 5 -17 2 9 2 25 0 35 -3 9 -5 1 -5 -18z"/>
<path d="M59205 49065 c-4 -37 -5 -69 -2 -71 2 -3 8 25 12 61 4 37 5 69 2 71
-2 3 -8 -25 -12 -61z"/>
<path d="M59192 48950 c0 -19 2 -27 5 -17 2 9 2 25 0 35 -3 9 -5 1 -5 -18z"/>
<path d="M59171 48814 c-7 -53 -11 -98 -8 -100 2 -3 10 38 17 91 7 53 11 98 8
100 -2 3 -10 -38 -17 -91z"/>
<path d="M59152 48670 c0 -19 2 -27 5 -17 2 9 2 25 0 35 -3 9 -5 1 -5 -18z"/>
<path d="M59142 48605 c0 -16 2 -22 5 -12 2 9 2 23 0 30 -3 6 -5 -1 -5 -18z"/>
<path d="M59125 48515 c-3 -31 -5 -59 -2 -61 3 -3 8 20 12 51 3 31 5 59 2 61
-3 3 -8 -20 -12 -51z"/>
<path d="M59112 48415 c0 -16 2 -22 5 -12 2 9 2 23 0 30 -3 6 -5 -1 -5 -18z"/>
<path d="M59102 48355 c0 -16 2 -22 5 -12 2 9 2 23 0 30 -3 6 -5 -1 -5 -18z"/>
<path d="M59081 48244 c-7 -41 -11 -78 -8 -80 2 -3 10 30 16 72 7 41 11 78 8
80 -2 3 -10 -30 -16 -72z"/>
<path d="M59055 48105 c-3 -26 -4 -49 -2 -51 3 -3 8 16 12 41 3 26 4 49 2 51
-3 3 -8 -16 -12 -41z"/>
<path d="M59031 47969 c-7 -38 -11 -72 -9 -75 3 -2 10 28 17 67 7 38 11 72 9
75 -3 2 -10 -28 -17 -67z"/>
<path d="M59012 47860 c0 -14 2 -19 5 -12 2 6 2 18 0 25 -3 6 -5 1 -5 -13z"/>
<path d="M59002 47810 c0 -14 2 -19 5 -12 2 6 2 18 0 25 -3 6 -5 1 -5 -13z"/>
<path d="M58992 47760 c0 -14 2 -19 5 -12 2 6 2 18 0 25 -3 6 -5 1 -5 -13z"/>
<path d="M58982 47710 c0 -14 2 -19 5 -12 2 6 2 18 0 25 -3 6 -5 1 -5 -13z"/>
<path d="M58956 47594 c-10 -47 -15 -88 -13 -90 2 -3 12 34 21 82 10 47 15 88
13 90 -2 3 -12 -34 -21 -82z"/>
<path d="M58926 47454 c-4 -20 -5 -38 -3 -40 3 -3 8 11 11 32 4 20 5 38 3 40
-3 3 -8 -11 -11 -32z"/>
<path d="M58911 47383 l-1 -23 -2642 -2 -2641 -3 2219 -1169 c1220 -644 2251
-1187 2290 -1208 l72 -39 20 58 c196 559 320 950 437 1368 116 417 260 1007
251 1029 -2 6 -5 1 -5 -11z"/>
<path d="M21100 47346 c0 -21 93 -411 151 -636 120 -462 278 -985 432 -1430
112 -322 113 -325 126 -323 12 3 4482 2357 4526 2384 29 18 -37 19 -2602 19
-2257 0 -2633 -2 -2633 -14z"/>
<path d="M29875 46317 c-1111 -574 -2114 -1092 -2230 -1152 -643 -331 -1098
-567 -1240 -640 -88 -46 -781 -403 -1540 -795 -759 -392 -1434 -740 -1500
-775 -66 -34 -219 -113 -340 -175 -121 -62 -222 -114 -224 -116 -8 -7 280
-532 477 -869 122 -209 409 -672 420 -679 7 -4 262 126 1132 576 102 53 505
261 895 463 391 202 778 402 860 445 258 134 692 358 875 452 96 50 220 114
275 143 55 29 186 96 290 150 105 54 235 121 290 150 55 29 179 93 275 143
199 102 672 347 895 462 229 119 1194 618 1710 885 425 220 2520 1304 2945
1523 102 53 374 194 605 313 l420 218 3 160 2 161 -1637 0 -1638 0 -2020
-1043z"/>
<path d="M48086 47351 c5 -5 176 -95 379 -201 204 -106 510 -266 680 -355 171
-89 378 -197 460 -240 83 -43 186 -97 230 -120 44 -23 141 -74 215 -113 135
-70 1837 -958 2065 -1077 66 -34 221 -115 345 -180 124 -65 279 -146 345 -180
120 -63 461 -241 695 -362 69 -36 161 -85 205 -108 44 -23 141 -74 215 -113
227 -117 2398 -1250 2505 -1307 55 -29 235 -123 401 -209 165 -86 309 -162
318 -169 17 -13 16 -17 -14 -78 -18 -35 -27 -59 -22 -54 16 15 299 574 410
810 180 381 458 1022 448 1032 -2 2 -11 -16 -21 -40 l-16 -44 -492 257 c-271
141 -721 376 -1002 522 -433 226 -906 473 -1510 788 -71 37 -231 120 -355 185
-124 65 -270 141 -325 170 -55 28 -593 309 -1196 624 l-1096 571 -1938 0
c-1110 0 -1935 -4 -1929 -9z"/>
<path d="M44710 39490 c0 -6378 1 -6701 18 -6696 9 3 105 28 212 56 2747 722
5295 2040 7485 3871 460 385 830 724 1270 1164 691 689 1253 1339 1834 2115
273 366 273 366 252 366 -11 0 -10912 5735 -11063 5821 -5 2 -8 -3011 -8
-6697z"/>
<path d="M29688 43246 c-3007 -1584 -5467 -2884 -5468 -2888 0 -3 75 -109 168
-235 796 -1083 1723 -2101 2732 -3001 2231 -1990 4909 -3445 7768 -4223 103
-28 208 -56 235 -64 l47 -13 0 6654 c0 3660 -3 6654 -7 6653 -5 -1 -2468
-1298 -5475 -2883z"/>
<path d="M58171 44869 c-6 -18 -9 -34 -7 -36 2 -2 9 10 15 28 6 18 9 34 7 36
-2 2 -9 -10 -15 -28z"/>
<path d="M58141 44789 c-6 -18 -9 -34 -7 -36 2 -2 9 10 15 28 6 18 9 34 7 36
-2 2 -9 -10 -15 -28z"/>
<path d="M58111 44709 c-6 -18 -9 -34 -7 -36 2 -2 9 10 15 28 6 18 9 34 7 36
-2 2 -9 -10 -15 -28z"/>
<path d="M58086 44645 c-9 -26 -7 -32 5 -12 6 10 9 21 6 23 -2 3 -7 -2 -11
-11z"/>
<path d="M58051 44554 c-12 -31 -20 -59 -18 -61 2 -2 14 22 26 53 12 31 20 59
18 61 -2 2 -14 -22 -26 -53z"/>
<path d="M58016 44465 c-9 -26 -7 -32 5 -12 6 10 9 21 6 23 -2 3 -7 -2 -11
-11z"/>
<path d="M57996 44415 c-9 -26 -7 -32 5 -12 6 10 9 21 6 23 -2 3 -7 -2 -11
-11z"/>
<path d="M57976 44365 c-9 -26 -7 -32 5 -12 6 10 9 21 6 23 -2 3 -7 -2 -11
-11z"/>
<path d="M57060 42410 c-17 -33 -28 -60 -25 -60 2 0 18 27 35 60 17 33 28 60
25 60 -2 0 -18 -27 -35 -60z"/>
<path d="M56995 42290 c-14 -27 -23 -50 -20 -50 2 0 16 23 30 50 14 28 23 50
20 50 -2 0 -16 -22 -30 -50z"/>
<path d="M56940 42190 c-11 -22 -18 -40 -15 -40 2 0 14 18 25 40 11 22 18 40
15 40 -2 0 -14 -18 -25 -40z"/>
<path d="M56907 42133 c-49 -89 -78 -146 -70 -138 14 14 86 145 79 145 -2 0
-7 -3 -9 -7z"/>
<path d="M56817 41973 c-2 -5 -17 -30 -32 -58 -16 -27 -24 -45 -18 -40 14 14
66 105 60 105 -3 0 -8 -3 -10 -7z"/>
<path d="M56735 41830 c-9 -16 -13 -30 -11 -30 3 0 12 14 21 30 9 17 13 30 11
30 -3 0 -12 -13 -21 -30z"/>
<path d="M56700 41770 c-6 -11 -8 -20 -6 -20 3 0 10 9 16 20 6 11 8 20 6 20
-3 0 -10 -9 -16 -20z"/>
<path d="M56670 41720 c-6 -11 -8 -20 -6 -20 3 0 10 9 16 20 6 11 8 20 6 20
-3 0 -10 -9 -16 -20z"/>
<path d="M56640 41670 c-6 -11 -8 -20 -6 -20 3 0 10 9 16 20 6 11 8 20 6 20
-3 0 -10 -9 -16 -20z"/>
<path d="M56610 41620 c-6 -11 -8 -20 -6 -20 3 0 10 9 16 20 6 11 8 20 6 20
-3 0 -10 -9 -16 -20z"/>
<path d="M56580 41570 c-6 -11 -8 -20 -6 -20 3 0 10 9 16 20 6 11 8 20 6 20
-3 0 -10 -9 -16 -20z"/>
<path d="M56550 41520 c-6 -11 -8 -20 -6 -20 3 0 10 9 16 20 6 11 8 20 6 20
-3 0 -10 -9 -16 -20z"/>
<path d="M56524 41478 c-4 -7 -14 -24 -22 -38 -14 -24 -13 -24 3 -5 20 24 37
55 31 55 -3 0 -8 -6 -12 -12z"/>
<path d="M56470 41390 c-6 -11 -8 -20 -6 -20 3 0 10 9 16 20 6 11 8 20 6 20
-3 0 -10 -9 -16 -20z"/>
<path d="M56444 41348 c-4 -7 -14 -24 -22 -38 -14 -24 -13 -24 3 -5 20 24 37
55 31 55 -3 0 -8 -6 -12 -12z"/>
<path d="M56374 41238 c-4 -7 -14 -24 -22 -38 -14 -24 -13 -24 3 -5 20 24 37
55 31 55 -3 0 -8 -6 -12 -12z"/>
<path d="M56296 41115 c-9 -14 -23 -37 -32 -52 l-16 -28 20 24 c24 29 55 81
49 81 -3 0 -12 -11 -21 -25z"/>
<path d="M56126 40855 c-31 -47 -54 -85 -51 -85 2 0 26 33 53 73 58 86 64 97
59 97 -2 0 -29 -38 -61 -85z"/>
<path d="M55970 40625 c-17 -25 -29 -45 -26 -45 3 0 19 20 36 45 17 25 29 45
26 45 -3 0 -19 -20 -36 -45z"/>
<path d="M55880 40495 c-17 -25 -29 -45 -26 -45 3 0 19 20 36 45 17 25 29 45
26 45 -3 0 -19 -20 -36 -45z"/>
<path d="M55820 40410 c-12 -16 -19 -30 -16 -30 2 0 14 14 26 30 12 17 19 30
16 30 -2 0 -14 -13 -26 -30z"/>
</g>
</svg>
