<svg width="105" height="99" viewBox="0 0 55 49" fill="none" xmlns="http://www.w3.org/2000/svg">
<path d="M18.0578 38.5898C16.4474 37.9993 14.6545 38.2508 13.2696 39.2897C12.3892 39.9458 10.8755 40.9081 9.03963 41.7719C9.64083 40.1645 10.1025 38.3493 10.2528 36.37C10.3601 34.9594 9.8985 33.5597 8.98595 32.4881C6.48448 29.6121 5.15323 26.2441 5.15323 22.7449C5.15323 14.0516 14.0962 5.24883 27.4839 5.24883C40.8716 5.24883 49.8146 14.0516 49.8146 22.7449C49.8146 31.4383 40.8716 40.241 27.4839 40.241C24.0914 40.241 20.9028 39.6396 18.0578 38.5898ZM2.82354 42.8436C2.65177 43.1388 2.46926 43.4341 2.27601 43.7293L2.2438 43.784C2.07203 44.0355 1.90025 44.287 1.72848 44.5385C1.35272 45.0524 0.944759 45.5555 0.515323 46.0147C0.0214718 46.5177 -0.118095 47.2613 0.150303 47.9174C0.4187 48.5735 1.04138 49 1.73922 49C2.28675 49 2.83428 48.9672 3.38181 48.9125L3.45696 48.9016C3.92934 48.8469 4.40172 48.7813 4.8741 48.6938C4.95998 48.6829 5.04587 48.661 5.13176 48.6391C7.04275 48.2564 8.87859 47.6003 10.5104 46.8786C12.969 45.7851 15.0625 44.4838 16.34 43.5325C19.754 44.79 23.5331 45.4898 27.5161 45.4898C42.6967 45.4898 55 35.3093 55 22.7449C55 10.1805 42.6645 0 27.4839 0C12.3033 0 0 10.1805 0 22.7449C0 27.6766 1.90025 32.2366 5.12102 35.9654C4.91704 38.6445 3.89713 41.0283 2.82354 42.8436ZM15.4597 26.2441C16.3708 26.2441 17.2447 25.8755 17.8889 25.2192C18.5332 24.563 18.8952 23.673 18.8952 22.7449C18.8952 21.8169 18.5332 20.9268 17.8889 20.2706C17.2447 19.6144 16.3708 19.2457 15.4597 19.2457C14.5485 19.2457 13.6747 19.6144 13.0304 20.2706C12.3862 20.9268 12.0242 21.8169 12.0242 22.7449C12.0242 23.673 12.3862 24.563 13.0304 25.2192C13.6747 25.8755 14.5485 26.2441 15.4597 26.2441ZM30.9194 22.7449C30.9194 21.8169 30.5574 20.9268 29.9132 20.2706C29.2689 19.6144 28.395 19.2457 27.4839 19.2457C26.5727 19.2457 25.6989 19.6144 25.0546 20.2706C24.4104 20.9268 24.0484 21.8169 24.0484 22.7449C24.0484 23.673 24.4104 24.563 25.0546 25.2192C25.6989 25.8755 26.5727 26.2441 27.4839 26.2441C28.395 26.2441 29.2689 25.8755 29.9132 25.2192C30.5574 24.563 30.9194 23.673 30.9194 22.7449ZM39.5081 26.2441C40.4193 26.2441 41.2931 25.8755 41.9374 25.2192C42.5816 24.563 42.9436 23.673 42.9436 22.7449C42.9436 21.8169 42.5816 20.9268 41.9374 20.2706C41.2931 19.6144 40.4193 19.2457 39.5081 19.2457C38.597 19.2457 37.7231 19.6144 37.0788 20.2706C36.4346 20.9268 36.0726 21.8169 36.0726 22.7449C36.0726 23.673 36.4346 24.563 37.0788 25.2192C37.7231 25.8755 38.597 26.2441 39.5081 26.2441Z" fill="#F6F6F6"/>
</svg>
