<svg width="646" height="167" viewBox="0 0 646 167" fill="none" xmlns="http://www.w3.org/2000/svg">
<path d="M62.88 143.439H48.384V86.9907H31.584C31.2 89.9347 30.784 93.1347 30.336 96.5907C29.952 100.047 29.504 103.567 28.992 107.151C28.544 110.671 28.064 114.031 27.552 117.231C27.04 120.367 26.528 123.151 26.016 125.583C25.184 129.551 24.064 132.943 22.656 135.759C21.312 138.575 19.424 140.719 16.992 142.191C14.624 143.663 11.52 144.399 7.68 144.399C6.4 144.399 5.184 144.303 4.032 144.111C2.88 143.919 1.792 143.663 0.768 143.343V131.439C1.6 131.695 2.4 131.919 3.168 132.111C4 132.303 4.896 132.399 5.856 132.399C7.136 132.399 8.192 131.983 9.024 131.151C9.856 130.319 10.592 128.911 11.232 126.927C11.872 124.879 12.512 122.063 13.152 118.479C13.472 116.943 13.856 114.767 14.304 111.951C14.752 109.071 15.264 105.711 15.84 101.871C16.48 97.9667 17.12 93.7427 17.76 89.1987C18.4 84.5907 19.008 79.8227 19.584 74.8947H62.88V143.439ZM142.379 109.071C142.379 114.383 141.707 119.215 140.363 123.567C139.083 127.855 137.099 131.567 134.411 134.703C131.787 137.839 128.395 140.239 124.235 141.903C120.139 143.567 115.307 144.399 109.739 144.399C104.171 144.399 99.3073 143.567 95.1473 141.903C91.0513 140.175 87.6593 137.775 84.9713 134.703C82.3473 131.567 80.3633 127.823 79.0193 123.471C77.7393 119.119 77.0993 114.287 77.0993 108.975C77.0993 101.871 78.2513 95.6947 80.5553 90.4467C82.9233 85.1987 86.5073 81.1347 91.3073 78.2547C96.1713 75.3107 102.347 73.8387 109.835 73.8387C117.259 73.8387 123.371 75.3107 128.171 78.2547C132.971 81.1347 136.523 85.2307 138.827 90.5427C141.195 95.7907 142.379 101.967 142.379 109.071ZM92.3633 109.071C92.3633 113.871 92.9713 117.999 94.1873 121.455C95.4033 124.911 97.2913 127.567 99.8513 129.423C102.411 131.279 105.707 132.207 109.739 132.207C113.899 132.207 117.227 131.279 119.723 129.423C122.283 127.567 124.139 124.911 125.291 121.455C126.507 117.999 127.115 113.871 127.115 109.071C127.115 101.839 125.771 96.1747 123.083 92.0787C120.395 87.9827 115.979 85.9347 109.835 85.9347C105.739 85.9347 102.411 86.8627 99.8513 88.7187C97.2913 90.5747 95.4033 93.2307 94.1873 96.6867C92.9713 100.143 92.3633 104.271 92.3633 109.071ZM212.738 143.439H198.242V113.871H171.074V143.439H156.578V74.8947H171.074V101.775H198.242V74.8947H212.738V143.439ZM283.648 74.8947V131.343H292.768V163.407H278.752V143.439H235.84V163.407H221.824V131.343H227.104C228.896 127.759 230.624 123.983 232.288 120.015C233.952 116.047 235.488 111.791 236.896 107.247C238.368 102.703 239.68 97.7747 240.832 92.4627C241.984 87.0867 242.944 81.2307 243.712 74.8947H283.648ZM255.232 86.9907C254.784 90.3187 254.144 93.8707 253.312 97.6467C252.48 101.359 251.488 105.167 250.336 109.071C249.248 112.975 248.032 116.815 246.688 120.591C245.344 124.367 243.904 127.951 242.368 131.343H269.152V86.9907H255.232ZM365.504 109.071C365.504 114.383 364.832 119.215 363.488 123.567C362.208 127.855 360.224 131.567 357.536 134.703C354.912 137.839 351.52 140.239 347.36 141.903C343.264 143.567 338.432 144.399 332.864 144.399C327.296 144.399 322.432 143.567 318.272 141.903C314.176 140.175 310.784 137.775 308.096 134.703C305.472 131.567 303.488 127.823 302.144 123.471C300.864 119.119 300.224 114.287 300.224 108.975C300.224 101.871 301.376 95.6947 303.68 90.4467C306.048 85.1987 309.632 81.1347 314.432 78.2547C319.296 75.3107 325.472 73.8387 332.96 73.8387C340.384 73.8387 346.496 75.3107 351.296 78.2547C356.096 81.1347 359.648 85.2307 361.952 90.5427C364.32 95.7907 365.504 101.967 365.504 109.071ZM315.488 109.071C315.488 113.871 316.096 117.999 317.312 121.455C318.528 124.911 320.416 127.567 322.976 129.423C325.536 131.279 328.832 132.207 332.864 132.207C337.024 132.207 340.352 131.279 342.848 129.423C345.408 127.567 347.264 124.911 348.416 121.455C349.632 117.999 350.24 113.871 350.24 109.071C350.24 101.839 348.896 96.1747 346.208 92.0787C343.52 87.9827 339.104 85.9347 332.96 85.9347C328.864 85.9347 325.536 86.8627 322.976 88.7187C320.416 90.5747 318.528 93.2307 317.312 96.6867C316.096 100.143 315.488 104.271 315.488 109.071ZM435.863 143.439H421.367V113.871H394.199V143.439H379.703V74.8947H394.199V101.775H421.367V74.8947H435.863V143.439ZM515.317 109.071C515.317 114.383 514.645 119.215 513.301 123.567C512.021 127.855 510.037 131.567 507.349 134.703C504.725 137.839 501.333 140.239 497.173 141.903C493.077 143.567 488.245 144.399 482.677 144.399C477.109 144.399 472.245 143.567 468.085 141.903C463.989 140.175 460.597 137.775 457.909 134.703C455.285 131.567 453.301 127.823 451.957 123.471C450.677 119.119 450.037 114.287 450.037 108.975C450.037 101.871 451.189 95.6947 453.493 90.4467C455.861 85.1987 459.445 81.1347 464.245 78.2547C469.109 75.3107 475.285 73.8387 482.773 73.8387C490.197 73.8387 496.309 75.3107 501.109 78.2547C505.909 81.1347 509.461 85.2307 511.765 90.5427C514.133 95.7907 515.317 101.967 515.317 109.071ZM465.301 109.071C465.301 113.871 465.909 117.999 467.125 121.455C468.341 124.911 470.229 127.567 472.789 129.423C475.349 131.279 478.645 132.207 482.677 132.207C486.837 132.207 490.165 131.279 492.661 129.423C495.221 127.567 497.077 124.911 498.229 121.455C499.445 117.999 500.053 113.871 500.053 109.071C500.053 101.839 498.709 96.1747 496.021 92.0787C493.333 87.9827 488.917 85.9347 482.773 85.9347C478.677 85.9347 475.349 86.8627 472.789 88.7187C470.229 90.5747 468.341 93.2307 467.125 96.6867C465.909 100.143 465.301 104.271 465.301 109.071ZM558.507 143.439L541.995 89.6787H541.611C541.675 90.9587 541.771 92.8787 541.899 95.4387C542.027 97.9987 542.155 100.751 542.283 103.695C542.411 106.575 542.475 109.199 542.475 111.567V143.439H529.515V74.8947H549.291L565.515 127.311H565.803L582.987 74.8947H602.763V143.439H589.227V110.991C589.227 108.815 589.259 106.319 589.323 103.503C589.451 100.687 589.547 98.0307 589.611 95.5347C589.739 92.9747 589.835 91.0547 589.899 89.7747H589.515L571.851 143.439H558.507Z" fill="#E6332A"/>
<path d="M284.916 78.4384L297.621 18.8375L241.106 13.3705L242.857 75.057C232.951 71.6082 226.817 67.9797 226.522 71.0212C226.07 75.6926 239.194 92.0002 259.728 93.9865C280.263 95.9729 300.433 82.886 300.885 78.2147C301.153 75.4508 294.582 77.0666 284.916 78.4384Z" fill="#022321"/>
<path d="M284.886 82.9011L242.828 79.5197L242.65 73.247L286.105 76.86L284.886 82.9011Z" fill="#DDA664"/>
<path d="M645.399 155.495L643.79 155.725L634.37 137.648L637.476 136.713L645.399 155.495Z" fill="#022321"/>
<path d="M625.913 89.3642C633.482 105.786 640.109 139.766 637.493 140.826C634.82 141.909 614.871 113.404 607.302 96.9821C599.732 80.5611 597.762 65.5441 602.901 63.4401C608.04 61.3381 618.343 72.9432 625.913 89.3642Z" fill="#022321"/>
<path d="M605.691 64.2451L601.945 67.0121L590.305 53.0981L603.416 47.5781L605.691 64.2451Z" fill="#022321"/>
<path d="M601.893 57.4371L600.355 58.0671L587.457 30.0891L588.996 29.4591L601.893 57.4371Z" fill="#022321"/>
<path d="M592.953 35.8382L584.626 17.3642C583.939 15.8392 584.667 14.0841 586.248 13.4521C587.83 12.8201 589.675 13.5461 590.362 15.0701L593.606 22.2661C595.614 25.0481 597.654 22.9541 596.614 20.8531L593.451 13.8362C592.024 10.6692 588.19 9.16115 584.906 10.4742C581.622 11.7872 580.111 15.4322 581.537 18.5992L589.827 36.9901C590.882 36.6411 591.92 36.2472 592.953 35.8382Z" fill="#990000"/>
<path d="M592.306 34.4021L589.234 35.6601L588.941 35.0241L592.013 33.7661L592.306 34.4021Z" fill="#022321"/>
<path d="M35.036 62H20.24V36.296H35.036V40.76H25.676V46.412H34.388V50.876H25.676V57.5H35.036V62ZM61.3365 62H55.1445L45.8205 48.968V62H40.3845V36.296H45.8205V48.752L55.0365 36.296H60.8325L51.4725 48.644L61.3365 62ZM74.7769 40.472C73.7449 40.472 72.8209 40.676 72.0049 41.084C71.2129 41.492 70.5409 42.08 69.9889 42.848C69.4369 43.592 69.0169 44.504 68.7289 45.584C68.4649 46.664 68.3329 47.876 68.3329 49.22C68.3329 51.044 68.5489 52.604 68.9809 53.9C69.4369 55.172 70.1449 56.144 71.1049 56.816C72.0649 57.488 73.2889 57.824 74.7769 57.824C75.8329 57.824 76.8769 57.704 77.9089 57.464C78.9649 57.224 80.1049 56.888 81.3289 56.456V61.028C80.2009 61.484 79.0849 61.82 77.9809 62.036C76.8769 62.252 75.6409 62.36 74.2729 62.36C71.6329 62.36 69.4489 61.82 67.7209 60.74C66.0169 59.636 64.7569 58.1 63.9409 56.132C63.1249 54.14 62.7169 51.824 62.7169 49.184C62.7169 47.24 62.9809 45.464 63.5089 43.856C64.0369 42.224 64.8049 40.82 65.8129 39.644C66.8449 38.468 68.1049 37.556 69.5929 36.908C71.1049 36.26 72.8329 35.936 74.7769 35.936C76.0489 35.936 77.3209 36.104 78.5929 36.44C79.8889 36.752 81.1249 37.184 82.3009 37.736L80.5369 42.164C79.5769 41.708 78.6049 41.312 77.6209 40.976C76.6609 40.64 75.7129 40.472 74.7769 40.472ZM107.743 62H101.551L92.2268 48.968V62H86.7908V36.296H92.2268V48.752L101.443 36.296H107.239L97.8788 48.644L107.743 62ZM123.65 54.476C122.93 56.108 122.162 57.524 121.346 58.724C120.554 59.9 119.534 60.8 118.286 61.424C117.038 62.048 115.406 62.36 113.39 62.36C112.766 62.36 112.082 62.312 111.338 62.216C110.594 62.12 109.91 61.988 109.286 61.82V57.14C109.862 57.38 110.498 57.548 111.194 57.644C111.89 57.74 112.538 57.788 113.138 57.788C113.93 57.788 114.566 57.656 115.046 57.392C115.55 57.128 115.946 56.768 116.234 56.312C116.546 55.832 116.798 55.316 116.99 54.764L108.098 36.296H113.858L118.646 47.42C118.766 47.66 118.91 47.972 119.078 48.356C119.246 48.74 119.414 49.136 119.582 49.544C119.75 49.952 119.882 50.312 119.978 50.624H120.158C120.254 50.336 120.374 49.988 120.518 49.58C120.686 49.148 120.854 48.716 121.022 48.284C121.214 47.828 121.382 47.432 121.526 47.096L125.99 36.296H131.606L123.65 54.476ZM143.057 36.296C146.369 36.296 148.781 37.016 150.293 38.456C151.829 39.872 152.597 41.828 152.597 44.324C152.597 45.452 152.429 46.532 152.093 47.564C151.757 48.572 151.193 49.484 150.401 50.3C149.633 51.092 148.613 51.716 147.341 52.172C146.069 52.628 144.497 52.856 142.625 52.856H140.285V62H134.849V36.296H143.057ZM142.769 40.76H140.285V48.392H142.085C143.117 48.392 144.005 48.26 144.749 47.996C145.493 47.732 146.069 47.312 146.477 46.736C146.885 46.16 147.089 45.416 147.089 44.504C147.089 43.232 146.741 42.296 146.045 41.696C145.349 41.072 144.257 40.76 142.769 40.76ZM168.363 40.472C167.331 40.472 166.407 40.676 165.591 41.084C164.799 41.492 164.127 42.08 163.575 42.848C163.023 43.592 162.603 44.504 162.315 45.584C162.051 46.664 161.919 47.876 161.919 49.22C161.919 51.044 162.135 52.604 162.567 53.9C163.023 55.172 163.731 56.144 164.691 56.816C165.651 57.488 166.875 57.824 168.363 57.824C169.419 57.824 170.463 57.704 171.495 57.464C172.551 57.224 173.691 56.888 174.915 56.456V61.028C173.787 61.484 172.671 61.82 171.567 62.036C170.463 62.252 169.227 62.36 167.859 62.36C165.219 62.36 163.035 61.82 161.307 60.74C159.603 59.636 158.343 58.1 157.527 56.132C156.711 54.14 156.303 51.824 156.303 49.184C156.303 47.24 156.567 45.464 157.095 43.856C157.623 42.224 158.391 40.82 159.399 39.644C160.431 38.468 161.691 37.556 163.179 36.908C164.691 36.26 166.419 35.936 168.363 35.936C169.635 35.936 170.907 36.104 172.179 36.44C173.475 36.752 174.711 37.184 175.887 37.736L174.123 42.164C173.163 41.708 172.191 41.312 171.207 40.976C170.247 40.64 169.299 40.472 168.363 40.472ZM189.989 62H178.289V58.904L181.421 57.464V40.832L178.289 39.392V36.296H189.989V39.392L186.857 40.832V57.464L189.989 58.904V62ZM203.981 62H192.281V58.904L195.413 57.464V40.832L192.281 39.392V36.296H203.981V39.392L200.849 40.832V57.464L203.981 58.904V62ZM192.101 31.256C192.101 30.416 192.341 29.816 192.821 29.456C193.301 29.072 193.877 28.88 194.549 28.88C195.221 28.88 195.797 29.072 196.277 29.456C196.781 29.816 197.033 30.416 197.033 31.256C197.033 32.048 196.781 32.636 196.277 33.02C195.797 33.404 195.221 33.596 194.549 33.596C193.877 33.596 193.301 33.404 192.821 33.02C192.341 32.636 192.101 32.048 192.101 31.256ZM199.193 31.256C199.193 30.416 199.433 29.816 199.913 29.456C200.393 29.072 200.981 28.88 201.677 28.88C202.349 28.88 202.925 29.072 203.405 29.456C203.909 29.816 204.161 30.416 204.161 31.256C204.161 32.048 203.909 32.636 203.405 33.02C202.925 33.404 202.349 33.596 201.677 33.596C201.005 33.596 200.417 33.404 199.913 33.02C199.433 32.636 199.193 32.048 199.193 31.256Z" fill="#022321"/>
<path d="M29.648 22L28.4 17.92H22.16L20.912 22H17L23.048 4.792H27.488L33.56 22H29.648ZM26.288 10.888C26.208 10.616 26.104 10.272 25.976 9.856C25.848 9.44 25.72 9.016 25.592 8.584C25.464 8.152 25.36 7.776 25.28 7.456C25.2 7.776 25.088 8.176 24.944 8.656C24.816 9.12 24.688 9.568 24.56 10C24.448 10.416 24.36 10.712 24.296 10.888L23.072 14.872H27.536L26.288 10.888ZM41.0583 4.864C42.5783 4.864 43.8503 5.008 44.8743 5.296C45.9143 5.568 46.6903 6.024 47.2023 6.664C47.7303 7.288 47.9943 8.136 47.9943 9.208C47.9943 9.848 47.8903 10.432 47.6823 10.96C47.4743 11.488 47.1703 11.92 46.7703 12.256C46.3863 12.592 45.9143 12.808 45.3543 12.904V13.024C45.9303 13.136 46.4503 13.336 46.9143 13.624C47.3783 13.912 47.7463 14.328 48.0183 14.872C48.2903 15.416 48.4263 16.136 48.4263 17.032C48.4263 18.072 48.1703 18.968 47.6583 19.72C47.1623 20.456 46.4423 21.024 45.4983 21.424C44.5543 21.808 43.4343 22 42.1383 22H35.7303V4.864H41.0583ZM41.4663 11.656C42.5223 11.656 43.2503 11.488 43.6503 11.152C44.0663 10.816 44.2743 10.328 44.2743 9.688C44.2743 9.032 44.0343 8.56 43.5543 8.272C43.0743 7.984 42.3143 7.84 41.2743 7.84H39.3543V11.656H41.4663ZM39.3543 14.536V19H41.7303C42.8183 19 43.5783 18.792 44.0103 18.376C44.4423 17.944 44.6583 17.376 44.6583 16.672C44.6583 16.24 44.5623 15.864 44.3703 15.544C44.1943 15.224 43.8823 14.976 43.4343 14.8C42.9863 14.624 42.3783 14.536 41.6103 14.536H39.3543ZM58.4553 22H54.8313V7.888H50.1753V4.864H63.1113V7.888H58.4553V22ZM80.837 13.408C80.837 14.736 80.669 15.944 80.333 17.032C80.013 18.104 79.517 19.032 78.845 19.816C78.189 20.6 77.341 21.2 76.301 21.616C75.277 22.032 74.069 22.24 72.677 22.24C71.285 22.24 70.069 22.032 69.029 21.616C68.005 21.184 67.157 20.584 66.485 19.816C65.829 19.032 65.333 18.096 64.997 17.008C64.677 15.92 64.517 14.712 64.517 13.384C64.517 11.608 64.805 10.064 65.381 8.752C65.973 7.44 66.869 6.424 68.069 5.704C69.285 4.968 70.829 4.6 72.701 4.6C74.557 4.6 76.085 4.968 77.285 5.704C78.485 6.424 79.373 7.448 79.949 8.776C80.541 10.088 80.837 11.632 80.837 13.408ZM68.333 13.408C68.333 14.608 68.485 15.64 68.789 16.504C69.093 17.368 69.565 18.032 70.205 18.496C70.845 18.96 71.669 19.192 72.677 19.192C73.717 19.192 74.549 18.96 75.173 18.496C75.813 18.032 76.277 17.368 76.565 16.504C76.869 15.64 77.021 14.608 77.021 13.408C77.021 11.6 76.685 10.184 76.013 9.16C75.341 8.136 74.237 7.624 72.701 7.624C71.677 7.624 70.845 7.856 70.205 8.32C69.565 8.784 69.093 9.448 68.789 10.312C68.485 11.176 68.333 12.208 68.333 13.408ZM89.8586 4.864C92.0666 4.864 93.6746 5.344 94.6826 6.304C95.7066 7.248 96.2186 8.552 96.2186 10.216C96.2186 10.968 96.1066 11.688 95.8826 12.376C95.6586 13.048 95.2826 13.656 94.7546 14.2C94.2426 14.728 93.5626 15.144 92.7146 15.448C91.8666 15.752 90.8186 15.904 89.5706 15.904H88.0106V22H84.3866V4.864H89.8586ZM89.6666 7.84H88.0106V12.928H89.2106C89.8986 12.928 90.4906 12.84 90.9866 12.664C91.4826 12.488 91.8666 12.208 92.1386 11.824C92.4106 11.44 92.5466 10.944 92.5466 10.336C92.5466 9.488 92.3146 8.864 91.8506 8.464C91.3866 8.048 90.6586 7.84 89.6666 7.84ZM106.729 7.648C106.041 7.648 105.425 7.784 104.881 8.056C104.353 8.328 103.905 8.72 103.537 9.232C103.169 9.728 102.889 10.336 102.697 11.056C102.521 11.776 102.433 12.584 102.433 13.48C102.433 14.696 102.577 15.736 102.865 16.6C103.169 17.448 103.641 18.096 104.281 18.544C104.921 18.992 105.737 19.216 106.729 19.216C107.433 19.216 108.129 19.136 108.817 18.976C109.521 18.816 110.281 18.592 111.097 18.304V21.352C110.345 21.656 109.601 21.88 108.865 22.024C108.129 22.168 107.305 22.24 106.393 22.24C104.633 22.24 103.177 21.88 102.025 21.16C100.889 20.424 100.049 19.4 99.5049 18.088C98.9609 16.76 98.6889 15.216 98.6889 13.456C98.6889 12.16 98.8649 10.976 99.2169 9.904C99.5689 8.816 100.081 7.88 100.753 7.096C101.441 6.312 102.281 5.704 103.273 5.272C104.281 4.84 105.433 4.624 106.729 4.624C107.577 4.624 108.425 4.736 109.273 4.96C110.137 5.168 110.961 5.456 111.745 5.824L110.569 8.776C109.929 8.472 109.281 8.208 108.625 7.984C107.985 7.76 107.353 7.648 106.729 7.648ZM114.738 22V4.864H118.362V11.44H119.802C121.418 11.44 122.738 11.664 123.762 12.112C124.802 12.56 125.57 13.176 126.066 13.96C126.562 14.744 126.81 15.64 126.81 16.648C126.81 17.768 126.562 18.728 126.066 19.528C125.57 20.328 124.802 20.944 123.762 21.376C122.722 21.792 121.378 22 119.73 22H114.738ZM119.586 19.024C120.69 19.024 121.554 18.848 122.178 18.496C122.818 18.144 123.138 17.528 123.138 16.648C123.138 16.04 122.978 15.576 122.658 15.256C122.354 14.936 121.914 14.72 121.338 14.608C120.778 14.48 120.098 14.416 119.298 14.416H118.362V19.024H119.586ZM144.011 22H139.883L133.667 13.312V22H130.043V4.864H133.667V13.168L139.811 4.864H143.675L137.435 13.096L144.011 22ZM152.576 22H144.776V19.936L146.864 18.976V7.888L144.776 6.928V4.864H152.576V6.928L150.488 7.888V18.976L152.576 19.936V22Z" fill="#E6332A"/>
</svg>
