<svg width="108" height="20" viewBox="0 0 108 20" fill="none" xmlns="http://www.w3.org/2000/svg">
<path d="M11.0881 0.681745C10.8873 0.265123 10.4631 0 9.99728 0C9.53142 0 9.11101 0.265123 8.90649 0.681745L6.47114 5.69257L1.03233 6.49552C0.577834 6.56369 0.199086 6.88184 0.05895 7.3174C-0.0811866 7.75296 0.0324375 8.23397 0.35816 8.5559L4.30471 12.4608L3.37299 17.9791C3.29724 18.4336 3.48661 18.8957 3.86157 19.1646C4.23653 19.4335 4.73269 19.4676 5.14174 19.2517L10.0011 16.6573L14.8604 19.2517C15.2694 19.4676 15.7656 19.4373 16.1406 19.1646C16.5155 18.8919 16.7049 18.4336 16.6291 17.9791L15.6936 12.4608L19.6402 8.5559C19.9659 8.23397 20.0833 7.75296 19.9394 7.3174C19.7955 6.88184 19.4205 6.56369 18.966 6.49552L13.5234 5.69257L11.0881 0.681745Z" fill="#E6332A"/>
<path d="M33.0881 0.681745C32.8873 0.265123 32.4631 0 31.9973 0C31.5314 0 31.111 0.265123 30.9065 0.681745L28.4711 5.69257L23.0323 6.49552C22.5778 6.56369 22.1991 6.88184 22.0589 7.3174C21.9188 7.75296 22.0324 8.23397 22.3582 8.5559L26.3047 12.4608L25.373 17.9791C25.2972 18.4336 25.4866 18.8957 25.8616 19.1646C26.2365 19.4335 26.7327 19.4676 27.1417 19.2517L32.0011 16.6573L36.8604 19.2517C37.2694 19.4676 37.7656 19.4373 38.1406 19.1646C38.5155 18.8919 38.7049 18.4336 38.6291 17.9791L37.6936 12.4608L41.6402 8.5559C41.9659 8.23397 42.0833 7.75296 41.9394 7.3174C41.7955 6.88184 41.4205 6.56369 40.966 6.49552L35.5234 5.69257L33.0881 0.681745Z" fill="#E6332A"/>
<path d="M55.0881 0.681745C54.8873 0.265123 54.4631 0 53.9973 0C53.5314 0 53.111 0.265123 52.9065 0.681745L50.4711 5.69257L45.0323 6.49552C44.5778 6.56369 44.1991 6.88184 44.0589 7.3174C43.9188 7.75296 44.0324 8.23397 44.3582 8.5559L48.3047 12.4608L47.373 17.9791C47.2972 18.4336 47.4866 18.8957 47.8616 19.1646C48.2365 19.4335 48.7327 19.4676 49.1417 19.2517L54.0011 16.6573L58.8604 19.2517C59.2694 19.4676 59.7656 19.4373 60.1406 19.1646C60.5155 18.8919 60.7049 18.4336 60.6291 17.9791L59.6936 12.4608L63.6402 8.5559C63.9659 8.23397 64.0833 7.75296 63.9394 7.3174C63.7955 6.88184 63.4205 6.56369 62.966 6.49552L57.5234 5.69257L55.0881 0.681745Z" fill="#E6332A"/>
<path d="M77.0881 0.681745C76.8873 0.265123 76.4631 0 75.9973 0C75.5314 0 75.111 0.265123 74.9065 0.681745L72.4711 5.69257L67.0323 6.49552C66.5778 6.56369 66.1991 6.88184 66.0589 7.3174C65.9188 7.75296 66.0324 8.23397 66.3582 8.5559L70.3047 12.4608L69.373 17.9791C69.2972 18.4336 69.4866 18.8957 69.8616 19.1646C70.2365 19.4335 70.7327 19.4676 71.1417 19.2517L76.0011 16.6573L80.8604 19.2517C81.2694 19.4676 81.7656 19.4373 82.1406 19.1646C82.5155 18.8919 82.7049 18.4336 82.6291 17.9791L81.6936 12.4608L85.6402 8.5559C85.9659 8.23397 86.0833 7.75296 85.9394 7.3174C85.7955 6.88184 85.4205 6.56369 84.966 6.49552L79.5234 5.69257L77.0881 0.681745Z" fill="#E6332A"/>
<path d="M99.0881 0.681745C98.8873 0.265123 98.4631 0 97.9973 0C97.5314 0 97.111 0.265123 96.9065 0.681745L94.4711 5.69257L89.0323 6.49552C88.5778 6.56369 88.1991 6.88184 88.0589 7.3174C87.9188 7.75296 88.0324 8.23397 88.3582 8.5559L92.3047 12.4608L91.373 17.9791C91.2972 18.4336 91.4866 18.8957 91.8616 19.1646C92.2365 19.4335 92.7327 19.4676 93.1417 19.2517L98.0011 16.6573L102.86 19.2517C103.269 19.4676 103.766 19.4373 104.141 19.1646C104.516 18.8919 104.705 18.4336 104.629 17.9791L103.694 12.4608L107.64 8.5559C107.966 8.23397 108.083 7.75296 107.939 7.3174C107.795 6.88184 107.421 6.56369 106.966 6.49552L101.523 5.69257L99.0881 0.681745Z" fill="#E6332A"/>
</svg>
