<svg width="44" height="32" viewBox="0 0 44 32" fill="none" xmlns="http://www.w3.org/2000/svg">
<path fill-rule="evenodd" clip-rule="evenodd" d="M43.3712 8.75146L10.782 0L3.85059 22.4851L36.4393 31.237L43.3712 8.75146Z" fill="#20397D"/>
<path fill-rule="evenodd" clip-rule="evenodd" d="M43.3713 8.75146L10.7821 0L0 18.5649L32.5887 27.3169L43.3713 8.75146Z" fill="#20397D"/>
<path fill-rule="evenodd" clip-rule="evenodd" d="M42.2801 10.6299L24.9831 14.5438L33.6795 25.438L32.5887 27.3164L29.291 26.4311L20.5947 15.5369L3.29717 19.4503L0 18.5649L1.09077 16.6865L18.3883 12.7726L9.69138 1.87843L10.7821 0L14.0798 0.885344L22.7767 11.7795L40.0737 7.86563L43.3713 8.75146L42.2801 10.6299Z" fill="white"/>
<path fill-rule="evenodd" clip-rule="evenodd" d="M32.5618 27.2986L21.68 13.6675L21.0298 14.7874L30.6063 26.7844L32.5618 27.2986Z" fill="#E6332A"/>
<path fill-rule="evenodd" clip-rule="evenodd" d="M0.0297852 18.5123L21.6788 13.6517L20.8983 12.854L0.679546 17.3937L0.0297852 18.5123Z" fill="#E6332A"/>
<path fill-rule="evenodd" clip-rule="evenodd" d="M43.3405 8.80359L21.6919 13.6646L22.4724 14.4623L42.6907 9.92212L43.3405 8.80359Z" fill="#E6332A"/>
<path fill-rule="evenodd" clip-rule="evenodd" d="M10.8096 0.0177612L21.6908 13.6489L22.3415 12.5289L12.7646 0.532005L10.8096 0.0177612Z" fill="#E6332A"/>
<path fill-rule="evenodd" clip-rule="evenodd" d="M30.3022 5.24179L23.8511 3.5094L20.1972 9.80018L7.12862 6.29088L3.65332 12.2743L16.7223 15.7836L13.0684 22.0748L19.5196 23.8072L23.1735 17.5164L36.2425 21.0257L39.7173 15.0423L26.6488 11.533L30.3022 5.24179Z" fill="white"/>
<path fill-rule="evenodd" clip-rule="evenodd" d="M6.45741 7.44617L4.32471 11.1188L18.6391 14.9627L14.3144 22.4089L18.2743 23.4724L22.599 16.0262L36.9134 19.8702L39.0466 16.1976L24.7322 12.3536L29.0569 4.90745L25.097 3.84399L20.7723 11.2902L6.45741 7.44617Z" fill="#E6332A"/>
</svg>
