<svg width="65" height="146" viewBox="0 0 65 146" fill="none" xmlns="http://www.w3.org/2000/svg">
<path d="M64.3994 145.495L62.7904 145.725L53.3704 127.648L56.4764 126.713L64.3994 145.495Z" fill="#022321"/>
<path d="M44.9132 79.3642C52.4822 95.7862 59.1092 129.766 56.4932 130.826C53.8202 131.909 33.8712 103.404 26.3022 86.9821C18.7322 70.5611 16.7622 55.5441 21.9012 53.4401C27.0402 51.3381 37.3432 62.9432 44.9132 79.3642Z" fill="#022321"/>
<path d="M24.6912 54.2451L20.9452 57.0121L9.30518 43.0981L22.4162 37.5781L24.6912 54.2451Z" fill="#022321"/>
<path d="M20.8933 47.4371L19.3553 48.0671L6.45728 20.0891L7.99628 19.4591L20.8933 47.4371Z" fill="#022321"/>
<path d="M11.9533 25.8382L3.62625 7.36415C2.93925 5.83915 3.66726 4.08415 5.24826 3.45215C6.83026 2.82015 8.67526 3.54614 9.36226 5.07015L12.6063 12.2661C14.6143 15.0481 16.6543 12.9541 15.6143 10.8531L12.4513 3.83615C11.0243 0.669152 7.19026 -0.838848 3.90626 0.474152C0.622262 1.78715 -0.888741 5.43215 0.537259 8.59915L8.82725 26.9901C9.88225 26.6411 10.9203 26.2472 11.9533 25.8382Z" fill="#990000"/>
<path d="M11.3062 24.4021L8.23416 25.6601L7.94116 25.0241L11.0132 23.7661L11.3062 24.4021Z" fill="#022321"/>
</svg>
